M48
; DRILL file {KiCad 9.0.6} date 2026-03-03T10:01:25+0000
; FORMAT={-:-/ absolute / metric / decimal}
; #@! TF.CreationDate,2026-03-03T10:01:25+00:00
; #@! TF.GenerationSoftware,Kicad,Pcbnew,9.0.6
; #@! TF.FileFunction,Plated,1,6,PTH
FMAT,2
METRIC
; #@! TA.AperFunction,Plated,PTH,ViaDrill
T1C0.300
; #@! TA.AperFunction,Plated,PTH,ComponentDrill
T2C1.016
; #@! TA.AperFunction,Plated,PTH,ComponentDrill
T3C1.400
; #@! TA.AperFunction,Plated,PTH,ComponentDrill
T4C1.800
%
G90
G05
T1
X123.069Y-85.223
X123.069Y-85.865
X123.095Y-86.575
X124.0Y-96.5
X124.0Y-107.5
X124.462Y-87.971
X124.478Y-83.856
X125.169Y-87.962
X125.187Y-83.831
X125.219Y-102.029
X125.232Y-104.554
X125.249Y-99.533
X125.25Y-103.25
X125.269Y-100.756
X125.829Y-83.831
X125.876Y-87.971
X126.3Y-91.013
X126.926Y-75.704
X126.932Y-109.544
X127.014Y-80.581
X127.014Y-114.581
X127.029Y-91.01
X127.231Y-86.869
X127.244Y-85.021
X127.5Y-117.0
X128.094Y-85.034
X128.107Y-86.86
X128.4Y-99.841
X128.4Y-101.259
X128.569Y-75.704
X128.574Y-109.568
X128.676Y-80.62
X128.676Y-114.62
X128.938Y-86.887
X129.0Y-85.0
X129.0Y-102.75
X129.086Y-87.408
X129.5Y-84.0
X129.5Y-108.0
X130.207Y-79.919
X130.207Y-113.919
X130.285Y-76.472
X130.285Y-110.472
X130.5Y-84.0
X130.926Y-78.204
X130.926Y-112.204
X130.986Y-105.379
X131.0Y-117.0
X133.25Y-98.25
X133.25Y-103.25
X133.254Y-106.7
X133.268Y-115.45
X133.38Y-96.12
X133.42Y-93.58
X133.5Y-88.5
X134.25Y-101.25
X135.0Y-119.551
X135.0Y-104.5
X138.0Y-115.5
X138.137Y-119.137
X138.234Y-110.767
X138.885Y-104.435
X138.938Y-117.908
X139.0Y-119.137
X139.25Y-116.5
X140.0Y-112.0
X140.066Y-121.605
X141.5Y-106.5
X142.462Y-103.962
X142.828Y-88.913
X143.0Y-87.5
X143.0Y-92.0
X143.0Y-94.0
X143.009Y-101.336
X143.061Y-99.763
X143.5Y-121.0
X143.555Y-114.29
X143.573Y-113.249
X144.5Y-105.5
X146.5Y-98.0
X146.5Y-101.25
X146.5Y-104.0
X149.205Y-105.86
X149.5Y-117.0
X150.5Y-86.0
X150.5Y-88.5
X150.5Y-91.04
X150.504Y-96.128
X150.943Y-106.431
X151.0Y-104.25
X152.0Y-109.5
X152.0Y-110.5
X152.5Y-101.25
X152.514Y-91.4
X152.931Y-120.73
X153.0Y-94.0
X153.0Y-97.5
X153.0Y-100.0
X153.0Y-118.0
X153.008Y-118.841
X153.164Y-89.231
X153.235Y-121.532
X153.25Y-87.75
X153.285Y-81.567
X153.285Y-82.421
X153.5Y-102.5
X153.5Y-109.5
X153.5Y-110.5
X154.0Y-114.0
X154.0Y-118.0
X154.008Y-118.841
X154.069Y-120.729
X154.372Y-121.53
X154.5Y-117.0
X154.75Y-87.714
X154.986Y-118.829
X155.0Y-105.993
X155.0Y-109.5
X155.0Y-110.5
X155.0Y-118.0
X155.039Y-120.746
X155.053Y-92.372
X155.139Y-95.702
X155.303Y-121.471
X155.304Y-101.047
X155.33Y-91.622
X155.723Y-97.966
X155.814Y-90.985
X155.905Y-120.762
X156.0Y-105.993
X156.308Y-121.5
X156.323Y-96.042
X156.5Y-113.0
X156.755Y-120.786
X156.895Y-86.918
X157.0Y-99.5
X157.0Y-105.993
X157.25Y-118.826
X157.372Y-121.5
X157.402Y-107.598
X157.747Y-120.738
X157.75Y-86.895
X157.986Y-118.793
X158.0Y-81.576
X158.0Y-113.5
X158.372Y-121.245
X158.38Y-105.975
X158.413Y-95.208
X158.461Y-98.17
X158.461Y-93.461
X158.5Y-92.5
X158.626Y-86.923
X158.643Y-90.583
X158.789Y-118.804
X158.851Y-120.722
X158.861Y-118.243
X158.974Y-108.669
X159.0Y-81.576
X159.25Y-102.108
X159.452Y-92.298
X159.5Y-94.5
X159.5Y-109.5
X159.5Y-110.5
X159.521Y-118.8
X159.522Y-84.2
X159.68Y-89.844
X159.693Y-120.706
X159.774Y-86.799
X160.0Y-67.0
X160.0Y-68.781
X160.0Y-70.281
X160.0Y-71.781
X160.0Y-73.281
X160.0Y-112.5
X160.165Y-98.32
X160.336Y-118.819
X160.603Y-89.952
X160.991Y-72.381
X161.0Y-109.5
X161.0Y-110.5
X161.049Y-84.116
X161.079Y-76.556
X161.079Y-77.556
X161.079Y-79.556
X161.079Y-80.556
X161.282Y-82.577
X161.444Y-118.307
X161.5Y-90.0
X161.5Y-91.5
X161.5Y-106.0
X161.539Y-121.319
X161.811Y-68.549
X161.919Y-67.366
X162.475Y-90.0
X162.484Y-95.145
X162.5Y-109.5
X162.5Y-110.5
X163.094Y-99.307
X163.121Y-89.471
X163.144Y-105.419
X163.172Y-122.301
X163.219Y-117.278
X163.5Y-93.0
X163.51Y-95.25
X163.734Y-90.895
X163.883Y-89.714
X163.98Y-80.433
X163.984Y-99.395
X164.225Y-115.5
X164.672Y-67.484
X164.672Y-68.292
X164.782Y-82.577
X164.874Y-87.159
X164.907Y-84.967
X165.07Y-119.8
X165.521Y-88.884
X165.913Y-68.247
X166.0Y-67.281
X166.0Y-84.5
X166.0Y-113.0
X166.092Y-81.539
X166.397Y-77.042
X166.5Y-71.931
X166.734Y-87.395
X167.147Y-78.292
X167.4Y-68.007
X167.403Y-115.636
X167.598Y-102.729
X167.684Y-87.645
X167.725Y-111.275
X168.088Y-89.46
X168.484Y-96.395
X168.857Y-69.676
X168.919Y-73.012
X169.0Y-113.5
X169.174Y-72.385
X169.5Y-66.5
X169.5Y-116.0
X170.22Y-97.998
X170.259Y-89.33
X170.38Y-93.678
X170.383Y-92.623
X170.397Y-91.438
X170.4Y-90.383
X170.5Y-95.0
X170.878Y-78.05
X170.878Y-112.05
X171.081Y-72.396
X171.11Y-73.21
X171.519Y-79.782
X171.519Y-113.782
X171.597Y-76.336
X171.597Y-110.336
X173.128Y-75.635
X173.128Y-109.635
X173.235Y-80.55
X173.235Y-114.55
X173.39Y-98.5
X173.425Y-95.136
X174.79Y-75.674
X174.79Y-109.674
X174.878Y-80.55
X174.878Y-114.55
X176.0Y-100.0
X176.399Y-97.449
X177.0Y-94.5
X177.0Y-103.0
T2
X172.132Y-83.693
X172.132Y-86.233
X172.132Y-88.773
X172.132Y-91.313
X172.132Y-93.853
X172.132Y-96.393
X172.132Y-98.933
X172.132Y-101.473
X172.132Y-104.013
X172.132Y-106.553
X174.672Y-83.693
X174.672Y-86.233
X174.672Y-88.773
X174.672Y-91.313
X174.672Y-93.853
X174.672Y-96.393
X174.672Y-98.933
X174.672Y-101.473
X174.672Y-104.013
X174.672Y-106.553
T3
X122.625Y-83.389
X122.625Y-88.489
X125.175Y-85.939
X127.725Y-83.389
X127.725Y-88.489
T4
X144.0Y-72.296
X144.0Y-77.796
X148.2Y-72.296
X148.2Y-77.796
M30
