%TF.GenerationSoftware,KiCad,Pcbnew,9.0.6*%
%TF.CreationDate,2026-03-03T10:01:28+00:00*%
%TF.ProjectId,teachtaire,74656163-6874-4616-9972-652e6b696361,rev?*%
%TF.SameCoordinates,Original*%
%TF.FileFunction,Soldermask,Bot*%
%TF.FilePolarity,Negative*%
%FSLAX46Y46*%
G04 Gerber Fmt 4.6, Leading zero omitted, Abs format (unit mm)*
G04 Created by KiCad (PCBNEW 9.0.6) date 2026-03-03 10:01:28*
%MOMM*%
%LPD*%
G01*
G04 APERTURE LIST*
G04 Aperture macros list*
%AMRoundRect*
0 Rectangle with rounded corners*
0 $1 Rounding radius*
0 $2 $3 $4 $5 $6 $7 $8 $9 X,Y pos of 4 corners*
0 Add a 4 corners polygon primitive as box body*
4,1,4,$2,$3,$4,$5,$6,$7,$8,$9,$2,$3,0*
0 Add four circle primitives for the rounded corners*
1,1,$1+$1,$2,$3*
1,1,$1+$1,$4,$5*
1,1,$1+$1,$6,$7*
1,1,$1+$1,$8,$9*
0 Add four rect primitives between the rounded corners*
20,1,$1+$1,$2,$3,$4,$5,0*
20,1,$1+$1,$4,$5,$6,$7,0*
20,1,$1+$1,$6,$7,$8,$9,0*
20,1,$1+$1,$8,$9,$2,$3,0*%
G04 Aperture macros list end*
%ADD10C,3.100000*%
%ADD11C,1.676200*%
%ADD12C,1.226200*%
%ADD13C,0.010000*%
%ADD14RoundRect,0.200100X0.949900X-0.949900X0.949900X0.949900X-0.949900X0.949900X-0.949900X-0.949900X0*%
%ADD15C,2.200000*%
%ADD16C,3.200000*%
%ADD17RoundRect,0.102000X0.762000X-0.762000X0.762000X0.762000X-0.762000X0.762000X-0.762000X-0.762000X0*%
%ADD18C,1.728000*%
G04 APERTURE END LIST*
D10*
X129898384Y-112082906D02*
G75*
G02*
X126798384Y-112082906I-1550000J0D01*
G01*
X126798384Y-112082906D02*
G75*
G02*
X129898384Y-112082906I1550000J0D01*
G01*
X174943026Y-112082906D02*
G75*
G02*
X171843026Y-112082906I-1550000J0D01*
G01*
X171843026Y-112082906D02*
G75*
G02*
X174943026Y-112082906I1550000J0D01*
G01*
X129898384Y-78141780D02*
G75*
G02*
X126798384Y-78141780I-1550000J0D01*
G01*
X126798384Y-78141780D02*
G75*
G02*
X129898384Y-78141780I1550000J0D01*
G01*
X174943026Y-78141780D02*
G75*
G02*
X171843026Y-78141780I-1550000J0D01*
G01*
X171843026Y-78141780D02*
G75*
G02*
X174943026Y-78141780I1550000J0D01*
G01*
D11*
%TO.C,J1*%
X140338100Y-68096138D02*
G75*
G02*
X138661900Y-68096138I-838100J0D01*
G01*
X138661900Y-68096138D02*
G75*
G02*
X140338100Y-68096138I838100J0D01*
G01*
D12*
X144613100Y-77796138D02*
G75*
G02*
X143386900Y-77796138I-613100J0D01*
G01*
X143386900Y-77796138D02*
G75*
G02*
X144613100Y-77796138I613100J0D01*
G01*
X148813100Y-72296138D02*
G75*
G02*
X147586900Y-72296138I-613100J0D01*
G01*
X147586900Y-72296138D02*
G75*
G02*
X148813100Y-72296138I613100J0D01*
G01*
X148813100Y-77796138D02*
G75*
G02*
X147586900Y-77796138I-613100J0D01*
G01*
X147586900Y-77796138D02*
G75*
G02*
X148813100Y-77796138I613100J0D01*
G01*
D11*
X153538100Y-68096138D02*
G75*
G02*
X151861900Y-68096138I-838100J0D01*
G01*
X151861900Y-68096138D02*
G75*
G02*
X153538100Y-68096138I838100J0D01*
G01*
D13*
X145226200Y-73522338D02*
X142773800Y-73522338D01*
X142773800Y-71069938D01*
X145226200Y-71069938D01*
X145226200Y-73522338D01*
G36*
X145226200Y-73522338D02*
G01*
X142773800Y-73522338D01*
X142773800Y-71069938D01*
X145226200Y-71069938D01*
X145226200Y-73522338D01*
G37*
%TD*%
D14*
%TO.C,J3*%
X125175000Y-85939021D03*
D15*
X122625000Y-88489021D03*
X127725000Y-88489021D03*
X122625000Y-83389021D03*
X127725000Y-83389021D03*
%TD*%
D16*
%TO.C,J1*%
X152700000Y-68096138D03*
X139500000Y-68096138D03*
%TD*%
D17*
%TO.C,J2*%
X174672265Y-83692548D03*
D18*
X172132265Y-83692548D03*
X174672265Y-86232548D03*
X172132265Y-86232548D03*
X174672265Y-88772548D03*
X172132265Y-88772548D03*
X174672265Y-91312548D03*
X172132265Y-91312548D03*
X174672265Y-93852548D03*
X172132265Y-93852548D03*
X174672265Y-96392548D03*
X172132265Y-96392548D03*
X174672265Y-98932548D03*
X172132265Y-98932548D03*
X174672265Y-101472548D03*
X172132265Y-101472548D03*
X174672265Y-104012548D03*
X172132265Y-104012548D03*
X174672265Y-106552548D03*
X172132265Y-106552548D03*
%TD*%
M02*
