%TF.GenerationSoftware,KiCad,Pcbnew,9.0.6*%
%TF.CreationDate,2026-03-03T10:01:28+00:00*%
%TF.ProjectId,teachtaire,74656163-6874-4616-9972-652e6b696361,rev?*%
%TF.SameCoordinates,Original*%
%TF.FileFunction,Profile,NP*%
%FSLAX46Y46*%
G04 Gerber Fmt 4.6, Leading zero omitted, Abs format (unit mm)*
G04 Created by KiCad (PCBNEW 9.0.6) date 2026-03-03 10:01:28*
%MOMM*%
%LPD*%
G01*
G04 APERTURE LIST*
%TA.AperFunction,Profile*%
%ADD10C,0.200000*%
%TD*%
G04 APERTURE END LIST*
D10*
X180880097Y-79749561D02*
X173402418Y-79749561D01*
X120880097Y-113690687D02*
X120880097Y-125120124D01*
X180880097Y-76549561D02*
X180880097Y-65120124D01*
X120880097Y-110490687D02*
X128357777Y-110490687D01*
X173402418Y-110490687D02*
X180880097Y-110490687D01*
X141080097Y-65120124D02*
X120880097Y-65120124D01*
X180880097Y-125120124D02*
X180880097Y-113690687D01*
X120880097Y-125120124D02*
X180880097Y-125120124D01*
X173402418Y-79749561D02*
G75*
G02*
X173402418Y-76549639I-18J1599961D01*
G01*
X120880097Y-79749561D02*
X120880097Y-110490687D01*
X173402418Y-113690687D02*
G75*
G02*
X173402418Y-110490713I82J1599987D01*
G01*
X128357777Y-76549561D02*
G75*
G02*
X128353778Y-79749634I23J-1600039D01*
G01*
X180880097Y-65120124D02*
X160680097Y-65120124D01*
X180880097Y-113690687D02*
X173402418Y-113690687D01*
X128357776Y-113690687D02*
X120880097Y-113690687D01*
X128357777Y-110490687D02*
G75*
G02*
X128357776Y-113690713I123J-1600013D01*
G01*
X120880097Y-65120124D02*
X120880097Y-76549561D01*
X173402418Y-76549561D02*
X180880097Y-76549561D01*
X128353778Y-79749561D02*
X120880097Y-79749561D01*
X120880097Y-76549561D02*
X128357777Y-76549561D01*
X180880097Y-110490687D02*
X180880097Y-79749561D01*
X141080097Y-65120124D02*
X160680097Y-65120124D01*
M02*
