%TF.GenerationSoftware,KiCad,Pcbnew,9.0.6*%
%TF.CreationDate,2026-03-24T16:45:30+00:00*%
%TF.ProjectId,teachtaire,74656163-6874-4616-9972-652e6b696361,rev?*%
%TF.SameCoordinates,Original*%
%TF.FileFunction,Paste,Top*%
%TF.FilePolarity,Positive*%
%FSLAX46Y46*%
G04 Gerber Fmt 4.6, Leading zero omitted, Abs format (unit mm)*
G04 Created by KiCad (PCBNEW 9.0.6) date 2026-03-24 16:45:30*
%MOMM*%
%LPD*%
G01*
G04 APERTURE LIST*
G04 Aperture macros list*
%AMRoundRect*
0 Rectangle with rounded corners*
0 $1 Rounding radius*
0 $2 $3 $4 $5 $6 $7 $8 $9 X,Y pos of 4 corners*
0 Add a 4 corners polygon primitive as box body*
4,1,4,$2,$3,$4,$5,$6,$7,$8,$9,$2,$3,0*
0 Add four circle primitives for the rounded corners*
1,1,$1+$1,$2,$3*
1,1,$1+$1,$4,$5*
1,1,$1+$1,$6,$7*
1,1,$1+$1,$8,$9*
0 Add four rect primitives between the rounded corners*
20,1,$1+$1,$2,$3,$4,$5,0*
20,1,$1+$1,$4,$5,$6,$7,0*
20,1,$1+$1,$6,$7,$8,$9,0*
20,1,$1+$1,$8,$9,$2,$3,0*%
G04 Aperture macros list end*
%ADD10C,0.010000*%
%ADD11C,0.000000*%
%ADD12RoundRect,0.140000X-0.170000X0.140000X-0.170000X-0.140000X0.170000X-0.140000X0.170000X0.140000X0*%
%ADD13RoundRect,0.225000X0.250000X-0.225000X0.250000X0.225000X-0.250000X0.225000X-0.250000X-0.225000X0*%
%ADD14RoundRect,0.225000X0.225000X0.250000X-0.225000X0.250000X-0.225000X-0.250000X0.225000X-0.250000X0*%
%ADD15RoundRect,0.135000X-0.135000X-0.185000X0.135000X-0.185000X0.135000X0.185000X-0.135000X0.185000X0*%
%ADD16RoundRect,0.140000X0.140000X0.170000X-0.140000X0.170000X-0.140000X-0.170000X0.140000X-0.170000X0*%
%ADD17RoundRect,0.225000X-0.225000X-0.250000X0.225000X-0.250000X0.225000X0.250000X-0.225000X0.250000X0*%
%ADD18RoundRect,0.150000X-0.587500X-0.150000X0.587500X-0.150000X0.587500X0.150000X-0.587500X0.150000X0*%
%ADD19RoundRect,0.135000X0.185000X-0.135000X0.185000X0.135000X-0.185000X0.135000X-0.185000X-0.135000X0*%
%ADD20R,1.000000X1.800000*%
%ADD21RoundRect,0.135000X0.135000X0.185000X-0.135000X0.185000X-0.135000X-0.185000X0.135000X-0.185000X0*%
%ADD22R,1.800000X1.000000*%
%ADD23RoundRect,0.140000X0.170000X-0.140000X0.170000X0.140000X-0.170000X0.140000X-0.170000X-0.140000X0*%
%ADD24RoundRect,0.140000X-0.140000X-0.170000X0.140000X-0.170000X0.140000X0.170000X-0.140000X0.170000X0*%
%ADD25RoundRect,0.150000X0.150000X-0.587500X0.150000X0.587500X-0.150000X0.587500X-0.150000X-0.587500X0*%
%ADD26RoundRect,0.135000X-0.185000X0.135000X-0.185000X-0.135000X0.185000X-0.135000X0.185000X0.135000X0*%
%ADD27R,2.500000X1.780000*%
%ADD28RoundRect,0.160000X0.245000X0.160000X-0.245000X0.160000X-0.245000X-0.160000X0.245000X-0.160000X0*%
%ADD29RoundRect,0.093750X0.093750X0.106250X-0.093750X0.106250X-0.093750X-0.106250X0.093750X-0.106250X0*%
%ADD30RoundRect,0.175000X-0.725000X-0.175000X0.725000X-0.175000X0.725000X0.175000X-0.725000X0.175000X0*%
%ADD31RoundRect,0.200000X-0.700000X-0.200000X0.700000X-0.200000X0.700000X0.200000X-0.700000X0.200000X0*%
%ADD32R,0.270000X0.860000*%
%ADD33RoundRect,0.075000X0.662500X0.075000X-0.662500X0.075000X-0.662500X-0.075000X0.662500X-0.075000X0*%
%ADD34RoundRect,0.075000X0.075000X0.662500X-0.075000X0.662500X-0.075000X-0.662500X0.075000X-0.662500X0*%
%ADD35RoundRect,0.225000X0.225000X0.375000X-0.225000X0.375000X-0.225000X-0.375000X0.225000X-0.375000X0*%
%ADD36R,2.387600X1.295400*%
%ADD37RoundRect,0.147500X0.147500X0.172500X-0.147500X0.172500X-0.147500X-0.172500X0.147500X-0.172500X0*%
%ADD38R,0.127000X0.127000*%
%ADD39R,1.295400X0.203200*%
%ADD40R,0.254000X2.057400*%
%ADD41R,2.200000X1.050000*%
%ADD42R,1.050000X1.000000*%
%ADD43R,0.781799X0.354800*%
%ADD44R,0.279400X0.812800*%
%ADD45R,1.454899X0.532600*%
%ADD46RoundRect,0.150000X0.587500X0.150000X-0.587500X0.150000X-0.587500X-0.150000X0.587500X-0.150000X0*%
%ADD47R,0.354800X0.781799*%
%ADD48R,1.700000X0.600000*%
%ADD49R,2.700000X1.000000*%
%ADD50R,0.838200X1.695399*%
%ADD51R,5.511800X5.740400*%
%ADD52RoundRect,0.147500X0.172500X-0.147500X0.172500X0.147500X-0.172500X0.147500X-0.172500X-0.147500X0*%
G04 APERTURE END LIST*
D10*
%TO.C,VR1*%
X163704035Y-84514409D02*
X162198835Y-84514409D01*
X162198835Y-83471009D01*
X163704035Y-83471009D01*
X163704035Y-84514409D01*
G36*
X163704035Y-84514409D02*
G01*
X162198835Y-84514409D01*
X162198835Y-83471009D01*
X163704035Y-83471009D01*
X163704035Y-84514409D01*
G37*
D11*
%TO.C,U8*%
G36*
X164908893Y-69738949D02*
G01*
X165454593Y-69730949D01*
X165454593Y-69880949D01*
X165954593Y-69880949D01*
X165954592Y-70082548D01*
X164659192Y-70082548D01*
X164654893Y-69230949D01*
X164908893Y-69230949D01*
X164908893Y-69738949D01*
G37*
G36*
X162654594Y-69805348D02*
G01*
X162404594Y-70082548D01*
X161359194Y-70082548D01*
X161359194Y-69879348D01*
X161859194Y-69879348D01*
X161859194Y-69731348D01*
X162404893Y-69738949D01*
X162404893Y-69230949D01*
X162658893Y-69230949D01*
X162654594Y-69805348D01*
G37*
G36*
X165954592Y-72932550D02*
G01*
X165454592Y-72932550D01*
X165454592Y-73479349D01*
X165954592Y-73479349D01*
X165954592Y-73682549D01*
X161359194Y-73682549D01*
X161359194Y-73479349D01*
X161859194Y-73479349D01*
X161859194Y-72932550D01*
X161359194Y-72932550D01*
X161359194Y-72729350D01*
X165954592Y-72729350D01*
X165954592Y-72932550D01*
G37*
G36*
X165954592Y-74782550D02*
G01*
X165454592Y-74782550D01*
X165454592Y-75322550D01*
X164908893Y-75322949D01*
X164908893Y-75830949D01*
X164654893Y-75830949D01*
X164654893Y-75322949D01*
X162658893Y-75322949D01*
X162658893Y-75830949D01*
X162404893Y-75830949D01*
X162404893Y-75322949D01*
X161859194Y-75322550D01*
X161859194Y-74782550D01*
X161359194Y-74782550D01*
X161359194Y-74579350D01*
X165954592Y-74579350D01*
X165954592Y-74782550D01*
G37*
%TO.C,U5*%
G36*
X165173100Y-113593600D02*
G01*
X163826900Y-113593600D01*
X163826900Y-112603000D01*
X165173100Y-112603000D01*
X165173100Y-113593600D01*
G37*
%TD*%
D12*
%TO.C,C9*%
X165000000Y-96734235D03*
X165000000Y-97694235D03*
%TD*%
D13*
%TO.C,C15*%
X155545175Y-103662360D03*
X155545175Y-102112360D03*
%TD*%
D14*
%TO.C,C31*%
X163343912Y-81092053D03*
X161793912Y-81092053D03*
%TD*%
D15*
%TO.C,R5*%
X165490000Y-104000000D03*
X166510000Y-104000000D03*
%TD*%
D16*
%TO.C,C17*%
X160336101Y-106004871D03*
X159376101Y-106004871D03*
%TD*%
D17*
%TO.C,C25*%
X162883633Y-68127549D03*
X164433633Y-68127549D03*
%TD*%
D18*
%TO.C,D4*%
X168062500Y-101781261D03*
X168062500Y-103681261D03*
X169937500Y-102731261D03*
%TD*%
D19*
%TO.C,R14*%
X166824915Y-69822321D03*
X166824915Y-68802321D03*
%TD*%
D20*
%TO.C,3V3D*%
X177000000Y-100000000D03*
%TD*%
D17*
%TO.C,C37*%
X165475000Y-86250000D03*
X167025000Y-86250000D03*
%TD*%
D21*
%TO.C,R4*%
X166510000Y-101500000D03*
X165490000Y-101500000D03*
%TD*%
D22*
%TO.C,LD5*%
X147061296Y-108000000D03*
%TD*%
D23*
%TO.C,C23*%
X166818630Y-73774193D03*
X166818630Y-72814193D03*
%TD*%
D24*
%TO.C,C35*%
X159653272Y-85627200D03*
X160613272Y-85627200D03*
%TD*%
D25*
%TO.C,Q1*%
X137300000Y-114000000D03*
X139200000Y-114000000D03*
X138250000Y-112125000D03*
%TD*%
D26*
%TO.C,R7*%
X153124997Y-116142990D03*
X153124997Y-117162990D03*
%TD*%
D16*
%TO.C,C11*%
X165834389Y-87976370D03*
X164874389Y-87976370D03*
%TD*%
D27*
%TO.C,U4*%
X131080873Y-85960000D03*
X131080873Y-88500000D03*
X131080873Y-91040000D03*
X131080873Y-93580000D03*
X131080873Y-96120000D03*
X131080873Y-98660000D03*
X131080873Y-101200000D03*
X131080873Y-103740000D03*
X148530873Y-103740000D03*
X148530873Y-101200000D03*
X148530873Y-98660000D03*
X148530873Y-96120000D03*
X148530873Y-93580000D03*
X148530873Y-91040000D03*
X148530873Y-88500000D03*
X148530873Y-85960000D03*
%TD*%
D16*
%TO.C,C10*%
X164042628Y-98325461D03*
X163082628Y-98325461D03*
%TD*%
D14*
%TO.C,C29*%
X163342187Y-78250000D03*
X161792187Y-78250000D03*
%TD*%
D22*
%TO.C,C+*%
X168581063Y-100272736D03*
%TD*%
D15*
%TO.C,R3*%
X161042500Y-98314235D03*
X162062500Y-98314235D03*
%TD*%
D28*
%TO.C,U9*%
X165374304Y-79196681D03*
X165374304Y-78396681D03*
D29*
X166261804Y-79446681D03*
X166261804Y-78796681D03*
X166261804Y-78146681D03*
X164486804Y-78146681D03*
X164486804Y-78796681D03*
X164486804Y-79446681D03*
%TD*%
D21*
%TO.C,R10*%
X155231896Y-112510000D03*
X154211896Y-112510000D03*
%TD*%
D16*
%TO.C,C5*%
X169205854Y-95469737D03*
X168245854Y-95469737D03*
%TD*%
%TO.C,C36*%
X166083652Y-80617168D03*
X165123652Y-80617168D03*
%TD*%
%TO.C,C13*%
X157579001Y-97958513D03*
X156619001Y-97958513D03*
%TD*%
D22*
%TO.C,LD2*%
X138549954Y-107936462D03*
%TD*%
D30*
%TO.C,U1*%
X141750000Y-112100000D03*
D31*
X141750000Y-113200000D03*
X141750000Y-114300000D03*
X141750000Y-115400000D03*
X141750000Y-116500000D03*
X141750000Y-117600000D03*
X141750000Y-118700000D03*
X141750000Y-119800000D03*
D30*
X141750000Y-120900000D03*
X151250000Y-120900000D03*
D31*
X151250000Y-119800000D03*
X151250000Y-118700000D03*
X151250000Y-117600000D03*
X151250000Y-116500000D03*
X151250000Y-115400000D03*
X151250000Y-114300000D03*
X151250000Y-113200000D03*
D30*
X151250000Y-112100000D03*
%TD*%
D21*
%TO.C,R15*%
X162071971Y-86629241D03*
X161051971Y-86629241D03*
%TD*%
D32*
%TO.C,VR1*%
X163951435Y-82557709D03*
X163451435Y-82557709D03*
X162951435Y-82557709D03*
X162451435Y-82557709D03*
X161951435Y-82557709D03*
X161951435Y-85427709D03*
X162451435Y-85427709D03*
X162951435Y-85427709D03*
X163451435Y-85427709D03*
X163951435Y-85427709D03*
%TD*%
D20*
%TO.C,VBAT*%
X177000000Y-96000000D03*
%TD*%
D23*
%TO.C,C2*%
X140040349Y-120694339D03*
X140040349Y-119734339D03*
%TD*%
D19*
%TO.C,R6*%
X157127395Y-116404085D03*
X157127395Y-115384085D03*
%TD*%
D23*
%TO.C,C28*%
X167871783Y-69784680D03*
X167871783Y-68824680D03*
%TD*%
D21*
%TO.C,R9*%
X162516644Y-113001589D03*
X161496644Y-113001589D03*
%TD*%
D23*
%TO.C,C16*%
X154250000Y-103185770D03*
X154250000Y-102225770D03*
%TD*%
D16*
%TO.C,C24*%
X166623149Y-67866454D03*
X165663149Y-67866454D03*
%TD*%
D33*
%TO.C,U2*%
X165412500Y-95214235D03*
X165412500Y-94714235D03*
X165412500Y-94214235D03*
X165412500Y-93714235D03*
X165412500Y-93214235D03*
X165412500Y-92714235D03*
X165412500Y-92214235D03*
X165412500Y-91714235D03*
X165412500Y-91214235D03*
X165412500Y-90714235D03*
X165412500Y-90214235D03*
X165412500Y-89714235D03*
D34*
X164000000Y-88301735D03*
X163500000Y-88301735D03*
X163000000Y-88301735D03*
X162500000Y-88301735D03*
X162000000Y-88301735D03*
X161500000Y-88301735D03*
X161000000Y-88301735D03*
X160500000Y-88301735D03*
X160000000Y-88301735D03*
X159500000Y-88301735D03*
X159000000Y-88301735D03*
X158500000Y-88301735D03*
D33*
X157087500Y-89714235D03*
X157087500Y-90214235D03*
X157087500Y-90714235D03*
X157087500Y-91214235D03*
X157087500Y-91714235D03*
X157087500Y-92214235D03*
X157087500Y-92714235D03*
X157087500Y-93214235D03*
X157087500Y-93714235D03*
X157087500Y-94214235D03*
X157087500Y-94714235D03*
X157087500Y-95214235D03*
D34*
X158500000Y-96626735D03*
X159000000Y-96626735D03*
X159500000Y-96626735D03*
X160000000Y-96626735D03*
X160500000Y-96626735D03*
X161000000Y-96626735D03*
X161500000Y-96626735D03*
X162000000Y-96626735D03*
X162500000Y-96626735D03*
X163000000Y-96626735D03*
X163500000Y-96626735D03*
X164000000Y-96626735D03*
%TD*%
D14*
%TO.C,C30*%
X163359487Y-79642978D03*
X161809487Y-79642978D03*
%TD*%
D26*
%TO.C,R12*%
X167816099Y-70843160D03*
X167816099Y-71863160D03*
%TD*%
D12*
%TO.C,C18*%
X129000000Y-91040000D03*
X129000000Y-92000000D03*
%TD*%
D22*
%TO.C,LD4*%
X144237486Y-107989417D03*
%TD*%
D35*
%TO.C,D5*%
X138150000Y-117250000D03*
X134850000Y-117250000D03*
%TD*%
D12*
%TO.C,C1*%
X140041485Y-117810667D03*
X140041485Y-118770667D03*
%TD*%
D15*
%TO.C,R2*%
X133268460Y-114485295D03*
X134288460Y-114485295D03*
%TD*%
D22*
%TO.C,LD3*%
X141414530Y-107957020D03*
%TD*%
D36*
%TO.C,XTAL1*%
X168248412Y-93911002D03*
X168248412Y-92006002D03*
%TD*%
D20*
%TO.C,3V3RF*%
X177000000Y-104500000D03*
%TD*%
D15*
%TO.C,R1*%
X139027712Y-115537712D03*
X140047712Y-115537712D03*
%TD*%
D25*
%TO.C,D3*%
X169178491Y-71235641D03*
X171078491Y-71235641D03*
X170128491Y-69360641D03*
%TD*%
D37*
%TO.C,D2*%
X136220000Y-114500000D03*
X135250000Y-114500000D03*
%TD*%
D17*
%TO.C,C22*%
X156076177Y-117598233D03*
X157626177Y-117598233D03*
%TD*%
D18*
%TO.C,Q4*%
X157993579Y-112453877D03*
X157993579Y-114353877D03*
X159868579Y-113403877D03*
%TD*%
D24*
%TO.C,C32*%
X165237347Y-81757921D03*
X166197347Y-81757921D03*
%TD*%
D22*
%TO.C,C-*%
X168500000Y-105231261D03*
%TD*%
D38*
%TO.C,U8*%
X162006894Y-69980948D03*
D39*
X162006894Y-70430949D03*
X162006894Y-70880948D03*
X162006894Y-71330950D03*
X162006894Y-71780949D03*
X162006894Y-72230948D03*
D38*
X162006894Y-72830950D03*
X162006894Y-73580949D03*
X162006894Y-74680950D03*
X162531893Y-75576949D03*
X164781893Y-75576949D03*
X165306892Y-74680950D03*
X165306892Y-73580949D03*
X165306892Y-72830950D03*
D39*
X165306892Y-72230948D03*
X165306892Y-71780949D03*
X165306892Y-71330950D03*
X165306892Y-70880948D03*
X165306892Y-70430949D03*
D38*
X165306892Y-69980948D03*
X164781893Y-69484949D03*
D40*
X163931894Y-70259949D03*
X163381892Y-70259949D03*
D38*
X162531893Y-69484949D03*
%TD*%
D16*
%TO.C,C6*%
X169290326Y-90454232D03*
X168330326Y-90454232D03*
%TD*%
D17*
%TO.C,C12*%
X167281806Y-88274394D03*
X168831806Y-88274394D03*
%TD*%
D15*
%TO.C,R8*%
X161496644Y-114001589D03*
X162516644Y-114001589D03*
%TD*%
D16*
%TO.C,C14*%
X157579001Y-96946198D03*
X156619001Y-96946198D03*
%TD*%
D21*
%TO.C,R11*%
X155231896Y-111500000D03*
X154211896Y-111500000D03*
%TD*%
D17*
%TO.C,C20*%
X164725000Y-102739024D03*
X166275000Y-102739024D03*
%TD*%
%TO.C,C26*%
X162876075Y-66586538D03*
X164426075Y-66586538D03*
%TD*%
D41*
%TO.C,J6*%
X163221032Y-118313163D03*
D42*
X161696032Y-119788163D03*
D41*
X163221032Y-121263163D03*
%TD*%
D24*
%TO.C,C3*%
X166274651Y-96131643D03*
X167234651Y-96131643D03*
%TD*%
D23*
%TO.C,C7*%
X167246950Y-90487240D03*
X167246950Y-89527240D03*
%TD*%
D14*
%TO.C,C27*%
X163342753Y-76750000D03*
X161792753Y-76750000D03*
%TD*%
D43*
%TO.C,U7*%
X158414002Y-110585998D03*
X158414002Y-109935999D03*
X158414002Y-109286000D03*
X156286000Y-109286000D03*
X156286000Y-109935999D03*
X156286000Y-110585998D03*
%TD*%
D16*
%TO.C,C33*%
X165410254Y-77035407D03*
X164450254Y-77035407D03*
%TD*%
%TO.C,C34*%
X166197155Y-82750000D03*
X165237155Y-82750000D03*
%TD*%
D44*
%TO.C,U5*%
X163825000Y-114000000D03*
X164274999Y-114000000D03*
X164725001Y-114000000D03*
X165175000Y-114000000D03*
%TD*%
D45*
%TO.C,U3*%
X157391039Y-100702721D03*
X157391039Y-101972721D03*
X157391039Y-103242721D03*
X157391039Y-104512721D03*
X162833735Y-104512721D03*
X162833735Y-103242721D03*
X162833735Y-101972721D03*
X162833735Y-100702721D03*
%TD*%
D46*
%TO.C,Q3*%
X155559082Y-116012500D03*
X155559082Y-114112500D03*
X153684082Y-115062500D03*
%TD*%
D16*
%TO.C,C21*%
X153872563Y-119800000D03*
X152912563Y-119800000D03*
%TD*%
D47*
%TO.C,U6*%
X167075002Y-114500000D03*
X167725001Y-114500000D03*
X168375000Y-114500000D03*
X168375000Y-112371998D03*
X167725001Y-112371998D03*
X167075002Y-112371998D03*
%TD*%
D23*
%TO.C,C8*%
X155890697Y-88761612D03*
X155890697Y-87801612D03*
%TD*%
D48*
%TO.C,J4*%
X126950000Y-99500000D03*
X126950000Y-100750000D03*
X126950000Y-102000000D03*
X126950000Y-103250000D03*
X126950000Y-104500000D03*
D49*
X123750000Y-97650000D03*
X123750000Y-106350000D03*
%TD*%
D50*
%TO.C,Q2*%
X152215001Y-81988828D03*
D51*
X154500000Y-74888728D03*
D50*
X156784999Y-81988828D03*
%TD*%
D52*
%TO.C,L1*%
X156120785Y-119761579D03*
X156120785Y-118791579D03*
%TD*%
D22*
%TO.C,LD0*%
X132808300Y-107919266D03*
%TD*%
D12*
%TO.C,C19*%
X128000000Y-91040000D03*
X128000000Y-92000000D03*
%TD*%
D26*
%TO.C,R13*%
X167812670Y-72770075D03*
X167812670Y-73790075D03*
%TD*%
D23*
%TO.C,C4*%
X156909296Y-88757076D03*
X156909296Y-87797076D03*
%TD*%
D22*
%TO.C,LD1*%
X135675835Y-107918929D03*
%TD*%
M02*
