%TF.GenerationSoftware,KiCad,Pcbnew,9.0.6*%
%TF.CreationDate,2026-03-03T10:01:28+00:00*%
%TF.ProjectId,teachtaire,74656163-6874-4616-9972-652e6b696361,rev?*%
%TF.SameCoordinates,Original*%
%TF.FileFunction,Legend,Bot*%
%TF.FilePolarity,Positive*%
%FSLAX46Y46*%
G04 Gerber Fmt 4.6, Leading zero omitted, Abs format (unit mm)*
G04 Created by KiCad (PCBNEW 9.0.6) date 2026-03-03 10:01:28*
%MOMM*%
%LPD*%
G01*
G04 APERTURE LIST*
%ADD10C,0.100000*%
G04 APERTURE END LIST*
D10*
X127061807Y-99514547D02*
X126918950Y-99562166D01*
X126918950Y-99562166D02*
X126680855Y-99562166D01*
X126680855Y-99562166D02*
X126585617Y-99514547D01*
X126585617Y-99514547D02*
X126537998Y-99466927D01*
X126537998Y-99466927D02*
X126490379Y-99371689D01*
X126490379Y-99371689D02*
X126490379Y-99276451D01*
X126490379Y-99276451D02*
X126537998Y-99181213D01*
X126537998Y-99181213D02*
X126585617Y-99133594D01*
X126585617Y-99133594D02*
X126680855Y-99085975D01*
X126680855Y-99085975D02*
X126871331Y-99038356D01*
X126871331Y-99038356D02*
X126966569Y-98990737D01*
X126966569Y-98990737D02*
X127014188Y-98943118D01*
X127014188Y-98943118D02*
X127061807Y-98847880D01*
X127061807Y-98847880D02*
X127061807Y-98752642D01*
X127061807Y-98752642D02*
X127014188Y-98657404D01*
X127014188Y-98657404D02*
X126966569Y-98609785D01*
X126966569Y-98609785D02*
X126871331Y-98562166D01*
X126871331Y-98562166D02*
X126633236Y-98562166D01*
X126633236Y-98562166D02*
X126490379Y-98609785D01*
X126157045Y-98562166D02*
X125918950Y-99562166D01*
X125918950Y-99562166D02*
X125728474Y-98847880D01*
X125728474Y-98847880D02*
X125537998Y-99562166D01*
X125537998Y-99562166D02*
X125299903Y-98562166D01*
X124347522Y-99466927D02*
X124395141Y-99514547D01*
X124395141Y-99514547D02*
X124537998Y-99562166D01*
X124537998Y-99562166D02*
X124633236Y-99562166D01*
X124633236Y-99562166D02*
X124776093Y-99514547D01*
X124776093Y-99514547D02*
X124871331Y-99419308D01*
X124871331Y-99419308D02*
X124918950Y-99324070D01*
X124918950Y-99324070D02*
X124966569Y-99133594D01*
X124966569Y-99133594D02*
X124966569Y-98990737D01*
X124966569Y-98990737D02*
X124918950Y-98800261D01*
X124918950Y-98800261D02*
X124871331Y-98705023D01*
X124871331Y-98705023D02*
X124776093Y-98609785D01*
X124776093Y-98609785D02*
X124633236Y-98562166D01*
X124633236Y-98562166D02*
X124537998Y-98562166D01*
X124537998Y-98562166D02*
X124395141Y-98609785D01*
X124395141Y-98609785D02*
X124347522Y-98657404D01*
X123442760Y-99562166D02*
X123918950Y-99562166D01*
X123918950Y-99562166D02*
X123918950Y-98562166D01*
X123109426Y-99562166D02*
X123109426Y-98562166D01*
X122537998Y-99562166D02*
X122966569Y-98990737D01*
X122537998Y-98562166D02*
X123109426Y-99133594D01*
X127061807Y-101124491D02*
X126918950Y-101172110D01*
X126918950Y-101172110D02*
X126680855Y-101172110D01*
X126680855Y-101172110D02*
X126585617Y-101124491D01*
X126585617Y-101124491D02*
X126537998Y-101076871D01*
X126537998Y-101076871D02*
X126490379Y-100981633D01*
X126490379Y-100981633D02*
X126490379Y-100886395D01*
X126490379Y-100886395D02*
X126537998Y-100791157D01*
X126537998Y-100791157D02*
X126585617Y-100743538D01*
X126585617Y-100743538D02*
X126680855Y-100695919D01*
X126680855Y-100695919D02*
X126871331Y-100648300D01*
X126871331Y-100648300D02*
X126966569Y-100600681D01*
X126966569Y-100600681D02*
X127014188Y-100553062D01*
X127014188Y-100553062D02*
X127061807Y-100457824D01*
X127061807Y-100457824D02*
X127061807Y-100362586D01*
X127061807Y-100362586D02*
X127014188Y-100267348D01*
X127014188Y-100267348D02*
X126966569Y-100219729D01*
X126966569Y-100219729D02*
X126871331Y-100172110D01*
X126871331Y-100172110D02*
X126633236Y-100172110D01*
X126633236Y-100172110D02*
X126490379Y-100219729D01*
X126157045Y-100172110D02*
X125918950Y-101172110D01*
X125918950Y-101172110D02*
X125728474Y-100457824D01*
X125728474Y-100457824D02*
X125537998Y-101172110D01*
X125537998Y-101172110D02*
X125299903Y-100172110D01*
X124918950Y-101172110D02*
X124918950Y-100172110D01*
X124918950Y-100172110D02*
X124680855Y-100172110D01*
X124680855Y-100172110D02*
X124537998Y-100219729D01*
X124537998Y-100219729D02*
X124442760Y-100314967D01*
X124442760Y-100314967D02*
X124395141Y-100410205D01*
X124395141Y-100410205D02*
X124347522Y-100600681D01*
X124347522Y-100600681D02*
X124347522Y-100743538D01*
X124347522Y-100743538D02*
X124395141Y-100934014D01*
X124395141Y-100934014D02*
X124442760Y-101029252D01*
X124442760Y-101029252D02*
X124537998Y-101124491D01*
X124537998Y-101124491D02*
X124680855Y-101172110D01*
X124680855Y-101172110D02*
X124918950Y-101172110D01*
X123918950Y-101172110D02*
X123918950Y-100172110D01*
X123252284Y-100172110D02*
X123061808Y-100172110D01*
X123061808Y-100172110D02*
X122966570Y-100219729D01*
X122966570Y-100219729D02*
X122871332Y-100314967D01*
X122871332Y-100314967D02*
X122823713Y-100505443D01*
X122823713Y-100505443D02*
X122823713Y-100838776D01*
X122823713Y-100838776D02*
X122871332Y-101029252D01*
X122871332Y-101029252D02*
X122966570Y-101124491D01*
X122966570Y-101124491D02*
X123061808Y-101172110D01*
X123061808Y-101172110D02*
X123252284Y-101172110D01*
X123252284Y-101172110D02*
X123347522Y-101124491D01*
X123347522Y-101124491D02*
X123442760Y-101029252D01*
X123442760Y-101029252D02*
X123490379Y-100838776D01*
X123490379Y-100838776D02*
X123490379Y-100505443D01*
X123490379Y-100505443D02*
X123442760Y-100314967D01*
X123442760Y-100314967D02*
X123347522Y-100219729D01*
X123347522Y-100219729D02*
X123252284Y-100172110D01*
X127014188Y-102782054D02*
X127014188Y-101782054D01*
X127014188Y-101782054D02*
X126442760Y-102782054D01*
X126442760Y-102782054D02*
X126442760Y-101782054D01*
X125395141Y-102782054D02*
X125728474Y-102305863D01*
X125966569Y-102782054D02*
X125966569Y-101782054D01*
X125966569Y-101782054D02*
X125585617Y-101782054D01*
X125585617Y-101782054D02*
X125490379Y-101829673D01*
X125490379Y-101829673D02*
X125442760Y-101877292D01*
X125442760Y-101877292D02*
X125395141Y-101972530D01*
X125395141Y-101972530D02*
X125395141Y-102115387D01*
X125395141Y-102115387D02*
X125442760Y-102210625D01*
X125442760Y-102210625D02*
X125490379Y-102258244D01*
X125490379Y-102258244D02*
X125585617Y-102305863D01*
X125585617Y-102305863D02*
X125966569Y-102305863D01*
X125014188Y-102734435D02*
X124871331Y-102782054D01*
X124871331Y-102782054D02*
X124633236Y-102782054D01*
X124633236Y-102782054D02*
X124537998Y-102734435D01*
X124537998Y-102734435D02*
X124490379Y-102686815D01*
X124490379Y-102686815D02*
X124442760Y-102591577D01*
X124442760Y-102591577D02*
X124442760Y-102496339D01*
X124442760Y-102496339D02*
X124490379Y-102401101D01*
X124490379Y-102401101D02*
X124537998Y-102353482D01*
X124537998Y-102353482D02*
X124633236Y-102305863D01*
X124633236Y-102305863D02*
X124823712Y-102258244D01*
X124823712Y-102258244D02*
X124918950Y-102210625D01*
X124918950Y-102210625D02*
X124966569Y-102163006D01*
X124966569Y-102163006D02*
X125014188Y-102067768D01*
X125014188Y-102067768D02*
X125014188Y-101972530D01*
X125014188Y-101972530D02*
X124966569Y-101877292D01*
X124966569Y-101877292D02*
X124918950Y-101829673D01*
X124918950Y-101829673D02*
X124823712Y-101782054D01*
X124823712Y-101782054D02*
X124585617Y-101782054D01*
X124585617Y-101782054D02*
X124442760Y-101829673D01*
X124157045Y-101782054D02*
X123585617Y-101782054D01*
X123871331Y-102782054D02*
X123871331Y-101782054D01*
X127109426Y-103391998D02*
X126490379Y-103391998D01*
X126490379Y-103391998D02*
X126823712Y-103772950D01*
X126823712Y-103772950D02*
X126680855Y-103772950D01*
X126680855Y-103772950D02*
X126585617Y-103820569D01*
X126585617Y-103820569D02*
X126537998Y-103868188D01*
X126537998Y-103868188D02*
X126490379Y-103963426D01*
X126490379Y-103963426D02*
X126490379Y-104201521D01*
X126490379Y-104201521D02*
X126537998Y-104296759D01*
X126537998Y-104296759D02*
X126585617Y-104344379D01*
X126585617Y-104344379D02*
X126680855Y-104391998D01*
X126680855Y-104391998D02*
X126966569Y-104391998D01*
X126966569Y-104391998D02*
X127061807Y-104344379D01*
X127061807Y-104344379D02*
X127109426Y-104296759D01*
X126157045Y-103725331D02*
X125918950Y-104391998D01*
X125918950Y-104391998D02*
X125680855Y-103725331D01*
X125395140Y-103391998D02*
X124776093Y-103391998D01*
X124776093Y-103391998D02*
X125109426Y-103772950D01*
X125109426Y-103772950D02*
X124966569Y-103772950D01*
X124966569Y-103772950D02*
X124871331Y-103820569D01*
X124871331Y-103820569D02*
X124823712Y-103868188D01*
X124823712Y-103868188D02*
X124776093Y-103963426D01*
X124776093Y-103963426D02*
X124776093Y-104201521D01*
X124776093Y-104201521D02*
X124823712Y-104296759D01*
X124823712Y-104296759D02*
X124871331Y-104344379D01*
X124871331Y-104344379D02*
X124966569Y-104391998D01*
X124966569Y-104391998D02*
X125252283Y-104391998D01*
X125252283Y-104391998D02*
X125347521Y-104344379D01*
X125347521Y-104344379D02*
X125395140Y-104296759D01*
X126490379Y-105049561D02*
X126585617Y-105001942D01*
X126585617Y-105001942D02*
X126728474Y-105001942D01*
X126728474Y-105001942D02*
X126871331Y-105049561D01*
X126871331Y-105049561D02*
X126966569Y-105144799D01*
X126966569Y-105144799D02*
X127014188Y-105240037D01*
X127014188Y-105240037D02*
X127061807Y-105430513D01*
X127061807Y-105430513D02*
X127061807Y-105573370D01*
X127061807Y-105573370D02*
X127014188Y-105763846D01*
X127014188Y-105763846D02*
X126966569Y-105859084D01*
X126966569Y-105859084D02*
X126871331Y-105954323D01*
X126871331Y-105954323D02*
X126728474Y-106001942D01*
X126728474Y-106001942D02*
X126633236Y-106001942D01*
X126633236Y-106001942D02*
X126490379Y-105954323D01*
X126490379Y-105954323D02*
X126442760Y-105906703D01*
X126442760Y-105906703D02*
X126442760Y-105573370D01*
X126442760Y-105573370D02*
X126633236Y-105573370D01*
X126014188Y-106001942D02*
X126014188Y-105001942D01*
X126014188Y-105001942D02*
X125442760Y-106001942D01*
X125442760Y-106001942D02*
X125442760Y-105001942D01*
X124966569Y-106001942D02*
X124966569Y-105001942D01*
X124966569Y-105001942D02*
X124728474Y-105001942D01*
X124728474Y-105001942D02*
X124585617Y-105049561D01*
X124585617Y-105049561D02*
X124490379Y-105144799D01*
X124490379Y-105144799D02*
X124442760Y-105240037D01*
X124442760Y-105240037D02*
X124395141Y-105430513D01*
X124395141Y-105430513D02*
X124395141Y-105573370D01*
X124395141Y-105573370D02*
X124442760Y-105763846D01*
X124442760Y-105763846D02*
X124490379Y-105859084D01*
X124490379Y-105859084D02*
X124585617Y-105954323D01*
X124585617Y-105954323D02*
X124728474Y-106001942D01*
X124728474Y-106001942D02*
X124966569Y-106001942D01*
M02*
