%TF.GenerationSoftware,KiCad,Pcbnew,9.0.6*%
%TF.CreationDate,2026-03-03T10:01:28+00:00*%
%TF.ProjectId,teachtaire,74656163-6874-4616-9972-652e6b696361,rev?*%
%TF.SameCoordinates,Original*%
%TF.FileFunction,Soldermask,Top*%
%TF.FilePolarity,Negative*%
%FSLAX46Y46*%
G04 Gerber Fmt 4.6, Leading zero omitted, Abs format (unit mm)*
G04 Created by KiCad (PCBNEW 9.0.6) date 2026-03-03 10:01:28*
%MOMM*%
%LPD*%
G01*
G04 APERTURE LIST*
G04 Aperture macros list*
%AMRoundRect*
0 Rectangle with rounded corners*
0 $1 Rounding radius*
0 $2 $3 $4 $5 $6 $7 $8 $9 X,Y pos of 4 corners*
0 Add a 4 corners polygon primitive as box body*
4,1,4,$2,$3,$4,$5,$6,$7,$8,$9,$2,$3,0*
0 Add four circle primitives for the rounded corners*
1,1,$1+$1,$2,$3*
1,1,$1+$1,$4,$5*
1,1,$1+$1,$6,$7*
1,1,$1+$1,$8,$9*
0 Add four rect primitives between the rounded corners*
20,1,$1+$1,$2,$3,$4,$5,0*
20,1,$1+$1,$4,$5,$6,$7,0*
20,1,$1+$1,$6,$7,$8,$9,0*
20,1,$1+$1,$8,$9,$2,$3,0*%
G04 Aperture macros list end*
%ADD10C,3.100000*%
%ADD11C,1.676200*%
%ADD12C,1.226200*%
%ADD13C,0.010000*%
%ADD14C,0.000000*%
%ADD15RoundRect,0.140000X-0.170000X0.140000X-0.170000X-0.140000X0.170000X-0.140000X0.170000X0.140000X0*%
%ADD16RoundRect,0.140000X0.170000X-0.140000X0.170000X0.140000X-0.170000X0.140000X-0.170000X-0.140000X0*%
%ADD17RoundRect,0.140000X0.140000X0.170000X-0.140000X0.170000X-0.140000X-0.170000X0.140000X-0.170000X0*%
%ADD18RoundRect,0.135000X-0.135000X-0.185000X0.135000X-0.185000X0.135000X0.185000X-0.135000X0.185000X0*%
%ADD19RoundRect,0.140000X-0.140000X-0.170000X0.140000X-0.170000X0.140000X0.170000X-0.140000X0.170000X0*%
%ADD20RoundRect,0.150000X-0.587500X-0.150000X0.587500X-0.150000X0.587500X0.150000X-0.587500X0.150000X0*%
%ADD21RoundRect,0.135000X0.185000X-0.135000X0.185000X0.135000X-0.185000X0.135000X-0.185000X-0.135000X0*%
%ADD22RoundRect,0.102000X-0.500000X0.900000X-0.500000X-0.900000X0.500000X-0.900000X0.500000X0.900000X0*%
%ADD23RoundRect,0.135000X0.135000X0.185000X-0.135000X0.185000X-0.135000X-0.185000X0.135000X-0.185000X0*%
%ADD24RoundRect,0.102000X-0.900000X-0.500000X0.900000X-0.500000X0.900000X0.500000X-0.900000X0.500000X0*%
%ADD25RoundRect,0.150000X0.150000X-0.587500X0.150000X0.587500X-0.150000X0.587500X-0.150000X-0.587500X0*%
%ADD26RoundRect,0.125000X0.125000X0.125000X-0.125000X0.125000X-0.125000X-0.125000X0.125000X-0.125000X0*%
%ADD27RoundRect,0.135000X-0.185000X0.135000X-0.185000X-0.135000X0.185000X-0.135000X0.185000X0.135000X0*%
%ADD28RoundRect,0.102000X-1.250000X-0.890000X1.250000X-0.890000X1.250000X0.890000X-1.250000X0.890000X0*%
%ADD29RoundRect,0.093750X0.093750X0.106250X-0.093750X0.106250X-0.093750X-0.106250X0.093750X-0.106250X0*%
%ADD30R,1.000000X1.600000*%
%ADD31RoundRect,0.102000X0.900000X0.500000X-0.900000X0.500000X-0.900000X-0.500000X0.900000X-0.500000X0*%
%ADD32RoundRect,0.175000X-0.725000X-0.175000X0.725000X-0.175000X0.725000X0.175000X-0.725000X0.175000X0*%
%ADD33RoundRect,0.200000X-0.700000X-0.200000X0.700000X-0.200000X0.700000X0.200000X-0.700000X0.200000X0*%
%ADD34RoundRect,0.102000X-0.135000X0.430000X-0.135000X-0.430000X0.135000X-0.430000X0.135000X0.430000X0*%
%ADD35RoundRect,0.102000X-1.190000X0.825000X-1.190000X-0.825000X1.190000X-0.825000X1.190000X0.825000X0*%
%ADD36RoundRect,0.075000X0.662500X0.075000X-0.662500X0.075000X-0.662500X-0.075000X0.662500X-0.075000X0*%
%ADD37RoundRect,0.075000X0.075000X0.662500X-0.075000X0.662500X-0.075000X-0.662500X0.075000X-0.662500X0*%
%ADD38RoundRect,0.200100X0.949900X-0.949900X0.949900X0.949900X-0.949900X0.949900X-0.949900X-0.949900X0*%
%ADD39C,2.200000*%
%ADD40C,3.200000*%
%ADD41R,2.387600X1.295400*%
%ADD42C,2.000000*%
%ADD43RoundRect,0.147500X0.147500X0.172500X-0.147500X0.172500X-0.147500X-0.172500X0.147500X-0.172500X0*%
%ADD44R,0.127000X0.127000*%
%ADD45R,1.295400X0.203200*%
%ADD46R,0.254000X2.057400*%
%ADD47RoundRect,0.102000X-1.100000X0.525000X-1.100000X-0.525000X1.100000X-0.525000X1.100000X0.525000X0*%
%ADD48RoundRect,0.102000X-0.525000X0.500000X-0.525000X-0.500000X0.525000X-0.500000X0.525000X0.500000X0*%
%ADD49R,0.781799X0.354800*%
%ADD50R,0.279400X0.812800*%
%ADD51R,1.346200X0.990600*%
%ADD52R,1.454899X0.532600*%
%ADD53RoundRect,0.150000X0.587500X0.150000X-0.587500X0.150000X-0.587500X-0.150000X0.587500X-0.150000X0*%
%ADD54R,0.354800X0.781799*%
%ADD55RoundRect,0.102000X0.762000X-0.762000X0.762000X0.762000X-0.762000X0.762000X-0.762000X-0.762000X0*%
%ADD56C,1.728000*%
%ADD57R,0.838200X1.695399*%
%ADD58R,5.511800X5.740400*%
%ADD59RoundRect,0.147500X0.172500X-0.147500X0.172500X0.147500X-0.172500X0.147500X-0.172500X-0.147500X0*%
G04 APERTURE END LIST*
D10*
X174952418Y-78149561D02*
G75*
G02*
X171852418Y-78149561I-1550000J0D01*
G01*
X171852418Y-78149561D02*
G75*
G02*
X174952418Y-78149561I1550000J0D01*
G01*
X129907776Y-112090687D02*
G75*
G02*
X126807776Y-112090687I-1550000J0D01*
G01*
X126807776Y-112090687D02*
G75*
G02*
X129907776Y-112090687I1550000J0D01*
G01*
X129903718Y-112090998D02*
G75*
G02*
X126803718Y-112090998I-1550000J0D01*
G01*
X126803718Y-112090998D02*
G75*
G02*
X129903718Y-112090998I1550000J0D01*
G01*
X174952418Y-112090687D02*
G75*
G02*
X171852418Y-112090687I-1550000J0D01*
G01*
X171852418Y-112090687D02*
G75*
G02*
X174952418Y-112090687I1550000J0D01*
G01*
X174948360Y-78149872D02*
G75*
G02*
X171848360Y-78149872I-1550000J0D01*
G01*
X171848360Y-78149872D02*
G75*
G02*
X174948360Y-78149872I1550000J0D01*
G01*
X129903718Y-78149872D02*
G75*
G02*
X126803718Y-78149872I-1550000J0D01*
G01*
X126803718Y-78149872D02*
G75*
G02*
X129903718Y-78149872I1550000J0D01*
G01*
X129907776Y-78149561D02*
G75*
G02*
X126807776Y-78149561I-1550000J0D01*
G01*
X126807776Y-78149561D02*
G75*
G02*
X129907776Y-78149561I1550000J0D01*
G01*
D11*
%TO.C,J1*%
X140338100Y-68096138D02*
G75*
G02*
X138661900Y-68096138I-838100J0D01*
G01*
X138661900Y-68096138D02*
G75*
G02*
X140338100Y-68096138I838100J0D01*
G01*
D12*
X144613100Y-77796138D02*
G75*
G02*
X143386900Y-77796138I-613100J0D01*
G01*
X143386900Y-77796138D02*
G75*
G02*
X144613100Y-77796138I613100J0D01*
G01*
X148813100Y-72296138D02*
G75*
G02*
X147586900Y-72296138I-613100J0D01*
G01*
X147586900Y-72296138D02*
G75*
G02*
X148813100Y-72296138I613100J0D01*
G01*
X148813100Y-77796138D02*
G75*
G02*
X147586900Y-77796138I-613100J0D01*
G01*
X147586900Y-77796138D02*
G75*
G02*
X148813100Y-77796138I613100J0D01*
G01*
D11*
X153538100Y-68096138D02*
G75*
G02*
X151861900Y-68096138I-838100J0D01*
G01*
X151861900Y-68096138D02*
G75*
G02*
X153538100Y-68096138I838100J0D01*
G01*
D13*
X145226200Y-73522338D02*
X142773800Y-73522338D01*
X142773800Y-71069938D01*
X145226200Y-71069938D01*
X145226200Y-73522338D01*
G36*
X145226200Y-73522338D02*
G01*
X142773800Y-73522338D01*
X142773800Y-71069938D01*
X145226200Y-71069938D01*
X145226200Y-73522338D01*
G37*
D14*
%TO.C,U8*%
G36*
X164908893Y-69738949D02*
G01*
X165454593Y-69730949D01*
X165454593Y-69880949D01*
X165954593Y-69880949D01*
X165954592Y-70082548D01*
X164659192Y-70082548D01*
X164654893Y-69230949D01*
X164908893Y-69230949D01*
X164908893Y-69738949D01*
G37*
G36*
X162654594Y-69805348D02*
G01*
X162404594Y-70082548D01*
X161359194Y-70082548D01*
X161359194Y-69879348D01*
X161859194Y-69879348D01*
X161859194Y-69731348D01*
X162404893Y-69738949D01*
X162404893Y-69230949D01*
X162658893Y-69230949D01*
X162654594Y-69805348D01*
G37*
G36*
X165954592Y-72932550D02*
G01*
X165454592Y-72932550D01*
X165454592Y-73479349D01*
X165954592Y-73479349D01*
X165954592Y-73682549D01*
X161359194Y-73682549D01*
X161359194Y-73479349D01*
X161859194Y-73479349D01*
X161859194Y-72932550D01*
X161359194Y-72932550D01*
X161359194Y-72729350D01*
X165954592Y-72729350D01*
X165954592Y-72932550D01*
G37*
G36*
X165954592Y-74782550D02*
G01*
X165454592Y-74782550D01*
X165454592Y-75322550D01*
X164908893Y-75322949D01*
X164908893Y-75830949D01*
X164654893Y-75830949D01*
X164654893Y-75322949D01*
X162658893Y-75322949D01*
X162658893Y-75830949D01*
X162404893Y-75830949D01*
X162404893Y-75322949D01*
X161859194Y-75322550D01*
X161859194Y-74782550D01*
X161359194Y-74782550D01*
X161359194Y-74579350D01*
X165954592Y-74579350D01*
X165954592Y-74782550D01*
G37*
D13*
%TO.C,J4*%
X125176200Y-98226200D02*
X122323800Y-98226200D01*
X122323800Y-97073800D01*
X125176200Y-97073800D01*
X125176200Y-98226200D01*
G36*
X125176200Y-98226200D02*
G01*
X122323800Y-98226200D01*
X122323800Y-97073800D01*
X125176200Y-97073800D01*
X125176200Y-98226200D01*
G37*
X125176200Y-106926200D02*
X122323800Y-106926200D01*
X122323800Y-105773800D01*
X125176200Y-105773800D01*
X125176200Y-106926200D01*
G36*
X125176200Y-106926200D02*
G01*
X122323800Y-106926200D01*
X122323800Y-105773800D01*
X125176200Y-105773800D01*
X125176200Y-106926200D01*
G37*
X127876200Y-99876200D02*
X126023800Y-99876200D01*
X126023800Y-99123800D01*
X127876200Y-99123800D01*
X127876200Y-99876200D01*
G36*
X127876200Y-99876200D02*
G01*
X126023800Y-99876200D01*
X126023800Y-99123800D01*
X127876200Y-99123800D01*
X127876200Y-99876200D01*
G37*
X127876200Y-101126200D02*
X126023800Y-101126200D01*
X126023800Y-100373800D01*
X127876200Y-100373800D01*
X127876200Y-101126200D01*
G36*
X127876200Y-101126200D02*
G01*
X126023800Y-101126200D01*
X126023800Y-100373800D01*
X127876200Y-100373800D01*
X127876200Y-101126200D01*
G37*
X127876200Y-102376200D02*
X126023800Y-102376200D01*
X126023800Y-101623800D01*
X127876200Y-101623800D01*
X127876200Y-102376200D01*
G36*
X127876200Y-102376200D02*
G01*
X126023800Y-102376200D01*
X126023800Y-101623800D01*
X127876200Y-101623800D01*
X127876200Y-102376200D01*
G37*
X127876200Y-103626200D02*
X126023800Y-103626200D01*
X126023800Y-102873800D01*
X127876200Y-102873800D01*
X127876200Y-103626200D01*
G36*
X127876200Y-103626200D02*
G01*
X126023800Y-103626200D01*
X126023800Y-102873800D01*
X127876200Y-102873800D01*
X127876200Y-103626200D01*
G37*
X127876200Y-104876200D02*
X126023800Y-104876200D01*
X126023800Y-104123800D01*
X127876200Y-104123800D01*
X127876200Y-104876200D01*
G36*
X127876200Y-104876200D02*
G01*
X126023800Y-104876200D01*
X126023800Y-104123800D01*
X127876200Y-104123800D01*
X127876200Y-104876200D01*
G37*
%TD*%
D15*
%TO.C,C9*%
X165000000Y-96734235D03*
X165000000Y-97694235D03*
%TD*%
D16*
%TO.C,C15*%
X155387613Y-103185770D03*
X155387613Y-102225770D03*
%TD*%
D17*
%TO.C,C31*%
X163068319Y-80442033D03*
X162108319Y-80442033D03*
%TD*%
D18*
%TO.C,R5*%
X165205309Y-103765621D03*
X166225309Y-103765621D03*
%TD*%
D17*
%TO.C,C17*%
X160336101Y-106004871D03*
X159376101Y-106004871D03*
%TD*%
D19*
%TO.C,C25*%
X163093304Y-67436796D03*
X164053304Y-67436796D03*
%TD*%
D20*
%TO.C,D4*%
X167698588Y-101781261D03*
X167698588Y-103681261D03*
X169573588Y-102731261D03*
%TD*%
D21*
%TO.C,R14*%
X166824915Y-69822321D03*
X166824915Y-68802321D03*
%TD*%
D22*
%TO.C,3V3D1*%
X177000000Y-100000000D03*
%TD*%
D17*
%TO.C,C37*%
X163958774Y-86633190D03*
X162998774Y-86633190D03*
%TD*%
D23*
%TO.C,R4*%
X166216105Y-101697955D03*
X165196105Y-101697955D03*
%TD*%
D24*
%TO.C,LD5*%
X147061296Y-108000000D03*
%TD*%
D16*
%TO.C,C23*%
X166818630Y-73774193D03*
X166818630Y-72814193D03*
%TD*%
D19*
%TO.C,C35*%
X159653272Y-85627200D03*
X160613272Y-85627200D03*
%TD*%
D25*
%TO.C,Q1*%
X137300000Y-114000000D03*
X139200000Y-114000000D03*
X138250000Y-112125000D03*
%TD*%
D26*
%TO.C,D1*%
X137750000Y-117500000D03*
X135550000Y-117500000D03*
%TD*%
D27*
%TO.C,R7*%
X153124997Y-116142990D03*
X153124997Y-117162990D03*
%TD*%
D17*
%TO.C,C11*%
X165834389Y-87976370D03*
X164874389Y-87976370D03*
%TD*%
D28*
%TO.C,U4*%
X131080873Y-85960000D03*
X131080873Y-88500000D03*
X131080873Y-91040000D03*
X131080873Y-93580000D03*
X131080873Y-96120000D03*
X131080873Y-98660000D03*
X131080873Y-101200000D03*
X131080873Y-103740000D03*
X148530873Y-103740000D03*
X148530873Y-101200000D03*
X148530873Y-98660000D03*
X148530873Y-96120000D03*
X148530873Y-93580000D03*
X148530873Y-91040000D03*
X148530873Y-88500000D03*
X148530873Y-85960000D03*
%TD*%
D17*
%TO.C,C10*%
X164042628Y-98325461D03*
X163082628Y-98325461D03*
%TD*%
%TO.C,C29*%
X163047187Y-78500000D03*
X162087187Y-78500000D03*
%TD*%
D24*
%TO.C,CAN+1*%
X168581063Y-100272736D03*
%TD*%
D18*
%TO.C,R3*%
X161042500Y-98314235D03*
X162062500Y-98314235D03*
%TD*%
D29*
%TO.C,U9*%
X166261804Y-79446681D03*
X166261804Y-78796681D03*
X166261804Y-78146681D03*
X164486804Y-78146681D03*
X164486804Y-78796681D03*
X164486804Y-79446681D03*
D30*
X165374304Y-78796681D03*
%TD*%
D23*
%TO.C,R10*%
X155231896Y-112510000D03*
X154211896Y-112510000D03*
%TD*%
D17*
%TO.C,C5*%
X169205854Y-95469737D03*
X168245854Y-95469737D03*
%TD*%
%TO.C,C36*%
X166083652Y-80617168D03*
X165123652Y-80617168D03*
%TD*%
%TO.C,C13*%
X157579001Y-97958513D03*
X156619001Y-97958513D03*
%TD*%
D31*
%TO.C,LD2*%
X138549954Y-107936462D03*
%TD*%
D32*
%TO.C,U1*%
X141750000Y-112100000D03*
D33*
X141750000Y-113200000D03*
X141750000Y-114300000D03*
X141750000Y-115400000D03*
X141750000Y-116500000D03*
X141750000Y-117600000D03*
X141750000Y-118700000D03*
X141750000Y-119800000D03*
D32*
X141750000Y-120900000D03*
X151250000Y-120900000D03*
D33*
X151250000Y-119800000D03*
X151250000Y-118700000D03*
X151250000Y-117600000D03*
X151250000Y-116500000D03*
X151250000Y-115400000D03*
X151250000Y-114300000D03*
X151250000Y-113200000D03*
D32*
X151250000Y-112100000D03*
%TD*%
D23*
%TO.C,R15*%
X162071971Y-86629241D03*
X161051971Y-86629241D03*
%TD*%
D34*
%TO.C,VR1*%
X163951435Y-82557709D03*
X163451435Y-82557709D03*
X162951435Y-82557709D03*
X162451435Y-82557709D03*
X161951435Y-82557709D03*
X161951435Y-85427709D03*
X162451435Y-85427709D03*
X162951435Y-85427709D03*
X163451435Y-85427709D03*
X163951435Y-85427709D03*
D35*
X162951435Y-83992709D03*
%TD*%
D22*
%TO.C,VIN1*%
X177000000Y-96000000D03*
%TD*%
D16*
%TO.C,C2*%
X140040349Y-120694339D03*
X140040349Y-119734339D03*
%TD*%
D21*
%TO.C,R6*%
X157233379Y-116808144D03*
X157233379Y-115788144D03*
%TD*%
D16*
%TO.C,C28*%
X167871783Y-69784680D03*
X167871783Y-68824680D03*
%TD*%
D23*
%TO.C,R9*%
X162516644Y-113001589D03*
X161496644Y-113001589D03*
%TD*%
D16*
%TO.C,C16*%
X156365525Y-103186678D03*
X156365525Y-102226678D03*
%TD*%
D19*
%TO.C,C24*%
X163097292Y-68416557D03*
X164057292Y-68416557D03*
%TD*%
D36*
%TO.C,U2*%
X165412500Y-95214235D03*
X165412500Y-94714235D03*
X165412500Y-94214235D03*
X165412500Y-93714235D03*
X165412500Y-93214235D03*
X165412500Y-92714235D03*
X165412500Y-92214235D03*
X165412500Y-91714235D03*
X165412500Y-91214235D03*
X165412500Y-90714235D03*
X165412500Y-90214235D03*
X165412500Y-89714235D03*
D37*
X164000000Y-88301735D03*
X163500000Y-88301735D03*
X163000000Y-88301735D03*
X162500000Y-88301735D03*
X162000000Y-88301735D03*
X161500000Y-88301735D03*
X161000000Y-88301735D03*
X160500000Y-88301735D03*
X160000000Y-88301735D03*
X159500000Y-88301735D03*
X159000000Y-88301735D03*
X158500000Y-88301735D03*
D36*
X157087500Y-89714235D03*
X157087500Y-90214235D03*
X157087500Y-90714235D03*
X157087500Y-91214235D03*
X157087500Y-91714235D03*
X157087500Y-92214235D03*
X157087500Y-92714235D03*
X157087500Y-93214235D03*
X157087500Y-93714235D03*
X157087500Y-94214235D03*
X157087500Y-94714235D03*
X157087500Y-95214235D03*
D37*
X158500000Y-96626735D03*
X159000000Y-96626735D03*
X159500000Y-96626735D03*
X160000000Y-96626735D03*
X160500000Y-96626735D03*
X161000000Y-96626735D03*
X161500000Y-96626735D03*
X162000000Y-96626735D03*
X162500000Y-96626735D03*
X163000000Y-96626735D03*
X163500000Y-96626735D03*
X164000000Y-96626735D03*
%TD*%
D17*
%TO.C,C30*%
X163059401Y-79468764D03*
X162099401Y-79468764D03*
%TD*%
D27*
%TO.C,R12*%
X167816099Y-70843160D03*
X167816099Y-71863160D03*
%TD*%
D15*
%TO.C,C18*%
X129000000Y-91040000D03*
X129000000Y-92000000D03*
%TD*%
D24*
%TO.C,LD4*%
X144237486Y-107989417D03*
%TD*%
D38*
%TO.C,J3*%
X125175000Y-85939021D03*
D39*
X122625000Y-88489021D03*
X127725000Y-88489021D03*
X122625000Y-83389021D03*
X127725000Y-83389021D03*
%TD*%
D40*
%TO.C,J1*%
X152700000Y-68096138D03*
X139500000Y-68096138D03*
%TD*%
D15*
%TO.C,C1*%
X140041485Y-117810667D03*
X140041485Y-118770667D03*
%TD*%
D18*
%TO.C,R2*%
X133268460Y-114485295D03*
X134288460Y-114485295D03*
%TD*%
D24*
%TO.C,LD3*%
X141414530Y-107957020D03*
%TD*%
D41*
%TO.C,XTAL1*%
X168248412Y-93911002D03*
X168248412Y-92006002D03*
%TD*%
D42*
%TO.C,VBCKP1*%
X132500000Y-119000000D03*
%TD*%
D22*
%TO.C,3V3RF1*%
X177000000Y-104500000D03*
%TD*%
D18*
%TO.C,R1*%
X139027712Y-115537712D03*
X140047712Y-115537712D03*
%TD*%
D25*
%TO.C,D3*%
X169178491Y-71235641D03*
X171078491Y-71235641D03*
X170128491Y-69360641D03*
%TD*%
D43*
%TO.C,D2*%
X136220000Y-114500000D03*
X135250000Y-114500000D03*
%TD*%
D19*
%TO.C,C22*%
X156076781Y-117787191D03*
X157036781Y-117787191D03*
%TD*%
D20*
%TO.C,Q4*%
X158000000Y-112600000D03*
X158000000Y-114500000D03*
X159875000Y-113550000D03*
%TD*%
D17*
%TO.C,C32*%
X163042097Y-76543979D03*
X162082097Y-76543979D03*
%TD*%
D24*
%TO.C,CAN-1*%
X168500000Y-105231261D03*
%TD*%
D44*
%TO.C,U8*%
X162006894Y-69980948D03*
D45*
X162006894Y-70430949D03*
X162006894Y-70880948D03*
X162006894Y-71330950D03*
X162006894Y-71780949D03*
X162006894Y-72230948D03*
D44*
X162006894Y-72830950D03*
X162006894Y-73580949D03*
X162006894Y-74680950D03*
X162531893Y-75576949D03*
X164781893Y-75576949D03*
X165306892Y-74680950D03*
X165306892Y-73580949D03*
X165306892Y-72830950D03*
D45*
X165306892Y-72230948D03*
X165306892Y-71780949D03*
X165306892Y-71330950D03*
X165306892Y-70880948D03*
X165306892Y-70430949D03*
D44*
X165306892Y-69980948D03*
X164781893Y-69484949D03*
D46*
X163931894Y-70259949D03*
X163381892Y-70259949D03*
D44*
X162531893Y-69484949D03*
%TD*%
D17*
%TO.C,C6*%
X169290326Y-90454232D03*
X168330326Y-90454232D03*
%TD*%
D19*
%TO.C,C12*%
X166794078Y-88456487D03*
X167754078Y-88456487D03*
%TD*%
D18*
%TO.C,R8*%
X161496644Y-114001589D03*
X162516644Y-114001589D03*
%TD*%
D17*
%TO.C,C14*%
X157579001Y-96946198D03*
X156619001Y-96946198D03*
%TD*%
D23*
%TO.C,R11*%
X155231896Y-111500000D03*
X154211896Y-111500000D03*
%TD*%
D19*
%TO.C,C20*%
X165220835Y-102739024D03*
X166180835Y-102739024D03*
%TD*%
%TO.C,C26*%
X163150697Y-66465525D03*
X164110697Y-66465525D03*
%TD*%
D47*
%TO.C,J6*%
X163221032Y-118313163D03*
D48*
X161696032Y-119788163D03*
D47*
X163221032Y-121263163D03*
%TD*%
D19*
%TO.C,C3*%
X166274651Y-96131643D03*
X167234651Y-96131643D03*
%TD*%
D16*
%TO.C,C7*%
X167246950Y-90487240D03*
X167246950Y-89527240D03*
%TD*%
D42*
%TO.C,GND1*%
X127500000Y-119000000D03*
%TD*%
D17*
%TO.C,C27*%
X163047753Y-77521020D03*
X162087753Y-77521020D03*
%TD*%
D49*
%TO.C,U7*%
X158414002Y-110585998D03*
X158414002Y-109935999D03*
X158414002Y-109286000D03*
X156286000Y-109286000D03*
X156286000Y-109935999D03*
X156286000Y-110585998D03*
%TD*%
D17*
%TO.C,C33*%
X165410254Y-77035407D03*
X164450254Y-77035407D03*
%TD*%
D19*
%TO.C,C34*%
X162121761Y-81417015D03*
X163081761Y-81417015D03*
%TD*%
D50*
%TO.C,U5*%
X163825000Y-114000000D03*
X164274999Y-114000000D03*
X164725001Y-114000000D03*
X165175000Y-114000000D03*
D51*
X164500000Y-112798301D03*
%TD*%
D52*
%TO.C,U3*%
X157778652Y-100702721D03*
X157778652Y-101972721D03*
X157778652Y-103242721D03*
X157778652Y-104512721D03*
X163221348Y-104512721D03*
X163221348Y-103242721D03*
X163221348Y-101972721D03*
X163221348Y-100702721D03*
%TD*%
D53*
%TO.C,Q3*%
X155559082Y-116012500D03*
X155559082Y-114112500D03*
X153684082Y-115062500D03*
%TD*%
D17*
%TO.C,C21*%
X153872563Y-119800000D03*
X152912563Y-119800000D03*
%TD*%
D54*
%TO.C,U6*%
X167075002Y-114500000D03*
X167725001Y-114500000D03*
X168375000Y-114500000D03*
X168375000Y-112371998D03*
X167725001Y-112371998D03*
X167075002Y-112371998D03*
%TD*%
D55*
%TO.C,J2*%
X174672265Y-83692548D03*
D56*
X172132265Y-83692548D03*
X174672265Y-86232548D03*
X172132265Y-86232548D03*
X174672265Y-88772548D03*
X172132265Y-88772548D03*
X174672265Y-91312548D03*
X172132265Y-91312548D03*
X174672265Y-93852548D03*
X172132265Y-93852548D03*
X174672265Y-96392548D03*
X172132265Y-96392548D03*
X174672265Y-98932548D03*
X172132265Y-98932548D03*
X174672265Y-101472548D03*
X172132265Y-101472548D03*
X174672265Y-104012548D03*
X172132265Y-104012548D03*
X174672265Y-106552548D03*
X172132265Y-106552548D03*
%TD*%
D16*
%TO.C,C8*%
X155890697Y-88761612D03*
X155890697Y-87801612D03*
%TD*%
D57*
%TO.C,Q2*%
X152215001Y-81988828D03*
D58*
X154500000Y-74888728D03*
D57*
X156784999Y-81988828D03*
%TD*%
D59*
%TO.C,L1*%
X156120785Y-119761579D03*
X156120785Y-118791579D03*
%TD*%
D24*
%TO.C,LD0*%
X132808300Y-107919266D03*
%TD*%
D15*
%TO.C,C19*%
X128000000Y-91040000D03*
X128000000Y-92000000D03*
%TD*%
D27*
%TO.C,R13*%
X167812670Y-72770075D03*
X167812670Y-73790075D03*
%TD*%
D16*
%TO.C,C4*%
X156909296Y-88757076D03*
X156909296Y-87797076D03*
%TD*%
D24*
%TO.C,LD1*%
X135675835Y-107918929D03*
%TD*%
M02*
