%TF.GenerationSoftware,KiCad,Pcbnew,9.0.6*%
%TF.CreationDate,2026-03-01T21:52:59+00:00*%
%TF.ProjectId,teachtaire,74656163-6874-4616-9972-652e6b696361,rev?*%
%TF.SameCoordinates,Original*%
%TF.FileFunction,Copper,L6,Bot*%
%TF.FilePolarity,Positive*%
%FSLAX46Y46*%
G04 Gerber Fmt 4.6, Leading zero omitted, Abs format (unit mm)*
G04 Created by KiCad (PCBNEW 9.0.6) date 2026-03-01 21:52:59*
%MOMM*%
%LPD*%
G01*
G04 APERTURE LIST*
G04 Aperture macros list*
%AMRoundRect*
0 Rectangle with rounded corners*
0 $1 Rounding radius*
0 $2 $3 $4 $5 $6 $7 $8 $9 X,Y pos of 4 corners*
0 Add a 4 corners polygon primitive as box body*
4,1,4,$2,$3,$4,$5,$6,$7,$8,$9,$2,$3,0*
0 Add four circle primitives for the rounded corners*
1,1,$1+$1,$2,$3*
1,1,$1+$1,$4,$5*
1,1,$1+$1,$6,$7*
1,1,$1+$1,$8,$9*
0 Add four rect primitives between the rounded corners*
20,1,$1+$1,$2,$3,$4,$5,0*
20,1,$1+$1,$4,$5,$6,$7,0*
20,1,$1+$1,$6,$7,$8,$9,0*
20,1,$1+$1,$8,$9,$2,$3,0*%
G04 Aperture macros list end*
%TA.AperFunction,Conductor*%
%ADD10C,0.200000*%
%TD*%
%TA.AperFunction,ComponentPad*%
%ADD11RoundRect,0.200100X0.949900X-0.949900X0.949900X0.949900X-0.949900X0.949900X-0.949900X-0.949900X0*%
%TD*%
%TA.AperFunction,ComponentPad*%
%ADD12C,2.200000*%
%TD*%
%TA.AperFunction,ComponentPad*%
%ADD13R,2.300000X2.300000*%
%TD*%
%TA.AperFunction,ComponentPad*%
%ADD14C,2.300000*%
%TD*%
%TA.AperFunction,ComponentPad*%
%ADD15R,1.524000X1.524000*%
%TD*%
%TA.AperFunction,ComponentPad*%
%ADD16C,1.524000*%
%TD*%
%TA.AperFunction,ViaPad*%
%ADD17C,0.600000*%
%TD*%
%TA.AperFunction,Conductor*%
%ADD18C,1.000000*%
%TD*%
G04 APERTURE END LIST*
%TO.N,5VSERVO*%
D10*
X171252891Y-85000000D02*
X175557415Y-85000000D01*
X175557415Y-92500000D01*
X171252891Y-92500000D01*
X171252891Y-85000000D01*
%TA.AperFunction,Conductor*%
G36*
X171252891Y-85000000D02*
G01*
X175557415Y-85000000D01*
X175557415Y-92500000D01*
X171252891Y-92500000D01*
X171252891Y-85000000D01*
G37*
%TD.AperFunction*%
%TD*%
D11*
%TO.P,J3,1,In*%
%TO.N,Net-(J3-In)*%
X125175000Y-85939021D03*
D12*
%TO.P,J3,2,Ext*%
%TO.N,GND*%
X122625000Y-88489021D03*
X127725000Y-88489021D03*
X122625000Y-83389021D03*
X127725000Y-83389021D03*
%TD*%
D13*
%TO.P,J1,1,1*%
%TO.N,Net-(Q2-D)*%
X144000000Y-72296138D03*
D14*
%TO.P,J1,2,2*%
X148200000Y-72296138D03*
%TO.P,J1,3,3*%
%TO.N,GND*%
X144000000Y-77796138D03*
%TO.P,J1,4,4*%
X148200000Y-77796138D03*
%TD*%
D15*
%TO.P,J2,01,01*%
%TO.N,GND*%
X174672265Y-83692548D03*
D16*
%TO.P,J2,02,02*%
X172132265Y-83692548D03*
%TO.P,J2,03,03*%
%TO.N,5VSERVO*%
X174672265Y-86232548D03*
%TO.P,J2,04,04*%
X172132265Y-86232548D03*
%TO.P,J2,05,05*%
X174672265Y-88772548D03*
%TO.P,J2,06,06*%
X172132265Y-88772548D03*
%TO.P,J2,07,07*%
X174672265Y-91312548D03*
%TO.P,J2,08,08*%
X172132265Y-91312548D03*
%TO.P,J2,09,09*%
%TO.N,GND*%
X174672265Y-93852548D03*
%TO.P,J2,10,10*%
X172132265Y-93852548D03*
%TO.P,J2,11,11*%
%TO.N,5VLOGIC*%
X174672265Y-96392548D03*
%TO.P,J2,12,12*%
X172132265Y-96392548D03*
%TO.P,J2,13,13*%
%TO.N,GND*%
X174672265Y-98932548D03*
%TO.P,J2,14,14*%
X172132265Y-98932548D03*
%TO.P,J2,15,15*%
X174672265Y-101472548D03*
%TO.P,J2,16,16*%
%TO.N,CANo_+*%
X172132265Y-101472548D03*
%TO.P,J2,17,17*%
%TO.N,GND*%
X174672265Y-104012548D03*
%TO.P,J2,18,18*%
%TO.N,CANo_-*%
X172132265Y-104012548D03*
%TO.P,J2,19,19*%
%TO.N,GND*%
X174672265Y-106552548D03*
%TO.P,J2,20,20*%
X172132265Y-106552548D03*
%TD*%
D17*
%TO.N,Net-(U5--IN)*%
X164225001Y-115500000D03*
X159500000Y-110500000D03*
%TO.N,GND*%
X160000000Y-70280987D03*
X130500000Y-84000000D03*
X170258731Y-89330148D03*
X170878360Y-78050435D03*
X161281893Y-82576949D03*
X171518931Y-79782441D03*
X170219599Y-97997942D03*
X155905022Y-120761751D03*
X173235188Y-114550435D03*
X153000000Y-118000000D03*
X125187402Y-83831028D03*
X158974240Y-108669468D03*
X161079134Y-79556346D03*
X129085918Y-87407668D03*
X158372211Y-121245124D03*
X158461418Y-93461418D03*
X176399030Y-97449499D03*
X170383457Y-92622941D03*
X161538891Y-121319404D03*
X153164191Y-89230610D03*
X125231992Y-104554101D03*
X170380172Y-93677988D03*
X134999593Y-119550568D03*
X140066264Y-121605279D03*
X171596824Y-110335658D03*
X162500000Y-110500000D03*
X127231415Y-86868886D03*
X135000000Y-104500000D03*
X138884848Y-104435315D03*
X161000000Y-110500000D03*
X163509654Y-95250269D03*
X160000000Y-73280987D03*
X159680225Y-89844483D03*
X153285172Y-82420574D03*
X160000000Y-112500000D03*
X159774323Y-86798777D03*
X125875866Y-87971338D03*
X174790453Y-109673564D03*
X154500000Y-117000000D03*
X167147071Y-78291980D03*
X167597869Y-102729340D03*
X125168890Y-87961785D03*
X153000000Y-97500000D03*
X128675700Y-114620187D03*
X138234018Y-110767194D03*
X156895454Y-86917804D03*
X158851361Y-120722043D03*
X165913446Y-68247385D03*
X142828298Y-88913386D03*
X169000000Y-113500000D03*
X155000000Y-110500000D03*
X163093569Y-99306853D03*
X139250000Y-116500000D03*
X168484457Y-96395483D03*
X138937583Y-117908053D03*
X130925700Y-112204370D03*
X143000000Y-87500000D03*
X128675700Y-80620187D03*
X143061466Y-99762898D03*
X168088293Y-89459818D03*
X130925700Y-78204370D03*
X173390064Y-98500000D03*
X173424530Y-95135946D03*
X152931145Y-120730127D03*
X157372211Y-121500000D03*
X163172320Y-122301406D03*
X161443812Y-118306670D03*
X125829495Y-83831028D03*
X154000000Y-114000000D03*
X143000000Y-92000000D03*
X143000000Y-94000000D03*
X162500000Y-109500000D03*
X156323013Y-96042048D03*
X171596824Y-76335658D03*
X165070457Y-119799995D03*
X129500000Y-84000000D03*
X161079134Y-76556346D03*
X173128360Y-75634618D03*
X130285129Y-110472364D03*
X155722620Y-97965705D03*
X159250000Y-102107721D03*
X153500000Y-102500000D03*
X167684457Y-87645483D03*
X170878360Y-112050435D03*
X149205492Y-105860011D03*
X159522307Y-84200000D03*
X163219040Y-117278105D03*
X124461914Y-87971338D03*
X154007639Y-118841269D03*
X156308316Y-121500000D03*
X157805865Y-118884478D03*
X159693172Y-120706160D03*
X127013607Y-80581241D03*
X160000000Y-68780987D03*
X159340810Y-118891355D03*
X154750000Y-87714235D03*
X169500000Y-116000000D03*
X156955619Y-118884478D03*
X128400000Y-101258698D03*
X174878360Y-114550435D03*
X166397071Y-77041980D03*
X170400171Y-90383286D03*
X154986293Y-118829232D03*
X164874388Y-87158837D03*
X161000000Y-109500000D03*
X152000000Y-110500000D03*
X155000000Y-118000000D03*
X155000000Y-105992721D03*
X140000000Y-112000000D03*
X124000000Y-96500000D03*
X168856885Y-69676488D03*
X153000000Y-94000000D03*
X126925700Y-75704370D03*
X128568872Y-75704370D03*
X155303596Y-101047436D03*
X127244447Y-85021483D03*
X150943477Y-106431063D03*
X161500000Y-91500000D03*
X128938376Y-86887373D03*
X153000000Y-100000000D03*
X130207236Y-79919147D03*
X158608644Y-118896079D03*
X164781893Y-82576949D03*
X159500000Y-109500000D03*
X167403105Y-115636070D03*
X157000000Y-99500000D03*
X128107036Y-86859994D03*
X153285172Y-81566753D03*
X130285129Y-76472364D03*
X133253755Y-106700335D03*
X123069457Y-85223236D03*
X160155500Y-118910870D03*
X158379652Y-105975420D03*
X174790453Y-75673564D03*
X165520548Y-88884200D03*
X174878360Y-80550435D03*
X130986269Y-105379125D03*
X128400000Y-99841124D03*
X124000000Y-107500000D03*
X123069457Y-85865329D03*
X155000000Y-109500000D03*
X171518931Y-113782441D03*
X144500000Y-105500000D03*
X156754775Y-120785576D03*
X133500000Y-88500000D03*
X157747477Y-120737926D03*
X134250000Y-101250000D03*
X158000000Y-118000000D03*
X166000000Y-113000000D03*
X128574110Y-109567686D03*
X153234501Y-121531618D03*
X129500000Y-108000000D03*
X153500000Y-109500000D03*
X161918573Y-67365570D03*
X153007639Y-118841269D03*
X161079134Y-77556346D03*
X157000000Y-105992721D03*
X154068855Y-120728907D03*
X173235188Y-80550435D03*
X170500000Y-95000000D03*
X160000000Y-67000000D03*
X170396886Y-91438333D03*
X128094444Y-85034075D03*
X142462119Y-103962119D03*
X156000000Y-105992721D03*
X153500000Y-110500000D03*
X126931875Y-109543796D03*
X152000000Y-109500000D03*
X123094802Y-86575011D03*
X154000000Y-118000000D03*
X161810953Y-68549394D03*
X154372211Y-121530398D03*
X161079134Y-80556346D03*
X127013607Y-114581241D03*
X127500000Y-117000000D03*
X169500000Y-66500000D03*
X156500000Y-113000000D03*
X160000000Y-71780987D03*
X131000000Y-117000000D03*
X130207236Y-113919147D03*
X160164502Y-98319768D03*
X129000000Y-85000000D03*
X166000000Y-84500000D03*
X155303356Y-121471465D03*
X124477720Y-83856373D03*
X155039386Y-120745868D03*
X173128360Y-109634618D03*
X143008933Y-101336375D03*
%TO.N,NRST*%
X125219365Y-102028935D03*
X163500000Y-93000000D03*
%TO.N,5VLOGIC*%
X161500000Y-106000000D03*
X171080961Y-72396173D03*
X171110009Y-73209519D03*
%TO.N,VBAT*%
X164672457Y-67484260D03*
X166000000Y-67280987D03*
X166500000Y-71930988D03*
X164672457Y-68291980D03*
X177000000Y-94500000D03*
%TO.N,SWDIO*%
X125269478Y-100756058D03*
X155138720Y-95702409D03*
%TO.N,/GNSS_Bias_T/ANT_OFF_N*%
X158000000Y-113500000D03*
X149500000Y-117000000D03*
%TO.N,PA10*%
X155052912Y-92372459D03*
X143573229Y-113248599D03*
%TO.N,PA9*%
X143555272Y-114290117D03*
X155330471Y-91622149D03*
%TO.N,LoRa_DIO4*%
X146500000Y-101250000D03*
X152500000Y-101250000D03*
X159452251Y-92297749D03*
%TO.N,LoRa_RESET*%
X163734457Y-90895483D03*
X150503980Y-96127582D03*
%TO.N,LoRa_MOSI*%
X150500000Y-88500000D03*
X161500000Y-90000000D03*
%TO.N,LoRa_DIO5*%
X158500000Y-92500000D03*
X146500000Y-98000000D03*
%TO.N,LoRa_DIO3*%
X153250000Y-87750000D03*
X151000000Y-104250000D03*
X141500000Y-106500000D03*
X146500000Y-104000000D03*
%TO.N,LoRa_DIO0*%
X133250000Y-98250000D03*
X160603248Y-89951778D03*
%TO.N,LoRa_RX_SWITCH*%
X133420000Y-93580000D03*
X155813665Y-90984553D03*
%TO.N,LoRa_DIO2*%
X158642769Y-90582553D03*
X133250000Y-103250000D03*
%TO.N,LoRa_NSS*%
X163883457Y-89714235D03*
X150500000Y-86000000D03*
%TO.N,LoRa_TX_SWITCH*%
X133380000Y-96120000D03*
X159500000Y-94500000D03*
%TO.N,LoRa_SCK*%
X152513554Y-91400000D03*
X163121242Y-89471272D03*
%TO.N,LoRa_MISO*%
X162474578Y-90000000D03*
X150500000Y-91040000D03*
%TO.N,LoRa_DIO1*%
X129000000Y-102750000D03*
X158625647Y-86922600D03*
%TO.N,Net-(U8-VCC)*%
X167400000Y-68007357D03*
X160991000Y-72380550D03*
%TO.N,Net-(Q2-S)*%
X168918777Y-73011603D03*
X169174049Y-72385026D03*
X158000000Y-81575949D03*
X159000000Y-81575949D03*
%TO.N,GNSS_RESET*%
X162484457Y-95145483D03*
X143500000Y-121000000D03*
%TO.N,Net-(U9-EN)*%
X161049165Y-84115675D03*
X163979715Y-80433079D03*
%TO.N,SWCLK*%
X125249433Y-99533294D03*
X158413351Y-95207957D03*
%TO.N,+3V3RF*%
X164906648Y-84966660D03*
X127029342Y-91009780D03*
X177000000Y-103000000D03*
X139000000Y-119136583D03*
X138136583Y-119136583D03*
X126300123Y-91013259D03*
%TO.N,+3V3D*%
X133268417Y-115450020D03*
X125250000Y-103250000D03*
X157401572Y-107598427D03*
X158460774Y-98170486D03*
X166092027Y-81538748D03*
X176000000Y-100000000D03*
X138000000Y-115500000D03*
X157750000Y-86895483D03*
X163144051Y-105418579D03*
X166734457Y-87395483D03*
X163984457Y-99395483D03*
X167725001Y-111274999D03*
%TD*%
D10*
%TO.N,Net-(U5--IN)*%
X160000000Y-110500000D02*
X159500000Y-110500000D01*
X164225001Y-115500000D02*
X164225001Y-114725001D01*
X164225001Y-114725001D02*
X160000000Y-110500000D01*
%TO.N,GND*%
X134895483Y-89895483D02*
X133500000Y-88500000D01*
X159500000Y-89844483D02*
X159449000Y-89895483D01*
X159680225Y-89844483D02*
X159500000Y-89844483D01*
X159449000Y-89895483D02*
X134895483Y-89895483D01*
%TO.N,NRST*%
X152858710Y-102171287D02*
X162029997Y-93000000D01*
X125361717Y-102171287D02*
X128728770Y-102171287D01*
X129271230Y-102171287D02*
X152858710Y-102171287D01*
X162029997Y-93000000D02*
X163500000Y-93000000D01*
X128728770Y-102171287D02*
X128751057Y-102149000D01*
X129248943Y-102149000D02*
X129271230Y-102171287D01*
X125219365Y-102028935D02*
X125361717Y-102171287D01*
X128751057Y-102149000D02*
X129248943Y-102149000D01*
D18*
%TO.N,5VLOGIC*%
X169196397Y-75303603D02*
X169196397Y-95225392D01*
D10*
X161500000Y-106000000D02*
X161500000Y-105256101D01*
D18*
X171078467Y-72398667D02*
X171078467Y-73421533D01*
X171078467Y-73421533D02*
X169196397Y-75303603D01*
X170363553Y-96392548D02*
X174672265Y-96392548D01*
D10*
X161500000Y-105256101D02*
X170363553Y-96392548D01*
D18*
X171080961Y-72396173D02*
X171078467Y-72398667D01*
X169196397Y-95225392D02*
X170363553Y-96392548D01*
D10*
%TO.N,VBAT*%
X166500000Y-66984987D02*
X166000000Y-67484987D01*
X167500000Y-66984987D02*
X166500000Y-66984987D01*
X168000000Y-70634988D02*
X168000000Y-67484987D01*
X168000000Y-67484987D02*
X167500000Y-66984987D01*
X166500000Y-72134988D02*
X168000000Y-70634988D01*
%TO.N,SWDIO*%
X125269478Y-100756058D02*
X125425471Y-100600065D01*
X125425471Y-100600065D02*
X151399935Y-100600065D01*
X155138720Y-96861280D02*
X155138720Y-95702409D01*
X151399935Y-100600065D02*
X155138720Y-96861280D01*
%TO.N,/GNSS_Bias_T/ANT_OFF_N*%
X149500000Y-117000000D02*
X149500000Y-116500000D01*
X151000000Y-115000000D02*
X155650057Y-115000000D01*
X149500000Y-116500000D02*
X151000000Y-115000000D01*
X157150057Y-113500000D02*
X158000000Y-113500000D01*
X155650057Y-115000000D02*
X157150057Y-113500000D01*
%TO.N,LoRa_DIO5*%
X158500000Y-92500000D02*
X156432900Y-92500000D01*
X156432900Y-92500000D02*
X150932900Y-98000000D01*
X150932900Y-98000000D02*
X146500000Y-98000000D01*
%TO.N,LoRa_DIO3*%
X152950975Y-104250000D02*
X151000000Y-104250000D01*
X163748943Y-93601000D02*
X161996097Y-93601000D01*
X164484457Y-89465292D02*
X164484457Y-92865486D01*
X155904596Y-99692501D02*
X155904596Y-101296379D01*
X161996097Y-93601000D02*
X155904596Y-99692501D01*
X164484457Y-92865486D02*
X163748943Y-93601000D01*
X153250000Y-87750000D02*
X154370272Y-88870272D01*
X154370272Y-88870272D02*
X163889437Y-88870272D01*
X144000000Y-104000000D02*
X146500000Y-104000000D01*
X163889437Y-88870272D02*
X164484457Y-89465292D01*
X155904596Y-101296379D02*
X152950975Y-104250000D01*
X141500000Y-106500000D02*
X144000000Y-104000000D01*
%TO.N,LoRa_RX_SWITCH*%
X154515447Y-90984553D02*
X152500000Y-93000000D01*
X134000000Y-93000000D02*
X133420000Y-93580000D01*
X152500000Y-93000000D02*
X134000000Y-93000000D01*
X155813665Y-90984553D02*
X154515447Y-90984553D01*
%TO.N,Net-(U8-VCC)*%
X167400000Y-68007357D02*
X163116295Y-72291062D01*
X161193925Y-72291062D02*
X161000000Y-72484987D01*
X163116295Y-72291062D02*
X161193925Y-72291062D01*
D18*
%TO.N,Net-(Q2-S)*%
X169178491Y-72389468D02*
X169178491Y-72772343D01*
X169178491Y-72772343D02*
X162978715Y-78972119D01*
X161696521Y-81575949D02*
X159000000Y-81575949D01*
X162978715Y-80293755D02*
X161696521Y-81575949D01*
X162978715Y-78972119D02*
X162978715Y-80293755D01*
X159000000Y-81575949D02*
X158000000Y-81575949D01*
X169174049Y-72385026D02*
X169178491Y-72389468D01*
D10*
%TO.N,Net-(U9-EN)*%
X161156219Y-84115675D02*
X163923055Y-81348839D01*
X163979715Y-80433079D02*
X163911771Y-80433079D01*
X163923055Y-81348839D02*
X163923055Y-80348839D01*
X161049165Y-84115675D02*
X161156219Y-84115675D01*
%TO.N,SWCLK*%
X157818037Y-94500000D02*
X158413351Y-95095314D01*
X155000000Y-94500000D02*
X157818037Y-94500000D01*
X125249433Y-99533294D02*
X125782727Y-99000000D01*
X125782727Y-99000000D02*
X150500000Y-99000000D01*
X150500000Y-99000000D02*
X155000000Y-94500000D01*
X158413351Y-95095314D02*
X158413351Y-95207957D01*
%TD*%
%TA.AperFunction,Conductor*%
%TO.N,GND*%
G36*
X174198884Y-104208629D02*
G01*
X174265763Y-104324468D01*
X174360345Y-104419050D01*
X174476184Y-104485929D01*
X174536322Y-104502042D01*
X173973548Y-105064816D01*
X173973548Y-105064817D01*
X174010832Y-105091906D01*
X174168147Y-105172063D01*
X174218943Y-105220038D01*
X174235738Y-105287859D01*
X174213200Y-105353994D01*
X174168147Y-105393033D01*
X174010829Y-105473191D01*
X173973548Y-105500277D01*
X173973547Y-105500278D01*
X174536323Y-106063052D01*
X174476184Y-106079167D01*
X174360345Y-106146046D01*
X174265763Y-106240628D01*
X174198884Y-106356467D01*
X174182769Y-106416605D01*
X173619995Y-105853830D01*
X173619994Y-105853831D01*
X173592908Y-105891112D01*
X173512750Y-106048430D01*
X173464775Y-106099226D01*
X173396954Y-106116021D01*
X173330819Y-106093483D01*
X173291780Y-106048430D01*
X173211623Y-105891115D01*
X173184533Y-105853831D01*
X172621759Y-106416605D01*
X172605646Y-106356467D01*
X172538767Y-106240628D01*
X172444185Y-106146046D01*
X172328346Y-106079167D01*
X172268207Y-106063052D01*
X172830981Y-105500279D01*
X172830980Y-105500278D01*
X172793697Y-105473189D01*
X172636933Y-105393313D01*
X172586137Y-105345338D01*
X172569342Y-105277517D01*
X172591880Y-105211382D01*
X172636932Y-105172344D01*
X172793959Y-105092335D01*
X172954729Y-104975529D01*
X173095246Y-104835012D01*
X173212052Y-104674242D01*
X173292061Y-104517215D01*
X173340034Y-104466420D01*
X173407855Y-104449625D01*
X173473990Y-104472162D01*
X173513030Y-104517216D01*
X173592906Y-104673980D01*
X173619995Y-104711263D01*
X173619996Y-104711264D01*
X174182769Y-104148490D01*
X174198884Y-104208629D01*
G37*
%TD.AperFunction*%
%TA.AperFunction,Conductor*%
G36*
X174198884Y-101668629D02*
G01*
X174265763Y-101784468D01*
X174360345Y-101879050D01*
X174476184Y-101945929D01*
X174536322Y-101962042D01*
X173973548Y-102524816D01*
X173973548Y-102524817D01*
X174010832Y-102551906D01*
X174168147Y-102632063D01*
X174218943Y-102680038D01*
X174235738Y-102747859D01*
X174213200Y-102813994D01*
X174168147Y-102853033D01*
X174010829Y-102933191D01*
X173973548Y-102960277D01*
X173973547Y-102960278D01*
X174536323Y-103523052D01*
X174476184Y-103539167D01*
X174360345Y-103606046D01*
X174265763Y-103700628D01*
X174198884Y-103816467D01*
X174182769Y-103876605D01*
X173619995Y-103313830D01*
X173619994Y-103313831D01*
X173592906Y-103351114D01*
X173513029Y-103507880D01*
X173465055Y-103558675D01*
X173397234Y-103575470D01*
X173331099Y-103552932D01*
X173292061Y-103507880D01*
X173212052Y-103350854D01*
X173095246Y-103190084D01*
X172954729Y-103049567D01*
X172793959Y-102932761D01*
X172637483Y-102853032D01*
X172586688Y-102805058D01*
X172569893Y-102737237D01*
X172592430Y-102671102D01*
X172637483Y-102632063D01*
X172793959Y-102552335D01*
X172954729Y-102435529D01*
X173095246Y-102295012D01*
X173212052Y-102134242D01*
X173292061Y-101977215D01*
X173340034Y-101926420D01*
X173407855Y-101909625D01*
X173473990Y-101932162D01*
X173513030Y-101977216D01*
X173592906Y-102133980D01*
X173619995Y-102171263D01*
X173619996Y-102171264D01*
X174182769Y-101608490D01*
X174198884Y-101668629D01*
G37*
%TD.AperFunction*%
%TA.AperFunction,Conductor*%
G36*
X174198884Y-99128629D02*
G01*
X174265763Y-99244468D01*
X174360345Y-99339050D01*
X174476184Y-99405929D01*
X174536322Y-99422043D01*
X173973548Y-99984816D01*
X173973548Y-99984817D01*
X174010832Y-100011906D01*
X174168147Y-100092063D01*
X174218943Y-100140038D01*
X174235738Y-100207859D01*
X174213200Y-100273994D01*
X174168147Y-100313033D01*
X174010829Y-100393191D01*
X173973548Y-100420277D01*
X173973547Y-100420278D01*
X174536323Y-100983052D01*
X174476184Y-100999167D01*
X174360345Y-101066046D01*
X174265763Y-101160628D01*
X174198884Y-101276467D01*
X174182769Y-101336605D01*
X173619995Y-100773830D01*
X173619994Y-100773831D01*
X173592906Y-100811114D01*
X173513029Y-100967880D01*
X173465055Y-101018675D01*
X173397234Y-101035470D01*
X173331099Y-101012932D01*
X173292061Y-100967880D01*
X173212052Y-100810854D01*
X173095246Y-100650084D01*
X172954729Y-100509567D01*
X172793959Y-100392761D01*
X172636932Y-100312751D01*
X172586137Y-100264777D01*
X172569342Y-100196956D01*
X172591879Y-100130821D01*
X172636934Y-100091782D01*
X172793687Y-100011912D01*
X172830981Y-99984816D01*
X172268207Y-99422042D01*
X172328346Y-99405929D01*
X172444185Y-99339050D01*
X172538767Y-99244468D01*
X172605646Y-99128629D01*
X172621760Y-99068490D01*
X173184533Y-99631263D01*
X173211627Y-99593973D01*
X173291780Y-99436665D01*
X173339754Y-99385869D01*
X173407575Y-99369074D01*
X173473710Y-99391611D01*
X173512750Y-99436665D01*
X173592906Y-99593980D01*
X173619995Y-99631263D01*
X173619996Y-99631264D01*
X174182769Y-99068490D01*
X174198884Y-99128629D01*
G37*
%TD.AperFunction*%
%TA.AperFunction,Conductor*%
G36*
X173928191Y-97412733D02*
G01*
X173934028Y-97416723D01*
X174010571Y-97472335D01*
X174167597Y-97552344D01*
X174218392Y-97600317D01*
X174235187Y-97668138D01*
X174212650Y-97734273D01*
X174167597Y-97773312D01*
X174010831Y-97853189D01*
X173973548Y-97880277D01*
X173973547Y-97880278D01*
X174536323Y-98443052D01*
X174476184Y-98459167D01*
X174360345Y-98526046D01*
X174265763Y-98620628D01*
X174198884Y-98736467D01*
X174182769Y-98796605D01*
X173619995Y-98233830D01*
X173619994Y-98233831D01*
X173592908Y-98271112D01*
X173512750Y-98428430D01*
X173464775Y-98479226D01*
X173396954Y-98496021D01*
X173330819Y-98473483D01*
X173291780Y-98428430D01*
X173211623Y-98271115D01*
X173184533Y-98233831D01*
X172621759Y-98796605D01*
X172605646Y-98736467D01*
X172538767Y-98620628D01*
X172444185Y-98526046D01*
X172328346Y-98459167D01*
X172268207Y-98443052D01*
X172830981Y-97880279D01*
X172830980Y-97880278D01*
X172793697Y-97853189D01*
X172636933Y-97773313D01*
X172586137Y-97725338D01*
X172569342Y-97657517D01*
X172591880Y-97591382D01*
X172636932Y-97552344D01*
X172793959Y-97472335D01*
X172870493Y-97416729D01*
X172936298Y-97393250D01*
X172943378Y-97393048D01*
X173861152Y-97393048D01*
X173928191Y-97412733D01*
G37*
%TD.AperFunction*%
%TA.AperFunction,Conductor*%
G36*
X174198884Y-94048629D02*
G01*
X174265763Y-94164468D01*
X174360345Y-94259050D01*
X174476184Y-94325929D01*
X174536322Y-94342042D01*
X173973548Y-94904816D01*
X173973548Y-94904817D01*
X174010832Y-94931906D01*
X174167596Y-95011782D01*
X174218392Y-95059757D01*
X174235187Y-95127578D01*
X174212649Y-95193713D01*
X174167596Y-95232752D01*
X174010570Y-95312761D01*
X173962165Y-95347929D01*
X173934036Y-95368366D01*
X173868232Y-95391846D01*
X173861152Y-95392048D01*
X172943378Y-95392048D01*
X172876339Y-95372363D01*
X172870501Y-95368372D01*
X172793959Y-95312761D01*
X172636932Y-95232751D01*
X172586137Y-95184777D01*
X172569342Y-95116956D01*
X172591879Y-95050821D01*
X172636934Y-95011782D01*
X172793687Y-94931912D01*
X172830981Y-94904816D01*
X172268207Y-94342042D01*
X172328346Y-94325929D01*
X172444185Y-94259050D01*
X172538767Y-94164468D01*
X172605646Y-94048629D01*
X172621760Y-93988490D01*
X173184533Y-94551263D01*
X173211627Y-94513973D01*
X173291780Y-94356665D01*
X173339754Y-94305869D01*
X173407575Y-94289074D01*
X173473710Y-94311611D01*
X173512750Y-94356665D01*
X173592906Y-94513980D01*
X173619995Y-94551263D01*
X174182769Y-93988489D01*
X174198884Y-94048629D01*
G37*
%TD.AperFunction*%
%TA.AperFunction,Conductor*%
G36*
X145607428Y-101209940D02*
G01*
X145639635Y-101218439D01*
X145640835Y-101219749D01*
X145642539Y-101220250D01*
X145664321Y-101245388D01*
X145686830Y-101269960D01*
X145687556Y-101272202D01*
X145688294Y-101273054D01*
X145689239Y-101277399D01*
X145697704Y-101303537D01*
X145699500Y-101313974D01*
X145699500Y-101328842D01*
X145718458Y-101424152D01*
X145718735Y-101425759D01*
X145714897Y-101458927D01*
X145711921Y-101492188D01*
X145710895Y-101493507D01*
X145710704Y-101495166D01*
X145689555Y-101520978D01*
X145669058Y-101547365D01*
X145667481Y-101547921D01*
X145666424Y-101549212D01*
X145634665Y-101559497D01*
X145603168Y-101570609D01*
X145601543Y-101570225D01*
X145599953Y-101570740D01*
X145596531Y-101570787D01*
X129427505Y-101570787D01*
X129395412Y-101566562D01*
X129337714Y-101551102D01*
X129328000Y-101548499D01*
X129169886Y-101548499D01*
X129162290Y-101548499D01*
X129162274Y-101548500D01*
X128837727Y-101548500D01*
X128837711Y-101548499D01*
X128830115Y-101548499D01*
X128672000Y-101548499D01*
X128604590Y-101566562D01*
X128572496Y-101570787D01*
X125942272Y-101570787D01*
X125875233Y-101551102D01*
X125850945Y-101530664D01*
X125844482Y-101523627D01*
X125841154Y-101518646D01*
X125825874Y-101503366D01*
X125824096Y-101501430D01*
X125809789Y-101472357D01*
X125794258Y-101443915D01*
X125794452Y-101441191D01*
X125793246Y-101438739D01*
X125796930Y-101406531D01*
X125799240Y-101374223D01*
X125800926Y-101371598D01*
X125801187Y-101369322D01*
X125806818Y-101362430D01*
X125827740Y-101329873D01*
X125891267Y-101266347D01*
X125898399Y-101255672D01*
X125952012Y-101210869D01*
X126001501Y-101200565D01*
X145575500Y-101200565D01*
X145607428Y-101209940D01*
G37*
%TD.AperFunction*%
%TA.AperFunction,Conductor*%
G36*
X157555890Y-95120185D02*
G01*
X157601645Y-95172989D01*
X157612851Y-95224500D01*
X157612851Y-95286803D01*
X157643612Y-95441446D01*
X157643615Y-95441458D01*
X157703953Y-95587129D01*
X157703960Y-95587142D01*
X157791561Y-95718245D01*
X157791564Y-95718249D01*
X157903058Y-95829743D01*
X157903062Y-95829746D01*
X158034165Y-95917347D01*
X158036105Y-95918384D01*
X158036930Y-95919194D01*
X158039237Y-95920736D01*
X158038944Y-95921173D01*
X158085950Y-95967346D01*
X158101412Y-96035483D01*
X158077582Y-96101163D01*
X158065335Y-96115425D01*
X153356507Y-100824253D01*
X153295184Y-100857738D01*
X153225492Y-100852754D01*
X153169559Y-100810882D01*
X153165724Y-100805463D01*
X153121789Y-100739711D01*
X153121786Y-100739707D01*
X153010292Y-100628213D01*
X153010288Y-100628210D01*
X152879185Y-100540609D01*
X152879172Y-100540602D01*
X152733501Y-100480264D01*
X152733489Y-100480261D01*
X152656979Y-100465042D01*
X152595068Y-100432657D01*
X152560494Y-100371941D01*
X152564233Y-100302172D01*
X152593487Y-100255746D01*
X155497226Y-97352008D01*
X155497231Y-97352004D01*
X155507434Y-97341800D01*
X155507436Y-97341800D01*
X155619240Y-97229996D01*
X155698297Y-97093064D01*
X155739220Y-96940337D01*
X155739220Y-96282174D01*
X155758905Y-96215135D01*
X155760118Y-96213283D01*
X155848110Y-96081594D01*
X155848110Y-96081593D01*
X155848114Y-96081588D01*
X155908457Y-95935906D01*
X155939220Y-95781251D01*
X155939220Y-95623567D01*
X155939220Y-95623564D01*
X155939219Y-95623562D01*
X155936463Y-95609707D01*
X155908457Y-95468912D01*
X155887445Y-95418184D01*
X155848117Y-95323236D01*
X155848107Y-95323218D01*
X155828177Y-95293390D01*
X155807299Y-95226713D01*
X155825784Y-95159333D01*
X155877763Y-95112643D01*
X155931279Y-95100500D01*
X157488851Y-95100500D01*
X157555890Y-95120185D01*
G37*
%TD.AperFunction*%
%TA.AperFunction,Conductor*%
G36*
X154388740Y-96063007D02*
G01*
X154444673Y-96104879D01*
X154448507Y-96110297D01*
X154517321Y-96213282D01*
X154538200Y-96279959D01*
X154538220Y-96282174D01*
X154538220Y-96561183D01*
X154518535Y-96628222D01*
X154501901Y-96648864D01*
X151187519Y-99963246D01*
X151126196Y-99996731D01*
X151099838Y-99999565D01*
X126108331Y-99999565D01*
X126082516Y-99991984D01*
X126055913Y-99987941D01*
X126049495Y-99982288D01*
X126041292Y-99979880D01*
X126023674Y-99959548D01*
X126003479Y-99941762D01*
X126001135Y-99933537D01*
X125995537Y-99927076D01*
X125991707Y-99900445D01*
X125984335Y-99874567D01*
X125986473Y-99864039D01*
X125985593Y-99857918D01*
X125989639Y-99839673D01*
X125991417Y-99833793D01*
X126019170Y-99766791D01*
X126033571Y-99694390D01*
X126035320Y-99688608D01*
X126051273Y-99664217D01*
X126064780Y-99638397D01*
X126070170Y-99635327D01*
X126073566Y-99630136D01*
X126100170Y-99618244D01*
X126125496Y-99603823D01*
X126134881Y-99602729D01*
X126137354Y-99601624D01*
X126140397Y-99602086D01*
X126154012Y-99600500D01*
X150413331Y-99600500D01*
X150413347Y-99600501D01*
X150420943Y-99600501D01*
X150579054Y-99600501D01*
X150579057Y-99600501D01*
X150731785Y-99559577D01*
X150781904Y-99530639D01*
X150868716Y-99480520D01*
X150980520Y-99368716D01*
X150980520Y-99368714D01*
X150990728Y-99358507D01*
X150990730Y-99358504D01*
X154257727Y-96091506D01*
X154319048Y-96058023D01*
X154388740Y-96063007D01*
G37*
%TD.AperFunction*%
%TA.AperFunction,Conductor*%
G36*
X180322636Y-65640309D02*
G01*
X180368391Y-65693113D01*
X180379597Y-65744624D01*
X180379597Y-75925061D01*
X180359912Y-75992100D01*
X180307108Y-76037855D01*
X180255597Y-76049061D01*
X173329007Y-76049061D01*
X173327830Y-76049137D01*
X173264750Y-76049137D01*
X172991773Y-76085071D01*
X172991759Y-76085074D01*
X172725798Y-76156336D01*
X172725782Y-76156341D01*
X172471421Y-76261699D01*
X172471410Y-76261705D01*
X172257975Y-76384930D01*
X172232955Y-76399375D01*
X172113875Y-76490746D01*
X172014511Y-76566990D01*
X171819805Y-76761693D01*
X171819027Y-76762708D01*
X171652195Y-76980124D01*
X171652188Y-76980135D01*
X171514517Y-77218585D01*
X171409144Y-77472975D01*
X171337878Y-77738941D01*
X171301940Y-78011918D01*
X171301939Y-78011934D01*
X171301939Y-78287265D01*
X171301940Y-78287281D01*
X171337878Y-78560258D01*
X171409144Y-78826224D01*
X171514517Y-79080614D01*
X171517420Y-79085642D01*
X171652188Y-79319065D01*
X171652191Y-79319069D01*
X171652195Y-79319075D01*
X171726934Y-79416476D01*
X171819808Y-79537510D01*
X172014508Y-79732207D01*
X172232955Y-79899825D01*
X172471412Y-80037496D01*
X172471418Y-80037498D01*
X172471421Y-80037500D01*
X172725782Y-80142858D01*
X172725788Y-80142859D01*
X172725798Y-80142864D01*
X172991761Y-80214126D01*
X172991767Y-80214126D01*
X172991773Y-80214128D01*
X173090933Y-80227181D01*
X173264751Y-80250063D01*
X173402424Y-80250061D01*
X180255597Y-80250061D01*
X180322636Y-80269746D01*
X180368391Y-80322550D01*
X180379597Y-80374061D01*
X180379597Y-109866187D01*
X180359912Y-109933226D01*
X180307108Y-109978981D01*
X180255597Y-109990187D01*
X173468299Y-109990187D01*
X173468284Y-109990183D01*
X173402392Y-109990187D01*
X173328761Y-109990187D01*
X173328303Y-109990216D01*
X173264726Y-109990219D01*
X172991743Y-110026170D01*
X172991738Y-110026171D01*
X172725792Y-110097443D01*
X172471424Y-110202817D01*
X172471414Y-110202822D01*
X172232974Y-110340498D01*
X172232964Y-110340504D01*
X172014538Y-110508119D01*
X172014534Y-110508122D01*
X171819851Y-110702813D01*
X171819849Y-110702816D01*
X171652235Y-110921266D01*
X171652231Y-110921273D01*
X171514578Y-111159703D01*
X171514578Y-111159704D01*
X171514574Y-111159711D01*
X171514574Y-111159713D01*
X171493995Y-111209397D01*
X171409211Y-111414092D01*
X171337950Y-111680044D01*
X171302013Y-111953030D01*
X171302013Y-112228369D01*
X171337950Y-112501355D01*
X171401440Y-112738306D01*
X171409211Y-112767307D01*
X171514574Y-113021687D01*
X171514576Y-113021691D01*
X171514578Y-113021695D01*
X171514578Y-113021696D01*
X171652231Y-113260126D01*
X171652235Y-113260133D01*
X171819849Y-113478583D01*
X171819851Y-113478586D01*
X171966054Y-113624795D01*
X172014537Y-113673280D01*
X172232972Y-113840901D01*
X172443230Y-113962303D01*
X172471414Y-113978577D01*
X172471424Y-113978582D01*
X172725792Y-114083956D01*
X172991738Y-114155228D01*
X172991743Y-114155229D01*
X173264724Y-114191180D01*
X173264733Y-114191180D01*
X173336513Y-114191183D01*
X173336526Y-114191187D01*
X173402392Y-114191187D01*
X173468284Y-114191191D01*
X173468288Y-114191189D01*
X173476336Y-114191190D01*
X173476399Y-114191187D01*
X180255597Y-114191187D01*
X180322636Y-114210872D01*
X180368391Y-114263676D01*
X180379597Y-114315187D01*
X180379597Y-124495624D01*
X180359912Y-124562663D01*
X180307108Y-124608418D01*
X180255597Y-124619624D01*
X121504597Y-124619624D01*
X121437558Y-124599939D01*
X121391803Y-124547135D01*
X121380597Y-124495624D01*
X121380597Y-120921153D01*
X142699500Y-120921153D01*
X142699500Y-121078846D01*
X142730261Y-121233489D01*
X142730264Y-121233501D01*
X142790602Y-121379172D01*
X142790609Y-121379185D01*
X142878210Y-121510288D01*
X142878213Y-121510292D01*
X142989707Y-121621786D01*
X142989711Y-121621789D01*
X143120814Y-121709390D01*
X143120827Y-121709397D01*
X143266498Y-121769735D01*
X143266503Y-121769737D01*
X143421153Y-121800499D01*
X143421156Y-121800500D01*
X143421158Y-121800500D01*
X143578844Y-121800500D01*
X143578845Y-121800499D01*
X143733497Y-121769737D01*
X143879179Y-121709394D01*
X144010289Y-121621789D01*
X144121789Y-121510289D01*
X144209394Y-121379179D01*
X144269737Y-121233497D01*
X144300500Y-121078842D01*
X144300500Y-120921158D01*
X144300500Y-120921155D01*
X144300499Y-120921153D01*
X144269738Y-120766510D01*
X144269737Y-120766503D01*
X144269735Y-120766498D01*
X144209397Y-120620827D01*
X144209390Y-120620814D01*
X144121789Y-120489711D01*
X144121786Y-120489707D01*
X144010292Y-120378213D01*
X144010288Y-120378210D01*
X143879185Y-120290609D01*
X143879172Y-120290602D01*
X143733501Y-120230264D01*
X143733489Y-120230261D01*
X143578845Y-120199500D01*
X143578842Y-120199500D01*
X143421158Y-120199500D01*
X143421155Y-120199500D01*
X143266510Y-120230261D01*
X143266498Y-120230264D01*
X143120827Y-120290602D01*
X143120814Y-120290609D01*
X142989711Y-120378210D01*
X142989707Y-120378213D01*
X142878213Y-120489707D01*
X142878210Y-120489711D01*
X142790609Y-120620814D01*
X142790602Y-120620827D01*
X142730264Y-120766498D01*
X142730261Y-120766510D01*
X142699500Y-120921153D01*
X121380597Y-120921153D01*
X121380597Y-119057736D01*
X137336083Y-119057736D01*
X137336083Y-119215429D01*
X137366844Y-119370072D01*
X137366847Y-119370084D01*
X137427185Y-119515755D01*
X137427192Y-119515768D01*
X137514793Y-119646871D01*
X137514796Y-119646875D01*
X137626290Y-119758369D01*
X137626294Y-119758372D01*
X137757397Y-119845973D01*
X137757410Y-119845980D01*
X137903081Y-119906318D01*
X137903086Y-119906320D01*
X138057736Y-119937082D01*
X138057739Y-119937083D01*
X138057741Y-119937083D01*
X138215427Y-119937083D01*
X138215428Y-119937082D01*
X138370080Y-119906320D01*
X138515762Y-119845977D01*
X138515763Y-119845975D01*
X138520838Y-119843874D01*
X138590308Y-119836405D01*
X138615743Y-119843874D01*
X138766498Y-119906318D01*
X138766503Y-119906320D01*
X138921153Y-119937082D01*
X138921156Y-119937083D01*
X138921158Y-119937083D01*
X139078844Y-119937083D01*
X139078845Y-119937082D01*
X139233497Y-119906320D01*
X139379179Y-119845977D01*
X139510289Y-119758372D01*
X139621789Y-119646872D01*
X139709394Y-119515762D01*
X139769737Y-119370080D01*
X139800500Y-119215425D01*
X139800500Y-119057741D01*
X139800500Y-119057738D01*
X139800499Y-119057736D01*
X139769738Y-118903093D01*
X139769737Y-118903086D01*
X139769735Y-118903081D01*
X139709397Y-118757410D01*
X139709390Y-118757397D01*
X139621789Y-118626294D01*
X139621786Y-118626290D01*
X139510292Y-118514796D01*
X139510288Y-118514793D01*
X139379185Y-118427192D01*
X139379172Y-118427185D01*
X139233501Y-118366847D01*
X139233489Y-118366844D01*
X139078845Y-118336083D01*
X139078842Y-118336083D01*
X138921158Y-118336083D01*
X138921155Y-118336083D01*
X138766510Y-118366844D01*
X138766498Y-118366847D01*
X138615743Y-118429291D01*
X138546273Y-118436760D01*
X138520839Y-118429291D01*
X138370084Y-118366847D01*
X138370072Y-118366844D01*
X138215428Y-118336083D01*
X138215425Y-118336083D01*
X138057741Y-118336083D01*
X138057738Y-118336083D01*
X137903093Y-118366844D01*
X137903081Y-118366847D01*
X137757410Y-118427185D01*
X137757397Y-118427192D01*
X137626294Y-118514793D01*
X137626290Y-118514796D01*
X137514796Y-118626290D01*
X137514793Y-118626294D01*
X137427192Y-118757397D01*
X137427185Y-118757410D01*
X137366847Y-118903081D01*
X137366844Y-118903093D01*
X137336083Y-119057736D01*
X121380597Y-119057736D01*
X121380597Y-116921153D01*
X148699500Y-116921153D01*
X148699500Y-117078846D01*
X148730261Y-117233489D01*
X148730264Y-117233501D01*
X148790602Y-117379172D01*
X148790609Y-117379185D01*
X148878210Y-117510288D01*
X148878213Y-117510292D01*
X148989707Y-117621786D01*
X148989711Y-117621789D01*
X149120814Y-117709390D01*
X149120827Y-117709397D01*
X149266498Y-117769735D01*
X149266503Y-117769737D01*
X149421153Y-117800499D01*
X149421156Y-117800500D01*
X149421158Y-117800500D01*
X149578844Y-117800500D01*
X149578845Y-117800499D01*
X149733497Y-117769737D01*
X149879179Y-117709394D01*
X150010289Y-117621789D01*
X150121789Y-117510289D01*
X150209394Y-117379179D01*
X150269737Y-117233497D01*
X150300500Y-117078842D01*
X150300500Y-116921158D01*
X150300500Y-116921155D01*
X150300499Y-116921153D01*
X150269738Y-116766510D01*
X150269737Y-116766503D01*
X150246670Y-116710816D01*
X150239201Y-116641349D01*
X150270475Y-116578869D01*
X150273520Y-116575713D01*
X151212416Y-115636819D01*
X151273739Y-115603334D01*
X151300097Y-115600500D01*
X155563388Y-115600500D01*
X155563404Y-115600501D01*
X155571000Y-115600501D01*
X155729111Y-115600501D01*
X155729114Y-115600501D01*
X155881842Y-115559577D01*
X155960629Y-115514089D01*
X156018773Y-115480520D01*
X156130577Y-115368716D01*
X156130577Y-115368714D01*
X156140781Y-115358511D01*
X156140784Y-115358506D01*
X157350490Y-114148801D01*
X157411811Y-114115318D01*
X157481503Y-114120302D01*
X157507060Y-114133382D01*
X157620814Y-114209390D01*
X157620827Y-114209397D01*
X157714382Y-114248148D01*
X157766503Y-114269737D01*
X157921153Y-114300499D01*
X157921156Y-114300500D01*
X157921158Y-114300500D01*
X158078844Y-114300500D01*
X158078845Y-114300499D01*
X158233497Y-114269737D01*
X158379179Y-114209394D01*
X158510289Y-114121789D01*
X158621789Y-114010289D01*
X158709394Y-113879179D01*
X158769737Y-113733497D01*
X158800500Y-113578842D01*
X158800500Y-113421158D01*
X158800500Y-113421155D01*
X158800499Y-113421153D01*
X158769738Y-113266510D01*
X158769737Y-113266503D01*
X158767101Y-113260138D01*
X158709397Y-113120827D01*
X158709390Y-113120814D01*
X158621789Y-112989711D01*
X158621786Y-112989707D01*
X158510292Y-112878213D01*
X158510288Y-112878210D01*
X158379185Y-112790609D01*
X158379172Y-112790602D01*
X158233501Y-112730264D01*
X158233489Y-112730261D01*
X158078845Y-112699500D01*
X158078842Y-112699500D01*
X157921158Y-112699500D01*
X157921155Y-112699500D01*
X157766510Y-112730261D01*
X157766498Y-112730264D01*
X157620827Y-112790602D01*
X157620814Y-112790609D01*
X157489125Y-112878602D01*
X157422447Y-112899480D01*
X157420234Y-112899500D01*
X157070997Y-112899500D01*
X157030076Y-112910464D01*
X157030076Y-112910465D01*
X156992808Y-112920451D01*
X156918271Y-112940423D01*
X156918266Y-112940426D01*
X156781347Y-113019475D01*
X156781339Y-113019481D01*
X156684895Y-113115926D01*
X156669537Y-113131284D01*
X156669535Y-113131286D01*
X156040443Y-113760379D01*
X155437641Y-114363181D01*
X155376318Y-114396666D01*
X155349960Y-114399500D01*
X150920940Y-114399500D01*
X150880019Y-114410464D01*
X150880019Y-114410465D01*
X150842751Y-114420451D01*
X150768214Y-114440423D01*
X150768209Y-114440426D01*
X150631290Y-114519475D01*
X150631282Y-114519481D01*
X149019479Y-116131284D01*
X148991797Y-116179232D01*
X148980096Y-116199500D01*
X148940423Y-116268215D01*
X148931772Y-116300500D01*
X148899498Y-116420945D01*
X148898438Y-116429003D01*
X148896980Y-116428811D01*
X148879814Y-116487274D01*
X148878601Y-116489126D01*
X148790609Y-116620814D01*
X148790602Y-116620827D01*
X148730264Y-116766498D01*
X148730261Y-116766510D01*
X148699500Y-116921153D01*
X121380597Y-116921153D01*
X121380597Y-115371173D01*
X132467917Y-115371173D01*
X132467917Y-115528866D01*
X132498678Y-115683509D01*
X132498681Y-115683521D01*
X132559019Y-115829192D01*
X132559026Y-115829205D01*
X132646627Y-115960308D01*
X132646630Y-115960312D01*
X132758124Y-116071806D01*
X132758128Y-116071809D01*
X132889231Y-116159410D01*
X132889244Y-116159417D01*
X133034915Y-116219755D01*
X133034920Y-116219757D01*
X133189570Y-116250519D01*
X133189573Y-116250520D01*
X133189575Y-116250520D01*
X133347261Y-116250520D01*
X133347262Y-116250519D01*
X133501914Y-116219757D01*
X133647596Y-116159414D01*
X133778706Y-116071809D01*
X133890206Y-115960309D01*
X133977811Y-115829199D01*
X134038154Y-115683517D01*
X134068917Y-115528862D01*
X134068917Y-115421153D01*
X137199500Y-115421153D01*
X137199500Y-115578846D01*
X137230261Y-115733489D01*
X137230264Y-115733501D01*
X137290602Y-115879172D01*
X137290609Y-115879185D01*
X137378210Y-116010288D01*
X137378213Y-116010292D01*
X137489707Y-116121786D01*
X137489711Y-116121789D01*
X137620814Y-116209390D01*
X137620827Y-116209397D01*
X137766498Y-116269735D01*
X137766503Y-116269737D01*
X137921153Y-116300499D01*
X137921156Y-116300500D01*
X137921158Y-116300500D01*
X138078844Y-116300500D01*
X138078845Y-116300499D01*
X138233497Y-116269737D01*
X138379179Y-116209394D01*
X138510289Y-116121789D01*
X138621789Y-116010289D01*
X138709394Y-115879179D01*
X138769737Y-115733497D01*
X138800500Y-115578842D01*
X138800500Y-115421158D01*
X138800500Y-115421155D01*
X138800499Y-115421153D01*
X138790557Y-115371173D01*
X138769737Y-115266503D01*
X138749033Y-115216518D01*
X138709397Y-115120827D01*
X138709390Y-115120814D01*
X138621789Y-114989711D01*
X138621786Y-114989707D01*
X138510292Y-114878213D01*
X138510288Y-114878210D01*
X138379185Y-114790609D01*
X138379172Y-114790602D01*
X138233501Y-114730264D01*
X138233489Y-114730261D01*
X138078845Y-114699500D01*
X138078842Y-114699500D01*
X137921158Y-114699500D01*
X137921155Y-114699500D01*
X137766510Y-114730261D01*
X137766498Y-114730264D01*
X137620827Y-114790602D01*
X137620814Y-114790609D01*
X137489711Y-114878210D01*
X137489707Y-114878213D01*
X137378213Y-114989707D01*
X137378210Y-114989711D01*
X137290609Y-115120814D01*
X137290602Y-115120827D01*
X137230264Y-115266498D01*
X137230261Y-115266510D01*
X137199500Y-115421153D01*
X134068917Y-115421153D01*
X134068917Y-115371178D01*
X134068917Y-115371175D01*
X134068916Y-115371173D01*
X134048097Y-115266510D01*
X134038154Y-115216523D01*
X133998516Y-115120827D01*
X133977814Y-115070847D01*
X133977807Y-115070834D01*
X133890206Y-114939731D01*
X133890203Y-114939727D01*
X133778709Y-114828233D01*
X133778705Y-114828230D01*
X133647602Y-114740629D01*
X133647589Y-114740622D01*
X133501918Y-114680284D01*
X133501906Y-114680281D01*
X133347262Y-114649520D01*
X133347259Y-114649520D01*
X133189575Y-114649520D01*
X133189572Y-114649520D01*
X133034927Y-114680281D01*
X133034915Y-114680284D01*
X132889244Y-114740622D01*
X132889231Y-114740629D01*
X132758128Y-114828230D01*
X132758124Y-114828233D01*
X132646630Y-114939727D01*
X132646627Y-114939731D01*
X132559026Y-115070834D01*
X132559019Y-115070847D01*
X132498681Y-115216518D01*
X132498678Y-115216530D01*
X132467917Y-115371173D01*
X121380597Y-115371173D01*
X121380597Y-114315187D01*
X121400282Y-114248148D01*
X121442841Y-114211270D01*
X142754772Y-114211270D01*
X142754772Y-114368963D01*
X142785533Y-114523606D01*
X142785536Y-114523618D01*
X142845874Y-114669289D01*
X142845881Y-114669302D01*
X142933482Y-114800405D01*
X142933485Y-114800409D01*
X143044979Y-114911903D01*
X143044983Y-114911906D01*
X143176086Y-114999507D01*
X143176099Y-114999514D01*
X143302782Y-115051987D01*
X143321775Y-115059854D01*
X143476425Y-115090616D01*
X143476428Y-115090617D01*
X143476430Y-115090617D01*
X143634116Y-115090617D01*
X143634117Y-115090616D01*
X143788769Y-115059854D01*
X143934451Y-114999511D01*
X144065561Y-114911906D01*
X144177061Y-114800406D01*
X144264666Y-114669296D01*
X144325009Y-114523614D01*
X144355772Y-114368959D01*
X144355772Y-114211275D01*
X144355772Y-114211272D01*
X144355771Y-114211270D01*
X144330735Y-114085406D01*
X144325009Y-114056620D01*
X144325007Y-114056615D01*
X144264669Y-113910944D01*
X144264662Y-113910931D01*
X144225075Y-113851685D01*
X144204197Y-113785007D01*
X144222682Y-113717627D01*
X144225057Y-113713930D01*
X144282623Y-113627778D01*
X144342966Y-113482096D01*
X144373729Y-113327441D01*
X144373729Y-113169757D01*
X144373729Y-113169754D01*
X144373728Y-113169752D01*
X144342966Y-113015102D01*
X144332447Y-112989707D01*
X144282626Y-112869426D01*
X144282619Y-112869413D01*
X144195018Y-112738310D01*
X144195015Y-112738306D01*
X144083521Y-112626812D01*
X144083517Y-112626809D01*
X143952414Y-112539208D01*
X143952401Y-112539201D01*
X143806730Y-112478863D01*
X143806718Y-112478860D01*
X143652074Y-112448099D01*
X143652071Y-112448099D01*
X143494387Y-112448099D01*
X143494384Y-112448099D01*
X143339739Y-112478860D01*
X143339727Y-112478863D01*
X143194056Y-112539201D01*
X143194043Y-112539208D01*
X143062940Y-112626809D01*
X143062936Y-112626812D01*
X142951442Y-112738306D01*
X142951439Y-112738310D01*
X142863838Y-112869413D01*
X142863831Y-112869426D01*
X142803493Y-113015097D01*
X142803490Y-113015109D01*
X142772729Y-113169752D01*
X142772729Y-113327445D01*
X142803490Y-113482088D01*
X142803493Y-113482100D01*
X142863831Y-113627771D01*
X142863841Y-113627789D01*
X142903425Y-113687031D01*
X142924303Y-113753708D01*
X142905818Y-113821088D01*
X142903425Y-113824812D01*
X142845881Y-113910931D01*
X142845874Y-113910944D01*
X142785536Y-114056615D01*
X142785533Y-114056627D01*
X142754772Y-114211270D01*
X121442841Y-114211270D01*
X121453086Y-114202393D01*
X121504597Y-114191187D01*
X128306346Y-114191187D01*
X128306420Y-114191209D01*
X128357737Y-114191212D01*
X128357737Y-114191213D01*
X128495419Y-114191223D01*
X128768429Y-114155300D01*
X129034414Y-114084048D01*
X129288823Y-113978686D01*
X129527301Y-113841017D01*
X129745769Y-113673396D01*
X129940488Y-113478693D01*
X130108126Y-113260238D01*
X130245814Y-113021770D01*
X130351196Y-112767369D01*
X130354958Y-112753333D01*
X130422468Y-112501393D01*
X130422468Y-112501392D01*
X130422469Y-112501390D01*
X130458413Y-112228382D01*
X130458413Y-111953019D01*
X130422469Y-111680012D01*
X130351196Y-111414032D01*
X130351193Y-111414026D01*
X130351192Y-111414021D01*
X130257764Y-111188482D01*
X130245814Y-111159632D01*
X130159588Y-111010292D01*
X130108126Y-110921161D01*
X129988065Y-110764706D01*
X129940489Y-110702708D01*
X129745770Y-110508005D01*
X129742192Y-110505260D01*
X129632572Y-110421153D01*
X158699500Y-110421153D01*
X158699500Y-110578846D01*
X158730261Y-110733489D01*
X158730264Y-110733501D01*
X158790602Y-110879172D01*
X158790609Y-110879185D01*
X158878210Y-111010288D01*
X158878213Y-111010292D01*
X158989707Y-111121786D01*
X158989711Y-111121789D01*
X159120814Y-111209390D01*
X159120827Y-111209397D01*
X159192784Y-111239202D01*
X159266503Y-111269737D01*
X159421153Y-111300499D01*
X159421156Y-111300500D01*
X159421158Y-111300500D01*
X159578844Y-111300500D01*
X159578845Y-111300499D01*
X159733497Y-111269737D01*
X159789182Y-111246670D01*
X159858651Y-111239202D01*
X159921130Y-111270477D01*
X159924316Y-111273551D01*
X163546179Y-114895415D01*
X163579664Y-114956738D01*
X163574680Y-115026430D01*
X163561600Y-115051987D01*
X163515610Y-115120814D01*
X163515603Y-115120827D01*
X163455265Y-115266498D01*
X163455262Y-115266510D01*
X163424501Y-115421153D01*
X163424501Y-115578846D01*
X163455262Y-115733489D01*
X163455265Y-115733501D01*
X163515603Y-115879172D01*
X163515610Y-115879185D01*
X163603211Y-116010288D01*
X163603214Y-116010292D01*
X163714708Y-116121786D01*
X163714712Y-116121789D01*
X163845815Y-116209390D01*
X163845828Y-116209397D01*
X163991499Y-116269735D01*
X163991504Y-116269737D01*
X164146154Y-116300499D01*
X164146157Y-116300500D01*
X164146159Y-116300500D01*
X164303845Y-116300500D01*
X164303846Y-116300499D01*
X164458498Y-116269737D01*
X164604180Y-116209394D01*
X164735290Y-116121789D01*
X164846790Y-116010289D01*
X164934395Y-115879179D01*
X164994738Y-115733497D01*
X165025501Y-115578842D01*
X165025501Y-115421158D01*
X165025501Y-115421155D01*
X165025500Y-115421153D01*
X165015558Y-115371173D01*
X164994738Y-115266503D01*
X164974034Y-115216518D01*
X164934398Y-115120827D01*
X164934391Y-115120814D01*
X164846399Y-114989125D01*
X164840748Y-114971078D01*
X164830524Y-114955169D01*
X164826072Y-114924207D01*
X164825521Y-114922447D01*
X164825501Y-114920234D01*
X164825501Y-114814061D01*
X164825502Y-114814048D01*
X164825502Y-114645945D01*
X164821574Y-114631286D01*
X164784578Y-114493217D01*
X164784574Y-114493210D01*
X164705525Y-114356291D01*
X164705519Y-114356283D01*
X163218649Y-112869413D01*
X161545387Y-111196152D01*
X166924501Y-111196152D01*
X166924501Y-111353845D01*
X166955262Y-111508488D01*
X166955265Y-111508500D01*
X167015603Y-111654171D01*
X167015610Y-111654184D01*
X167103211Y-111785287D01*
X167103214Y-111785291D01*
X167214708Y-111896785D01*
X167214712Y-111896788D01*
X167345815Y-111984389D01*
X167345828Y-111984396D01*
X167491499Y-112044734D01*
X167491504Y-112044736D01*
X167646154Y-112075498D01*
X167646157Y-112075499D01*
X167646159Y-112075499D01*
X167803845Y-112075499D01*
X167803846Y-112075498D01*
X167958498Y-112044736D01*
X168104180Y-111984393D01*
X168235290Y-111896788D01*
X168346790Y-111785288D01*
X168434395Y-111654178D01*
X168494738Y-111508496D01*
X168525501Y-111353841D01*
X168525501Y-111196157D01*
X168525501Y-111196154D01*
X168525500Y-111196152D01*
X168517497Y-111155917D01*
X168494738Y-111041502D01*
X168494736Y-111041497D01*
X168434398Y-110895826D01*
X168434391Y-110895813D01*
X168346790Y-110764710D01*
X168346787Y-110764706D01*
X168235293Y-110653212D01*
X168235289Y-110653209D01*
X168104186Y-110565608D01*
X168104173Y-110565601D01*
X167958502Y-110505263D01*
X167958490Y-110505260D01*
X167803846Y-110474499D01*
X167803843Y-110474499D01*
X167646159Y-110474499D01*
X167646156Y-110474499D01*
X167491511Y-110505260D01*
X167491499Y-110505263D01*
X167345828Y-110565601D01*
X167345815Y-110565608D01*
X167214712Y-110653209D01*
X167214708Y-110653212D01*
X167103214Y-110764706D01*
X167103211Y-110764710D01*
X167015610Y-110895813D01*
X167015603Y-110895826D01*
X166955265Y-111041497D01*
X166955262Y-111041509D01*
X166924501Y-111196152D01*
X161545387Y-111196152D01*
X160487589Y-110138354D01*
X160487588Y-110138352D01*
X160368717Y-110019481D01*
X160368716Y-110019480D01*
X160281904Y-109969360D01*
X160281904Y-109969359D01*
X160281900Y-109969358D01*
X160231785Y-109940423D01*
X160146976Y-109917698D01*
X160079054Y-109899498D01*
X160070997Y-109898438D01*
X160071188Y-109896981D01*
X160012725Y-109879814D01*
X160010873Y-109878601D01*
X159879185Y-109790609D01*
X159879172Y-109790602D01*
X159733501Y-109730264D01*
X159733489Y-109730261D01*
X159578845Y-109699500D01*
X159578842Y-109699500D01*
X159421158Y-109699500D01*
X159421155Y-109699500D01*
X159266510Y-109730261D01*
X159266498Y-109730264D01*
X159120827Y-109790602D01*
X159120814Y-109790609D01*
X158989711Y-109878210D01*
X158989707Y-109878213D01*
X158878213Y-109989707D01*
X158878210Y-109989711D01*
X158790609Y-110120814D01*
X158790602Y-110120827D01*
X158730264Y-110266498D01*
X158730261Y-110266510D01*
X158699500Y-110421153D01*
X129632572Y-110421153D01*
X129527459Y-110340504D01*
X129527303Y-110340384D01*
X129289002Y-110202817D01*
X129288826Y-110202715D01*
X129288818Y-110202711D01*
X129034420Y-110097354D01*
X129034412Y-110097351D01*
X128768427Y-110026099D01*
X128768419Y-110026098D01*
X128495434Y-109990178D01*
X128495422Y-109990177D01*
X128495420Y-109990177D01*
X128495416Y-109990177D01*
X128357739Y-109990187D01*
X121504597Y-109990187D01*
X121437558Y-109970502D01*
X121391803Y-109917698D01*
X121380597Y-109866187D01*
X121380597Y-107519580D01*
X156601072Y-107519580D01*
X156601072Y-107677273D01*
X156631833Y-107831916D01*
X156631836Y-107831928D01*
X156692174Y-107977599D01*
X156692181Y-107977612D01*
X156779782Y-108108715D01*
X156779785Y-108108719D01*
X156891279Y-108220213D01*
X156891283Y-108220216D01*
X157022386Y-108307817D01*
X157022399Y-108307824D01*
X157168070Y-108368162D01*
X157168075Y-108368164D01*
X157322725Y-108398926D01*
X157322728Y-108398927D01*
X157322730Y-108398927D01*
X157480416Y-108398927D01*
X157480417Y-108398926D01*
X157635069Y-108368164D01*
X157780751Y-108307821D01*
X157911861Y-108220216D01*
X158023361Y-108108716D01*
X158110966Y-107977606D01*
X158171309Y-107831924D01*
X158202072Y-107677269D01*
X158202072Y-107519585D01*
X158202072Y-107519582D01*
X158202071Y-107519580D01*
X158171310Y-107364937D01*
X158171309Y-107364930D01*
X158171307Y-107364925D01*
X158110969Y-107219254D01*
X158110962Y-107219241D01*
X158023361Y-107088138D01*
X158023358Y-107088134D01*
X157911864Y-106976640D01*
X157911860Y-106976637D01*
X157780757Y-106889036D01*
X157780744Y-106889029D01*
X157635073Y-106828691D01*
X157635061Y-106828688D01*
X157480417Y-106797927D01*
X157480414Y-106797927D01*
X157322730Y-106797927D01*
X157322727Y-106797927D01*
X157168082Y-106828688D01*
X157168070Y-106828691D01*
X157022399Y-106889029D01*
X157022386Y-106889036D01*
X156891283Y-106976637D01*
X156891279Y-106976640D01*
X156779785Y-107088134D01*
X156779782Y-107088138D01*
X156692181Y-107219241D01*
X156692174Y-107219254D01*
X156631836Y-107364925D01*
X156631833Y-107364937D01*
X156601072Y-107519580D01*
X121380597Y-107519580D01*
X121380597Y-106421153D01*
X140699500Y-106421153D01*
X140699500Y-106578846D01*
X140730261Y-106733489D01*
X140730264Y-106733501D01*
X140790602Y-106879172D01*
X140790609Y-106879185D01*
X140878210Y-107010288D01*
X140878213Y-107010292D01*
X140989707Y-107121786D01*
X140989711Y-107121789D01*
X141120814Y-107209390D01*
X141120827Y-107209397D01*
X141266498Y-107269735D01*
X141266503Y-107269737D01*
X141421153Y-107300499D01*
X141421156Y-107300500D01*
X141421158Y-107300500D01*
X141578844Y-107300500D01*
X141578845Y-107300499D01*
X141733497Y-107269737D01*
X141879179Y-107209394D01*
X142010289Y-107121789D01*
X142121789Y-107010289D01*
X142209394Y-106879179D01*
X142215488Y-106864468D01*
X142243049Y-106797927D01*
X142269737Y-106733497D01*
X142292427Y-106619428D01*
X142300638Y-106578150D01*
X142333023Y-106516239D01*
X142334518Y-106514716D01*
X144212416Y-104636819D01*
X144273739Y-104603334D01*
X144300097Y-104600500D01*
X145920234Y-104600500D01*
X145987273Y-104620185D01*
X145989125Y-104621398D01*
X146120814Y-104709390D01*
X146120827Y-104709397D01*
X146266498Y-104769735D01*
X146266503Y-104769737D01*
X146402502Y-104796789D01*
X146421153Y-104800499D01*
X146421156Y-104800500D01*
X146421158Y-104800500D01*
X146578844Y-104800500D01*
X146578845Y-104800499D01*
X146733497Y-104769737D01*
X146846166Y-104723067D01*
X146879172Y-104709397D01*
X146879172Y-104709396D01*
X146879179Y-104709394D01*
X147010289Y-104621789D01*
X147121789Y-104510289D01*
X147209394Y-104379179D01*
X147269737Y-104233497D01*
X147300500Y-104078842D01*
X147300500Y-103921158D01*
X147300500Y-103921155D01*
X147300499Y-103921153D01*
X147290486Y-103870814D01*
X147269737Y-103766503D01*
X147267163Y-103760288D01*
X147209397Y-103620827D01*
X147209390Y-103620814D01*
X147121789Y-103489711D01*
X147121786Y-103489707D01*
X147010292Y-103378213D01*
X147010288Y-103378210D01*
X146879185Y-103290609D01*
X146879172Y-103290602D01*
X146733501Y-103230264D01*
X146733489Y-103230261D01*
X146578845Y-103199500D01*
X146578842Y-103199500D01*
X146421158Y-103199500D01*
X146421155Y-103199500D01*
X146266510Y-103230261D01*
X146266498Y-103230264D01*
X146120827Y-103290602D01*
X146120814Y-103290609D01*
X145989125Y-103378602D01*
X145922447Y-103399480D01*
X145920234Y-103399500D01*
X144086669Y-103399500D01*
X144086653Y-103399499D01*
X144079057Y-103399499D01*
X143920943Y-103399499D01*
X143841010Y-103420917D01*
X143768216Y-103440422D01*
X143735355Y-103459395D01*
X143735354Y-103459394D01*
X143631287Y-103519477D01*
X143631282Y-103519481D01*
X141485339Y-105665425D01*
X141424016Y-105698910D01*
X141421850Y-105699361D01*
X141266508Y-105730261D01*
X141266498Y-105730264D01*
X141120827Y-105790602D01*
X141120814Y-105790609D01*
X140989711Y-105878210D01*
X140989707Y-105878213D01*
X140878213Y-105989707D01*
X140878210Y-105989711D01*
X140790609Y-106120814D01*
X140790602Y-106120827D01*
X140730264Y-106266498D01*
X140730261Y-106266510D01*
X140699500Y-106421153D01*
X121380597Y-106421153D01*
X121380597Y-101950088D01*
X124418865Y-101950088D01*
X124418865Y-102107781D01*
X124449626Y-102262424D01*
X124449629Y-102262436D01*
X124509967Y-102408107D01*
X124509974Y-102408120D01*
X124597575Y-102539223D01*
X124597578Y-102539227D01*
X124625455Y-102567104D01*
X124658940Y-102628427D01*
X124653956Y-102698119D01*
X124630883Y-102734031D01*
X124632072Y-102735007D01*
X124628208Y-102739714D01*
X124540609Y-102870814D01*
X124540602Y-102870827D01*
X124480264Y-103016498D01*
X124480261Y-103016510D01*
X124449500Y-103171153D01*
X124449500Y-103328846D01*
X124480261Y-103483489D01*
X124480264Y-103483501D01*
X124540602Y-103629172D01*
X124540609Y-103629185D01*
X124628210Y-103760288D01*
X124628213Y-103760292D01*
X124739707Y-103871786D01*
X124739711Y-103871789D01*
X124870814Y-103959390D01*
X124870827Y-103959397D01*
X125008683Y-104016498D01*
X125016503Y-104019737D01*
X125171153Y-104050499D01*
X125171156Y-104050500D01*
X125171158Y-104050500D01*
X125328844Y-104050500D01*
X125328845Y-104050499D01*
X125483497Y-104019737D01*
X125629179Y-103959394D01*
X125760289Y-103871789D01*
X125871789Y-103760289D01*
X125959394Y-103629179D01*
X125962854Y-103620827D01*
X125991984Y-103550499D01*
X126019737Y-103483497D01*
X126050500Y-103328842D01*
X126050500Y-103171158D01*
X126050500Y-103171155D01*
X126050499Y-103171153D01*
X126019738Y-103016510D01*
X126019737Y-103016503D01*
X125989389Y-102943237D01*
X125981921Y-102873771D01*
X126013196Y-102811291D01*
X126073285Y-102775639D01*
X126103951Y-102771787D01*
X128086387Y-102771787D01*
X128153426Y-102791472D01*
X128199181Y-102844276D01*
X128208004Y-102871596D01*
X128230261Y-102983489D01*
X128230264Y-102983501D01*
X128290602Y-103129172D01*
X128290609Y-103129185D01*
X128378210Y-103260288D01*
X128378213Y-103260292D01*
X128489707Y-103371786D01*
X128489711Y-103371789D01*
X128620814Y-103459390D01*
X128620827Y-103459397D01*
X128765885Y-103519481D01*
X128766503Y-103519737D01*
X128921153Y-103550499D01*
X128921156Y-103550500D01*
X128921158Y-103550500D01*
X129078844Y-103550500D01*
X129078845Y-103550499D01*
X129233497Y-103519737D01*
X129379179Y-103459394D01*
X129510289Y-103371789D01*
X129621789Y-103260289D01*
X129709394Y-103129179D01*
X129769737Y-102983497D01*
X129791996Y-102871596D01*
X129824381Y-102809685D01*
X129885096Y-102775111D01*
X129913613Y-102771787D01*
X132396049Y-102771787D01*
X132463088Y-102791472D01*
X132508843Y-102844276D01*
X132518787Y-102913434D01*
X132510611Y-102943234D01*
X132493933Y-102983501D01*
X132480263Y-103016502D01*
X132480261Y-103016510D01*
X132449500Y-103171153D01*
X132449500Y-103328846D01*
X132480261Y-103483489D01*
X132480264Y-103483501D01*
X132540602Y-103629172D01*
X132540609Y-103629185D01*
X132628210Y-103760288D01*
X132628213Y-103760292D01*
X132739707Y-103871786D01*
X132739711Y-103871789D01*
X132870814Y-103959390D01*
X132870827Y-103959397D01*
X133008683Y-104016498D01*
X133016503Y-104019737D01*
X133171153Y-104050499D01*
X133171156Y-104050500D01*
X133171158Y-104050500D01*
X133328844Y-104050500D01*
X133328845Y-104050499D01*
X133483497Y-104019737D01*
X133629179Y-103959394D01*
X133760289Y-103871789D01*
X133871789Y-103760289D01*
X133959394Y-103629179D01*
X133962854Y-103620827D01*
X133991984Y-103550499D01*
X134019737Y-103483497D01*
X134050500Y-103328842D01*
X134050500Y-103171158D01*
X134050500Y-103171155D01*
X134050499Y-103171153D01*
X134019738Y-103016510D01*
X134019737Y-103016503D01*
X133989389Y-102943237D01*
X133981921Y-102873771D01*
X134013196Y-102811291D01*
X134073285Y-102775639D01*
X134103951Y-102771787D01*
X152772041Y-102771787D01*
X152772057Y-102771788D01*
X152779653Y-102771788D01*
X152937764Y-102771788D01*
X152937767Y-102771788D01*
X153090495Y-102730864D01*
X153158029Y-102691873D01*
X153227426Y-102651807D01*
X153339230Y-102540003D01*
X153339230Y-102540001D01*
X153349434Y-102529798D01*
X153349437Y-102529793D01*
X155092416Y-100786814D01*
X155111851Y-100776203D01*
X155128585Y-100761703D01*
X155141916Y-100759786D01*
X155153738Y-100753331D01*
X155175824Y-100754910D01*
X155197743Y-100751759D01*
X155209994Y-100757354D01*
X155223430Y-100758315D01*
X155241156Y-100771585D01*
X155261299Y-100780784D01*
X155268581Y-100792115D01*
X155279363Y-100800187D01*
X155287100Y-100820932D01*
X155299073Y-100839562D01*
X155302224Y-100861480D01*
X155303780Y-100865651D01*
X155304096Y-100874497D01*
X155304096Y-100996282D01*
X155284411Y-101063321D01*
X155267777Y-101083963D01*
X152738559Y-103613181D01*
X152677236Y-103646666D01*
X152650878Y-103649500D01*
X151579766Y-103649500D01*
X151512727Y-103629815D01*
X151510875Y-103628602D01*
X151379185Y-103540609D01*
X151379172Y-103540602D01*
X151233501Y-103480264D01*
X151233489Y-103480261D01*
X151078845Y-103449500D01*
X151078842Y-103449500D01*
X150921158Y-103449500D01*
X150921155Y-103449500D01*
X150766510Y-103480261D01*
X150766498Y-103480264D01*
X150620827Y-103540602D01*
X150620814Y-103540609D01*
X150489711Y-103628210D01*
X150489707Y-103628213D01*
X150378213Y-103739707D01*
X150378210Y-103739711D01*
X150290609Y-103870814D01*
X150290602Y-103870827D01*
X150230264Y-104016498D01*
X150230261Y-104016510D01*
X150199500Y-104171153D01*
X150199500Y-104328846D01*
X150230261Y-104483489D01*
X150230264Y-104483501D01*
X150290602Y-104629172D01*
X150290609Y-104629185D01*
X150378210Y-104760288D01*
X150378213Y-104760292D01*
X150489707Y-104871786D01*
X150489711Y-104871789D01*
X150620814Y-104959390D01*
X150620827Y-104959397D01*
X150766498Y-105019735D01*
X150766503Y-105019737D01*
X150921153Y-105050499D01*
X150921156Y-105050500D01*
X150921158Y-105050500D01*
X151078844Y-105050500D01*
X151078845Y-105050499D01*
X151233497Y-105019737D01*
X151379179Y-104959394D01*
X151379185Y-104959390D01*
X151510875Y-104871398D01*
X151577553Y-104850520D01*
X151579766Y-104850500D01*
X152864306Y-104850500D01*
X152864322Y-104850501D01*
X152871918Y-104850501D01*
X153030029Y-104850501D01*
X153030032Y-104850501D01*
X153182760Y-104809577D01*
X153241642Y-104775581D01*
X153319691Y-104730520D01*
X153431495Y-104618716D01*
X153431495Y-104618714D01*
X153441699Y-104608511D01*
X153441703Y-104608506D01*
X156273309Y-101776900D01*
X156273312Y-101776899D01*
X156385116Y-101665095D01*
X156435235Y-101578283D01*
X156464173Y-101528164D01*
X156505097Y-101375436D01*
X156505097Y-101217322D01*
X156505097Y-101209727D01*
X156505096Y-101209709D01*
X156505096Y-99992597D01*
X156524781Y-99925558D01*
X156541410Y-99904921D01*
X157129694Y-99316636D01*
X163183957Y-99316636D01*
X163183957Y-99474329D01*
X163214718Y-99628972D01*
X163214721Y-99628984D01*
X163275059Y-99774655D01*
X163275066Y-99774668D01*
X163362667Y-99905771D01*
X163362670Y-99905775D01*
X163474164Y-100017269D01*
X163474168Y-100017272D01*
X163605271Y-100104873D01*
X163605284Y-100104880D01*
X163725557Y-100154698D01*
X163750960Y-100165220D01*
X163905610Y-100195982D01*
X163905613Y-100195983D01*
X163905615Y-100195983D01*
X164063301Y-100195983D01*
X164063302Y-100195982D01*
X164217954Y-100165220D01*
X164363636Y-100104877D01*
X164494746Y-100017272D01*
X164606246Y-99905772D01*
X164693851Y-99774662D01*
X164754194Y-99628980D01*
X164784957Y-99474325D01*
X164784957Y-99316641D01*
X164784957Y-99316638D01*
X164784956Y-99316636D01*
X164781606Y-99299797D01*
X164754194Y-99161986D01*
X164711061Y-99057853D01*
X164693854Y-99016310D01*
X164693847Y-99016297D01*
X164606246Y-98885194D01*
X164606243Y-98885190D01*
X164494749Y-98773696D01*
X164494745Y-98773693D01*
X164363642Y-98686092D01*
X164363629Y-98686085D01*
X164217958Y-98625747D01*
X164217946Y-98625744D01*
X164063302Y-98594983D01*
X164063299Y-98594983D01*
X163905615Y-98594983D01*
X163905612Y-98594983D01*
X163750967Y-98625744D01*
X163750955Y-98625747D01*
X163605284Y-98686085D01*
X163605271Y-98686092D01*
X163474168Y-98773693D01*
X163474164Y-98773696D01*
X163362670Y-98885190D01*
X163362667Y-98885194D01*
X163275066Y-99016297D01*
X163275059Y-99016310D01*
X163214721Y-99161981D01*
X163214718Y-99161993D01*
X163183957Y-99316636D01*
X157129694Y-99316636D01*
X157714591Y-98731739D01*
X157775912Y-98698256D01*
X157845604Y-98703240D01*
X157889949Y-98731739D01*
X157921765Y-98763555D01*
X157950486Y-98792276D01*
X158081588Y-98879876D01*
X158081601Y-98879883D01*
X158208750Y-98932549D01*
X158227277Y-98940223D01*
X158381927Y-98970985D01*
X158381930Y-98970986D01*
X158381932Y-98970986D01*
X158539618Y-98970986D01*
X158539619Y-98970985D01*
X158694271Y-98940223D01*
X158827124Y-98885194D01*
X158839946Y-98879883D01*
X158839946Y-98879882D01*
X158839953Y-98879880D01*
X158971063Y-98792275D01*
X159082563Y-98680775D01*
X159170168Y-98549665D01*
X159230511Y-98403983D01*
X159261274Y-98249328D01*
X159261274Y-98091644D01*
X159261274Y-98091641D01*
X159261273Y-98091639D01*
X159258728Y-98078846D01*
X159230511Y-97936989D01*
X159207021Y-97880278D01*
X159170171Y-97791313D01*
X159170164Y-97791300D01*
X159082564Y-97660198D01*
X159077414Y-97655048D01*
X159022027Y-97599661D01*
X158988544Y-97538341D01*
X158993528Y-97468649D01*
X159022027Y-97424303D01*
X161472277Y-94974054D01*
X161533599Y-94940570D01*
X161603291Y-94945554D01*
X161659224Y-94987426D01*
X161683641Y-95052890D01*
X161683957Y-95061736D01*
X161683957Y-95224329D01*
X161714718Y-95378972D01*
X161714721Y-95378984D01*
X161775059Y-95524655D01*
X161775066Y-95524668D01*
X161862667Y-95655771D01*
X161862670Y-95655775D01*
X161974164Y-95767269D01*
X161974168Y-95767272D01*
X162105271Y-95854873D01*
X162105284Y-95854880D01*
X162181647Y-95886510D01*
X162250960Y-95915220D01*
X162405610Y-95945982D01*
X162405613Y-95945983D01*
X162405615Y-95945983D01*
X162563301Y-95945983D01*
X162563302Y-95945982D01*
X162717954Y-95915220D01*
X162863636Y-95854877D01*
X162994746Y-95767272D01*
X163106246Y-95655772D01*
X163193851Y-95524662D01*
X163254194Y-95378980D01*
X163284957Y-95224325D01*
X163284957Y-95066641D01*
X163284957Y-95066638D01*
X163284956Y-95066636D01*
X163273748Y-95010289D01*
X163254194Y-94911986D01*
X163251224Y-94904816D01*
X163193854Y-94766310D01*
X163193847Y-94766297D01*
X163106246Y-94635194D01*
X163106243Y-94635190D01*
X162994749Y-94523696D01*
X162994745Y-94523693D01*
X162863634Y-94436087D01*
X162861338Y-94434860D01*
X162860359Y-94433899D01*
X162858571Y-94432704D01*
X162858797Y-94432364D01*
X162811492Y-94385900D01*
X162796029Y-94317763D01*
X162819858Y-94252082D01*
X162875414Y-94209711D01*
X162919787Y-94201500D01*
X163662274Y-94201500D01*
X163662290Y-94201501D01*
X163669886Y-94201501D01*
X163827997Y-94201501D01*
X163828000Y-94201501D01*
X163980728Y-94160577D01*
X164049587Y-94120821D01*
X164117659Y-94081520D01*
X164229463Y-93969716D01*
X164229463Y-93969714D01*
X164239667Y-93959511D01*
X164239671Y-93959506D01*
X164842963Y-93356214D01*
X164842968Y-93356210D01*
X164853171Y-93346006D01*
X164853173Y-93346006D01*
X164964977Y-93234202D01*
X165029876Y-93121791D01*
X165029878Y-93121790D01*
X165040533Y-93103334D01*
X165044034Y-93097271D01*
X165084958Y-92944543D01*
X165084958Y-92786429D01*
X165084958Y-92778834D01*
X165084957Y-92778816D01*
X165084957Y-89386234D01*
X165082030Y-89375313D01*
X165082029Y-89375309D01*
X165075460Y-89350792D01*
X165059333Y-89290606D01*
X165053742Y-89269738D01*
X165044035Y-89233510D01*
X165044033Y-89233505D01*
X164964981Y-89096582D01*
X164964978Y-89096578D01*
X164964977Y-89096576D01*
X164853173Y-88984772D01*
X164853172Y-88984771D01*
X164848842Y-88980441D01*
X164848831Y-88980431D01*
X164377027Y-88508627D01*
X164377025Y-88508624D01*
X164258154Y-88389753D01*
X164258146Y-88389747D01*
X164148537Y-88326465D01*
X164148536Y-88326464D01*
X164148536Y-88326465D01*
X164121222Y-88310695D01*
X163968494Y-88269771D01*
X163810380Y-88269771D01*
X163802784Y-88269771D01*
X163802768Y-88269772D01*
X154670369Y-88269772D01*
X154603330Y-88250087D01*
X154582688Y-88233453D01*
X154084574Y-87735339D01*
X154051089Y-87674016D01*
X154050638Y-87671849D01*
X154019738Y-87516510D01*
X154019737Y-87516503D01*
X154002267Y-87474327D01*
X153959397Y-87370827D01*
X153959390Y-87370814D01*
X153871789Y-87239711D01*
X153871786Y-87239707D01*
X153760292Y-87128213D01*
X153760288Y-87128210D01*
X153629185Y-87040609D01*
X153629172Y-87040602D01*
X153483501Y-86980264D01*
X153483489Y-86980261D01*
X153328845Y-86949500D01*
X153328842Y-86949500D01*
X153171158Y-86949500D01*
X153171155Y-86949500D01*
X153016510Y-86980261D01*
X153016498Y-86980264D01*
X152870827Y-87040602D01*
X152870814Y-87040609D01*
X152739711Y-87128210D01*
X152739707Y-87128213D01*
X152628213Y-87239707D01*
X152628210Y-87239711D01*
X152540609Y-87370814D01*
X152540602Y-87370827D01*
X152480264Y-87516498D01*
X152480261Y-87516510D01*
X152449500Y-87671153D01*
X152449500Y-87828846D01*
X152480261Y-87983489D01*
X152480264Y-87983501D01*
X152540602Y-88129172D01*
X152540609Y-88129185D01*
X152628210Y-88260288D01*
X152628213Y-88260292D01*
X152739707Y-88371786D01*
X152739711Y-88371789D01*
X152870814Y-88459390D01*
X152870827Y-88459397D01*
X152989681Y-88508627D01*
X153016503Y-88519737D01*
X153081147Y-88532595D01*
X153171849Y-88550638D01*
X153233760Y-88583023D01*
X153235339Y-88584574D01*
X153889750Y-89238985D01*
X153889752Y-89238988D01*
X154001556Y-89350792D01*
X154049048Y-89378211D01*
X154059179Y-89384060D01*
X154138481Y-89429846D01*
X154138482Y-89429847D01*
X154138484Y-89429847D01*
X154138487Y-89429849D01*
X154291215Y-89470773D01*
X154291218Y-89470773D01*
X154456925Y-89470773D01*
X154456941Y-89470772D01*
X159750453Y-89470772D01*
X159817492Y-89490457D01*
X159863247Y-89543261D01*
X159873191Y-89612419D01*
X159865014Y-89642224D01*
X159833512Y-89718276D01*
X159833509Y-89718288D01*
X159802748Y-89872931D01*
X159802748Y-90030624D01*
X159833509Y-90185267D01*
X159833512Y-90185279D01*
X159893850Y-90330950D01*
X159893857Y-90330963D01*
X159981458Y-90462066D01*
X159981461Y-90462070D01*
X160092955Y-90573564D01*
X160092959Y-90573567D01*
X160224062Y-90661168D01*
X160224075Y-90661175D01*
X160340493Y-90709396D01*
X160369751Y-90721515D01*
X160518263Y-90751056D01*
X160524401Y-90752277D01*
X160524404Y-90752278D01*
X160524406Y-90752278D01*
X160682092Y-90752278D01*
X160682093Y-90752277D01*
X160836745Y-90721515D01*
X160962075Y-90669601D01*
X161031544Y-90662133D01*
X161078418Y-90681061D01*
X161120821Y-90709394D01*
X161120822Y-90709394D01*
X161120823Y-90709395D01*
X161120825Y-90709396D01*
X161224353Y-90752278D01*
X161266503Y-90769737D01*
X161421153Y-90800499D01*
X161421156Y-90800500D01*
X161421158Y-90800500D01*
X161578844Y-90800500D01*
X161578845Y-90800499D01*
X161733497Y-90769737D01*
X161879179Y-90709394D01*
X161907303Y-90690602D01*
X161918398Y-90683189D01*
X161985075Y-90662311D01*
X162052455Y-90680795D01*
X162056180Y-90683189D01*
X162067285Y-90690609D01*
X162095399Y-90709394D01*
X162095401Y-90709395D01*
X162095405Y-90709397D01*
X162241076Y-90769735D01*
X162241081Y-90769737D01*
X162395731Y-90800499D01*
X162395734Y-90800500D01*
X162395736Y-90800500D01*
X162553422Y-90800500D01*
X162553423Y-90800499D01*
X162708075Y-90769737D01*
X162762507Y-90747190D01*
X162831973Y-90739722D01*
X162894452Y-90770996D01*
X162930105Y-90831085D01*
X162933957Y-90861752D01*
X162933957Y-90974329D01*
X162964718Y-91128972D01*
X162964721Y-91128984D01*
X163025059Y-91274655D01*
X163025066Y-91274668D01*
X163112667Y-91405771D01*
X163112670Y-91405775D01*
X163224164Y-91517269D01*
X163224168Y-91517272D01*
X163355271Y-91604873D01*
X163355284Y-91604880D01*
X163492677Y-91661789D01*
X163500960Y-91665220D01*
X163655610Y-91695982D01*
X163655613Y-91695983D01*
X163759957Y-91695983D01*
X163826996Y-91715668D01*
X163872751Y-91768472D01*
X163883957Y-91819983D01*
X163883957Y-92109096D01*
X163864272Y-92176135D01*
X163811468Y-92221890D01*
X163742310Y-92231834D01*
X163735766Y-92230713D01*
X163578846Y-92199500D01*
X163578842Y-92199500D01*
X163421158Y-92199500D01*
X163421155Y-92199500D01*
X163266510Y-92230261D01*
X163266498Y-92230264D01*
X163120827Y-92290602D01*
X163120814Y-92290609D01*
X162989125Y-92378602D01*
X162922447Y-92399480D01*
X162920234Y-92399500D01*
X161950937Y-92399500D01*
X161910016Y-92410464D01*
X161910016Y-92410465D01*
X161872748Y-92420451D01*
X161798211Y-92440423D01*
X161798206Y-92440426D01*
X161661287Y-92519475D01*
X161661279Y-92519481D01*
X160244101Y-93936660D01*
X160182778Y-93970145D01*
X160113086Y-93965161D01*
X160068739Y-93936660D01*
X160010292Y-93878213D01*
X160010288Y-93878210D01*
X159879185Y-93790609D01*
X159879172Y-93790602D01*
X159733501Y-93730264D01*
X159733489Y-93730261D01*
X159578845Y-93699500D01*
X159578842Y-93699500D01*
X159421158Y-93699500D01*
X159421155Y-93699500D01*
X159266510Y-93730261D01*
X159266498Y-93730264D01*
X159120827Y-93790602D01*
X159120814Y-93790609D01*
X158989711Y-93878210D01*
X158989707Y-93878213D01*
X158878213Y-93989707D01*
X158878210Y-93989711D01*
X158790609Y-94120814D01*
X158790602Y-94120827D01*
X158730264Y-94266498D01*
X158730262Y-94266505D01*
X158726330Y-94286273D01*
X158693943Y-94348183D01*
X158633227Y-94382756D01*
X158563457Y-94379015D01*
X158517032Y-94349760D01*
X158305627Y-94138355D01*
X158305625Y-94138352D01*
X158186754Y-94019481D01*
X158186746Y-94019475D01*
X158082309Y-93959179D01*
X158082306Y-93959178D01*
X158049823Y-93940423D01*
X158049824Y-93940423D01*
X157988730Y-93924053D01*
X157897094Y-93899499D01*
X157738980Y-93899499D01*
X157731384Y-93899499D01*
X157731368Y-93899500D01*
X156181998Y-93899500D01*
X156114959Y-93879815D01*
X156069204Y-93827011D01*
X156059260Y-93757853D01*
X156088285Y-93694297D01*
X156094317Y-93687819D01*
X156645317Y-93136819D01*
X156706640Y-93103334D01*
X156732998Y-93100500D01*
X157920234Y-93100500D01*
X157987273Y-93120185D01*
X157989125Y-93121398D01*
X158120814Y-93209390D01*
X158120827Y-93209397D01*
X158266498Y-93269735D01*
X158266503Y-93269737D01*
X158421153Y-93300499D01*
X158421156Y-93300500D01*
X158421158Y-93300500D01*
X158578844Y-93300500D01*
X158578845Y-93300499D01*
X158733497Y-93269737D01*
X158879179Y-93209394D01*
X158892020Y-93200814D01*
X159010288Y-93121790D01*
X159010288Y-93121789D01*
X159010289Y-93121789D01*
X159051158Y-93080919D01*
X159112480Y-93047434D01*
X159182171Y-93052418D01*
X159186247Y-93054021D01*
X159218754Y-93067486D01*
X159218758Y-93067486D01*
X159218762Y-93067488D01*
X159373404Y-93098248D01*
X159373407Y-93098249D01*
X159373409Y-93098249D01*
X159531095Y-93098249D01*
X159531096Y-93098248D01*
X159685748Y-93067486D01*
X159831430Y-93007143D01*
X159962540Y-92919538D01*
X160074040Y-92808038D01*
X160161645Y-92676928D01*
X160221988Y-92531246D01*
X160252751Y-92376591D01*
X160252751Y-92218907D01*
X160252751Y-92218904D01*
X160252750Y-92218902D01*
X160242970Y-92169737D01*
X160221988Y-92064252D01*
X160221986Y-92064247D01*
X160161648Y-91918576D01*
X160161641Y-91918563D01*
X160074040Y-91787460D01*
X160074037Y-91787456D01*
X159962543Y-91675962D01*
X159962539Y-91675959D01*
X159831436Y-91588358D01*
X159831423Y-91588351D01*
X159685752Y-91528013D01*
X159685740Y-91528010D01*
X159531096Y-91497249D01*
X159531093Y-91497249D01*
X159373409Y-91497249D01*
X159373406Y-91497249D01*
X159218761Y-91528010D01*
X159218749Y-91528013D01*
X159073078Y-91588351D01*
X159073065Y-91588358D01*
X158941965Y-91675957D01*
X158941960Y-91675961D01*
X158901091Y-91716830D01*
X158839768Y-91750315D01*
X158770076Y-91745329D01*
X158765959Y-91743709D01*
X158733498Y-91730263D01*
X158733488Y-91730260D01*
X158578845Y-91699500D01*
X158578842Y-91699500D01*
X158421158Y-91699500D01*
X158421155Y-91699500D01*
X158266510Y-91730261D01*
X158266498Y-91730264D01*
X158120827Y-91790602D01*
X158120814Y-91790609D01*
X157989125Y-91878602D01*
X157922447Y-91899480D01*
X157920234Y-91899500D01*
X156519570Y-91899500D01*
X156519554Y-91899499D01*
X156511958Y-91899499D01*
X156353843Y-91899499D01*
X156296934Y-91914747D01*
X156227085Y-91913085D01*
X156169222Y-91873923D01*
X156141718Y-91809694D01*
X156153304Y-91740792D01*
X156195948Y-91691872D01*
X156323954Y-91606342D01*
X156435454Y-91494842D01*
X156523059Y-91363732D01*
X156583402Y-91218050D01*
X156614165Y-91063395D01*
X156614165Y-90905711D01*
X156614165Y-90905708D01*
X156614164Y-90905706D01*
X156596330Y-90816050D01*
X156583402Y-90751056D01*
X156571166Y-90721515D01*
X156523062Y-90605380D01*
X156523058Y-90605373D01*
X156501804Y-90573564D01*
X156455126Y-90503706D01*
X157842269Y-90503706D01*
X157842269Y-90661399D01*
X157873030Y-90816042D01*
X157873033Y-90816054D01*
X157933371Y-90961725D01*
X157933378Y-90961738D01*
X158020979Y-91092841D01*
X158020982Y-91092845D01*
X158132476Y-91204339D01*
X158132480Y-91204342D01*
X158263583Y-91291943D01*
X158263596Y-91291950D01*
X158409267Y-91352288D01*
X158409272Y-91352290D01*
X158563922Y-91383052D01*
X158563925Y-91383053D01*
X158563927Y-91383053D01*
X158721613Y-91383053D01*
X158721614Y-91383052D01*
X158876266Y-91352290D01*
X159021948Y-91291947D01*
X159153058Y-91204342D01*
X159264558Y-91092842D01*
X159352163Y-90961732D01*
X159412506Y-90816050D01*
X159443269Y-90661395D01*
X159443269Y-90503711D01*
X159443269Y-90503708D01*
X159443268Y-90503706D01*
X159427608Y-90424979D01*
X159412506Y-90349056D01*
X159393789Y-90303868D01*
X159352166Y-90203380D01*
X159352159Y-90203367D01*
X159264558Y-90072264D01*
X159264555Y-90072260D01*
X159153061Y-89960766D01*
X159153057Y-89960763D01*
X159021954Y-89873162D01*
X159021941Y-89873155D01*
X158876270Y-89812817D01*
X158876258Y-89812814D01*
X158721614Y-89782053D01*
X158721611Y-89782053D01*
X158563927Y-89782053D01*
X158563924Y-89782053D01*
X158409279Y-89812814D01*
X158409267Y-89812817D01*
X158263596Y-89873155D01*
X158263583Y-89873162D01*
X158132480Y-89960763D01*
X158132476Y-89960766D01*
X158020982Y-90072260D01*
X158020979Y-90072264D01*
X157933378Y-90203367D01*
X157933371Y-90203380D01*
X157873033Y-90349051D01*
X157873030Y-90349063D01*
X157842269Y-90503706D01*
X156455126Y-90503706D01*
X156454632Y-90502966D01*
X156435454Y-90474263D01*
X156323957Y-90362766D01*
X156323953Y-90362763D01*
X156192850Y-90275162D01*
X156192837Y-90275155D01*
X156047166Y-90214817D01*
X156047154Y-90214814D01*
X155892510Y-90184053D01*
X155892507Y-90184053D01*
X155734823Y-90184053D01*
X155734820Y-90184053D01*
X155580175Y-90214814D01*
X155580163Y-90214817D01*
X155434492Y-90275155D01*
X155434479Y-90275162D01*
X155302790Y-90363155D01*
X155236112Y-90384033D01*
X155233899Y-90384053D01*
X154436388Y-90384053D01*
X154408708Y-90391469D01*
X154408709Y-90391470D01*
X154283661Y-90424976D01*
X154283656Y-90424979D01*
X154146737Y-90504028D01*
X154146729Y-90504034D01*
X153473378Y-91177386D01*
X153412055Y-91210871D01*
X153342363Y-91205887D01*
X153286430Y-91164015D01*
X153271136Y-91137157D01*
X153222951Y-91020827D01*
X153222944Y-91020814D01*
X153135343Y-90889711D01*
X153135340Y-90889707D01*
X153023846Y-90778213D01*
X153023842Y-90778210D01*
X152892739Y-90690609D01*
X152892726Y-90690602D01*
X152747055Y-90630264D01*
X152747043Y-90630261D01*
X152592399Y-90599500D01*
X152592396Y-90599500D01*
X152434712Y-90599500D01*
X152434709Y-90599500D01*
X152280064Y-90630261D01*
X152280052Y-90630264D01*
X152134381Y-90690602D01*
X152134368Y-90690609D01*
X152003265Y-90778210D01*
X152003261Y-90778213D01*
X151891767Y-90889707D01*
X151891764Y-90889711D01*
X151804163Y-91020814D01*
X151804156Y-91020827D01*
X151743818Y-91166498D01*
X151743815Y-91166510D01*
X151713054Y-91321153D01*
X151713054Y-91478846D01*
X151743815Y-91633489D01*
X151743818Y-91633501D01*
X151804156Y-91779172D01*
X151804163Y-91779185D01*
X151891764Y-91910288D01*
X151891767Y-91910292D01*
X152003261Y-92021786D01*
X152003265Y-92021789D01*
X152134368Y-92109390D01*
X152134381Y-92109397D01*
X152250711Y-92157582D01*
X152276251Y-92178163D01*
X152302515Y-92197818D01*
X152303320Y-92199977D01*
X152305115Y-92201423D01*
X152315473Y-92232545D01*
X152326942Y-92263279D01*
X152326452Y-92265531D01*
X152327180Y-92267717D01*
X152319068Y-92299496D01*
X152312100Y-92331554D01*
X152310258Y-92334014D01*
X152309901Y-92335416D01*
X152290953Y-92359811D01*
X152287597Y-92363168D01*
X152226279Y-92396662D01*
X152199903Y-92399500D01*
X134086669Y-92399500D01*
X134086653Y-92399499D01*
X134079057Y-92399499D01*
X133920943Y-92399499D01*
X133813587Y-92428265D01*
X133768210Y-92440424D01*
X133768209Y-92440425D01*
X133718096Y-92469359D01*
X133718095Y-92469360D01*
X133674689Y-92494420D01*
X133631285Y-92519479D01*
X133631282Y-92519481D01*
X133519480Y-92631283D01*
X133519480Y-92631284D01*
X133519478Y-92631286D01*
X133454995Y-92695768D01*
X133405337Y-92745427D01*
X133344014Y-92778911D01*
X133341848Y-92779362D01*
X133186508Y-92810261D01*
X133186498Y-92810264D01*
X133040827Y-92870602D01*
X133040814Y-92870609D01*
X132909711Y-92958210D01*
X132909707Y-92958213D01*
X132798213Y-93069707D01*
X132798210Y-93069711D01*
X132710609Y-93200814D01*
X132710602Y-93200827D01*
X132650264Y-93346498D01*
X132650261Y-93346510D01*
X132619500Y-93501153D01*
X132619500Y-93658846D01*
X132650261Y-93813489D01*
X132650264Y-93813501D01*
X132710602Y-93959172D01*
X132710609Y-93959185D01*
X132798210Y-94090288D01*
X132798213Y-94090292D01*
X132909707Y-94201786D01*
X132909711Y-94201789D01*
X133040814Y-94289390D01*
X133040827Y-94289397D01*
X133182751Y-94348183D01*
X133186503Y-94349737D01*
X133341153Y-94380499D01*
X133341156Y-94380500D01*
X133341158Y-94380500D01*
X133498844Y-94380500D01*
X133498845Y-94380499D01*
X133653497Y-94349737D01*
X133799179Y-94289394D01*
X133930289Y-94201789D01*
X134041789Y-94090289D01*
X134129394Y-93959179D01*
X134189737Y-93813497D01*
X134212252Y-93700309D01*
X134244637Y-93638398D01*
X134305352Y-93603824D01*
X134333869Y-93600500D01*
X152413331Y-93600500D01*
X152413347Y-93600501D01*
X152420943Y-93600501D01*
X152579054Y-93600501D01*
X152579057Y-93600501D01*
X152731785Y-93559577D01*
X152781904Y-93530639D01*
X152868716Y-93480520D01*
X152980520Y-93368716D01*
X152980520Y-93368714D01*
X152990728Y-93358507D01*
X152990730Y-93358504D01*
X154040731Y-92308503D01*
X154102054Y-92275018D01*
X154171746Y-92280002D01*
X154227679Y-92321874D01*
X154252096Y-92387338D01*
X154252412Y-92396184D01*
X154252412Y-92451305D01*
X154283173Y-92605948D01*
X154283176Y-92605960D01*
X154343514Y-92751631D01*
X154343521Y-92751644D01*
X154431122Y-92882747D01*
X154431125Y-92882751D01*
X154542619Y-92994245D01*
X154542623Y-92994248D01*
X154673726Y-93081849D01*
X154673733Y-93081853D01*
X154734267Y-93106927D01*
X154788669Y-93150765D01*
X154810735Y-93217059D01*
X154793457Y-93284759D01*
X154774495Y-93309168D01*
X151371587Y-96712077D01*
X151310264Y-96745562D01*
X151240572Y-96740578D01*
X151184639Y-96698706D01*
X151160222Y-96633242D01*
X151175074Y-96564969D01*
X151180805Y-96555504D01*
X151213369Y-96506769D01*
X151213370Y-96506766D01*
X151213374Y-96506761D01*
X151216518Y-96499172D01*
X151273715Y-96361083D01*
X151273717Y-96361079D01*
X151304480Y-96206424D01*
X151304480Y-96048740D01*
X151304480Y-96048737D01*
X151304479Y-96048735D01*
X151290348Y-95977694D01*
X151273717Y-95894085D01*
X151270579Y-95886510D01*
X151213377Y-95748409D01*
X151213370Y-95748396D01*
X151125769Y-95617293D01*
X151125766Y-95617289D01*
X151014272Y-95505795D01*
X151014268Y-95505792D01*
X150883165Y-95418191D01*
X150883152Y-95418184D01*
X150737481Y-95357846D01*
X150737469Y-95357843D01*
X150582825Y-95327082D01*
X150582822Y-95327082D01*
X150425138Y-95327082D01*
X150425135Y-95327082D01*
X150270490Y-95357843D01*
X150270478Y-95357846D01*
X150124807Y-95418184D01*
X150124794Y-95418191D01*
X149993691Y-95505792D01*
X149993687Y-95505795D01*
X149882193Y-95617289D01*
X149882190Y-95617293D01*
X149794589Y-95748396D01*
X149794582Y-95748409D01*
X149734244Y-95894080D01*
X149734241Y-95894092D01*
X149703480Y-96048735D01*
X149703480Y-96206428D01*
X149734241Y-96361071D01*
X149734244Y-96361083D01*
X149794582Y-96506754D01*
X149794589Y-96506767D01*
X149882190Y-96637870D01*
X149882193Y-96637874D01*
X149993687Y-96749368D01*
X149993691Y-96749371D01*
X150124794Y-96836972D01*
X150124807Y-96836979D01*
X150270478Y-96897317D01*
X150270483Y-96897319D01*
X150387016Y-96920499D01*
X150425133Y-96928081D01*
X150425136Y-96928082D01*
X150425138Y-96928082D01*
X150582824Y-96928082D01*
X150582825Y-96928081D01*
X150737477Y-96897319D01*
X150883159Y-96836976D01*
X150883164Y-96836972D01*
X150883167Y-96836971D01*
X150931902Y-96804407D01*
X150998579Y-96783528D01*
X151065960Y-96802012D01*
X151112650Y-96853990D01*
X151123827Y-96922960D01*
X151095942Y-96987024D01*
X151088475Y-96995189D01*
X150720484Y-97363181D01*
X150659161Y-97396666D01*
X150632803Y-97399500D01*
X147079766Y-97399500D01*
X147012727Y-97379815D01*
X147010875Y-97378602D01*
X146879185Y-97290609D01*
X146879172Y-97290602D01*
X146733501Y-97230264D01*
X146733489Y-97230261D01*
X146578845Y-97199500D01*
X146578842Y-97199500D01*
X146421158Y-97199500D01*
X146421155Y-97199500D01*
X146266510Y-97230261D01*
X146266498Y-97230264D01*
X146120827Y-97290602D01*
X146120814Y-97290609D01*
X145989711Y-97378210D01*
X145989707Y-97378213D01*
X145878213Y-97489707D01*
X145878210Y-97489711D01*
X145790609Y-97620814D01*
X145790602Y-97620827D01*
X145730264Y-97766498D01*
X145730261Y-97766510D01*
X145699500Y-97921153D01*
X145699500Y-98078846D01*
X145730261Y-98233489D01*
X145732031Y-98239324D01*
X145729279Y-98240158D01*
X145735503Y-98297359D01*
X145704309Y-98359878D01*
X145644266Y-98395608D01*
X145613445Y-98399500D01*
X134174500Y-98399500D01*
X134107461Y-98379815D01*
X134061706Y-98327011D01*
X134050500Y-98275500D01*
X134050500Y-98171155D01*
X134050499Y-98171153D01*
X134019737Y-98016503D01*
X134019735Y-98016498D01*
X133959397Y-97870827D01*
X133959390Y-97870814D01*
X133871789Y-97739711D01*
X133871786Y-97739707D01*
X133760292Y-97628213D01*
X133760288Y-97628210D01*
X133629185Y-97540609D01*
X133629172Y-97540602D01*
X133483501Y-97480264D01*
X133483489Y-97480261D01*
X133328845Y-97449500D01*
X133328842Y-97449500D01*
X133171158Y-97449500D01*
X133171155Y-97449500D01*
X133016510Y-97480261D01*
X133016498Y-97480264D01*
X132870827Y-97540602D01*
X132870814Y-97540609D01*
X132739711Y-97628210D01*
X132739707Y-97628213D01*
X132628213Y-97739707D01*
X132628210Y-97739711D01*
X132540609Y-97870814D01*
X132540602Y-97870827D01*
X132480264Y-98016498D01*
X132480261Y-98016510D01*
X132449500Y-98171153D01*
X132449500Y-98275500D01*
X132429815Y-98342539D01*
X132377011Y-98388294D01*
X132325500Y-98399500D01*
X125869397Y-98399500D01*
X125869381Y-98399499D01*
X125861785Y-98399499D01*
X125703670Y-98399499D01*
X125627306Y-98419961D01*
X125550941Y-98440423D01*
X125550936Y-98440426D01*
X125414017Y-98519475D01*
X125414009Y-98519481D01*
X125234770Y-98698720D01*
X125173447Y-98732205D01*
X125171281Y-98732656D01*
X125015941Y-98763555D01*
X125015931Y-98763558D01*
X124870260Y-98823896D01*
X124870247Y-98823903D01*
X124739144Y-98911504D01*
X124739140Y-98911507D01*
X124627646Y-99023001D01*
X124627643Y-99023005D01*
X124540042Y-99154108D01*
X124540035Y-99154121D01*
X124479697Y-99299792D01*
X124479694Y-99299804D01*
X124448933Y-99454447D01*
X124448933Y-99612140D01*
X124479694Y-99766783D01*
X124479697Y-99766795D01*
X124540035Y-99912466D01*
X124540042Y-99912479D01*
X124627642Y-100043581D01*
X124627643Y-100043582D01*
X124627644Y-100043583D01*
X124651078Y-100067017D01*
X124684563Y-100128338D01*
X124679580Y-100198029D01*
X124651084Y-100242374D01*
X124647686Y-100245772D01*
X124560087Y-100376872D01*
X124560080Y-100376885D01*
X124499742Y-100522556D01*
X124499739Y-100522568D01*
X124468978Y-100677211D01*
X124468978Y-100834904D01*
X124499739Y-100989547D01*
X124499742Y-100989559D01*
X124560080Y-101135230D01*
X124560087Y-101135243D01*
X124647688Y-101266346D01*
X124647691Y-101266350D01*
X124661100Y-101279759D01*
X124694585Y-101341082D01*
X124689601Y-101410774D01*
X124661100Y-101455121D01*
X124597578Y-101518642D01*
X124597575Y-101518646D01*
X124509974Y-101649749D01*
X124509967Y-101649762D01*
X124449629Y-101795433D01*
X124449626Y-101795445D01*
X124418865Y-101950088D01*
X121380597Y-101950088D01*
X121380597Y-96041153D01*
X132579500Y-96041153D01*
X132579500Y-96198846D01*
X132610261Y-96353489D01*
X132610264Y-96353501D01*
X132670602Y-96499172D01*
X132670609Y-96499185D01*
X132758210Y-96630288D01*
X132758213Y-96630292D01*
X132869707Y-96741786D01*
X132869711Y-96741789D01*
X133000814Y-96829390D01*
X133000827Y-96829397D01*
X133060201Y-96853990D01*
X133146503Y-96889737D01*
X133301153Y-96920499D01*
X133301156Y-96920500D01*
X133301158Y-96920500D01*
X133458844Y-96920500D01*
X133458845Y-96920499D01*
X133613497Y-96889737D01*
X133759179Y-96829394D01*
X133890289Y-96741789D01*
X134001789Y-96630289D01*
X134089394Y-96499179D01*
X134149737Y-96353497D01*
X134180500Y-96198842D01*
X134180500Y-96041158D01*
X134180500Y-96041155D01*
X134180499Y-96041153D01*
X134172817Y-96002533D01*
X134149737Y-95886503D01*
X134140074Y-95863174D01*
X134089397Y-95740827D01*
X134089390Y-95740814D01*
X134001789Y-95609711D01*
X134001786Y-95609707D01*
X133890292Y-95498213D01*
X133890288Y-95498210D01*
X133759185Y-95410609D01*
X133759172Y-95410602D01*
X133613501Y-95350264D01*
X133613489Y-95350261D01*
X133458845Y-95319500D01*
X133458842Y-95319500D01*
X133301158Y-95319500D01*
X133301155Y-95319500D01*
X133146510Y-95350261D01*
X133146498Y-95350264D01*
X133000827Y-95410602D01*
X133000814Y-95410609D01*
X132869711Y-95498210D01*
X132869707Y-95498213D01*
X132758213Y-95609707D01*
X132758210Y-95609711D01*
X132670609Y-95740814D01*
X132670602Y-95740827D01*
X132610264Y-95886498D01*
X132610261Y-95886510D01*
X132579500Y-96041153D01*
X121380597Y-96041153D01*
X121380597Y-89805822D01*
X121400282Y-89738783D01*
X121453086Y-89693028D01*
X121522244Y-89683084D01*
X121577591Y-89708134D01*
X121578729Y-89706569D01*
X121786416Y-89857463D01*
X122010815Y-89971801D01*
X122250330Y-90049623D01*
X122499072Y-90089021D01*
X122750928Y-90089021D01*
X122999669Y-90049623D01*
X123239184Y-89971801D01*
X123463575Y-89857467D01*
X123463581Y-89857463D01*
X123565697Y-89783271D01*
X123565698Y-89783271D01*
X122910757Y-89128330D01*
X122956574Y-89109353D01*
X123071224Y-89032747D01*
X123168726Y-88935245D01*
X123245332Y-88820595D01*
X123264309Y-88774778D01*
X123919250Y-89429719D01*
X123919250Y-89429718D01*
X123993442Y-89327602D01*
X123993446Y-89327596D01*
X124107780Y-89103205D01*
X124185602Y-88863690D01*
X124225000Y-88614949D01*
X124225000Y-88363092D01*
X124185602Y-88114351D01*
X124107779Y-87874834D01*
X124054248Y-87769774D01*
X124041351Y-87701104D01*
X124067627Y-87636364D01*
X124124733Y-87596106D01*
X124165660Y-87590294D01*
X124165660Y-87589521D01*
X126184340Y-87589521D01*
X126184340Y-87590786D01*
X126247401Y-87606168D01*
X126295553Y-87656795D01*
X126308691Y-87725419D01*
X126295752Y-87769773D01*
X126242219Y-87874836D01*
X126164397Y-88114351D01*
X126125000Y-88363092D01*
X126125000Y-88614949D01*
X126164397Y-88863690D01*
X126242219Y-89103205D01*
X126356557Y-89327604D01*
X126430748Y-89429718D01*
X126430748Y-89429719D01*
X127085689Y-88774777D01*
X127104668Y-88820595D01*
X127181274Y-88935245D01*
X127278776Y-89032747D01*
X127393426Y-89109353D01*
X127439242Y-89128330D01*
X126784300Y-89783271D01*
X126886416Y-89857463D01*
X127115154Y-89974012D01*
X127114320Y-89975647D01*
X127162610Y-90014566D01*
X127184670Y-90080862D01*
X127167387Y-90148560D01*
X127116247Y-90196167D01*
X127060749Y-90209280D01*
X126950497Y-90209280D01*
X126795847Y-90240041D01*
X126795843Y-90240043D01*
X126707982Y-90276435D01*
X126638512Y-90283902D01*
X126613080Y-90276435D01*
X126598662Y-90270463D01*
X126533620Y-90243522D01*
X126533616Y-90243521D01*
X126533611Y-90243519D01*
X126378968Y-90212759D01*
X126378965Y-90212759D01*
X126221281Y-90212759D01*
X126221278Y-90212759D01*
X126066633Y-90243520D01*
X126066621Y-90243523D01*
X125920950Y-90303861D01*
X125920937Y-90303868D01*
X125789834Y-90391469D01*
X125789830Y-90391472D01*
X125678336Y-90502966D01*
X125678333Y-90502970D01*
X125590732Y-90634073D01*
X125590725Y-90634086D01*
X125530387Y-90779757D01*
X125530384Y-90779769D01*
X125499623Y-90934412D01*
X125499623Y-91092105D01*
X125530384Y-91246748D01*
X125530387Y-91246760D01*
X125590725Y-91392431D01*
X125590732Y-91392444D01*
X125678333Y-91523547D01*
X125678336Y-91523551D01*
X125789830Y-91635045D01*
X125789834Y-91635048D01*
X125920937Y-91722649D01*
X125920950Y-91722656D01*
X126057394Y-91779172D01*
X126066626Y-91782996D01*
X126200845Y-91809694D01*
X126221276Y-91813758D01*
X126221279Y-91813759D01*
X126221281Y-91813759D01*
X126378967Y-91813759D01*
X126378968Y-91813758D01*
X126533620Y-91782996D01*
X126621481Y-91746602D01*
X126690948Y-91739134D01*
X126716379Y-91746601D01*
X126795845Y-91779517D01*
X126947554Y-91809694D01*
X126950495Y-91810279D01*
X126950498Y-91810280D01*
X126950500Y-91810280D01*
X127108186Y-91810280D01*
X127108187Y-91810279D01*
X127262839Y-91779517D01*
X127408521Y-91719174D01*
X127539631Y-91631569D01*
X127651131Y-91520069D01*
X127738736Y-91388959D01*
X127799079Y-91243277D01*
X127829842Y-91088622D01*
X127829842Y-90961153D01*
X149699500Y-90961153D01*
X149699500Y-91118846D01*
X149730261Y-91273489D01*
X149730264Y-91273501D01*
X149790602Y-91419172D01*
X149790609Y-91419185D01*
X149878210Y-91550288D01*
X149878213Y-91550292D01*
X149989707Y-91661786D01*
X149989711Y-91661789D01*
X150120814Y-91749390D01*
X150120827Y-91749397D01*
X150266399Y-91809694D01*
X150266503Y-91809737D01*
X150421153Y-91840499D01*
X150421156Y-91840500D01*
X150421158Y-91840500D01*
X150578844Y-91840500D01*
X150578845Y-91840499D01*
X150733497Y-91809737D01*
X150846166Y-91763067D01*
X150879172Y-91749397D01*
X150879172Y-91749396D01*
X150879179Y-91749394D01*
X151010289Y-91661789D01*
X151121789Y-91550289D01*
X151209394Y-91419179D01*
X151269737Y-91273497D01*
X151300500Y-91118842D01*
X151300500Y-90961158D01*
X151300500Y-90961155D01*
X151300499Y-90961153D01*
X151280727Y-90861752D01*
X151269737Y-90806503D01*
X151269735Y-90806498D01*
X151209397Y-90660827D01*
X151209390Y-90660814D01*
X151121789Y-90529711D01*
X151121786Y-90529707D01*
X151010292Y-90418213D01*
X151010288Y-90418210D01*
X150879185Y-90330609D01*
X150879172Y-90330602D01*
X150733501Y-90270264D01*
X150733489Y-90270261D01*
X150578845Y-90239500D01*
X150578842Y-90239500D01*
X150421158Y-90239500D01*
X150421155Y-90239500D01*
X150266510Y-90270261D01*
X150266498Y-90270264D01*
X150120827Y-90330602D01*
X150120814Y-90330609D01*
X149989711Y-90418210D01*
X149989707Y-90418213D01*
X149878213Y-90529707D01*
X149878210Y-90529711D01*
X149790609Y-90660814D01*
X149790602Y-90660827D01*
X149730264Y-90806498D01*
X149730261Y-90806510D01*
X149699500Y-90961153D01*
X127829842Y-90961153D01*
X127829842Y-90930938D01*
X127829842Y-90930935D01*
X127829841Y-90930933D01*
X127821641Y-90889711D01*
X127799079Y-90776283D01*
X127789136Y-90752278D01*
X127738739Y-90630607D01*
X127738732Y-90630594D01*
X127651131Y-90499491D01*
X127651128Y-90499487D01*
X127539634Y-90387993D01*
X127539630Y-90387990D01*
X127404625Y-90297782D01*
X127359820Y-90244170D01*
X127351113Y-90174845D01*
X127381268Y-90111817D01*
X127440711Y-90075098D01*
X127492914Y-90072207D01*
X127599072Y-90089021D01*
X127850928Y-90089021D01*
X128099669Y-90049623D01*
X128339184Y-89971801D01*
X128563575Y-89857467D01*
X128563581Y-89857463D01*
X128665697Y-89783271D01*
X128665698Y-89783271D01*
X128010757Y-89128330D01*
X128056574Y-89109353D01*
X128171224Y-89032747D01*
X128268726Y-88935245D01*
X128345332Y-88820595D01*
X128364309Y-88774778D01*
X129019250Y-89429719D01*
X129019250Y-89429718D01*
X129093442Y-89327602D01*
X129093446Y-89327596D01*
X129207780Y-89103205D01*
X129285602Y-88863690D01*
X129325000Y-88614949D01*
X129325000Y-88421153D01*
X149699500Y-88421153D01*
X149699500Y-88578846D01*
X149730261Y-88733489D01*
X149730264Y-88733501D01*
X149790602Y-88879172D01*
X149790609Y-88879185D01*
X149878210Y-89010288D01*
X149878213Y-89010292D01*
X149989707Y-89121786D01*
X149989711Y-89121789D01*
X150120814Y-89209390D01*
X150120827Y-89209397D01*
X150266498Y-89269735D01*
X150266503Y-89269737D01*
X150421153Y-89300499D01*
X150421156Y-89300500D01*
X150421158Y-89300500D01*
X150578844Y-89300500D01*
X150578845Y-89300499D01*
X150733497Y-89269737D01*
X150879179Y-89209394D01*
X151010289Y-89121789D01*
X151121789Y-89010289D01*
X151209394Y-88879179D01*
X151269737Y-88733497D01*
X151300500Y-88578842D01*
X151300500Y-88421158D01*
X151300500Y-88421155D01*
X151300499Y-88421153D01*
X151269738Y-88266510D01*
X151269737Y-88266503D01*
X151262937Y-88250087D01*
X151209397Y-88120827D01*
X151209390Y-88120814D01*
X151121789Y-87989711D01*
X151121786Y-87989707D01*
X151010292Y-87878213D01*
X151010288Y-87878210D01*
X150879185Y-87790609D01*
X150879172Y-87790602D01*
X150733501Y-87730264D01*
X150733489Y-87730261D01*
X150578845Y-87699500D01*
X150578842Y-87699500D01*
X150421158Y-87699500D01*
X150421155Y-87699500D01*
X150266510Y-87730261D01*
X150266498Y-87730264D01*
X150120827Y-87790602D01*
X150120814Y-87790609D01*
X149989711Y-87878210D01*
X149989707Y-87878213D01*
X149878213Y-87989707D01*
X149878210Y-87989711D01*
X149790609Y-88120814D01*
X149790602Y-88120827D01*
X149730264Y-88266498D01*
X149730261Y-88266510D01*
X149699500Y-88421153D01*
X129325000Y-88421153D01*
X129325000Y-88363092D01*
X129285602Y-88114351D01*
X129207780Y-87874836D01*
X129093442Y-87650437D01*
X129019250Y-87548322D01*
X129019250Y-87548321D01*
X128364309Y-88203262D01*
X128345332Y-88157447D01*
X128268726Y-88042797D01*
X128171224Y-87945295D01*
X128056574Y-87868689D01*
X128010756Y-87849710D01*
X128665698Y-87194769D01*
X128563583Y-87120578D01*
X128339184Y-87006240D01*
X128099669Y-86928418D01*
X127850928Y-86889021D01*
X127599072Y-86889021D01*
X127350330Y-86928418D01*
X127110815Y-87006240D01*
X127005752Y-87059773D01*
X126937083Y-87072669D01*
X126872342Y-87046393D01*
X126832085Y-86989286D01*
X126826274Y-86948361D01*
X126825500Y-86948361D01*
X126825500Y-86816636D01*
X156949500Y-86816636D01*
X156949500Y-86974329D01*
X156980261Y-87128972D01*
X156980264Y-87128984D01*
X157040602Y-87274655D01*
X157040609Y-87274668D01*
X157128210Y-87405771D01*
X157128213Y-87405775D01*
X157239707Y-87517269D01*
X157239711Y-87517272D01*
X157370814Y-87604873D01*
X157370827Y-87604880D01*
X157480813Y-87650437D01*
X157516503Y-87665220D01*
X157671153Y-87695982D01*
X157671156Y-87695983D01*
X157671158Y-87695983D01*
X157828844Y-87695983D01*
X157828845Y-87695982D01*
X157983497Y-87665220D01*
X158115297Y-87610626D01*
X158184764Y-87603158D01*
X158231639Y-87622085D01*
X158246468Y-87631994D01*
X158246470Y-87631995D01*
X158246474Y-87631997D01*
X158392145Y-87692335D01*
X158392150Y-87692337D01*
X158546800Y-87723099D01*
X158546803Y-87723100D01*
X158546805Y-87723100D01*
X158704491Y-87723100D01*
X158704492Y-87723099D01*
X158859144Y-87692337D01*
X159004826Y-87631994D01*
X159135936Y-87544389D01*
X159247436Y-87432889D01*
X159325114Y-87316636D01*
X165933957Y-87316636D01*
X165933957Y-87474329D01*
X165964718Y-87628972D01*
X165964721Y-87628984D01*
X166025059Y-87774655D01*
X166025066Y-87774668D01*
X166112667Y-87905771D01*
X166112670Y-87905775D01*
X166224164Y-88017269D01*
X166224168Y-88017272D01*
X166355271Y-88104873D01*
X166355284Y-88104880D01*
X166482194Y-88157447D01*
X166500960Y-88165220D01*
X166655610Y-88195982D01*
X166655613Y-88195983D01*
X166655615Y-88195983D01*
X166813301Y-88195983D01*
X166813302Y-88195982D01*
X166967954Y-88165220D01*
X167113636Y-88104877D01*
X167244746Y-88017272D01*
X167356246Y-87905772D01*
X167443851Y-87774662D01*
X167504194Y-87628980D01*
X167534957Y-87474325D01*
X167534957Y-87316641D01*
X167534957Y-87316638D01*
X167534956Y-87316636D01*
X167524306Y-87263097D01*
X167504194Y-87161986D01*
X167490204Y-87128210D01*
X167443854Y-87016310D01*
X167443847Y-87016297D01*
X167356246Y-86885194D01*
X167356243Y-86885190D01*
X167244749Y-86773696D01*
X167244745Y-86773693D01*
X167113642Y-86686092D01*
X167113629Y-86686085D01*
X166967958Y-86625747D01*
X166967946Y-86625744D01*
X166813302Y-86594983D01*
X166813299Y-86594983D01*
X166655615Y-86594983D01*
X166655612Y-86594983D01*
X166500967Y-86625744D01*
X166500955Y-86625747D01*
X166355284Y-86686085D01*
X166355271Y-86686092D01*
X166224168Y-86773693D01*
X166224164Y-86773696D01*
X166112670Y-86885190D01*
X166112667Y-86885194D01*
X166025066Y-87016297D01*
X166025059Y-87016310D01*
X165964721Y-87161981D01*
X165964718Y-87161993D01*
X165933957Y-87316636D01*
X159325114Y-87316636D01*
X159335041Y-87301779D01*
X159335044Y-87301772D01*
X159351064Y-87263097D01*
X159392942Y-87161993D01*
X159395384Y-87156097D01*
X159426147Y-87001442D01*
X159426147Y-86843758D01*
X159426147Y-86843755D01*
X159426146Y-86843753D01*
X159411423Y-86769735D01*
X159395384Y-86689103D01*
X159384150Y-86661981D01*
X159335044Y-86543427D01*
X159335037Y-86543414D01*
X159247436Y-86412311D01*
X159247433Y-86412307D01*
X159135939Y-86300813D01*
X159135935Y-86300810D01*
X159004832Y-86213209D01*
X159004819Y-86213202D01*
X158859148Y-86152864D01*
X158859136Y-86152861D01*
X158704492Y-86122100D01*
X158704489Y-86122100D01*
X158546805Y-86122100D01*
X158546802Y-86122100D01*
X158392157Y-86152861D01*
X158392154Y-86152862D01*
X158392153Y-86152862D01*
X158392150Y-86152863D01*
X158311920Y-86186095D01*
X158260349Y-86207456D01*
X158190879Y-86214924D01*
X158144007Y-86195996D01*
X158129189Y-86186095D01*
X158129182Y-86186091D01*
X158129179Y-86186089D01*
X158129175Y-86186087D01*
X158129171Y-86186085D01*
X157983501Y-86125747D01*
X157983489Y-86125744D01*
X157828845Y-86094983D01*
X157828842Y-86094983D01*
X157671158Y-86094983D01*
X157671155Y-86094983D01*
X157516510Y-86125744D01*
X157516498Y-86125747D01*
X157370827Y-86186085D01*
X157370814Y-86186092D01*
X157239711Y-86273693D01*
X157239707Y-86273696D01*
X157128213Y-86385190D01*
X157128210Y-86385194D01*
X157040609Y-86516297D01*
X157040602Y-86516310D01*
X156980264Y-86661981D01*
X156980261Y-86661993D01*
X156949500Y-86816636D01*
X126825500Y-86816636D01*
X126825500Y-85921153D01*
X149699500Y-85921153D01*
X149699500Y-86078846D01*
X149730261Y-86233489D01*
X149730264Y-86233501D01*
X149790602Y-86379172D01*
X149790609Y-86379185D01*
X149878210Y-86510288D01*
X149878213Y-86510292D01*
X149989707Y-86621786D01*
X149989711Y-86621789D01*
X150120814Y-86709390D01*
X150120827Y-86709397D01*
X150266498Y-86769735D01*
X150266503Y-86769737D01*
X150421153Y-86800499D01*
X150421156Y-86800500D01*
X150421158Y-86800500D01*
X150578844Y-86800500D01*
X150578845Y-86800499D01*
X150733497Y-86769737D01*
X150879179Y-86709394D01*
X150880473Y-86708528D01*
X150882095Y-86707446D01*
X150882095Y-86707445D01*
X151010289Y-86621789D01*
X151121789Y-86510289D01*
X151209394Y-86379179D01*
X151269737Y-86233497D01*
X151300500Y-86078842D01*
X151300500Y-85921158D01*
X151300500Y-85921155D01*
X151300499Y-85921153D01*
X151269737Y-85766503D01*
X151257266Y-85736395D01*
X151209397Y-85620827D01*
X151209390Y-85620814D01*
X151121789Y-85489711D01*
X151121786Y-85489707D01*
X151010292Y-85378213D01*
X151010288Y-85378210D01*
X150879185Y-85290609D01*
X150879172Y-85290602D01*
X150733501Y-85230264D01*
X150733489Y-85230261D01*
X150578845Y-85199500D01*
X150578842Y-85199500D01*
X150421158Y-85199500D01*
X150421155Y-85199500D01*
X150266510Y-85230261D01*
X150266498Y-85230264D01*
X150120827Y-85290602D01*
X150120814Y-85290609D01*
X149989711Y-85378210D01*
X149989707Y-85378213D01*
X149878213Y-85489707D01*
X149878210Y-85489711D01*
X149790609Y-85620814D01*
X149790602Y-85620827D01*
X149730264Y-85766498D01*
X149730261Y-85766510D01*
X149699500Y-85921153D01*
X126825500Y-85921153D01*
X126825500Y-84929681D01*
X126826764Y-84929681D01*
X126842150Y-84866614D01*
X126892780Y-84818464D01*
X126961404Y-84805330D01*
X127005753Y-84818269D01*
X127110813Y-84871800D01*
X127110812Y-84871800D01*
X127350330Y-84949623D01*
X127599072Y-84989021D01*
X127850928Y-84989021D01*
X128099669Y-84949623D01*
X128339184Y-84871801D01*
X128563575Y-84757467D01*
X128563581Y-84757463D01*
X128665697Y-84683271D01*
X128665698Y-84683271D01*
X128010756Y-84028330D01*
X128056574Y-84009353D01*
X128171224Y-83932747D01*
X128268726Y-83835245D01*
X128345332Y-83720595D01*
X128364309Y-83674778D01*
X129019250Y-84329719D01*
X129019250Y-84329718D01*
X129093442Y-84227602D01*
X129093446Y-84227596D01*
X129207780Y-84003205D01*
X129285602Y-83763690D01*
X129325000Y-83514949D01*
X129325000Y-83263092D01*
X129285602Y-83014351D01*
X129207780Y-82774836D01*
X129093442Y-82550437D01*
X129019250Y-82448322D01*
X129019250Y-82448321D01*
X128364309Y-83103262D01*
X128345332Y-83057447D01*
X128268726Y-82942797D01*
X128171224Y-82845295D01*
X128056574Y-82768689D01*
X128010755Y-82749710D01*
X128665698Y-82094769D01*
X128563583Y-82020578D01*
X128339184Y-81906240D01*
X128099669Y-81828418D01*
X127850928Y-81789021D01*
X127599072Y-81789021D01*
X127350330Y-81828418D01*
X127110815Y-81906240D01*
X126886413Y-82020580D01*
X126784301Y-82094768D01*
X126784300Y-82094769D01*
X127439242Y-82749711D01*
X127393426Y-82768689D01*
X127278776Y-82845295D01*
X127181274Y-82942797D01*
X127104668Y-83057447D01*
X127085690Y-83103264D01*
X126430748Y-82448321D01*
X126430747Y-82448322D01*
X126356559Y-82550434D01*
X126242219Y-82774836D01*
X126164397Y-83014351D01*
X126125000Y-83263092D01*
X126125000Y-83514949D01*
X126164397Y-83763690D01*
X126242219Y-84003205D01*
X126295752Y-84108268D01*
X126308648Y-84176937D01*
X126282372Y-84241678D01*
X126225266Y-84281935D01*
X126184340Y-84287768D01*
X126184340Y-84288521D01*
X124165660Y-84288521D01*
X124165660Y-84287289D01*
X124102477Y-84271803D01*
X124054382Y-84221121D01*
X124041322Y-84152483D01*
X124054248Y-84108267D01*
X124107779Y-84003207D01*
X124185602Y-83763690D01*
X124225000Y-83514949D01*
X124225000Y-83263092D01*
X124185602Y-83014351D01*
X124107780Y-82774836D01*
X123993442Y-82550437D01*
X123919250Y-82448322D01*
X123919250Y-82448321D01*
X123264309Y-83103262D01*
X123245332Y-83057447D01*
X123168726Y-82942797D01*
X123071224Y-82845295D01*
X122956574Y-82768689D01*
X122910756Y-82749710D01*
X123565698Y-82094769D01*
X123463583Y-82020578D01*
X123239184Y-81906240D01*
X122999669Y-81828418D01*
X122750928Y-81789021D01*
X122499072Y-81789021D01*
X122250330Y-81828418D01*
X122010815Y-81906240D01*
X121786416Y-82020578D01*
X121578729Y-82171473D01*
X121577581Y-82169893D01*
X121521357Y-82195081D01*
X121452272Y-82184638D01*
X121399800Y-82138503D01*
X121380597Y-82072219D01*
X121380597Y-81674492D01*
X156999499Y-81674492D01*
X157037947Y-81867778D01*
X157037950Y-81867788D01*
X157113364Y-82049856D01*
X157113371Y-82049869D01*
X157222860Y-82213730D01*
X157222863Y-82213734D01*
X157362214Y-82353085D01*
X157362218Y-82353088D01*
X157526079Y-82462577D01*
X157526092Y-82462584D01*
X157708160Y-82537998D01*
X157708165Y-82538000D01*
X157708169Y-82538000D01*
X157708170Y-82538001D01*
X157901456Y-82576449D01*
X161546847Y-82576449D01*
X161613886Y-82596134D01*
X161659641Y-82648938D01*
X161669585Y-82718096D01*
X161640560Y-82781652D01*
X161634528Y-82788130D01*
X161143803Y-83278856D01*
X161082480Y-83312341D01*
X161056122Y-83315175D01*
X160970320Y-83315175D01*
X160815675Y-83345936D01*
X160815663Y-83345939D01*
X160669992Y-83406277D01*
X160669979Y-83406284D01*
X160538876Y-83493885D01*
X160538872Y-83493888D01*
X160427378Y-83605382D01*
X160427375Y-83605386D01*
X160339774Y-83736489D01*
X160339767Y-83736502D01*
X160279429Y-83882173D01*
X160279426Y-83882185D01*
X160248665Y-84036828D01*
X160248665Y-84194521D01*
X160279426Y-84349164D01*
X160279429Y-84349176D01*
X160339767Y-84494847D01*
X160339774Y-84494860D01*
X160427375Y-84625963D01*
X160427378Y-84625967D01*
X160538872Y-84737461D01*
X160538876Y-84737464D01*
X160669979Y-84825065D01*
X160669992Y-84825072D01*
X160815663Y-84885410D01*
X160815668Y-84885412D01*
X160970318Y-84916174D01*
X160970321Y-84916175D01*
X160970323Y-84916175D01*
X161128009Y-84916175D01*
X161128010Y-84916174D01*
X161270591Y-84887813D01*
X164106148Y-84887813D01*
X164106148Y-85045506D01*
X164136909Y-85200149D01*
X164136912Y-85200161D01*
X164197250Y-85345832D01*
X164197257Y-85345845D01*
X164284858Y-85476948D01*
X164284861Y-85476952D01*
X164396355Y-85588446D01*
X164396359Y-85588449D01*
X164527462Y-85676050D01*
X164527475Y-85676057D01*
X164673146Y-85736395D01*
X164673151Y-85736397D01*
X164824478Y-85766498D01*
X164827801Y-85767159D01*
X164827804Y-85767160D01*
X164827806Y-85767160D01*
X164985492Y-85767160D01*
X164985493Y-85767159D01*
X165140145Y-85736397D01*
X165285827Y-85676054D01*
X165416937Y-85588449D01*
X165528437Y-85476949D01*
X165616042Y-85345839D01*
X165676385Y-85200157D01*
X165707148Y-85045502D01*
X165707148Y-84887818D01*
X165707148Y-84887815D01*
X165707147Y-84887813D01*
X165694666Y-84825069D01*
X165676385Y-84733163D01*
X165637292Y-84638783D01*
X165616045Y-84587487D01*
X165616038Y-84587474D01*
X165528437Y-84456371D01*
X165528434Y-84456367D01*
X165416940Y-84344873D01*
X165416936Y-84344870D01*
X165285833Y-84257269D01*
X165285820Y-84257262D01*
X165140149Y-84196924D01*
X165140137Y-84196921D01*
X164985493Y-84166160D01*
X164985490Y-84166160D01*
X164827806Y-84166160D01*
X164827803Y-84166160D01*
X164673158Y-84196921D01*
X164673146Y-84196924D01*
X164527475Y-84257262D01*
X164527462Y-84257269D01*
X164396359Y-84344870D01*
X164396355Y-84344873D01*
X164284861Y-84456367D01*
X164284858Y-84456371D01*
X164197257Y-84587474D01*
X164197250Y-84587487D01*
X164136912Y-84733158D01*
X164136909Y-84733170D01*
X164106148Y-84887813D01*
X161270591Y-84887813D01*
X161282662Y-84885412D01*
X161428344Y-84825069D01*
X161457823Y-84805372D01*
X161497855Y-84778624D01*
X161531752Y-84755973D01*
X161559454Y-84737464D01*
X161670954Y-84625964D01*
X161758559Y-84494854D01*
X161818902Y-84349172D01*
X161823219Y-84327463D01*
X161855602Y-84265553D01*
X161857100Y-84264027D01*
X164281561Y-81839567D01*
X164281566Y-81839563D01*
X164291769Y-81829359D01*
X164291771Y-81829359D01*
X164403575Y-81717555D01*
X164428437Y-81674492D01*
X164455137Y-81628247D01*
X164455138Y-81628243D01*
X164461289Y-81617590D01*
X164482632Y-81580624D01*
X164514980Y-81459901D01*
X165291527Y-81459901D01*
X165291527Y-81617594D01*
X165322288Y-81772237D01*
X165322291Y-81772249D01*
X165382629Y-81917920D01*
X165382636Y-81917933D01*
X165470237Y-82049036D01*
X165470240Y-82049040D01*
X165581734Y-82160534D01*
X165581738Y-82160537D01*
X165712841Y-82248138D01*
X165712854Y-82248145D01*
X165858525Y-82308483D01*
X165858530Y-82308485D01*
X166013180Y-82339247D01*
X166013183Y-82339248D01*
X166013185Y-82339248D01*
X166170871Y-82339248D01*
X166170872Y-82339247D01*
X166325524Y-82308485D01*
X166471206Y-82248142D01*
X166602316Y-82160537D01*
X166713816Y-82049037D01*
X166801421Y-81917927D01*
X166861764Y-81772245D01*
X166892527Y-81617590D01*
X166892527Y-81459906D01*
X166892527Y-81459903D01*
X166892526Y-81459901D01*
X166861765Y-81305258D01*
X166861764Y-81305251D01*
X166853007Y-81284109D01*
X166801424Y-81159575D01*
X166801417Y-81159562D01*
X166713816Y-81028459D01*
X166713813Y-81028455D01*
X166602319Y-80916961D01*
X166602315Y-80916958D01*
X166471212Y-80829357D01*
X166471199Y-80829350D01*
X166325528Y-80769012D01*
X166325516Y-80769009D01*
X166170872Y-80738248D01*
X166170869Y-80738248D01*
X166013185Y-80738248D01*
X166013182Y-80738248D01*
X165858537Y-80769009D01*
X165858525Y-80769012D01*
X165712854Y-80829350D01*
X165712841Y-80829357D01*
X165581738Y-80916958D01*
X165581734Y-80916961D01*
X165470240Y-81028455D01*
X165470237Y-81028459D01*
X165382636Y-81159562D01*
X165382629Y-81159575D01*
X165322291Y-81305246D01*
X165322288Y-81305258D01*
X165291527Y-81459901D01*
X164514980Y-81459901D01*
X164523556Y-81427896D01*
X164523556Y-81269782D01*
X164523555Y-81269778D01*
X164523555Y-81072679D01*
X164543240Y-81005640D01*
X164559875Y-80984997D01*
X164601501Y-80943371D01*
X164601504Y-80943368D01*
X164689109Y-80812258D01*
X164694679Y-80798812D01*
X164749450Y-80666580D01*
X164749452Y-80666576D01*
X164780215Y-80511921D01*
X164780215Y-80354237D01*
X164780215Y-80354234D01*
X164780214Y-80354232D01*
X164770823Y-80307022D01*
X164749452Y-80199582D01*
X164749450Y-80199577D01*
X164689112Y-80053906D01*
X164689105Y-80053893D01*
X164601504Y-79922790D01*
X164601501Y-79922786D01*
X164490007Y-79811292D01*
X164490003Y-79811289D01*
X164358900Y-79723688D01*
X164358887Y-79723681D01*
X164213216Y-79663343D01*
X164213206Y-79663340D01*
X164079023Y-79636649D01*
X164050892Y-79621934D01*
X164022012Y-79608745D01*
X164020155Y-79605855D01*
X164017112Y-79604264D01*
X164001399Y-79576671D01*
X163984238Y-79549967D01*
X163983577Y-79545373D01*
X163982538Y-79543548D01*
X163979215Y-79515032D01*
X163979215Y-79437901D01*
X163998900Y-79370862D01*
X164015534Y-79350220D01*
X167984216Y-75381538D01*
X168045539Y-75348053D01*
X168115231Y-75353037D01*
X168171164Y-75394909D01*
X168195581Y-75460373D01*
X168195897Y-75469219D01*
X168195897Y-95323933D01*
X168202643Y-95357845D01*
X168234346Y-95517228D01*
X168252126Y-95560152D01*
X168255620Y-95568589D01*
X168255622Y-95568594D01*
X168309761Y-95699299D01*
X168309768Y-95699312D01*
X168419257Y-95863173D01*
X168419260Y-95863177D01*
X168562934Y-96006851D01*
X168562956Y-96006871D01*
X169143794Y-96587709D01*
X169177279Y-96649032D01*
X169172295Y-96718724D01*
X169143794Y-96763071D01*
X161019481Y-104887383D01*
X161019479Y-104887386D01*
X160998693Y-104923389D01*
X160977906Y-104959394D01*
X160940423Y-105024316D01*
X160899499Y-105177044D01*
X160899499Y-105177046D01*
X160899499Y-105345147D01*
X160899500Y-105345160D01*
X160899500Y-105420234D01*
X160879815Y-105487273D01*
X160878602Y-105489125D01*
X160790609Y-105620814D01*
X160790602Y-105620827D01*
X160730264Y-105766498D01*
X160730261Y-105766510D01*
X160699500Y-105921153D01*
X160699500Y-106078846D01*
X160730261Y-106233489D01*
X160730264Y-106233501D01*
X160790602Y-106379172D01*
X160790609Y-106379185D01*
X160878210Y-106510288D01*
X160878213Y-106510292D01*
X160989707Y-106621786D01*
X160989711Y-106621789D01*
X161120814Y-106709390D01*
X161120827Y-106709397D01*
X161215543Y-106748629D01*
X161266503Y-106769737D01*
X161408223Y-106797927D01*
X161421153Y-106800499D01*
X161421156Y-106800500D01*
X161421158Y-106800500D01*
X161578844Y-106800500D01*
X161578845Y-106800499D01*
X161733497Y-106769737D01*
X161879179Y-106709394D01*
X162010289Y-106621789D01*
X162121789Y-106510289D01*
X162162602Y-106449207D01*
X162209205Y-106379463D01*
X162209391Y-106379183D01*
X162209394Y-106379179D01*
X162269737Y-106233497D01*
X162300500Y-106078842D01*
X162300500Y-106005207D01*
X162320185Y-105938168D01*
X162372989Y-105892413D01*
X162442147Y-105882469D01*
X162505703Y-105911494D01*
X162520356Y-105926546D01*
X162522263Y-105928870D01*
X162633758Y-106040365D01*
X162633762Y-106040368D01*
X162764865Y-106127969D01*
X162764878Y-106127976D01*
X162910549Y-106188314D01*
X162910554Y-106188316D01*
X163065204Y-106219078D01*
X163065207Y-106219079D01*
X163065209Y-106219079D01*
X163222895Y-106219079D01*
X163222896Y-106219078D01*
X163377548Y-106188316D01*
X163523230Y-106127973D01*
X163654340Y-106040368D01*
X163765840Y-105928868D01*
X163853445Y-105797758D01*
X163856408Y-105790606D01*
X163894389Y-105698910D01*
X163913788Y-105652076D01*
X163944551Y-105497421D01*
X163944551Y-105339737D01*
X163944551Y-105339734D01*
X163944550Y-105339732D01*
X163934232Y-105287859D01*
X163913788Y-105185082D01*
X163913786Y-105185077D01*
X163853448Y-105039406D01*
X163853441Y-105039393D01*
X163765840Y-104908290D01*
X163765837Y-104908286D01*
X163654343Y-104796792D01*
X163654339Y-104796789D01*
X163523236Y-104709188D01*
X163523223Y-104709181D01*
X163377552Y-104648843D01*
X163377542Y-104648840D01*
X163253879Y-104624242D01*
X163191968Y-104591857D01*
X163157394Y-104531141D01*
X163161134Y-104461372D01*
X163190388Y-104414946D01*
X170175968Y-97429367D01*
X170237291Y-97395882D01*
X170263649Y-97393048D01*
X170265012Y-97393048D01*
X170265013Y-97393048D01*
X170462093Y-97393048D01*
X171321152Y-97393048D01*
X171388191Y-97412733D01*
X171394028Y-97416723D01*
X171470571Y-97472335D01*
X171627597Y-97552344D01*
X171678392Y-97600317D01*
X171695187Y-97668138D01*
X171672650Y-97734273D01*
X171627597Y-97773312D01*
X171470831Y-97853189D01*
X171433548Y-97880277D01*
X171433547Y-97880278D01*
X171996323Y-98443052D01*
X171936184Y-98459167D01*
X171820345Y-98526046D01*
X171725763Y-98620628D01*
X171658884Y-98736467D01*
X171642769Y-98796605D01*
X171079995Y-98233830D01*
X171079994Y-98233831D01*
X171052908Y-98271112D01*
X170962722Y-98448110D01*
X170901340Y-98637024D01*
X170901340Y-98637027D01*
X170870265Y-98833226D01*
X170870265Y-99031869D01*
X170901340Y-99228068D01*
X170901340Y-99228071D01*
X170962722Y-99416985D01*
X171052906Y-99593980D01*
X171079995Y-99631263D01*
X171079996Y-99631264D01*
X171642769Y-99068490D01*
X171658884Y-99128629D01*
X171725763Y-99244468D01*
X171820345Y-99339050D01*
X171936184Y-99405929D01*
X171996322Y-99422042D01*
X171433548Y-99984816D01*
X171433548Y-99984817D01*
X171470832Y-100011906D01*
X171627596Y-100091782D01*
X171678392Y-100139757D01*
X171695187Y-100207578D01*
X171672649Y-100273713D01*
X171627596Y-100312752D01*
X171470570Y-100392761D01*
X171309798Y-100509569D01*
X171169286Y-100650081D01*
X171052478Y-100810853D01*
X170962259Y-100987915D01*
X170962258Y-100987918D01*
X170900852Y-101176910D01*
X170869765Y-101373187D01*
X170869765Y-101571908D01*
X170900852Y-101768185D01*
X170962258Y-101957177D01*
X170962259Y-101957180D01*
X171038993Y-102107777D01*
X171052478Y-102134242D01*
X171169284Y-102295012D01*
X171309801Y-102435529D01*
X171470571Y-102552335D01*
X171499557Y-102567104D01*
X171627045Y-102632063D01*
X171677841Y-102680038D01*
X171694636Y-102747859D01*
X171672098Y-102813994D01*
X171627045Y-102853033D01*
X171470570Y-102932761D01*
X171309798Y-103049569D01*
X171169286Y-103190081D01*
X171052478Y-103350853D01*
X170962259Y-103527915D01*
X170962258Y-103527918D01*
X170900852Y-103716910D01*
X170869765Y-103913187D01*
X170869765Y-104111908D01*
X170900852Y-104308185D01*
X170962258Y-104497177D01*
X170962259Y-104497180D01*
X171052341Y-104673973D01*
X171052478Y-104674242D01*
X171169284Y-104835012D01*
X171309801Y-104975529D01*
X171470571Y-105092335D01*
X171627597Y-105172344D01*
X171678392Y-105220317D01*
X171695187Y-105288138D01*
X171672650Y-105354273D01*
X171627597Y-105393312D01*
X171470831Y-105473189D01*
X171433548Y-105500277D01*
X171433547Y-105500278D01*
X171996323Y-106063052D01*
X171936184Y-106079167D01*
X171820345Y-106146046D01*
X171725763Y-106240628D01*
X171658884Y-106356467D01*
X171642769Y-106416605D01*
X171079995Y-105853830D01*
X171079994Y-105853831D01*
X171052908Y-105891112D01*
X170962722Y-106068110D01*
X170901340Y-106257024D01*
X170901340Y-106257027D01*
X170870265Y-106453226D01*
X170870265Y-106651869D01*
X170901340Y-106848068D01*
X170901340Y-106848071D01*
X170962722Y-107036985D01*
X171052906Y-107213980D01*
X171079995Y-107251263D01*
X171079996Y-107251264D01*
X171642769Y-106688490D01*
X171658884Y-106748629D01*
X171725763Y-106864468D01*
X171820345Y-106959050D01*
X171936184Y-107025929D01*
X171996322Y-107042042D01*
X171433548Y-107604816D01*
X171433548Y-107604817D01*
X171470832Y-107631906D01*
X171647827Y-107722090D01*
X171836742Y-107783472D01*
X172032944Y-107814548D01*
X172231586Y-107814548D01*
X172427785Y-107783472D01*
X172427788Y-107783472D01*
X172616702Y-107722090D01*
X172793690Y-107631910D01*
X172830981Y-107604816D01*
X172268207Y-107042042D01*
X172328346Y-107025929D01*
X172444185Y-106959050D01*
X172538767Y-106864468D01*
X172605646Y-106748629D01*
X172621760Y-106688490D01*
X173184533Y-107251263D01*
X173211627Y-107213973D01*
X173291780Y-107056665D01*
X173339754Y-107005869D01*
X173407575Y-106989074D01*
X173473710Y-107011611D01*
X173512750Y-107056665D01*
X173592906Y-107213980D01*
X173619995Y-107251263D01*
X173619996Y-107251264D01*
X174182769Y-106688490D01*
X174198884Y-106748629D01*
X174265763Y-106864468D01*
X174360345Y-106959050D01*
X174476184Y-107025929D01*
X174536322Y-107042042D01*
X173973548Y-107604816D01*
X173973548Y-107604817D01*
X174010832Y-107631906D01*
X174187827Y-107722090D01*
X174376742Y-107783472D01*
X174572944Y-107814548D01*
X174771586Y-107814548D01*
X174967785Y-107783472D01*
X174967788Y-107783472D01*
X175156702Y-107722090D01*
X175333690Y-107631910D01*
X175370981Y-107604816D01*
X174808207Y-107042042D01*
X174868346Y-107025929D01*
X174984185Y-106959050D01*
X175078767Y-106864468D01*
X175145646Y-106748629D01*
X175161760Y-106688490D01*
X175724533Y-107251263D01*
X175751627Y-107213973D01*
X175841807Y-107036985D01*
X175903189Y-106848071D01*
X175903189Y-106848068D01*
X175934265Y-106651869D01*
X175934265Y-106453226D01*
X175903189Y-106257027D01*
X175903189Y-106257024D01*
X175841807Y-106068110D01*
X175751623Y-105891115D01*
X175724533Y-105853831D01*
X175161759Y-106416605D01*
X175145646Y-106356467D01*
X175078767Y-106240628D01*
X174984185Y-106146046D01*
X174868346Y-106079167D01*
X174808207Y-106063052D01*
X175370981Y-105500279D01*
X175370980Y-105500278D01*
X175333697Y-105473189D01*
X175176382Y-105393033D01*
X175125586Y-105345058D01*
X175108791Y-105277237D01*
X175131328Y-105211102D01*
X175176382Y-105172063D01*
X175333690Y-105091910D01*
X175370981Y-105064816D01*
X174808207Y-104502042D01*
X174868346Y-104485929D01*
X174984185Y-104419050D01*
X175078767Y-104324468D01*
X175145646Y-104208629D01*
X175161760Y-104148490D01*
X175724533Y-104711263D01*
X175751627Y-104673973D01*
X175841807Y-104496985D01*
X175903189Y-104308071D01*
X175903189Y-104308068D01*
X175934265Y-104111869D01*
X175934265Y-103913226D01*
X175903189Y-103717027D01*
X175903189Y-103717024D01*
X175841807Y-103528110D01*
X175751623Y-103351115D01*
X175724533Y-103313831D01*
X175161759Y-103876605D01*
X175145646Y-103816467D01*
X175078767Y-103700628D01*
X174984185Y-103606046D01*
X174868346Y-103539167D01*
X174808206Y-103523052D01*
X175370980Y-102960279D01*
X175370980Y-102960278D01*
X175333697Y-102933189D01*
X175310075Y-102921153D01*
X176199500Y-102921153D01*
X176199500Y-103078846D01*
X176230261Y-103233489D01*
X176230264Y-103233501D01*
X176290602Y-103379172D01*
X176290609Y-103379185D01*
X176378210Y-103510288D01*
X176378213Y-103510292D01*
X176489707Y-103621786D01*
X176489711Y-103621789D01*
X176620814Y-103709390D01*
X176620827Y-103709397D01*
X176758683Y-103766498D01*
X176766503Y-103769737D01*
X176921153Y-103800499D01*
X176921156Y-103800500D01*
X176921158Y-103800500D01*
X177078844Y-103800500D01*
X177078845Y-103800499D01*
X177233497Y-103769737D01*
X177360751Y-103717027D01*
X177379172Y-103709397D01*
X177379172Y-103709396D01*
X177379179Y-103709394D01*
X177510289Y-103621789D01*
X177621789Y-103510289D01*
X177709394Y-103379179D01*
X177769737Y-103233497D01*
X177800500Y-103078842D01*
X177800500Y-102921158D01*
X177800500Y-102921155D01*
X177800499Y-102921153D01*
X177782137Y-102828842D01*
X177769737Y-102766503D01*
X177762921Y-102750048D01*
X177709397Y-102620827D01*
X177709390Y-102620814D01*
X177621789Y-102489711D01*
X177621786Y-102489707D01*
X177510292Y-102378213D01*
X177510288Y-102378210D01*
X177379185Y-102290609D01*
X177379172Y-102290602D01*
X177233501Y-102230264D01*
X177233489Y-102230261D01*
X177078845Y-102199500D01*
X177078842Y-102199500D01*
X176921158Y-102199500D01*
X176921155Y-102199500D01*
X176766510Y-102230261D01*
X176766498Y-102230264D01*
X176620827Y-102290602D01*
X176620814Y-102290609D01*
X176489711Y-102378210D01*
X176489707Y-102378213D01*
X176378213Y-102489707D01*
X176378210Y-102489711D01*
X176290609Y-102620814D01*
X176290602Y-102620827D01*
X176230264Y-102766498D01*
X176230261Y-102766510D01*
X176199500Y-102921153D01*
X175310075Y-102921153D01*
X175176382Y-102853033D01*
X175125586Y-102805058D01*
X175108791Y-102737237D01*
X175131328Y-102671102D01*
X175176382Y-102632063D01*
X175333690Y-102551910D01*
X175370981Y-102524816D01*
X174808207Y-101962042D01*
X174868346Y-101945929D01*
X174984185Y-101879050D01*
X175078767Y-101784468D01*
X175145646Y-101668629D01*
X175161760Y-101608489D01*
X175724533Y-102171263D01*
X175751627Y-102133973D01*
X175841807Y-101956985D01*
X175903189Y-101768071D01*
X175903189Y-101768068D01*
X175934265Y-101571869D01*
X175934265Y-101373226D01*
X175903189Y-101177027D01*
X175903189Y-101177024D01*
X175841807Y-100988110D01*
X175838080Y-100980795D01*
X175825184Y-100912126D01*
X175851460Y-100847385D01*
X175908567Y-100807128D01*
X175948565Y-100800500D01*
X176078844Y-100800500D01*
X176078845Y-100800499D01*
X176233497Y-100769737D01*
X176379179Y-100709394D01*
X176510289Y-100621789D01*
X176621789Y-100510289D01*
X176709394Y-100379179D01*
X176769737Y-100233497D01*
X176800500Y-100078842D01*
X176800500Y-99921158D01*
X176800500Y-99921155D01*
X176800499Y-99921153D01*
X176797440Y-99905775D01*
X176769737Y-99766503D01*
X176727369Y-99664217D01*
X176709397Y-99620827D01*
X176709390Y-99620814D01*
X176621789Y-99489711D01*
X176621786Y-99489707D01*
X176510292Y-99378213D01*
X176510288Y-99378210D01*
X176379185Y-99290609D01*
X176379172Y-99290602D01*
X176233501Y-99230264D01*
X176233489Y-99230261D01*
X176078845Y-99199500D01*
X176078842Y-99199500D01*
X176052900Y-99199500D01*
X175985861Y-99179815D01*
X175940106Y-99127011D01*
X175930162Y-99057853D01*
X175930427Y-99056103D01*
X175934265Y-99031870D01*
X175934265Y-98833226D01*
X175903189Y-98637027D01*
X175903189Y-98637024D01*
X175841807Y-98448110D01*
X175751623Y-98271115D01*
X175724533Y-98233831D01*
X175161760Y-98796605D01*
X175145646Y-98736467D01*
X175078767Y-98620628D01*
X174984185Y-98526046D01*
X174868346Y-98459167D01*
X174808207Y-98443052D01*
X175370981Y-97880279D01*
X175370980Y-97880278D01*
X175333697Y-97853189D01*
X175176933Y-97773313D01*
X175126137Y-97725338D01*
X175109342Y-97657517D01*
X175131880Y-97591382D01*
X175176932Y-97552344D01*
X175333959Y-97472335D01*
X175494729Y-97355529D01*
X175635246Y-97215012D01*
X175752052Y-97054242D01*
X175842270Y-96877180D01*
X175903678Y-96688184D01*
X175934765Y-96491909D01*
X175934765Y-96293187D01*
X175903678Y-96096912D01*
X175851366Y-95935910D01*
X175842271Y-95907918D01*
X175842270Y-95907915D01*
X175777733Y-95781255D01*
X175752052Y-95730854D01*
X175635246Y-95570084D01*
X175494729Y-95429567D01*
X175333959Y-95312761D01*
X175176932Y-95232751D01*
X175126137Y-95184777D01*
X175109342Y-95116956D01*
X175131879Y-95050821D01*
X175176934Y-95011782D01*
X175333687Y-94931912D01*
X175370981Y-94904816D01*
X174808207Y-94342042D01*
X174868346Y-94325929D01*
X174984185Y-94259050D01*
X175078767Y-94164468D01*
X175145646Y-94048629D01*
X175161760Y-93988490D01*
X175724533Y-94551263D01*
X175751627Y-94513973D01*
X175798922Y-94421153D01*
X176199500Y-94421153D01*
X176199500Y-94578846D01*
X176230261Y-94733489D01*
X176230264Y-94733501D01*
X176290602Y-94879172D01*
X176290609Y-94879185D01*
X176378210Y-95010288D01*
X176378213Y-95010292D01*
X176489707Y-95121786D01*
X176489711Y-95121789D01*
X176620814Y-95209390D01*
X176620827Y-95209397D01*
X176766498Y-95269735D01*
X176766503Y-95269737D01*
X176885414Y-95293390D01*
X176921153Y-95300499D01*
X176921156Y-95300500D01*
X176921158Y-95300500D01*
X177078844Y-95300500D01*
X177078845Y-95300499D01*
X177233497Y-95269737D01*
X177379179Y-95209394D01*
X177510289Y-95121789D01*
X177621789Y-95010289D01*
X177709394Y-94879179D01*
X177769737Y-94733497D01*
X177800500Y-94578842D01*
X177800500Y-94421158D01*
X177800500Y-94421155D01*
X177800499Y-94421153D01*
X177792861Y-94382756D01*
X177769737Y-94266503D01*
X177742931Y-94201786D01*
X177709397Y-94120827D01*
X177709390Y-94120814D01*
X177621789Y-93989711D01*
X177621786Y-93989707D01*
X177510292Y-93878213D01*
X177510288Y-93878210D01*
X177379185Y-93790609D01*
X177379172Y-93790602D01*
X177233501Y-93730264D01*
X177233489Y-93730261D01*
X177078845Y-93699500D01*
X177078842Y-93699500D01*
X176921158Y-93699500D01*
X176921155Y-93699500D01*
X176766510Y-93730261D01*
X176766498Y-93730264D01*
X176620827Y-93790602D01*
X176620814Y-93790609D01*
X176489711Y-93878210D01*
X176489707Y-93878213D01*
X176378213Y-93989707D01*
X176378210Y-93989711D01*
X176290609Y-94120814D01*
X176290602Y-94120827D01*
X176230264Y-94266498D01*
X176230261Y-94266510D01*
X176199500Y-94421153D01*
X175798922Y-94421153D01*
X175830707Y-94358771D01*
X175841807Y-94336985D01*
X175903189Y-94148071D01*
X175903189Y-94148068D01*
X175934265Y-93951869D01*
X175934265Y-93753226D01*
X175903189Y-93557027D01*
X175903189Y-93557024D01*
X175841807Y-93368110D01*
X175761799Y-93211085D01*
X175748903Y-93142416D01*
X175775179Y-93077675D01*
X175810281Y-93047405D01*
X175926131Y-92980520D01*
X176037935Y-92868716D01*
X176116992Y-92731784D01*
X176157915Y-92579057D01*
X176157915Y-84920943D01*
X176116992Y-84768216D01*
X176110784Y-84757463D01*
X176037939Y-84631290D01*
X176037933Y-84631282D01*
X175970584Y-84563933D01*
X175937099Y-84502610D01*
X175934265Y-84476252D01*
X175934265Y-83942548D01*
X175114516Y-83942548D01*
X175145646Y-83888629D01*
X175180265Y-83759428D01*
X175180265Y-83625668D01*
X175145646Y-83496467D01*
X175114516Y-83442548D01*
X175934265Y-83442548D01*
X175934265Y-82882720D01*
X175934264Y-82882703D01*
X175927863Y-82823175D01*
X175927861Y-82823168D01*
X175877619Y-82688461D01*
X175877615Y-82688454D01*
X175791455Y-82573360D01*
X175791452Y-82573357D01*
X175676358Y-82487197D01*
X175676351Y-82487193D01*
X175541644Y-82436951D01*
X175541637Y-82436949D01*
X175482109Y-82430548D01*
X174922265Y-82430548D01*
X174922265Y-83250296D01*
X174868346Y-83219167D01*
X174739145Y-83184548D01*
X174605385Y-83184548D01*
X174476184Y-83219167D01*
X174422265Y-83250296D01*
X174422265Y-82430548D01*
X173862420Y-82430548D01*
X173802892Y-82436949D01*
X173802885Y-82436951D01*
X173668178Y-82487193D01*
X173668171Y-82487197D01*
X173553077Y-82573357D01*
X173553074Y-82573360D01*
X173466914Y-82688454D01*
X173466910Y-82688461D01*
X173416668Y-82823168D01*
X173416666Y-82823175D01*
X173410265Y-82882703D01*
X173410265Y-82922890D01*
X173390580Y-82989929D01*
X173337776Y-83035684D01*
X173268618Y-83045628D01*
X173205062Y-83016603D01*
X173185948Y-82995777D01*
X173184534Y-82993831D01*
X173184533Y-82993831D01*
X172621759Y-83556604D01*
X172605646Y-83496467D01*
X172538767Y-83380628D01*
X172444185Y-83286046D01*
X172328346Y-83219167D01*
X172268207Y-83203052D01*
X172830981Y-82640279D01*
X172830980Y-82640278D01*
X172793697Y-82613189D01*
X172616702Y-82523005D01*
X172427787Y-82461623D01*
X172231586Y-82430548D01*
X172032944Y-82430548D01*
X171836744Y-82461623D01*
X171836741Y-82461623D01*
X171647827Y-82523005D01*
X171470829Y-82613191D01*
X171433548Y-82640277D01*
X171433547Y-82640278D01*
X171996323Y-83203052D01*
X171936184Y-83219167D01*
X171820345Y-83286046D01*
X171725763Y-83380628D01*
X171658884Y-83496467D01*
X171642770Y-83556605D01*
X171079995Y-82993830D01*
X171079994Y-82993831D01*
X171052908Y-83031112D01*
X170962722Y-83208110D01*
X170901340Y-83397024D01*
X170901340Y-83397027D01*
X170870265Y-83593226D01*
X170870265Y-83791869D01*
X170901340Y-83988068D01*
X170901340Y-83988071D01*
X170962722Y-84176985D01*
X171026289Y-84301741D01*
X171039185Y-84370410D01*
X171012909Y-84435151D01*
X170977804Y-84465423D01*
X170884178Y-84519477D01*
X170884173Y-84519481D01*
X170772372Y-84631282D01*
X170772366Y-84631290D01*
X170693317Y-84768209D01*
X170693314Y-84768216D01*
X170652391Y-84920943D01*
X170652391Y-92579057D01*
X170678616Y-92676928D01*
X170693314Y-92731783D01*
X170693317Y-92731790D01*
X170772366Y-92868709D01*
X170772370Y-92868714D01*
X170772371Y-92868716D01*
X170884175Y-92980520D01*
X170884176Y-92980521D01*
X170884178Y-92980522D01*
X170995558Y-93044827D01*
X171043773Y-93095394D01*
X171056997Y-93164001D01*
X171044043Y-93208508D01*
X170962723Y-93368107D01*
X170962723Y-93368108D01*
X170901340Y-93557024D01*
X170901340Y-93557027D01*
X170870265Y-93753226D01*
X170870265Y-93951869D01*
X170901340Y-94148068D01*
X170901340Y-94148071D01*
X170962722Y-94336985D01*
X171052906Y-94513980D01*
X171079995Y-94551263D01*
X171642769Y-93988489D01*
X171658884Y-94048629D01*
X171725763Y-94164468D01*
X171820345Y-94259050D01*
X171936184Y-94325929D01*
X171996322Y-94342042D01*
X171433548Y-94904816D01*
X171433548Y-94904817D01*
X171470832Y-94931906D01*
X171627596Y-95011782D01*
X171678392Y-95059757D01*
X171695187Y-95127578D01*
X171672649Y-95193713D01*
X171627596Y-95232752D01*
X171470570Y-95312761D01*
X171422165Y-95347929D01*
X171394036Y-95368366D01*
X171328232Y-95391846D01*
X171321152Y-95392048D01*
X170829335Y-95392048D01*
X170762296Y-95372363D01*
X170741654Y-95355729D01*
X170233216Y-94847291D01*
X170199731Y-94785968D01*
X170196897Y-94759610D01*
X170196897Y-75769384D01*
X170216582Y-75702345D01*
X170233211Y-75681708D01*
X171716245Y-74198674D01*
X171716249Y-74198672D01*
X171855606Y-74059315D01*
X171965099Y-73895447D01*
X172037358Y-73720997D01*
X172040518Y-73713369D01*
X172078967Y-73520073D01*
X172078967Y-73322993D01*
X172078967Y-72519464D01*
X172081351Y-72495267D01*
X172081461Y-72494714D01*
X172081461Y-72297630D01*
X172081460Y-72297628D01*
X172076487Y-72272628D01*
X172043012Y-72104337D01*
X171967592Y-71922259D01*
X171967590Y-71922256D01*
X171967588Y-71922252D01*
X171858100Y-71758392D01*
X171858097Y-71758388D01*
X171718745Y-71619036D01*
X171718741Y-71619033D01*
X171554881Y-71509545D01*
X171554871Y-71509540D01*
X171372797Y-71434122D01*
X171372789Y-71434120D01*
X171179504Y-71395673D01*
X171179501Y-71395673D01*
X170982421Y-71395673D01*
X170982418Y-71395673D01*
X170789132Y-71434120D01*
X170789124Y-71434122D01*
X170607050Y-71509540D01*
X170607040Y-71509545D01*
X170443177Y-71619036D01*
X170440688Y-71621525D01*
X170440685Y-71621528D01*
X170399652Y-71662561D01*
X170301326Y-71760886D01*
X170234654Y-71860669D01*
X170181042Y-71905474D01*
X170111717Y-71914181D01*
X170048689Y-71884027D01*
X170028450Y-71860668D01*
X169955633Y-71751690D01*
X169955627Y-71751682D01*
X169813162Y-71609217D01*
X169813141Y-71609198D01*
X169811829Y-71607886D01*
X169647969Y-71498398D01*
X169647959Y-71498393D01*
X169465885Y-71422975D01*
X169465877Y-71422973D01*
X169272592Y-71384526D01*
X169272589Y-71384526D01*
X169075509Y-71384526D01*
X169075506Y-71384526D01*
X168882220Y-71422973D01*
X168882212Y-71422975D01*
X168700138Y-71498393D01*
X168700128Y-71498398D01*
X168536268Y-71607886D01*
X168536264Y-71607889D01*
X168396912Y-71747241D01*
X168396909Y-71747245D01*
X168287421Y-71911105D01*
X168287416Y-71911115D01*
X168211998Y-72093189D01*
X168211996Y-72093197D01*
X168173549Y-72286481D01*
X168173549Y-72311002D01*
X168153864Y-72378041D01*
X168137230Y-72398683D01*
X162340935Y-78194978D01*
X162340933Y-78194980D01*
X162284867Y-78251046D01*
X162201574Y-78334338D01*
X162092086Y-78498198D01*
X162092079Y-78498211D01*
X162016665Y-78680279D01*
X162016662Y-78680289D01*
X161978215Y-78873575D01*
X161978215Y-79827973D01*
X161958530Y-79895012D01*
X161941896Y-79915654D01*
X161318420Y-80539130D01*
X161257097Y-80572615D01*
X161230739Y-80575449D01*
X157901457Y-80575449D01*
X157708170Y-80613896D01*
X157708160Y-80613899D01*
X157526092Y-80689313D01*
X157526079Y-80689320D01*
X157362218Y-80798809D01*
X157362214Y-80798812D01*
X157222863Y-80938163D01*
X157222860Y-80938167D01*
X157113371Y-81102028D01*
X157113364Y-81102041D01*
X157037950Y-81284109D01*
X157037947Y-81284119D01*
X156999500Y-81477405D01*
X156999500Y-81477408D01*
X156999500Y-81674490D01*
X156999500Y-81674492D01*
X156999499Y-81674492D01*
X121380597Y-81674492D01*
X121380597Y-80374061D01*
X121400282Y-80307022D01*
X121453086Y-80261267D01*
X121504597Y-80250061D01*
X128323968Y-80250061D01*
X128352520Y-80250131D01*
X128352520Y-80250132D01*
X128490306Y-80250471D01*
X128763609Y-80215160D01*
X129029957Y-80144449D01*
X129284786Y-80039551D01*
X129523728Y-79902264D01*
X129742689Y-79734939D01*
X129937916Y-79540446D01*
X130106063Y-79322116D01*
X130244249Y-79083692D01*
X130350105Y-78829260D01*
X130421818Y-78563180D01*
X130458158Y-78290012D01*
X130458502Y-78014438D01*
X130422845Y-77741180D01*
X130413857Y-77707496D01*
X130410090Y-77693377D01*
X130402859Y-77666280D01*
X142350000Y-77666280D01*
X142350000Y-77925995D01*
X142390629Y-78182515D01*
X142470883Y-78429515D01*
X142588796Y-78660929D01*
X142669951Y-78772630D01*
X142669952Y-78772631D01*
X143209521Y-78233061D01*
X143300924Y-78369855D01*
X143426283Y-78495214D01*
X143563075Y-78586615D01*
X143023505Y-79126184D01*
X143023506Y-79126186D01*
X143135208Y-79207341D01*
X143366622Y-79325254D01*
X143613622Y-79405508D01*
X143870143Y-79446138D01*
X144129857Y-79446138D01*
X144386377Y-79405508D01*
X144633377Y-79325254D01*
X144864788Y-79207343D01*
X144976492Y-79126184D01*
X144976493Y-79126184D01*
X144436924Y-78586615D01*
X144573717Y-78495214D01*
X144699076Y-78369855D01*
X144790477Y-78233062D01*
X145330046Y-78772631D01*
X145330046Y-78772630D01*
X145411205Y-78660926D01*
X145529116Y-78429515D01*
X145609370Y-78182515D01*
X145650000Y-77925995D01*
X145650000Y-77666280D01*
X146550000Y-77666280D01*
X146550000Y-77925995D01*
X146590629Y-78182515D01*
X146670883Y-78429515D01*
X146788796Y-78660929D01*
X146869951Y-78772630D01*
X146869952Y-78772631D01*
X147409521Y-78233061D01*
X147500924Y-78369855D01*
X147626283Y-78495214D01*
X147763075Y-78586615D01*
X147223505Y-79126184D01*
X147223506Y-79126186D01*
X147335208Y-79207341D01*
X147566622Y-79325254D01*
X147813622Y-79405508D01*
X148070143Y-79446138D01*
X148329857Y-79446138D01*
X148586377Y-79405508D01*
X148833377Y-79325254D01*
X149064788Y-79207343D01*
X149176492Y-79126184D01*
X149176493Y-79126184D01*
X148636924Y-78586615D01*
X148773717Y-78495214D01*
X148899076Y-78369855D01*
X148990477Y-78233062D01*
X149530046Y-78772631D01*
X149530046Y-78772630D01*
X149611205Y-78660926D01*
X149729116Y-78429515D01*
X149809370Y-78182515D01*
X149850000Y-77925995D01*
X149850000Y-77666280D01*
X149809370Y-77409760D01*
X149729116Y-77162760D01*
X149611203Y-76931346D01*
X149530048Y-76819644D01*
X149530046Y-76819643D01*
X148990476Y-77359212D01*
X148899076Y-77222421D01*
X148773717Y-77097062D01*
X148636924Y-77005660D01*
X149176493Y-76466090D01*
X149176492Y-76466089D01*
X149064791Y-76384934D01*
X148833377Y-76267021D01*
X148586377Y-76186767D01*
X148329857Y-76146138D01*
X148070143Y-76146138D01*
X147813622Y-76186767D01*
X147566622Y-76267021D01*
X147335215Y-76384930D01*
X147223506Y-76466090D01*
X147763076Y-77005660D01*
X147626283Y-77097062D01*
X147500924Y-77222421D01*
X147409522Y-77359214D01*
X146869952Y-76819644D01*
X146788792Y-76931353D01*
X146670883Y-77162760D01*
X146590629Y-77409760D01*
X146550000Y-77666280D01*
X145650000Y-77666280D01*
X145609370Y-77409760D01*
X145529116Y-77162760D01*
X145411203Y-76931346D01*
X145330048Y-76819644D01*
X145330046Y-76819643D01*
X144790477Y-77359212D01*
X144699076Y-77222421D01*
X144573717Y-77097062D01*
X144436924Y-77005660D01*
X144976493Y-76466090D01*
X144976492Y-76466089D01*
X144864791Y-76384934D01*
X144633377Y-76267021D01*
X144386377Y-76186767D01*
X144129857Y-76146138D01*
X143870143Y-76146138D01*
X143613622Y-76186767D01*
X143366622Y-76267021D01*
X143135215Y-76384930D01*
X143023506Y-76466090D01*
X143563076Y-77005660D01*
X143426283Y-77097062D01*
X143300924Y-77222421D01*
X143209522Y-77359214D01*
X142669952Y-76819644D01*
X142588792Y-76931353D01*
X142470883Y-77162760D01*
X142390629Y-77409760D01*
X142350000Y-77666280D01*
X130402859Y-77666280D01*
X130351797Y-77474919D01*
X130246579Y-77220229D01*
X130246574Y-77220218D01*
X130108994Y-76981466D01*
X130108990Y-76981461D01*
X130108988Y-76981457D01*
X129941387Y-76762708D01*
X129746647Y-76567727D01*
X129528105Y-76399856D01*
X129464564Y-76363136D01*
X129289510Y-76261973D01*
X129034943Y-76156437D01*
X129034936Y-76156435D01*
X128768783Y-76085063D01*
X128768776Y-76085062D01*
X128768773Y-76085061D01*
X128768771Y-76085061D01*
X128495557Y-76049066D01*
X128495552Y-76049065D01*
X128495549Y-76049065D01*
X128431286Y-76049063D01*
X128431250Y-76049061D01*
X128423669Y-76049061D01*
X121504597Y-76049061D01*
X121437558Y-76029376D01*
X121391803Y-75976572D01*
X121380597Y-75925061D01*
X121380597Y-71098273D01*
X142349500Y-71098273D01*
X142349500Y-73494008D01*
X142349501Y-73494014D01*
X142355908Y-73553621D01*
X142406202Y-73688466D01*
X142406206Y-73688473D01*
X142492452Y-73803682D01*
X142492455Y-73803685D01*
X142607664Y-73889931D01*
X142607671Y-73889935D01*
X142742517Y-73940229D01*
X142742516Y-73940229D01*
X142749444Y-73940973D01*
X142802127Y-73946638D01*
X145197872Y-73946637D01*
X145257483Y-73940229D01*
X145392331Y-73889934D01*
X145507546Y-73803684D01*
X145593796Y-73688469D01*
X145644091Y-73553621D01*
X145650500Y-73494011D01*
X145650499Y-72166235D01*
X146549500Y-72166235D01*
X146549500Y-72426040D01*
X146590140Y-72682631D01*
X146670422Y-72929714D01*
X146751534Y-73088902D01*
X146788366Y-73161189D01*
X146941069Y-73371367D01*
X147124771Y-73555069D01*
X147334949Y-73707772D01*
X147482445Y-73782925D01*
X147566423Y-73825715D01*
X147566425Y-73825715D01*
X147566428Y-73825717D01*
X147813507Y-73905998D01*
X147945706Y-73926935D01*
X148070098Y-73946638D01*
X148070103Y-73946638D01*
X148329902Y-73946638D01*
X148443298Y-73928677D01*
X148586493Y-73905998D01*
X148833572Y-73825717D01*
X149065051Y-73707772D01*
X149275229Y-73555069D01*
X149458931Y-73371367D01*
X149611634Y-73161189D01*
X149729579Y-72929710D01*
X149809860Y-72682631D01*
X149839623Y-72494713D01*
X149850500Y-72426040D01*
X149850500Y-72301703D01*
X160190500Y-72301703D01*
X160190500Y-72459396D01*
X160221261Y-72614039D01*
X160221264Y-72614051D01*
X160281602Y-72759722D01*
X160281609Y-72759735D01*
X160369210Y-72890838D01*
X160369213Y-72890842D01*
X160480707Y-73002336D01*
X160480711Y-73002339D01*
X160611814Y-73089940D01*
X160611827Y-73089947D01*
X160757498Y-73150285D01*
X160757503Y-73150287D01*
X160912153Y-73181049D01*
X160912156Y-73181050D01*
X160912158Y-73181050D01*
X161069844Y-73181050D01*
X161069845Y-73181049D01*
X161224497Y-73150287D01*
X161370179Y-73089944D01*
X161501289Y-73002339D01*
X161575748Y-72927879D01*
X161637069Y-72894396D01*
X161663428Y-72891562D01*
X163029626Y-72891562D01*
X163029642Y-72891563D01*
X163037238Y-72891563D01*
X163195349Y-72891563D01*
X163195352Y-72891563D01*
X163348080Y-72850639D01*
X163436317Y-72799695D01*
X163485011Y-72771582D01*
X163596815Y-72659778D01*
X163596815Y-72659776D01*
X163607019Y-72649573D01*
X163607022Y-72649568D01*
X167187821Y-69068770D01*
X167249142Y-69035287D01*
X167318834Y-69040271D01*
X167374767Y-69082143D01*
X167399184Y-69147607D01*
X167399500Y-69156453D01*
X167399500Y-70334890D01*
X167379815Y-70401929D01*
X167363181Y-70422571D01*
X166689451Y-71096300D01*
X166628128Y-71129785D01*
X166584994Y-71130171D01*
X166584905Y-71131085D01*
X166578843Y-71130488D01*
X166578842Y-71130488D01*
X166421158Y-71130488D01*
X166421155Y-71130488D01*
X166266510Y-71161249D01*
X166266498Y-71161252D01*
X166120827Y-71221590D01*
X166120814Y-71221597D01*
X165989711Y-71309198D01*
X165989707Y-71309201D01*
X165878213Y-71420695D01*
X165878210Y-71420699D01*
X165790609Y-71551802D01*
X165790602Y-71551815D01*
X165730264Y-71697486D01*
X165730261Y-71697498D01*
X165699500Y-71852141D01*
X165699500Y-72009834D01*
X165730261Y-72164477D01*
X165730264Y-72164489D01*
X165790602Y-72310160D01*
X165790609Y-72310173D01*
X165878210Y-72441276D01*
X165878213Y-72441280D01*
X165989707Y-72552774D01*
X165989711Y-72552777D01*
X166120814Y-72640378D01*
X166120827Y-72640385D01*
X166167640Y-72659775D01*
X166266503Y-72700725D01*
X166358432Y-72719010D01*
X166366265Y-72720837D01*
X166420943Y-72735489D01*
X166420944Y-72735489D01*
X166579055Y-72735489D01*
X166579057Y-72735489D01*
X166633725Y-72720839D01*
X166641574Y-72719009D01*
X166733497Y-72700725D01*
X166879179Y-72640382D01*
X167010289Y-72552777D01*
X167121789Y-72441277D01*
X167209394Y-72310167D01*
X167224943Y-72272625D01*
X167251820Y-72232401D01*
X168358506Y-71125716D01*
X168358511Y-71125712D01*
X168368714Y-71115508D01*
X168368716Y-71115508D01*
X168480520Y-71003704D01*
X168559577Y-70866772D01*
X168600500Y-70714045D01*
X168600500Y-67574047D01*
X168600501Y-67574034D01*
X168600501Y-67405931D01*
X168565667Y-67275932D01*
X168559577Y-67253203D01*
X168558165Y-67250758D01*
X168480524Y-67116277D01*
X168480518Y-67116269D01*
X167868717Y-66504468D01*
X167868716Y-66504467D01*
X167781904Y-66454347D01*
X167781904Y-66454346D01*
X167781900Y-66454345D01*
X167731785Y-66425410D01*
X167579057Y-66384486D01*
X167420943Y-66384486D01*
X167413347Y-66384486D01*
X167413331Y-66384487D01*
X166586670Y-66384487D01*
X166586654Y-66384486D01*
X166579058Y-66384486D01*
X166420943Y-66384486D01*
X166344579Y-66404948D01*
X166268214Y-66425410D01*
X166268211Y-66425412D01*
X166189153Y-66471055D01*
X166121253Y-66487526D01*
X166102966Y-66485285D01*
X166078843Y-66480487D01*
X166078842Y-66480487D01*
X165921158Y-66480487D01*
X165921155Y-66480487D01*
X165766510Y-66511248D01*
X165766498Y-66511251D01*
X165620827Y-66571589D01*
X165620814Y-66571596D01*
X165489711Y-66659197D01*
X165489707Y-66659200D01*
X165378213Y-66770694D01*
X165378208Y-66770700D01*
X165344374Y-66821336D01*
X165290761Y-66866141D01*
X165221436Y-66874847D01*
X165172382Y-66855546D01*
X165051642Y-66774869D01*
X165051629Y-66774862D01*
X164905958Y-66714524D01*
X164905946Y-66714521D01*
X164751302Y-66683760D01*
X164751299Y-66683760D01*
X164593615Y-66683760D01*
X164593612Y-66683760D01*
X164438967Y-66714521D01*
X164438955Y-66714524D01*
X164293284Y-66774862D01*
X164293271Y-66774869D01*
X164162168Y-66862470D01*
X164162164Y-66862473D01*
X164050670Y-66973967D01*
X164050667Y-66973971D01*
X163963066Y-67105074D01*
X163963059Y-67105087D01*
X163902721Y-67250758D01*
X163902718Y-67250770D01*
X163871957Y-67405413D01*
X163871957Y-67563106D01*
X163902718Y-67717749D01*
X163902721Y-67717761D01*
X163953630Y-67840668D01*
X163961099Y-67910138D01*
X163953630Y-67935572D01*
X163902721Y-68058478D01*
X163902718Y-68058490D01*
X163871957Y-68213133D01*
X163871957Y-68370826D01*
X163902718Y-68525469D01*
X163902721Y-68525481D01*
X163963059Y-68671152D01*
X163963066Y-68671165D01*
X164050667Y-68802268D01*
X164050670Y-68802272D01*
X164162164Y-68913766D01*
X164162168Y-68913769D01*
X164293271Y-69001370D01*
X164293284Y-69001377D01*
X164387184Y-69040271D01*
X164438960Y-69061717D01*
X164541648Y-69082143D01*
X164593610Y-69092479D01*
X164593613Y-69092480D01*
X164593615Y-69092480D01*
X164751301Y-69092480D01*
X164751302Y-69092479D01*
X164905954Y-69061717D01*
X165051636Y-69001374D01*
X165182746Y-68913769D01*
X165294246Y-68802269D01*
X165381851Y-68671159D01*
X165442194Y-68525477D01*
X165472957Y-68370822D01*
X165472957Y-68213138D01*
X165472957Y-68213135D01*
X165456651Y-68131164D01*
X165462878Y-68061573D01*
X165505740Y-68006395D01*
X165571630Y-67983150D01*
X165625720Y-67992411D01*
X165723610Y-68032957D01*
X165766503Y-68050724D01*
X165858432Y-68069009D01*
X165866265Y-68070836D01*
X165920943Y-68085488D01*
X165920944Y-68085488D01*
X166079055Y-68085488D01*
X166079057Y-68085488D01*
X166133725Y-68070838D01*
X166141595Y-68069004D01*
X166147436Y-68067842D01*
X166174489Y-68062461D01*
X166244080Y-68068688D01*
X166299257Y-68111551D01*
X166322502Y-68177440D01*
X166306434Y-68245437D01*
X166286361Y-68271759D01*
X162903879Y-71654243D01*
X162842556Y-71687728D01*
X162816198Y-71690562D01*
X161436838Y-71690562D01*
X161376229Y-71672765D01*
X161375554Y-71674029D01*
X161370172Y-71671152D01*
X161224501Y-71610814D01*
X161224489Y-71610811D01*
X161069845Y-71580050D01*
X161069842Y-71580050D01*
X160912158Y-71580050D01*
X160912155Y-71580050D01*
X160757510Y-71610811D01*
X160757498Y-71610814D01*
X160611827Y-71671152D01*
X160611814Y-71671159D01*
X160480711Y-71758760D01*
X160480707Y-71758763D01*
X160369213Y-71870257D01*
X160369210Y-71870261D01*
X160281609Y-72001364D01*
X160281602Y-72001377D01*
X160221264Y-72147048D01*
X160221261Y-72147060D01*
X160190500Y-72301703D01*
X149850500Y-72301703D01*
X149850500Y-72166235D01*
X149825727Y-72009830D01*
X149809860Y-71909645D01*
X149729579Y-71662566D01*
X149729577Y-71662563D01*
X149729577Y-71662561D01*
X149673145Y-71551809D01*
X149611634Y-71431087D01*
X149458931Y-71220909D01*
X149275229Y-71037207D01*
X149275225Y-71037204D01*
X149065054Y-70884506D01*
X149065053Y-70884505D01*
X149065051Y-70884504D01*
X148992764Y-70847672D01*
X148833576Y-70766560D01*
X148586493Y-70686278D01*
X148329902Y-70645638D01*
X148329897Y-70645638D01*
X148070103Y-70645638D01*
X148070098Y-70645638D01*
X147813506Y-70686278D01*
X147566423Y-70766560D01*
X147334945Y-70884506D01*
X147124774Y-71037204D01*
X147124768Y-71037209D01*
X146941071Y-71220906D01*
X146941066Y-71220912D01*
X146788368Y-71431083D01*
X146670422Y-71662561D01*
X146590140Y-71909644D01*
X146549500Y-72166235D01*
X145650499Y-72166235D01*
X145650499Y-71098266D01*
X145644091Y-71038655D01*
X145593796Y-70903807D01*
X145593795Y-70903806D01*
X145593793Y-70903802D01*
X145507547Y-70788593D01*
X145507544Y-70788590D01*
X145392335Y-70702344D01*
X145392328Y-70702340D01*
X145257482Y-70652046D01*
X145257483Y-70652046D01*
X145197883Y-70645639D01*
X145197881Y-70645638D01*
X145197873Y-70645638D01*
X145197864Y-70645638D01*
X142802129Y-70645638D01*
X142802123Y-70645639D01*
X142742516Y-70652046D01*
X142607671Y-70702340D01*
X142607664Y-70702344D01*
X142492455Y-70788590D01*
X142492452Y-70788593D01*
X142406206Y-70903802D01*
X142406202Y-70903809D01*
X142355908Y-71038655D01*
X142349711Y-71096300D01*
X142349501Y-71098261D01*
X142349500Y-71098273D01*
X121380597Y-71098273D01*
X121380597Y-67974849D01*
X137649500Y-67974849D01*
X137649500Y-68217426D01*
X137681161Y-68457923D01*
X137743947Y-68692242D01*
X137835706Y-68913766D01*
X137836776Y-68916350D01*
X137958064Y-69126427D01*
X137958066Y-69126430D01*
X137958067Y-69126431D01*
X138105733Y-69318874D01*
X138105739Y-69318881D01*
X138277256Y-69490398D01*
X138277262Y-69490403D01*
X138469711Y-69638074D01*
X138679788Y-69759362D01*
X138903900Y-69852192D01*
X139138211Y-69914976D01*
X139318586Y-69938722D01*
X139378711Y-69946638D01*
X139378712Y-69946638D01*
X139621289Y-69946638D01*
X139669388Y-69940305D01*
X139861789Y-69914976D01*
X140096100Y-69852192D01*
X140320212Y-69759362D01*
X140530289Y-69638074D01*
X140722738Y-69490403D01*
X140894265Y-69318876D01*
X141041936Y-69126427D01*
X141163224Y-68916350D01*
X141256054Y-68692238D01*
X141318838Y-68457927D01*
X141350500Y-68217426D01*
X141350500Y-67974850D01*
X141350500Y-67974849D01*
X150849500Y-67974849D01*
X150849500Y-68217426D01*
X150881161Y-68457923D01*
X150943947Y-68692242D01*
X151035706Y-68913766D01*
X151036776Y-68916350D01*
X151158064Y-69126427D01*
X151158066Y-69126430D01*
X151158067Y-69126431D01*
X151305733Y-69318874D01*
X151305739Y-69318881D01*
X151477256Y-69490398D01*
X151477262Y-69490403D01*
X151669711Y-69638074D01*
X151879788Y-69759362D01*
X152103900Y-69852192D01*
X152338211Y-69914976D01*
X152518586Y-69938722D01*
X152578711Y-69946638D01*
X152578712Y-69946638D01*
X152821289Y-69946638D01*
X152869388Y-69940305D01*
X153061789Y-69914976D01*
X153296100Y-69852192D01*
X153520212Y-69759362D01*
X153730289Y-69638074D01*
X153922738Y-69490403D01*
X154094265Y-69318876D01*
X154241936Y-69126427D01*
X154363224Y-68916350D01*
X154456054Y-68692238D01*
X154518838Y-68457927D01*
X154550500Y-68217426D01*
X154550500Y-67974850D01*
X154548363Y-67958621D01*
X154518838Y-67734352D01*
X154518838Y-67734349D01*
X154456054Y-67500038D01*
X154363224Y-67275926D01*
X154241936Y-67065849D01*
X154116063Y-66901808D01*
X154094266Y-66873401D01*
X154094260Y-66873394D01*
X153922743Y-66701877D01*
X153922736Y-66701871D01*
X153730293Y-66554205D01*
X153730292Y-66554204D01*
X153730289Y-66554202D01*
X153520212Y-66432914D01*
X153502096Y-66425410D01*
X153296104Y-66340085D01*
X153061785Y-66277299D01*
X152821289Y-66245638D01*
X152821288Y-66245638D01*
X152578712Y-66245638D01*
X152578711Y-66245638D01*
X152338214Y-66277299D01*
X152103895Y-66340085D01*
X151879794Y-66432911D01*
X151879785Y-66432915D01*
X151669706Y-66554205D01*
X151477263Y-66701871D01*
X151477256Y-66701877D01*
X151305739Y-66873394D01*
X151305733Y-66873401D01*
X151158067Y-67065844D01*
X151036777Y-67275923D01*
X151036773Y-67275932D01*
X150943947Y-67500033D01*
X150881161Y-67734352D01*
X150849500Y-67974849D01*
X141350500Y-67974849D01*
X141348363Y-67958621D01*
X141318838Y-67734352D01*
X141318838Y-67734349D01*
X141256054Y-67500038D01*
X141163224Y-67275926D01*
X141041936Y-67065849D01*
X140916063Y-66901808D01*
X140894266Y-66873401D01*
X140894260Y-66873394D01*
X140722743Y-66701877D01*
X140722736Y-66701871D01*
X140530293Y-66554205D01*
X140530292Y-66554204D01*
X140530289Y-66554202D01*
X140320212Y-66432914D01*
X140302096Y-66425410D01*
X140096104Y-66340085D01*
X139861785Y-66277299D01*
X139621289Y-66245638D01*
X139621288Y-66245638D01*
X139378712Y-66245638D01*
X139378711Y-66245638D01*
X139138214Y-66277299D01*
X138903895Y-66340085D01*
X138679794Y-66432911D01*
X138679785Y-66432915D01*
X138469706Y-66554205D01*
X138277263Y-66701871D01*
X138277256Y-66701877D01*
X138105739Y-66873394D01*
X138105733Y-66873401D01*
X137958067Y-67065844D01*
X137836777Y-67275923D01*
X137836773Y-67275932D01*
X137743947Y-67500033D01*
X137681161Y-67734352D01*
X137649500Y-67974849D01*
X121380597Y-67974849D01*
X121380597Y-65744624D01*
X121400282Y-65677585D01*
X121453086Y-65631830D01*
X121504597Y-65620624D01*
X141014205Y-65620624D01*
X160614205Y-65620624D01*
X180255597Y-65620624D01*
X180322636Y-65640309D01*
G37*
%TD.AperFunction*%
%TA.AperFunction,Conductor*%
G36*
X121577591Y-84608134D02*
G01*
X121578729Y-84606569D01*
X121786416Y-84757463D01*
X122010815Y-84871801D01*
X122250330Y-84949623D01*
X122499072Y-84989021D01*
X122750928Y-84989021D01*
X122999669Y-84949623D01*
X123239186Y-84871800D01*
X123344246Y-84818269D01*
X123412915Y-84805372D01*
X123477656Y-84831648D01*
X123517913Y-84888754D01*
X123523748Y-84929681D01*
X123524500Y-84929681D01*
X123524500Y-86948361D01*
X123523267Y-86948361D01*
X123507785Y-87011537D01*
X123457106Y-87059635D01*
X123388468Y-87072699D01*
X123344247Y-87059773D01*
X123239184Y-87006240D01*
X122999669Y-86928418D01*
X122750928Y-86889021D01*
X122499072Y-86889021D01*
X122250330Y-86928418D01*
X122010815Y-87006240D01*
X121786416Y-87120578D01*
X121578729Y-87271473D01*
X121577581Y-87269893D01*
X121521357Y-87295081D01*
X121452272Y-87284638D01*
X121399800Y-87238503D01*
X121380597Y-87172219D01*
X121380597Y-84705822D01*
X121400282Y-84638783D01*
X121453086Y-84593028D01*
X121522244Y-84583084D01*
X121577591Y-84608134D01*
G37*
%TD.AperFunction*%
%TD*%
M02*
