%TF.GenerationSoftware,KiCad,Pcbnew,9.0.6*%
%TF.CreationDate,2026-03-03T10:01:28+00:00*%
%TF.ProjectId,teachtaire,74656163-6874-4616-9972-652e6b696361,rev?*%
%TF.SameCoordinates,Original*%
%TF.FileFunction,Copper,L4,Inr*%
%TF.FilePolarity,Positive*%
%FSLAX46Y46*%
G04 Gerber Fmt 4.6, Leading zero omitted, Abs format (unit mm)*
G04 Created by KiCad (PCBNEW 9.0.6) date 2026-03-03 10:01:28*
%MOMM*%
%LPD*%
G01*
G04 APERTURE LIST*
%TA.AperFunction,Conductor*%
%ADD10C,0.200000*%
%TD*%
%TA.AperFunction,ComponentPad*%
%ADD11C,2.200000*%
%TD*%
%TA.AperFunction,ComponentPad*%
%ADD12R,2.300000X2.300000*%
%TD*%
%TA.AperFunction,ComponentPad*%
%ADD13C,2.300000*%
%TD*%
%TA.AperFunction,ComponentPad*%
%ADD14R,1.524000X1.524000*%
%TD*%
%TA.AperFunction,ComponentPad*%
%ADD15C,1.524000*%
%TD*%
%TA.AperFunction,ViaPad*%
%ADD16C,0.600000*%
%TD*%
%TA.AperFunction,Conductor*%
%ADD17C,0.600000*%
%TD*%
%TA.AperFunction,Conductor*%
%ADD18C,0.400000*%
%TD*%
G04 APERTURE END LIST*
D10*
%TO.N,+3V3D*%
X164955550Y-100000000D02*
X164500000Y-99544450D01*
X164500000Y-99527518D01*
X164955550Y-99527518D01*
X164955550Y-100000000D01*
%TA.AperFunction,Conductor*%
G36*
X164955550Y-100000000D02*
G01*
X164500000Y-99544450D01*
X164500000Y-99527518D01*
X164955550Y-99527518D01*
X164955550Y-100000000D01*
G37*
%TD.AperFunction*%
X164933133Y-106294034D02*
X163993163Y-105354064D01*
X164000000Y-104968772D01*
X164939970Y-104028802D01*
X164933133Y-106294034D01*
%TA.AperFunction,Conductor*%
G36*
X164933133Y-106294034D02*
G01*
X163993163Y-105354064D01*
X164000000Y-104968772D01*
X164939970Y-104028802D01*
X164933133Y-106294034D01*
G37*
%TD.AperFunction*%
X164955550Y-98647578D02*
X164955550Y-99527518D01*
X163961503Y-99520639D01*
X164895520Y-98587548D01*
X164955550Y-98647578D01*
%TA.AperFunction,Conductor*%
G36*
X164955550Y-98647578D02*
G01*
X164955550Y-99527518D01*
X163961503Y-99520639D01*
X164895520Y-98587548D01*
X164955550Y-98647578D01*
G37*
%TD.AperFunction*%
X166226778Y-97718224D02*
X165726778Y-97718224D01*
X166226778Y-97218224D01*
X166226778Y-97718224D01*
%TA.AperFunction,Conductor*%
G36*
X166226778Y-97718224D02*
G01*
X165726778Y-97718224D01*
X166226778Y-97218224D01*
X166226778Y-97718224D01*
G37*
%TD.AperFunction*%
X166908854Y-86032513D02*
X166921839Y-87466302D01*
X165802865Y-86401432D01*
X166785966Y-85500000D01*
X166908854Y-86032513D01*
%TA.AperFunction,Conductor*%
G36*
X166908854Y-86032513D02*
G01*
X166921839Y-87466302D01*
X165802865Y-86401432D01*
X166785966Y-85500000D01*
X166908854Y-86032513D01*
G37*
%TD.AperFunction*%
X166918685Y-87347465D02*
X166918685Y-87847465D01*
X166418685Y-88347465D01*
X166418685Y-86847465D01*
X166918685Y-87347465D01*
%TA.AperFunction,Conductor*%
G36*
X166918685Y-87347465D02*
G01*
X166918685Y-87847465D01*
X166418685Y-88347465D01*
X166418685Y-86847465D01*
X166918685Y-87347465D01*
G37*
%TD.AperFunction*%
X165060030Y-98439970D02*
X164939970Y-98439970D01*
X164500000Y-98000000D01*
X165500000Y-98000000D01*
X165060030Y-98439970D01*
%TA.AperFunction,Conductor*%
G36*
X165060030Y-98439970D02*
G01*
X164939970Y-98439970D01*
X164500000Y-98000000D01*
X165500000Y-98000000D01*
X165060030Y-98439970D01*
G37*
%TD.AperFunction*%
X164500000Y-105560030D02*
X163560030Y-105560030D01*
X163500000Y-105500000D01*
X163500000Y-105468772D01*
X163908742Y-105060030D01*
X164000000Y-105060030D01*
X164500000Y-105560030D01*
%TA.AperFunction,Conductor*%
G36*
X164500000Y-105560030D02*
G01*
X163560030Y-105560030D01*
X163500000Y-105500000D01*
X163500000Y-105468772D01*
X163908742Y-105060030D01*
X164000000Y-105060030D01*
X164500000Y-105560030D01*
G37*
%TD.AperFunction*%
X164939970Y-98439970D02*
X164939970Y-98560030D01*
X164500000Y-99000000D01*
X164500000Y-98000000D01*
X164939970Y-98439970D01*
%TA.AperFunction,Conductor*%
G36*
X164939970Y-98439970D02*
G01*
X164939970Y-98560030D01*
X164500000Y-99000000D01*
X164500000Y-98000000D01*
X164939970Y-98439970D01*
G37*
%TD.AperFunction*%
%TD*%
D11*
%TO.N,GND*%
%TO.C,J3*%
X122625000Y-88489021D03*
X127725000Y-88489021D03*
X122625000Y-83389021D03*
X127725000Y-83389021D03*
%TD*%
D12*
%TO.N,Net-(Q2-D)*%
%TO.C,J1*%
X144000000Y-72296138D03*
D13*
X148200000Y-72296138D03*
%TO.N,GND*%
X144000000Y-77796138D03*
X148200000Y-77796138D03*
%TD*%
D14*
%TO.N,GND*%
%TO.C,J2*%
X174672265Y-83692548D03*
D15*
X172132265Y-83692548D03*
%TO.N,5VSERVO*%
X174672265Y-86232548D03*
X172132265Y-86232548D03*
X174672265Y-88772548D03*
X172132265Y-88772548D03*
X174672265Y-91312548D03*
X172132265Y-91312548D03*
%TO.N,GND*%
X174672265Y-93852548D03*
X172132265Y-93852548D03*
%TO.N,5VLOGIC*%
X174672265Y-96392548D03*
X172132265Y-96392548D03*
%TO.N,GND*%
X174672265Y-98932548D03*
X172132265Y-98932548D03*
X174672265Y-101472548D03*
%TO.N,CANo_+*%
X172132265Y-101472548D03*
%TO.N,GND*%
X174672265Y-104012548D03*
%TO.N,CANo_-*%
X172132265Y-104012548D03*
%TO.N,GND*%
X174672265Y-106552548D03*
X172132265Y-106552548D03*
%TD*%
D16*
%TO.N,Net-(U5--IN)*%
X164225001Y-115500000D03*
X159500000Y-110500000D03*
%TO.N,GND*%
X160000000Y-70280987D03*
X130500000Y-84000000D03*
X170258731Y-89330148D03*
X170878360Y-78050435D03*
X161281893Y-82576949D03*
X171518931Y-79782441D03*
X170219599Y-97997942D03*
X155905022Y-120761751D03*
X173235188Y-114550435D03*
X153000000Y-118000000D03*
X125187402Y-83831028D03*
X158974240Y-108669468D03*
X161079134Y-79556346D03*
X129085918Y-87407668D03*
X158372211Y-121245124D03*
X158461418Y-93461418D03*
X176399030Y-97449499D03*
X170383457Y-92622941D03*
X161538891Y-121319404D03*
X153164191Y-89230610D03*
X125231992Y-104554101D03*
X170380172Y-93677988D03*
X134999593Y-119550568D03*
X140066264Y-121605279D03*
X171596824Y-110335658D03*
X162500000Y-110500000D03*
X127231415Y-86868886D03*
X135000000Y-104500000D03*
X138884848Y-104435315D03*
X161000000Y-110500000D03*
X163509654Y-95250269D03*
X160000000Y-73280987D03*
X159680225Y-89844483D03*
X153285172Y-82420574D03*
X160000000Y-112500000D03*
X159774323Y-86798777D03*
X125875866Y-87971338D03*
X174790453Y-109673564D03*
X154500000Y-117000000D03*
X167147071Y-78291980D03*
X167597869Y-102729340D03*
X125168890Y-87961785D03*
X153000000Y-97500000D03*
X128675700Y-114620187D03*
X138234018Y-110767194D03*
X156895454Y-86917804D03*
X158851361Y-120722043D03*
X165913446Y-68247385D03*
X142828298Y-88913386D03*
X169000000Y-113500000D03*
X155000000Y-110500000D03*
X163093569Y-99306853D03*
X139250000Y-116500000D03*
X168484457Y-96395483D03*
X138937583Y-117908053D03*
X130925700Y-112204370D03*
X143000000Y-87500000D03*
X128675700Y-80620187D03*
X143061466Y-99762898D03*
X168088293Y-89459818D03*
X130925700Y-78204370D03*
X173390064Y-98500000D03*
X173424530Y-95135946D03*
X152931145Y-120730127D03*
X157372211Y-121500000D03*
X163172320Y-122301406D03*
X161443812Y-118306670D03*
X125829495Y-83831028D03*
X154000000Y-114000000D03*
X143000000Y-92000000D03*
X143000000Y-94000000D03*
X162500000Y-109500000D03*
X156323013Y-96042048D03*
X171596824Y-76335658D03*
X165070457Y-119799995D03*
X129500000Y-84000000D03*
X161079134Y-76556346D03*
X173128360Y-75634618D03*
X130285129Y-110472364D03*
X155722620Y-97965705D03*
X159250000Y-102107721D03*
X153500000Y-102500000D03*
X167684457Y-87645483D03*
X170878360Y-112050435D03*
X149205492Y-105860011D03*
X159522307Y-84200000D03*
X163219040Y-117278105D03*
X124461914Y-87971338D03*
X154007639Y-118841269D03*
X156308316Y-121500000D03*
X157986070Y-118792745D03*
X159693172Y-120706160D03*
X127013607Y-80581241D03*
X160000000Y-68780987D03*
X159521015Y-118799622D03*
X154750000Y-87714235D03*
X169500000Y-116000000D03*
X158861431Y-118243314D03*
X128400000Y-101258698D03*
X174878360Y-114550435D03*
X166397071Y-77041980D03*
X170400171Y-90383286D03*
X154986293Y-118829232D03*
X164874388Y-87158837D03*
X161000000Y-109500000D03*
X152000000Y-110500000D03*
X155000000Y-118000000D03*
X155000000Y-105992721D03*
X140000000Y-112000000D03*
X124000000Y-96500000D03*
X168856885Y-69676488D03*
X153000000Y-94000000D03*
X126925700Y-75704370D03*
X128568872Y-75704370D03*
X155303596Y-101047436D03*
X127244447Y-85021483D03*
X150943477Y-106431063D03*
X161500000Y-91500000D03*
X128938376Y-86887373D03*
X153000000Y-100000000D03*
X130207236Y-79919147D03*
X158788849Y-118804346D03*
X164781893Y-82576949D03*
X159500000Y-109500000D03*
X167403105Y-115636070D03*
X157000000Y-99500000D03*
X128107036Y-86859994D03*
X153285172Y-81566753D03*
X130285129Y-76472364D03*
X133253755Y-106700335D03*
X123069457Y-85223236D03*
X160335705Y-118819137D03*
X158379652Y-105975420D03*
X174790453Y-75673564D03*
X165520548Y-88884200D03*
X174878360Y-80550435D03*
X130986269Y-105379125D03*
X128400000Y-99841124D03*
X124000000Y-107500000D03*
X123069457Y-85865329D03*
X155000000Y-109500000D03*
X171518931Y-113782441D03*
X144500000Y-105500000D03*
X156754775Y-120785576D03*
X133500000Y-88500000D03*
X157747477Y-120737926D03*
X134250000Y-101250000D03*
X157250066Y-118826339D03*
X166000000Y-113000000D03*
X128574110Y-109567686D03*
X153234501Y-121531618D03*
X129500000Y-108000000D03*
X153500000Y-109500000D03*
X161918573Y-67365570D03*
X153007639Y-118841269D03*
X161079134Y-77556346D03*
X157000000Y-105992721D03*
X154068855Y-120728907D03*
X173235188Y-80550435D03*
X170500000Y-95000000D03*
X160000000Y-67000000D03*
X170396886Y-91438333D03*
X128094444Y-85034075D03*
X142462119Y-103962119D03*
X156000000Y-105992721D03*
X153500000Y-110500000D03*
X126931875Y-109543796D03*
X152000000Y-109500000D03*
X123094802Y-86575011D03*
X154000000Y-118000000D03*
X161810953Y-68549394D03*
X154372211Y-121530398D03*
X161079134Y-80556346D03*
X127013607Y-114581241D03*
X127500000Y-117000000D03*
X169500000Y-66500000D03*
X156500000Y-113000000D03*
X160000000Y-71780987D03*
X131000000Y-117000000D03*
X130207236Y-113919147D03*
X160164502Y-98319768D03*
X129000000Y-85000000D03*
X166000000Y-84500000D03*
X155303356Y-121471465D03*
X124477720Y-83856373D03*
X155039386Y-120745868D03*
X173128360Y-109634618D03*
X143008933Y-101336375D03*
%TO.N,NRST*%
X125219365Y-102028935D03*
X163500000Y-93000000D03*
%TO.N,5VLOGIC*%
X161500000Y-106000000D03*
X171080961Y-72396173D03*
X171110009Y-73209519D03*
%TO.N,VBAT*%
X164672457Y-67484260D03*
X166000000Y-67280987D03*
X166500000Y-71930988D03*
X164672457Y-68291980D03*
X177000000Y-94500000D03*
%TO.N,SWDIO*%
X125269478Y-100756058D03*
X155138720Y-95702409D03*
%TO.N,/GNSS_Bias_T/ANT_OFF_N*%
X158000000Y-113500000D03*
X149500000Y-117000000D03*
%TO.N,PA10*%
X155052912Y-92372459D03*
X143573229Y-113248599D03*
%TO.N,PA9*%
X143555272Y-114290117D03*
X155330471Y-91622149D03*
%TO.N,LoRa_DIO4*%
X146500000Y-101250000D03*
X152500000Y-101250000D03*
X159452251Y-92297749D03*
%TO.N,LoRa_RESET*%
X163734457Y-90895483D03*
X150503980Y-96127582D03*
%TO.N,LoRa_MOSI*%
X150500000Y-88500000D03*
X161500000Y-90000000D03*
%TO.N,LoRa_DIO5*%
X158500000Y-92500000D03*
X146500000Y-98000000D03*
%TO.N,LoRa_DIO3*%
X153250000Y-87750000D03*
X151000000Y-104250000D03*
X141500000Y-106500000D03*
X146500000Y-104000000D03*
%TO.N,LoRa_DIO0*%
X133250000Y-98250000D03*
X160603248Y-89951778D03*
%TO.N,LoRa_RX_SWITCH*%
X133420000Y-93580000D03*
X155813665Y-90984553D03*
%TO.N,LoRa_DIO2*%
X158642769Y-90582553D03*
X133250000Y-103250000D03*
%TO.N,LoRa_NSS*%
X163883457Y-89714235D03*
X150500000Y-86000000D03*
%TO.N,LoRa_TX_SWITCH*%
X133380000Y-96120000D03*
X159500000Y-94500000D03*
%TO.N,LoRa_SCK*%
X152513554Y-91400000D03*
X163121242Y-89471272D03*
%TO.N,LoRa_MISO*%
X162474578Y-90000000D03*
X150500000Y-91040000D03*
%TO.N,LoRa_DIO1*%
X129000000Y-102750000D03*
X158625647Y-86922600D03*
%TO.N,Net-(U8-VCC)*%
X167400000Y-68007357D03*
X160991000Y-72380550D03*
%TO.N,Net-(Q2-S)*%
X168918777Y-73011603D03*
X169174049Y-72385026D03*
X158000000Y-81575949D03*
X159000000Y-81575949D03*
%TO.N,GNSS_RESET*%
X162484457Y-95145483D03*
X143500000Y-121000000D03*
%TO.N,Net-(U9-EN)*%
X161049165Y-84115675D03*
X163979715Y-80433079D03*
%TO.N,SWCLK*%
X125249433Y-99533294D03*
X158413351Y-95207957D03*
%TO.N,+3V3RF*%
X164906648Y-84966660D03*
X127029342Y-91009780D03*
X177000000Y-103000000D03*
X139000000Y-119136583D03*
X138136583Y-119136583D03*
X126300123Y-91013259D03*
%TO.N,+3V3D*%
X133268417Y-115450020D03*
X125250000Y-103250000D03*
X157401572Y-107598427D03*
X158460774Y-98170486D03*
X166092027Y-81538748D03*
X176000000Y-100000000D03*
X138000000Y-115500000D03*
X157750000Y-86895483D03*
X163144051Y-105418579D03*
X166734457Y-87395483D03*
X163984457Y-99395483D03*
X167725001Y-111274999D03*
%TD*%
D10*
%TO.N,LoRa_DIO4*%
X152500000Y-101250000D02*
X146500000Y-101250000D01*
%TO.N,LoRa_MOSI*%
X150500000Y-88500000D02*
X160000000Y-88500000D01*
X160000000Y-88500000D02*
X161500000Y-90000000D01*
%TO.N,LoRa_DIO0*%
X158500000Y-96750000D02*
X134750000Y-96750000D01*
X134750000Y-96750000D02*
X133250000Y-98250000D01*
X160434457Y-90120569D02*
X160434457Y-94815543D01*
X160603248Y-89951778D02*
X160434457Y-90120569D01*
X160434457Y-94815543D02*
X158500000Y-96750000D01*
%TO.N,LoRa_DIO2*%
X158641769Y-90583553D02*
X158629259Y-90583553D01*
X155750000Y-89750000D02*
X152750000Y-92750000D01*
X132649000Y-95351000D02*
X132649000Y-102649000D01*
X152750000Y-92750000D02*
X135250000Y-92750000D01*
X158629259Y-90583553D02*
X158623296Y-90577590D01*
X157748079Y-89750000D02*
X155750000Y-89750000D01*
X158575669Y-90577590D02*
X157748079Y-89750000D01*
X158623296Y-90577590D02*
X158575669Y-90577590D01*
X132649000Y-102649000D02*
X133250000Y-103250000D01*
X158642769Y-90582553D02*
X158641769Y-90583553D01*
X135250000Y-92750000D02*
X132649000Y-95351000D01*
%TO.N,LoRa_TX_SWITCH*%
X159500000Y-94500000D02*
X159497435Y-94497435D01*
X155795941Y-95052599D02*
X134447401Y-95052599D01*
X159497435Y-94497435D02*
X156351105Y-94497435D01*
X134447401Y-95052599D02*
X133380000Y-96120000D01*
X156351105Y-94497435D02*
X155795941Y-95052599D01*
%TO.N,LoRa_DIO1*%
X156877707Y-87750000D02*
X156240942Y-87113235D01*
X157798247Y-87750000D02*
X156877707Y-87750000D01*
X156240942Y-87113235D02*
X147386765Y-87113235D01*
X147386765Y-87113235D02*
X146248943Y-88251057D01*
X158625647Y-86922600D02*
X157798247Y-87750000D01*
X129000000Y-97150057D02*
X129000000Y-102750000D01*
X146248943Y-88251057D02*
X137899000Y-88251057D01*
X137899000Y-88251057D02*
X129000000Y-97150057D01*
D17*
%TO.N,+3V3RF*%
X164890359Y-84982949D02*
X164517051Y-84982949D01*
X135500000Y-111617214D02*
X127000000Y-103117214D01*
X127478177Y-91000000D02*
X127039122Y-91000000D01*
X128739088Y-89739088D02*
X127478177Y-91000000D01*
X127000000Y-103117214D02*
X127000000Y-91478176D01*
X126300123Y-91013259D02*
X126765040Y-91478176D01*
X164906648Y-84966660D02*
X164890359Y-84982949D01*
X164500000Y-85000000D02*
X157750000Y-85000000D01*
X127039122Y-91000000D02*
X127029342Y-91009780D01*
X133478176Y-85000000D02*
X128739088Y-89739088D01*
X135500000Y-116500000D02*
X135500000Y-111617214D01*
X164517051Y-84982949D02*
X164500000Y-85000000D01*
X138136583Y-119136583D02*
X139000000Y-119136583D01*
X126313382Y-91000000D02*
X126300123Y-91013259D01*
X126765040Y-91478176D02*
X127000000Y-91478176D01*
X127000000Y-91478176D02*
X128739088Y-89739088D01*
X127478177Y-91000000D02*
X126313382Y-91000000D01*
X157750000Y-85000000D02*
X133478176Y-85000000D01*
X138136583Y-119136583D02*
X135500000Y-116500000D01*
D18*
%TO.N,+3V3D*%
X164939970Y-108489968D02*
X167725001Y-111274999D01*
X145601000Y-107899000D02*
X138000000Y-115500000D01*
X166419487Y-89000000D02*
X166419487Y-96960453D01*
X165338974Y-86000000D02*
X166092027Y-86753053D01*
X163216946Y-105751826D02*
X162984386Y-105984386D01*
X157750000Y-86750000D02*
X158500000Y-86000000D01*
X166419487Y-87080513D02*
X166734457Y-87395483D01*
X166808225Y-82254946D02*
X166808225Y-86036855D01*
X166419487Y-96960453D02*
X165939970Y-97439970D01*
X163468772Y-105500000D02*
X164939970Y-104028802D01*
X162984386Y-105984386D02*
X163550193Y-105418579D01*
X162984386Y-105984386D02*
X161069772Y-107899000D01*
X157401572Y-107598427D02*
X157100999Y-107899000D01*
X157100999Y-107899000D02*
X145601000Y-107899000D01*
X158500000Y-107899000D02*
X157100999Y-107899000D01*
X164939970Y-98439970D02*
X164939970Y-104000000D01*
X163216946Y-105491474D02*
X163216946Y-105751826D01*
X166419487Y-87080513D02*
X166419487Y-89000000D01*
X166808225Y-86036855D02*
X166092027Y-86753053D01*
X157702145Y-107899000D02*
X158500000Y-107899000D01*
X164939970Y-98439970D02*
X164118768Y-97618768D01*
X163550193Y-105418579D02*
X163551152Y-105418579D01*
X166092027Y-81538748D02*
X166808225Y-82254946D01*
X164939970Y-104000000D02*
X164939970Y-108489968D01*
X165939970Y-97439970D02*
X164939970Y-98439970D01*
X166092027Y-86753053D02*
X166419487Y-87080513D01*
X164118768Y-97618768D02*
X159012492Y-97618768D01*
X157401572Y-107598427D02*
X157702145Y-107899000D01*
X164939970Y-98439970D02*
X163984457Y-99395483D01*
X157750000Y-86895483D02*
X157750000Y-86750000D01*
X163144051Y-105418579D02*
X163225472Y-105500000D01*
X164939970Y-104028802D02*
X164939970Y-104000000D01*
D10*
X168500000Y-100000000D02*
X165939970Y-97439970D01*
D18*
X159012492Y-97618768D02*
X158460774Y-98170486D01*
X163225472Y-105500000D02*
X163468772Y-105500000D01*
X158500000Y-86000000D02*
X165338974Y-86000000D01*
X166419487Y-89000000D02*
X166419487Y-87712572D01*
D10*
X176000000Y-100000000D02*
X168500000Y-100000000D01*
D18*
X161069772Y-107899000D02*
X158500000Y-107899000D01*
X163144051Y-105418579D02*
X163216946Y-105491474D01*
%TD*%
%TA.AperFunction,Conductor*%
%TO.N,GND*%
G36*
X174198884Y-104208629D02*
G01*
X174265763Y-104324468D01*
X174360345Y-104419050D01*
X174476184Y-104485929D01*
X174536322Y-104502042D01*
X173973548Y-105064816D01*
X173973548Y-105064817D01*
X174010832Y-105091906D01*
X174168147Y-105172063D01*
X174218943Y-105220038D01*
X174235738Y-105287859D01*
X174213200Y-105353994D01*
X174168147Y-105393033D01*
X174010829Y-105473191D01*
X173973548Y-105500277D01*
X173973547Y-105500278D01*
X174536323Y-106063052D01*
X174476184Y-106079167D01*
X174360345Y-106146046D01*
X174265763Y-106240628D01*
X174198884Y-106356467D01*
X174182769Y-106416605D01*
X173619995Y-105853830D01*
X173619994Y-105853831D01*
X173592908Y-105891112D01*
X173512750Y-106048430D01*
X173464775Y-106099226D01*
X173396954Y-106116021D01*
X173330819Y-106093483D01*
X173291780Y-106048430D01*
X173211623Y-105891115D01*
X173184533Y-105853831D01*
X172621759Y-106416605D01*
X172605646Y-106356467D01*
X172538767Y-106240628D01*
X172444185Y-106146046D01*
X172328346Y-106079167D01*
X172268207Y-106063052D01*
X172830981Y-105500279D01*
X172830980Y-105500278D01*
X172793697Y-105473189D01*
X172636933Y-105393313D01*
X172586137Y-105345338D01*
X172569342Y-105277517D01*
X172591880Y-105211382D01*
X172636932Y-105172344D01*
X172793959Y-105092335D01*
X172954729Y-104975529D01*
X173095246Y-104835012D01*
X173212052Y-104674242D01*
X173292061Y-104517215D01*
X173340034Y-104466420D01*
X173407855Y-104449625D01*
X173473990Y-104472162D01*
X173513030Y-104517216D01*
X173592906Y-104673980D01*
X173619995Y-104711263D01*
X173619996Y-104711264D01*
X174182769Y-104148490D01*
X174198884Y-104208629D01*
G37*
%TD.AperFunction*%
%TA.AperFunction,Conductor*%
G36*
X174198884Y-101668629D02*
G01*
X174265763Y-101784468D01*
X174360345Y-101879050D01*
X174476184Y-101945929D01*
X174536322Y-101962042D01*
X173973548Y-102524816D01*
X173973548Y-102524817D01*
X174010832Y-102551906D01*
X174168147Y-102632063D01*
X174218943Y-102680038D01*
X174235738Y-102747859D01*
X174213200Y-102813994D01*
X174168147Y-102853033D01*
X174010829Y-102933191D01*
X173973548Y-102960277D01*
X173973547Y-102960278D01*
X174536323Y-103523052D01*
X174476184Y-103539167D01*
X174360345Y-103606046D01*
X174265763Y-103700628D01*
X174198884Y-103816467D01*
X174182769Y-103876605D01*
X173619995Y-103313830D01*
X173619994Y-103313831D01*
X173592906Y-103351114D01*
X173513029Y-103507880D01*
X173465055Y-103558675D01*
X173397234Y-103575470D01*
X173331099Y-103552932D01*
X173292061Y-103507880D01*
X173212052Y-103350854D01*
X173095246Y-103190084D01*
X172954729Y-103049567D01*
X172793959Y-102932761D01*
X172637483Y-102853032D01*
X172586688Y-102805058D01*
X172569893Y-102737237D01*
X172592430Y-102671102D01*
X172637483Y-102632063D01*
X172793959Y-102552335D01*
X172954729Y-102435529D01*
X173095246Y-102295012D01*
X173212052Y-102134242D01*
X173292061Y-101977215D01*
X173340034Y-101926420D01*
X173407855Y-101909625D01*
X173473990Y-101932162D01*
X173513030Y-101977216D01*
X173592906Y-102133980D01*
X173619995Y-102171263D01*
X174182769Y-101608489D01*
X174198884Y-101668629D01*
G37*
%TD.AperFunction*%
%TA.AperFunction,Conductor*%
G36*
X149642539Y-85820185D02*
G01*
X149688294Y-85872989D01*
X149699500Y-85924500D01*
X149699500Y-86078846D01*
X149730261Y-86233489D01*
X149730263Y-86233497D01*
X149771026Y-86331909D01*
X149774909Y-86341282D01*
X149782378Y-86410752D01*
X149751103Y-86473231D01*
X149691014Y-86508883D01*
X149660348Y-86512735D01*
X147465822Y-86512735D01*
X147307707Y-86512735D01*
X147154980Y-86553658D01*
X147154979Y-86553658D01*
X147154977Y-86553659D01*
X147154974Y-86553660D01*
X147104861Y-86582594D01*
X147104860Y-86582595D01*
X147061454Y-86607655D01*
X147018050Y-86632714D01*
X147018047Y-86632716D01*
X146958051Y-86692713D01*
X146906245Y-86744519D01*
X146906243Y-86744521D01*
X146455236Y-87195529D01*
X146036527Y-87614238D01*
X145975204Y-87647723D01*
X145948846Y-87650557D01*
X137819940Y-87650557D01*
X137779019Y-87661521D01*
X137779019Y-87661522D01*
X137741751Y-87671508D01*
X137667214Y-87691480D01*
X137667209Y-87691483D01*
X137530290Y-87770532D01*
X137530282Y-87770538D01*
X128519481Y-96781339D01*
X128519480Y-96781341D01*
X128485920Y-96839469D01*
X128482277Y-96845779D01*
X128443295Y-96913298D01*
X128440423Y-96918272D01*
X128399499Y-97071000D01*
X128399499Y-97071002D01*
X128399499Y-97239103D01*
X128399500Y-97239116D01*
X128399500Y-102170234D01*
X128379815Y-102237273D01*
X128378602Y-102239125D01*
X128290609Y-102370814D01*
X128290602Y-102370827D01*
X128230264Y-102516498D01*
X128230261Y-102516510D01*
X128199500Y-102671153D01*
X128199500Y-102671158D01*
X128199500Y-102828842D01*
X128199501Y-102828846D01*
X128208097Y-102872063D01*
X128201869Y-102941654D01*
X128159005Y-102996831D01*
X128093115Y-103020075D01*
X128025118Y-103004007D01*
X127998798Y-102983934D01*
X127836819Y-102821955D01*
X127803334Y-102760632D01*
X127800500Y-102734274D01*
X127800500Y-91861115D01*
X127809145Y-91831672D01*
X127815668Y-91801689D01*
X127819422Y-91796673D01*
X127820185Y-91794076D01*
X127836810Y-91773443D01*
X127981401Y-91628851D01*
X127981408Y-91628846D01*
X127988464Y-91621790D01*
X127988466Y-91621789D01*
X128099966Y-91510289D01*
X128099966Y-91510288D01*
X129360877Y-90249377D01*
X133773435Y-85836819D01*
X133834758Y-85803334D01*
X133861116Y-85800500D01*
X149575500Y-85800500D01*
X149642539Y-85820185D01*
G37*
%TD.AperFunction*%
%TA.AperFunction,Conductor*%
G36*
X173473711Y-96852713D02*
G01*
X173512749Y-96897766D01*
X173592478Y-97054242D01*
X173709284Y-97215012D01*
X173849801Y-97355529D01*
X174010571Y-97472335D01*
X174167597Y-97552344D01*
X174218392Y-97600317D01*
X174235187Y-97668138D01*
X174212650Y-97734273D01*
X174167597Y-97773312D01*
X174010831Y-97853189D01*
X173973548Y-97880277D01*
X173973547Y-97880278D01*
X174536323Y-98443052D01*
X174476184Y-98459167D01*
X174360345Y-98526046D01*
X174265763Y-98620628D01*
X174198884Y-98736467D01*
X174182770Y-98796605D01*
X173619995Y-98233830D01*
X173619994Y-98233831D01*
X173592908Y-98271112D01*
X173512750Y-98428430D01*
X173464775Y-98479226D01*
X173396954Y-98496021D01*
X173330819Y-98473483D01*
X173291780Y-98428430D01*
X173211623Y-98271115D01*
X173184533Y-98233831D01*
X172621759Y-98796604D01*
X172605646Y-98736467D01*
X172538767Y-98620628D01*
X172444185Y-98526046D01*
X172328346Y-98459167D01*
X172268207Y-98443052D01*
X172830981Y-97880279D01*
X172830980Y-97880278D01*
X172793697Y-97853189D01*
X172636933Y-97773313D01*
X172586137Y-97725338D01*
X172569342Y-97657517D01*
X172591880Y-97591382D01*
X172636932Y-97552344D01*
X172793959Y-97472335D01*
X172954729Y-97355529D01*
X173095246Y-97215012D01*
X173212052Y-97054242D01*
X173291780Y-96897766D01*
X173339755Y-96846971D01*
X173407576Y-96830176D01*
X173473711Y-96852713D01*
G37*
%TD.AperFunction*%
%TA.AperFunction,Conductor*%
G36*
X165064494Y-86720185D02*
G01*
X165085136Y-86736819D01*
X165547913Y-87199596D01*
X165682669Y-87334351D01*
X165716153Y-87395672D01*
X165718987Y-87422031D01*
X165718987Y-96618933D01*
X165699302Y-96685972D01*
X165682668Y-96706614D01*
X165475986Y-96913295D01*
X165475984Y-96913298D01*
X165031102Y-97358181D01*
X165004174Y-97372884D01*
X164978356Y-97389477D01*
X164972155Y-97390368D01*
X164969779Y-97391666D01*
X164943421Y-97394500D01*
X164936519Y-97394500D01*
X164869480Y-97374815D01*
X164848838Y-97358181D01*
X164565314Y-97074656D01*
X164565313Y-97074655D01*
X164450575Y-96997990D01*
X164323100Y-96945189D01*
X164323090Y-96945186D01*
X164187764Y-96918268D01*
X164187762Y-96918268D01*
X164187761Y-96918268D01*
X159480329Y-96918268D01*
X159413290Y-96898583D01*
X159367535Y-96845779D01*
X159357591Y-96776621D01*
X159386616Y-96713065D01*
X159392648Y-96706587D01*
X159717951Y-96381284D01*
X160792963Y-95306270D01*
X160792968Y-95306267D01*
X160803171Y-95296063D01*
X160803173Y-95296063D01*
X160914977Y-95184259D01*
X160982886Y-95066636D01*
X161683957Y-95066636D01*
X161683957Y-95224329D01*
X161714718Y-95378972D01*
X161714721Y-95378984D01*
X161775059Y-95524655D01*
X161775066Y-95524668D01*
X161862667Y-95655771D01*
X161862670Y-95655775D01*
X161974164Y-95767269D01*
X161974168Y-95767272D01*
X162105271Y-95854873D01*
X162105284Y-95854880D01*
X162183622Y-95887328D01*
X162250960Y-95915220D01*
X162405610Y-95945982D01*
X162405613Y-95945983D01*
X162405615Y-95945983D01*
X162563301Y-95945983D01*
X162563302Y-95945982D01*
X162717954Y-95915220D01*
X162863636Y-95854877D01*
X162994746Y-95767272D01*
X163106246Y-95655772D01*
X163193851Y-95524662D01*
X163254194Y-95378980D01*
X163284957Y-95224325D01*
X163284957Y-95066641D01*
X163284957Y-95066638D01*
X163284956Y-95066636D01*
X163273748Y-95010289D01*
X163254194Y-94911986D01*
X163246991Y-94894597D01*
X163193854Y-94766310D01*
X163193847Y-94766297D01*
X163106246Y-94635194D01*
X163106243Y-94635190D01*
X162994749Y-94523696D01*
X162994745Y-94523693D01*
X162863642Y-94436092D01*
X162863629Y-94436085D01*
X162717958Y-94375747D01*
X162717946Y-94375744D01*
X162563302Y-94344983D01*
X162563299Y-94344983D01*
X162405615Y-94344983D01*
X162405612Y-94344983D01*
X162250967Y-94375744D01*
X162250955Y-94375747D01*
X162105284Y-94436085D01*
X162105271Y-94436092D01*
X161974168Y-94523693D01*
X161974164Y-94523696D01*
X161862670Y-94635190D01*
X161862667Y-94635194D01*
X161775066Y-94766297D01*
X161775059Y-94766310D01*
X161714721Y-94911981D01*
X161714718Y-94911993D01*
X161683957Y-95066636D01*
X160982886Y-95066636D01*
X160994034Y-95047327D01*
X161029580Y-94914669D01*
X161034957Y-94894601D01*
X161034957Y-94736486D01*
X161034957Y-92921153D01*
X162699500Y-92921153D01*
X162699500Y-93078846D01*
X162730261Y-93233489D01*
X162730264Y-93233501D01*
X162790602Y-93379172D01*
X162790609Y-93379185D01*
X162878210Y-93510288D01*
X162878213Y-93510292D01*
X162989707Y-93621786D01*
X162989711Y-93621789D01*
X163120814Y-93709390D01*
X163120827Y-93709397D01*
X163266498Y-93769735D01*
X163266503Y-93769737D01*
X163421153Y-93800499D01*
X163421156Y-93800500D01*
X163421158Y-93800500D01*
X163578844Y-93800500D01*
X163578845Y-93800499D01*
X163733497Y-93769737D01*
X163879179Y-93709394D01*
X164010289Y-93621789D01*
X164121789Y-93510289D01*
X164209394Y-93379179D01*
X164269737Y-93233497D01*
X164300500Y-93078842D01*
X164300500Y-92921158D01*
X164300500Y-92921155D01*
X164300499Y-92921153D01*
X164292860Y-92882748D01*
X164269737Y-92766503D01*
X164239421Y-92693312D01*
X164209397Y-92620827D01*
X164209390Y-92620814D01*
X164121789Y-92489711D01*
X164121786Y-92489707D01*
X164010292Y-92378213D01*
X164010288Y-92378210D01*
X163879185Y-92290609D01*
X163879172Y-92290602D01*
X163733501Y-92230264D01*
X163733489Y-92230261D01*
X163578845Y-92199500D01*
X163578842Y-92199500D01*
X163421158Y-92199500D01*
X163421155Y-92199500D01*
X163266510Y-92230261D01*
X163266498Y-92230264D01*
X163120827Y-92290602D01*
X163120814Y-92290609D01*
X162989711Y-92378210D01*
X162989707Y-92378213D01*
X162878213Y-92489707D01*
X162878210Y-92489711D01*
X162790609Y-92620814D01*
X162790602Y-92620827D01*
X162730264Y-92766498D01*
X162730261Y-92766510D01*
X162699500Y-92921153D01*
X161034957Y-92921153D01*
X161034957Y-90859406D01*
X161054642Y-90792367D01*
X161107446Y-90746612D01*
X161176604Y-90736668D01*
X161206403Y-90744843D01*
X161266503Y-90769737D01*
X161380271Y-90792367D01*
X161421153Y-90800499D01*
X161421156Y-90800500D01*
X161421158Y-90800500D01*
X161578844Y-90800500D01*
X161578845Y-90800499D01*
X161733497Y-90769737D01*
X161879179Y-90709394D01*
X161907303Y-90690602D01*
X161918398Y-90683189D01*
X161985075Y-90662311D01*
X162052455Y-90680795D01*
X162056180Y-90683189D01*
X162067285Y-90690609D01*
X162095399Y-90709394D01*
X162095401Y-90709395D01*
X162095405Y-90709397D01*
X162241076Y-90769735D01*
X162241081Y-90769737D01*
X162354849Y-90792367D01*
X162395731Y-90800499D01*
X162395734Y-90800500D01*
X162395736Y-90800500D01*
X162553422Y-90800500D01*
X162553423Y-90800499D01*
X162708075Y-90769737D01*
X162762507Y-90747190D01*
X162831973Y-90739722D01*
X162894452Y-90770996D01*
X162930105Y-90831085D01*
X162933957Y-90861752D01*
X162933957Y-90974329D01*
X162964718Y-91128972D01*
X162964721Y-91128984D01*
X163025059Y-91274655D01*
X163025066Y-91274668D01*
X163112667Y-91405771D01*
X163112670Y-91405775D01*
X163224164Y-91517269D01*
X163224168Y-91517272D01*
X163355271Y-91604873D01*
X163355284Y-91604880D01*
X163492677Y-91661789D01*
X163500960Y-91665220D01*
X163655082Y-91695877D01*
X163655610Y-91695982D01*
X163655613Y-91695983D01*
X163655615Y-91695983D01*
X163813301Y-91695983D01*
X163813302Y-91695982D01*
X163967954Y-91665220D01*
X164113636Y-91604877D01*
X164244746Y-91517272D01*
X164356246Y-91405772D01*
X164443851Y-91274662D01*
X164504194Y-91128980D01*
X164534957Y-90974325D01*
X164534957Y-90816641D01*
X164534957Y-90816638D01*
X164534956Y-90816636D01*
X164534838Y-90816042D01*
X164504194Y-90661986D01*
X164503714Y-90660827D01*
X164443854Y-90516310D01*
X164443852Y-90516306D01*
X164443851Y-90516304D01*
X164434942Y-90502971D01*
X164408109Y-90462812D01*
X164387231Y-90396135D01*
X164405715Y-90328755D01*
X164423526Y-90306243D01*
X164505246Y-90224524D01*
X164592851Y-90093414D01*
X164653194Y-89947732D01*
X164683957Y-89793077D01*
X164683957Y-89635393D01*
X164683957Y-89635390D01*
X164683956Y-89635388D01*
X164675925Y-89595012D01*
X164653194Y-89480738D01*
X164633888Y-89434128D01*
X164592854Y-89335062D01*
X164592847Y-89335049D01*
X164505246Y-89203946D01*
X164505243Y-89203942D01*
X164393749Y-89092448D01*
X164393745Y-89092445D01*
X164262642Y-89004844D01*
X164262629Y-89004837D01*
X164116958Y-88944499D01*
X164116946Y-88944496D01*
X163962302Y-88913735D01*
X163962299Y-88913735D01*
X163804615Y-88913735D01*
X163778843Y-88918861D01*
X163709252Y-88912632D01*
X163666973Y-88884924D01*
X163631534Y-88849485D01*
X163631530Y-88849482D01*
X163500427Y-88761881D01*
X163500414Y-88761874D01*
X163354743Y-88701536D01*
X163354731Y-88701533D01*
X163200087Y-88670772D01*
X163200084Y-88670772D01*
X163042400Y-88670772D01*
X163042397Y-88670772D01*
X162887752Y-88701533D01*
X162887740Y-88701536D01*
X162742069Y-88761874D01*
X162742056Y-88761881D01*
X162610953Y-88849482D01*
X162610949Y-88849485D01*
X162499455Y-88960979D01*
X162499449Y-88960987D01*
X162411849Y-89092090D01*
X162411848Y-89092091D01*
X162390174Y-89144418D01*
X162346332Y-89198821D01*
X162299806Y-89218581D01*
X162241085Y-89230262D01*
X162241076Y-89230264D01*
X162095406Y-89290602D01*
X162095397Y-89290607D01*
X162056178Y-89316812D01*
X161989500Y-89337688D01*
X161922120Y-89319202D01*
X161918400Y-89316812D01*
X161897897Y-89303113D01*
X161879179Y-89290606D01*
X161879175Y-89290604D01*
X161879171Y-89290602D01*
X161733501Y-89230264D01*
X161733491Y-89230261D01*
X161578149Y-89199361D01*
X161516238Y-89166976D01*
X161514660Y-89165425D01*
X160487590Y-88138355D01*
X160487588Y-88138352D01*
X160368717Y-88019481D01*
X160368716Y-88019480D01*
X160281904Y-87969360D01*
X160281904Y-87969359D01*
X160281900Y-87969358D01*
X160231785Y-87940423D01*
X160079057Y-87899499D01*
X159920943Y-87899499D01*
X159913347Y-87899499D01*
X159913331Y-87899500D01*
X158982399Y-87899500D01*
X158915360Y-87879815D01*
X158869605Y-87827011D01*
X158859661Y-87757853D01*
X158888686Y-87694297D01*
X158934947Y-87660939D01*
X159004819Y-87631997D01*
X159004819Y-87631996D01*
X159004826Y-87631994D01*
X159135936Y-87544389D01*
X159247436Y-87432889D01*
X159335041Y-87301779D01*
X159395384Y-87156097D01*
X159426147Y-87001442D01*
X159426147Y-86843758D01*
X159426147Y-86843755D01*
X159425550Y-86837693D01*
X159428134Y-86837438D01*
X159433359Y-86779092D01*
X159476226Y-86723918D01*
X159542117Y-86700677D01*
X159548746Y-86700500D01*
X164997455Y-86700500D01*
X165064494Y-86720185D01*
G37*
%TD.AperFunction*%
%TA.AperFunction,Conductor*%
G36*
X157555890Y-95117620D02*
G01*
X157601645Y-95170424D01*
X157612851Y-95221935D01*
X157612851Y-95286803D01*
X157643612Y-95441446D01*
X157643615Y-95441458D01*
X157703953Y-95587129D01*
X157703960Y-95587142D01*
X157791561Y-95718245D01*
X157791564Y-95718249D01*
X157903058Y-95829743D01*
X157903062Y-95829746D01*
X158039237Y-95920736D01*
X158038185Y-95922309D01*
X158081749Y-95965095D01*
X158097215Y-96033232D01*
X158073388Y-96098913D01*
X158017834Y-96141287D01*
X157973456Y-96149500D01*
X156005563Y-96149500D01*
X155938524Y-96129815D01*
X155892769Y-96077011D01*
X155882825Y-96007853D01*
X155891001Y-95978048D01*
X155891148Y-95977694D01*
X155908457Y-95935906D01*
X155939220Y-95781251D01*
X155939220Y-95731039D01*
X155958905Y-95664000D01*
X156004397Y-95621879D01*
X156017138Y-95615012D01*
X156027726Y-95612176D01*
X156100631Y-95570084D01*
X156164657Y-95533119D01*
X156276461Y-95421315D01*
X156276461Y-95421313D01*
X156286662Y-95411113D01*
X156286665Y-95411108D01*
X156563522Y-95134251D01*
X156624844Y-95100769D01*
X156651202Y-95097935D01*
X157488851Y-95097935D01*
X157555890Y-95117620D01*
G37*
%TD.AperFunction*%
%TA.AperFunction,Conductor*%
G36*
X174198884Y-94048629D02*
G01*
X174265763Y-94164468D01*
X174360345Y-94259050D01*
X174476184Y-94325929D01*
X174536322Y-94342042D01*
X173973548Y-94904816D01*
X173973548Y-94904817D01*
X174010832Y-94931906D01*
X174167596Y-95011782D01*
X174218392Y-95059757D01*
X174235187Y-95127578D01*
X174212649Y-95193713D01*
X174167596Y-95232752D01*
X174010570Y-95312761D01*
X173849798Y-95429569D01*
X173709286Y-95570081D01*
X173592478Y-95730853D01*
X173512750Y-95887328D01*
X173464775Y-95938124D01*
X173396954Y-95954919D01*
X173330819Y-95932381D01*
X173291780Y-95887328D01*
X173244607Y-95794746D01*
X173212052Y-95730854D01*
X173095246Y-95570084D01*
X172954729Y-95429567D01*
X172793959Y-95312761D01*
X172636932Y-95232751D01*
X172586137Y-95184777D01*
X172569342Y-95116956D01*
X172591879Y-95050821D01*
X172636934Y-95011782D01*
X172793687Y-94931912D01*
X172830981Y-94904816D01*
X172268207Y-94342042D01*
X172328346Y-94325929D01*
X172444185Y-94259050D01*
X172538767Y-94164468D01*
X172605646Y-94048629D01*
X172621760Y-93988490D01*
X173184533Y-94551263D01*
X173211627Y-94513973D01*
X173291780Y-94356665D01*
X173339754Y-94305869D01*
X173407575Y-94289074D01*
X173473710Y-94311611D01*
X173512750Y-94356665D01*
X173592906Y-94513980D01*
X173619995Y-94551263D01*
X173619996Y-94551264D01*
X174182769Y-93988490D01*
X174198884Y-94048629D01*
G37*
%TD.AperFunction*%
%TA.AperFunction,Conductor*%
G36*
X159766942Y-89120185D02*
G01*
X159787584Y-89136819D01*
X159953878Y-89303113D01*
X159987363Y-89364436D01*
X159982379Y-89434128D01*
X159969300Y-89459684D01*
X159893856Y-89572594D01*
X159893850Y-89572605D01*
X159833512Y-89718276D01*
X159833509Y-89718288D01*
X159802748Y-89872931D01*
X159802748Y-89872936D01*
X159802748Y-90030620D01*
X159802748Y-90030622D01*
X159802747Y-90030622D01*
X159831573Y-90175531D01*
X159833956Y-90199710D01*
X159833957Y-90209615D01*
X159833956Y-90209617D01*
X159833957Y-90209628D01*
X159833957Y-91406398D01*
X159814272Y-91473437D01*
X159761468Y-91519192D01*
X159692310Y-91529136D01*
X159685766Y-91528015D01*
X159531096Y-91497249D01*
X159531093Y-91497249D01*
X159373409Y-91497249D01*
X159373406Y-91497249D01*
X159218761Y-91528010D01*
X159218749Y-91528013D01*
X159073078Y-91588351D01*
X159073065Y-91588358D01*
X158941965Y-91675957D01*
X158941960Y-91675961D01*
X158901091Y-91716830D01*
X158839768Y-91750315D01*
X158770076Y-91745329D01*
X158765959Y-91743709D01*
X158733498Y-91730263D01*
X158733488Y-91730260D01*
X158578845Y-91699500D01*
X158578842Y-91699500D01*
X158421158Y-91699500D01*
X158421155Y-91699500D01*
X158266510Y-91730261D01*
X158266498Y-91730264D01*
X158120827Y-91790602D01*
X158120814Y-91790609D01*
X157989711Y-91878210D01*
X157989707Y-91878213D01*
X157878213Y-91989707D01*
X157878210Y-91989711D01*
X157790609Y-92120814D01*
X157790602Y-92120827D01*
X157730264Y-92266498D01*
X157730261Y-92266510D01*
X157699500Y-92421153D01*
X157699500Y-92578846D01*
X157730261Y-92733489D01*
X157730264Y-92733501D01*
X157790602Y-92879172D01*
X157790609Y-92879185D01*
X157878210Y-93010288D01*
X157878213Y-93010292D01*
X157989707Y-93121786D01*
X157989711Y-93121789D01*
X158120814Y-93209390D01*
X158120827Y-93209397D01*
X158266498Y-93269735D01*
X158266503Y-93269737D01*
X158421153Y-93300499D01*
X158421156Y-93300500D01*
X158421158Y-93300500D01*
X158578844Y-93300500D01*
X158578845Y-93300499D01*
X158733497Y-93269737D01*
X158879179Y-93209394D01*
X159010289Y-93121789D01*
X159051158Y-93080919D01*
X159112480Y-93047434D01*
X159182171Y-93052418D01*
X159186247Y-93054021D01*
X159218754Y-93067486D01*
X159218758Y-93067486D01*
X159218762Y-93067488D01*
X159373404Y-93098248D01*
X159373407Y-93098249D01*
X159373409Y-93098249D01*
X159531095Y-93098249D01*
X159591640Y-93086205D01*
X159685748Y-93067486D01*
X159685750Y-93067484D01*
X159685765Y-93067482D01*
X159755356Y-93073709D01*
X159810534Y-93116571D01*
X159833779Y-93182461D01*
X159833957Y-93189099D01*
X159833957Y-93599151D01*
X159814272Y-93666190D01*
X159761468Y-93711945D01*
X159692310Y-93721889D01*
X159685766Y-93720768D01*
X159578845Y-93699500D01*
X159578842Y-93699500D01*
X159421158Y-93699500D01*
X159421155Y-93699500D01*
X159266510Y-93730261D01*
X159266498Y-93730264D01*
X159120827Y-93790602D01*
X159120814Y-93790609D01*
X158992964Y-93876037D01*
X158926287Y-93896915D01*
X158924073Y-93896935D01*
X156272045Y-93896935D01*
X156231124Y-93907899D01*
X156231124Y-93907900D01*
X156193856Y-93917886D01*
X156119319Y-93937858D01*
X156119314Y-93937861D01*
X155982395Y-94016910D01*
X155982387Y-94016916D01*
X155878490Y-94120814D01*
X155870585Y-94128719D01*
X155870583Y-94128721D01*
X155710231Y-94289074D01*
X155583525Y-94415780D01*
X155522202Y-94449265D01*
X155495844Y-94452099D01*
X134696498Y-94452099D01*
X134629459Y-94432414D01*
X134583704Y-94379610D01*
X134573760Y-94310452D01*
X134602785Y-94246896D01*
X134608817Y-94240418D01*
X135462416Y-93386819D01*
X135523739Y-93353334D01*
X135550097Y-93350500D01*
X152663331Y-93350500D01*
X152663347Y-93350501D01*
X152670943Y-93350501D01*
X152829054Y-93350501D01*
X152829057Y-93350501D01*
X152981785Y-93309577D01*
X153047090Y-93271873D01*
X153118716Y-93230520D01*
X153230520Y-93118716D01*
X153230520Y-93118714D01*
X153240724Y-93108511D01*
X153240728Y-93108506D01*
X154040731Y-92308503D01*
X154102054Y-92275018D01*
X154171746Y-92280002D01*
X154227679Y-92321874D01*
X154252096Y-92387338D01*
X154252412Y-92396184D01*
X154252412Y-92451305D01*
X154283173Y-92605948D01*
X154283176Y-92605960D01*
X154343514Y-92751631D01*
X154343521Y-92751644D01*
X154431122Y-92882747D01*
X154431125Y-92882751D01*
X154542619Y-92994245D01*
X154542623Y-92994248D01*
X154673726Y-93081849D01*
X154673739Y-93081856D01*
X154819410Y-93142194D01*
X154819415Y-93142196D01*
X154974065Y-93172958D01*
X154974068Y-93172959D01*
X154974070Y-93172959D01*
X155131756Y-93172959D01*
X155131757Y-93172958D01*
X155286409Y-93142196D01*
X155432091Y-93081853D01*
X155563201Y-92994248D01*
X155674701Y-92882748D01*
X155762306Y-92751638D01*
X155822649Y-92605956D01*
X155853412Y-92451301D01*
X155853412Y-92293617D01*
X155853412Y-92287525D01*
X155855038Y-92287525D01*
X155866581Y-92226610D01*
X155889289Y-92195408D01*
X155952260Y-92132438D01*
X156039865Y-92001328D01*
X156040771Y-91999142D01*
X156077574Y-91910289D01*
X156100208Y-91855646D01*
X156114011Y-91786248D01*
X156146394Y-91724340D01*
X156188178Y-91695879D01*
X156192844Y-91693947D01*
X156323954Y-91606342D01*
X156435454Y-91494842D01*
X156523059Y-91363732D01*
X156583402Y-91218050D01*
X156614165Y-91063395D01*
X156614165Y-90905711D01*
X156614165Y-90905708D01*
X156614164Y-90905706D01*
X156598691Y-90827918D01*
X156583402Y-90751056D01*
X156577208Y-90736103D01*
X156523062Y-90605380D01*
X156523055Y-90605367D01*
X156481644Y-90543391D01*
X156460766Y-90476713D01*
X156479251Y-90409333D01*
X156531230Y-90362643D01*
X156584746Y-90350500D01*
X157447982Y-90350500D01*
X157515021Y-90370185D01*
X157535663Y-90386819D01*
X157823624Y-90674780D01*
X157857109Y-90736103D01*
X157857560Y-90738270D01*
X157873030Y-90816042D01*
X157873033Y-90816054D01*
X157933371Y-90961725D01*
X157933378Y-90961738D01*
X158020979Y-91092841D01*
X158020982Y-91092845D01*
X158132476Y-91204339D01*
X158132480Y-91204342D01*
X158263583Y-91291943D01*
X158263596Y-91291950D01*
X158371658Y-91336710D01*
X158409272Y-91352290D01*
X158563922Y-91383052D01*
X158563925Y-91383053D01*
X158563927Y-91383053D01*
X158721613Y-91383053D01*
X158721614Y-91383052D01*
X158876266Y-91352290D01*
X159021948Y-91291947D01*
X159153058Y-91204342D01*
X159264558Y-91092842D01*
X159352163Y-90961732D01*
X159412506Y-90816050D01*
X159443269Y-90661395D01*
X159443269Y-90503711D01*
X159443269Y-90503708D01*
X159443268Y-90503706D01*
X159426262Y-90418211D01*
X159412506Y-90349056D01*
X159388297Y-90290609D01*
X159352166Y-90203380D01*
X159352159Y-90203367D01*
X159264558Y-90072264D01*
X159264555Y-90072260D01*
X159153061Y-89960766D01*
X159153057Y-89960763D01*
X159021954Y-89873162D01*
X159021941Y-89873155D01*
X158876270Y-89812817D01*
X158876258Y-89812814D01*
X158721614Y-89782053D01*
X158721611Y-89782053D01*
X158680729Y-89782053D01*
X158613690Y-89762368D01*
X158593048Y-89745734D01*
X158235669Y-89388355D01*
X158228600Y-89381286D01*
X158228599Y-89381284D01*
X158159493Y-89312178D01*
X158127006Y-89252680D01*
X158126011Y-89250858D01*
X158130995Y-89181166D01*
X158158505Y-89144418D01*
X158172867Y-89125232D01*
X158235511Y-89101868D01*
X158238331Y-89100816D01*
X158247177Y-89100500D01*
X159699903Y-89100500D01*
X159766942Y-89120185D01*
G37*
%TD.AperFunction*%
%TA.AperFunction,Conductor*%
G36*
X173473711Y-91772713D02*
G01*
X173512749Y-91817766D01*
X173592478Y-91974242D01*
X173709284Y-92135012D01*
X173849801Y-92275529D01*
X174010571Y-92392335D01*
X174167597Y-92472344D01*
X174218392Y-92520317D01*
X174235187Y-92588138D01*
X174212650Y-92654273D01*
X174167597Y-92693312D01*
X174010831Y-92773189D01*
X173973548Y-92800277D01*
X173973547Y-92800278D01*
X174536323Y-93363052D01*
X174476184Y-93379167D01*
X174360345Y-93446046D01*
X174265763Y-93540628D01*
X174198884Y-93656467D01*
X174182769Y-93716605D01*
X173619995Y-93153830D01*
X173619994Y-93153831D01*
X173592908Y-93191112D01*
X173512750Y-93348430D01*
X173464775Y-93399226D01*
X173396954Y-93416021D01*
X173330819Y-93393483D01*
X173291780Y-93348430D01*
X173211623Y-93191115D01*
X173184533Y-93153831D01*
X172621759Y-93716605D01*
X172605646Y-93656467D01*
X172538767Y-93540628D01*
X172444185Y-93446046D01*
X172328346Y-93379167D01*
X172268207Y-93363052D01*
X172830981Y-92800279D01*
X172830980Y-92800278D01*
X172793697Y-92773189D01*
X172636933Y-92693313D01*
X172586137Y-92645338D01*
X172569342Y-92577517D01*
X172591880Y-92511382D01*
X172636932Y-92472344D01*
X172793959Y-92392335D01*
X172954729Y-92275529D01*
X173095246Y-92135012D01*
X173212052Y-91974242D01*
X173291780Y-91817766D01*
X173339755Y-91766971D01*
X173407576Y-91750176D01*
X173473711Y-91772713D01*
G37*
%TD.AperFunction*%
%TA.AperFunction,Conductor*%
G36*
X149921863Y-87733420D02*
G01*
X149967618Y-87786224D01*
X149977562Y-87855382D01*
X149948537Y-87918938D01*
X149942505Y-87925416D01*
X149878213Y-87989707D01*
X149878210Y-87989711D01*
X149790609Y-88120814D01*
X149790602Y-88120827D01*
X149730264Y-88266498D01*
X149730261Y-88266510D01*
X149699500Y-88421153D01*
X149699500Y-88578846D01*
X149730261Y-88733489D01*
X149730264Y-88733501D01*
X149790602Y-88879172D01*
X149790609Y-88879185D01*
X149878210Y-89010288D01*
X149878213Y-89010292D01*
X149989707Y-89121786D01*
X149989711Y-89121789D01*
X150120814Y-89209390D01*
X150120827Y-89209397D01*
X150266498Y-89269735D01*
X150266503Y-89269737D01*
X150421153Y-89300499D01*
X150421156Y-89300500D01*
X150421158Y-89300500D01*
X150578844Y-89300500D01*
X150578845Y-89300499D01*
X150733497Y-89269737D01*
X150846166Y-89223067D01*
X150879172Y-89209397D01*
X150879172Y-89209396D01*
X150879179Y-89209394D01*
X150884781Y-89205651D01*
X151010875Y-89121398D01*
X151077553Y-89100520D01*
X151079766Y-89100500D01*
X155250902Y-89100500D01*
X155317941Y-89120185D01*
X155363696Y-89172989D01*
X155373640Y-89242147D01*
X155344615Y-89305703D01*
X155338583Y-89312181D01*
X153473377Y-91177386D01*
X153412054Y-91210871D01*
X153342362Y-91205887D01*
X153286429Y-91164015D01*
X153271138Y-91137163D01*
X153222948Y-91020821D01*
X153222944Y-91020814D01*
X153135343Y-90889711D01*
X153135340Y-90889707D01*
X153023846Y-90778213D01*
X153023842Y-90778210D01*
X152892739Y-90690609D01*
X152892726Y-90690602D01*
X152747055Y-90630264D01*
X152747043Y-90630261D01*
X152592399Y-90599500D01*
X152592396Y-90599500D01*
X152434712Y-90599500D01*
X152434709Y-90599500D01*
X152280064Y-90630261D01*
X152280052Y-90630264D01*
X152134381Y-90690602D01*
X152134368Y-90690609D01*
X152003265Y-90778210D01*
X152003261Y-90778213D01*
X151891767Y-90889707D01*
X151891764Y-90889711D01*
X151804163Y-91020814D01*
X151804156Y-91020827D01*
X151743818Y-91166498D01*
X151743815Y-91166510D01*
X151713054Y-91321153D01*
X151713054Y-91478846D01*
X151743815Y-91633489D01*
X151743818Y-91633501D01*
X151804156Y-91779172D01*
X151804163Y-91779185D01*
X151891764Y-91910288D01*
X151891767Y-91910292D01*
X151919294Y-91937819D01*
X151952779Y-91999142D01*
X151947795Y-92068834D01*
X151905923Y-92124767D01*
X151840459Y-92149184D01*
X151831613Y-92149500D01*
X135170938Y-92149500D01*
X135163265Y-92150510D01*
X135094230Y-92139743D01*
X135041975Y-92093362D01*
X135023091Y-92026093D01*
X135043573Y-91959293D01*
X135059396Y-91939895D01*
X136038138Y-90961153D01*
X149699500Y-90961153D01*
X149699500Y-91118846D01*
X149730261Y-91273489D01*
X149730264Y-91273501D01*
X149790602Y-91419172D01*
X149790609Y-91419185D01*
X149878210Y-91550288D01*
X149878213Y-91550292D01*
X149989707Y-91661786D01*
X149989711Y-91661789D01*
X150120814Y-91749390D01*
X150120827Y-91749397D01*
X150234963Y-91796673D01*
X150266503Y-91809737D01*
X150421153Y-91840499D01*
X150421156Y-91840500D01*
X150421158Y-91840500D01*
X150578844Y-91840500D01*
X150578845Y-91840499D01*
X150733497Y-91809737D01*
X150846166Y-91763067D01*
X150879172Y-91749397D01*
X150879172Y-91749396D01*
X150879179Y-91749394D01*
X151010289Y-91661789D01*
X151121789Y-91550289D01*
X151209394Y-91419179D01*
X151269737Y-91273497D01*
X151300500Y-91118842D01*
X151300500Y-90961158D01*
X151300500Y-90961155D01*
X151300499Y-90961153D01*
X151280005Y-90858124D01*
X151269737Y-90806503D01*
X151269735Y-90806498D01*
X151209397Y-90660827D01*
X151209390Y-90660814D01*
X151121789Y-90529711D01*
X151121786Y-90529707D01*
X151010292Y-90418213D01*
X151010288Y-90418210D01*
X150879185Y-90330609D01*
X150879172Y-90330602D01*
X150733501Y-90270264D01*
X150733489Y-90270261D01*
X150578845Y-90239500D01*
X150578842Y-90239500D01*
X150421158Y-90239500D01*
X150421155Y-90239500D01*
X150266510Y-90270261D01*
X150266498Y-90270264D01*
X150120827Y-90330602D01*
X150120814Y-90330609D01*
X149989711Y-90418210D01*
X149989707Y-90418213D01*
X149878213Y-90529707D01*
X149878210Y-90529711D01*
X149790609Y-90660814D01*
X149790602Y-90660827D01*
X149730264Y-90806498D01*
X149730261Y-90806510D01*
X149699500Y-90961153D01*
X136038138Y-90961153D01*
X138111416Y-88887876D01*
X138172739Y-88854391D01*
X138199097Y-88851557D01*
X146162274Y-88851557D01*
X146162290Y-88851558D01*
X146169886Y-88851558D01*
X146327997Y-88851558D01*
X146328000Y-88851558D01*
X146480728Y-88810634D01*
X146541377Y-88775618D01*
X146617659Y-88731577D01*
X146729463Y-88619773D01*
X146729463Y-88619771D01*
X146739667Y-88609568D01*
X146739670Y-88609563D01*
X147599181Y-87750054D01*
X147660504Y-87716569D01*
X147686862Y-87713735D01*
X149854824Y-87713735D01*
X149921863Y-87733420D01*
G37*
%TD.AperFunction*%
%TA.AperFunction,Conductor*%
G36*
X157476520Y-85820185D02*
G01*
X157522275Y-85872989D01*
X157532219Y-85942147D01*
X157503194Y-86005703D01*
X157497162Y-86012181D01*
X157207672Y-86301669D01*
X157207665Y-86301677D01*
X157205886Y-86303457D01*
X157202519Y-86308495D01*
X157200356Y-86311361D01*
X157198722Y-86312573D01*
X157189074Y-86324328D01*
X157128212Y-86385191D01*
X157128208Y-86385197D01*
X157040609Y-86516297D01*
X157040602Y-86516310D01*
X156980264Y-86661981D01*
X156980261Y-86661990D01*
X156968889Y-86719161D01*
X156964178Y-86728165D01*
X156963454Y-86738302D01*
X156948257Y-86758602D01*
X156936503Y-86781072D01*
X156927671Y-86786101D01*
X156921582Y-86794235D01*
X156897825Y-86803095D01*
X156875787Y-86815645D01*
X156865638Y-86815100D01*
X156856118Y-86818652D01*
X156831339Y-86813261D01*
X156806017Y-86811904D01*
X156795956Y-86805564D01*
X156787845Y-86803800D01*
X156759591Y-86782649D01*
X156728532Y-86751590D01*
X156728530Y-86751587D01*
X156609659Y-86632716D01*
X156609658Y-86632715D01*
X156522846Y-86582595D01*
X156522846Y-86582594D01*
X156522842Y-86582593D01*
X156472727Y-86553658D01*
X156319999Y-86512734D01*
X156161885Y-86512734D01*
X156154289Y-86512734D01*
X156154273Y-86512735D01*
X151339652Y-86512735D01*
X151272613Y-86493050D01*
X151226858Y-86440246D01*
X151216914Y-86371088D01*
X151225091Y-86341282D01*
X151269737Y-86233497D01*
X151300500Y-86078842D01*
X151300500Y-85924500D01*
X151320185Y-85857461D01*
X151372989Y-85811706D01*
X151424500Y-85800500D01*
X157409481Y-85800500D01*
X157476520Y-85820185D01*
G37*
%TD.AperFunction*%
%TA.AperFunction,Conductor*%
G36*
X173184533Y-84391263D02*
G01*
X173185948Y-84389317D01*
X173241278Y-84346652D01*
X173310892Y-84340674D01*
X173372686Y-84373281D01*
X173407043Y-84434120D01*
X173410265Y-84462204D01*
X173410265Y-84502392D01*
X173416666Y-84561920D01*
X173416668Y-84561927D01*
X173466910Y-84696634D01*
X173466914Y-84696641D01*
X173553074Y-84811735D01*
X173553077Y-84811738D01*
X173668171Y-84897898D01*
X173668178Y-84897902D01*
X173802885Y-84948144D01*
X173802892Y-84948146D01*
X173862420Y-84954547D01*
X173862437Y-84954548D01*
X173901755Y-84954548D01*
X173968794Y-84974233D01*
X174014549Y-85027037D01*
X174024493Y-85096195D01*
X173995468Y-85159751D01*
X173974640Y-85178866D01*
X173849804Y-85269564D01*
X173849798Y-85269569D01*
X173709286Y-85410081D01*
X173592478Y-85570853D01*
X173512750Y-85727328D01*
X173464775Y-85778124D01*
X173396954Y-85794919D01*
X173330819Y-85772381D01*
X173291780Y-85727328D01*
X173212051Y-85570853D01*
X173146092Y-85480068D01*
X173095246Y-85410084D01*
X172954729Y-85269567D01*
X172793959Y-85152761D01*
X172636932Y-85072751D01*
X172586137Y-85024777D01*
X172569342Y-84956956D01*
X172591879Y-84890821D01*
X172636934Y-84851782D01*
X172793687Y-84771912D01*
X172830981Y-84744816D01*
X172268207Y-84182042D01*
X172328346Y-84165929D01*
X172444185Y-84099050D01*
X172538767Y-84004468D01*
X172605646Y-83888629D01*
X172621760Y-83828490D01*
X173184533Y-84391263D01*
G37*
%TD.AperFunction*%
%TA.AperFunction,Conductor*%
G36*
X180322636Y-65640309D02*
G01*
X180368391Y-65693113D01*
X180379597Y-65744624D01*
X180379597Y-75925061D01*
X180359912Y-75992100D01*
X180307108Y-76037855D01*
X180255597Y-76049061D01*
X173329007Y-76049061D01*
X173327830Y-76049137D01*
X173264750Y-76049137D01*
X172991773Y-76085071D01*
X172991759Y-76085074D01*
X172725798Y-76156336D01*
X172725782Y-76156341D01*
X172471421Y-76261699D01*
X172471410Y-76261705D01*
X172257975Y-76384930D01*
X172232955Y-76399375D01*
X172113875Y-76490746D01*
X172014511Y-76566990D01*
X171819805Y-76761693D01*
X171819027Y-76762708D01*
X171652195Y-76980124D01*
X171652188Y-76980135D01*
X171514517Y-77218585D01*
X171409144Y-77472975D01*
X171337878Y-77738941D01*
X171301940Y-78011918D01*
X171301939Y-78011934D01*
X171301939Y-78287265D01*
X171301940Y-78287281D01*
X171337878Y-78560258D01*
X171409144Y-78826224D01*
X171514517Y-79080614D01*
X171517420Y-79085642D01*
X171652188Y-79319065D01*
X171652191Y-79319069D01*
X171652195Y-79319075D01*
X171726934Y-79416476D01*
X171819808Y-79537510D01*
X172014508Y-79732207D01*
X172232955Y-79899825D01*
X172471412Y-80037496D01*
X172471418Y-80037498D01*
X172471421Y-80037500D01*
X172725782Y-80142858D01*
X172725788Y-80142859D01*
X172725798Y-80142864D01*
X172991761Y-80214126D01*
X172991767Y-80214126D01*
X172991773Y-80214128D01*
X173075632Y-80225167D01*
X173264751Y-80250063D01*
X173402424Y-80250061D01*
X180255597Y-80250061D01*
X180322636Y-80269746D01*
X180368391Y-80322550D01*
X180379597Y-80374061D01*
X180379597Y-109866187D01*
X180359912Y-109933226D01*
X180307108Y-109978981D01*
X180255597Y-109990187D01*
X173468299Y-109990187D01*
X173468284Y-109990183D01*
X173402392Y-109990187D01*
X173328761Y-109990187D01*
X173328303Y-109990216D01*
X173264726Y-109990219D01*
X172991743Y-110026170D01*
X172991738Y-110026171D01*
X172725792Y-110097443D01*
X172471424Y-110202817D01*
X172471414Y-110202822D01*
X172232974Y-110340498D01*
X172232964Y-110340504D01*
X172014538Y-110508119D01*
X172014534Y-110508122D01*
X171819851Y-110702813D01*
X171819849Y-110702816D01*
X171652235Y-110921266D01*
X171652231Y-110921273D01*
X171514578Y-111159703D01*
X171514578Y-111159704D01*
X171514574Y-111159711D01*
X171514574Y-111159713D01*
X171493995Y-111209397D01*
X171409211Y-111414092D01*
X171337950Y-111680044D01*
X171302013Y-111953030D01*
X171302013Y-112228369D01*
X171337950Y-112501355D01*
X171401440Y-112738306D01*
X171409211Y-112767307D01*
X171514574Y-113021687D01*
X171514576Y-113021691D01*
X171514578Y-113021695D01*
X171514578Y-113021696D01*
X171652231Y-113260126D01*
X171652235Y-113260133D01*
X171819849Y-113478583D01*
X171819851Y-113478586D01*
X171966054Y-113624795D01*
X172014537Y-113673280D01*
X172232972Y-113840901D01*
X172443230Y-113962303D01*
X172471414Y-113978577D01*
X172471424Y-113978582D01*
X172725792Y-114083956D01*
X172991738Y-114155228D01*
X172991743Y-114155229D01*
X173264724Y-114191180D01*
X173264733Y-114191180D01*
X173336513Y-114191183D01*
X173336526Y-114191187D01*
X173402392Y-114191187D01*
X173468284Y-114191191D01*
X173468288Y-114191189D01*
X173476336Y-114191190D01*
X173476399Y-114191187D01*
X180255597Y-114191187D01*
X180322636Y-114210872D01*
X180368391Y-114263676D01*
X180379597Y-114315187D01*
X180379597Y-124495624D01*
X180359912Y-124562663D01*
X180307108Y-124608418D01*
X180255597Y-124619624D01*
X121504597Y-124619624D01*
X121437558Y-124599939D01*
X121391803Y-124547135D01*
X121380597Y-124495624D01*
X121380597Y-120921153D01*
X142699500Y-120921153D01*
X142699500Y-121078846D01*
X142730261Y-121233489D01*
X142730264Y-121233501D01*
X142790602Y-121379172D01*
X142790609Y-121379185D01*
X142878210Y-121510288D01*
X142878213Y-121510292D01*
X142989707Y-121621786D01*
X142989711Y-121621789D01*
X143120814Y-121709390D01*
X143120827Y-121709397D01*
X143266498Y-121769735D01*
X143266503Y-121769737D01*
X143421153Y-121800499D01*
X143421156Y-121800500D01*
X143421158Y-121800500D01*
X143578844Y-121800500D01*
X143578845Y-121800499D01*
X143733497Y-121769737D01*
X143879179Y-121709394D01*
X144010289Y-121621789D01*
X144121789Y-121510289D01*
X144209394Y-121379179D01*
X144269737Y-121233497D01*
X144300500Y-121078842D01*
X144300500Y-120921158D01*
X144300500Y-120921155D01*
X144300499Y-120921153D01*
X144269738Y-120766510D01*
X144269737Y-120766503D01*
X144269735Y-120766498D01*
X144209397Y-120620827D01*
X144209390Y-120620814D01*
X144121789Y-120489711D01*
X144121786Y-120489707D01*
X144010292Y-120378213D01*
X144010288Y-120378210D01*
X143879185Y-120290609D01*
X143879172Y-120290602D01*
X143733501Y-120230264D01*
X143733489Y-120230261D01*
X143578845Y-120199500D01*
X143578842Y-120199500D01*
X143421158Y-120199500D01*
X143421155Y-120199500D01*
X143266510Y-120230261D01*
X143266498Y-120230264D01*
X143120827Y-120290602D01*
X143120814Y-120290609D01*
X142989711Y-120378210D01*
X142989707Y-120378213D01*
X142878213Y-120489707D01*
X142878210Y-120489711D01*
X142790609Y-120620814D01*
X142790602Y-120620827D01*
X142730264Y-120766498D01*
X142730261Y-120766510D01*
X142699500Y-120921153D01*
X121380597Y-120921153D01*
X121380597Y-115371173D01*
X132467917Y-115371173D01*
X132467917Y-115528866D01*
X132498678Y-115683509D01*
X132498681Y-115683521D01*
X132559019Y-115829192D01*
X132559026Y-115829205D01*
X132646627Y-115960308D01*
X132646630Y-115960312D01*
X132758124Y-116071806D01*
X132758128Y-116071809D01*
X132889231Y-116159410D01*
X132889244Y-116159417D01*
X133034915Y-116219755D01*
X133034920Y-116219757D01*
X133189570Y-116250519D01*
X133189573Y-116250520D01*
X133189575Y-116250520D01*
X133347261Y-116250520D01*
X133347262Y-116250519D01*
X133501914Y-116219757D01*
X133647596Y-116159414D01*
X133778706Y-116071809D01*
X133890206Y-115960309D01*
X133977811Y-115829199D01*
X134038154Y-115683517D01*
X134068917Y-115528862D01*
X134068917Y-115371178D01*
X134068917Y-115371175D01*
X134068916Y-115371173D01*
X134048097Y-115266510D01*
X134038154Y-115216523D01*
X133998516Y-115120827D01*
X133977814Y-115070847D01*
X133977807Y-115070834D01*
X133890206Y-114939731D01*
X133890203Y-114939727D01*
X133778709Y-114828233D01*
X133778705Y-114828230D01*
X133647602Y-114740629D01*
X133647589Y-114740622D01*
X133501918Y-114680284D01*
X133501906Y-114680281D01*
X133347262Y-114649520D01*
X133347259Y-114649520D01*
X133189575Y-114649520D01*
X133189572Y-114649520D01*
X133034927Y-114680281D01*
X133034915Y-114680284D01*
X132889244Y-114740622D01*
X132889231Y-114740629D01*
X132758128Y-114828230D01*
X132758124Y-114828233D01*
X132646630Y-114939727D01*
X132646627Y-114939731D01*
X132559026Y-115070834D01*
X132559019Y-115070847D01*
X132498681Y-115216518D01*
X132498678Y-115216530D01*
X132467917Y-115371173D01*
X121380597Y-115371173D01*
X121380597Y-114315187D01*
X121400282Y-114248148D01*
X121453086Y-114202393D01*
X121504597Y-114191187D01*
X128306346Y-114191187D01*
X128306420Y-114191209D01*
X128357737Y-114191212D01*
X128357737Y-114191213D01*
X128495419Y-114191223D01*
X128768429Y-114155300D01*
X129034414Y-114084048D01*
X129288823Y-113978686D01*
X129527301Y-113841017D01*
X129745769Y-113673396D01*
X129940488Y-113478693D01*
X130108126Y-113260238D01*
X130245814Y-113021770D01*
X130351196Y-112767369D01*
X130354958Y-112753333D01*
X130422468Y-112501393D01*
X130422468Y-112501392D01*
X130422469Y-112501390D01*
X130458413Y-112228382D01*
X130458413Y-111953019D01*
X130422469Y-111680012D01*
X130351196Y-111414032D01*
X130351193Y-111414026D01*
X130351192Y-111414021D01*
X130257764Y-111188482D01*
X130245814Y-111159632D01*
X130159588Y-111010292D01*
X130108126Y-110921161D01*
X129988065Y-110764706D01*
X129940489Y-110702708D01*
X129745770Y-110508005D01*
X129527303Y-110340384D01*
X129504785Y-110327385D01*
X129288826Y-110202715D01*
X129288818Y-110202711D01*
X129034420Y-110097354D01*
X129034412Y-110097351D01*
X128768427Y-110026099D01*
X128768419Y-110026098D01*
X128495434Y-109990178D01*
X128495422Y-109990177D01*
X128495420Y-109990177D01*
X128495416Y-109990177D01*
X128357739Y-109990187D01*
X121504597Y-109990187D01*
X121437558Y-109970502D01*
X121391803Y-109917698D01*
X121380597Y-109866187D01*
X121380597Y-101950088D01*
X124418865Y-101950088D01*
X124418865Y-102107781D01*
X124449626Y-102262424D01*
X124449629Y-102262436D01*
X124509967Y-102408107D01*
X124509974Y-102408120D01*
X124597575Y-102539223D01*
X124597578Y-102539227D01*
X124625455Y-102567104D01*
X124658940Y-102628427D01*
X124653956Y-102698119D01*
X124630883Y-102734031D01*
X124632072Y-102735007D01*
X124628208Y-102739714D01*
X124540609Y-102870814D01*
X124540602Y-102870827D01*
X124480264Y-103016498D01*
X124480261Y-103016510D01*
X124449500Y-103171153D01*
X124449500Y-103328846D01*
X124480261Y-103483489D01*
X124480264Y-103483501D01*
X124540602Y-103629172D01*
X124540609Y-103629185D01*
X124628210Y-103760288D01*
X124628213Y-103760292D01*
X124739707Y-103871786D01*
X124739711Y-103871789D01*
X124870814Y-103959390D01*
X124870827Y-103959397D01*
X125008683Y-104016498D01*
X125016503Y-104019737D01*
X125171153Y-104050499D01*
X125171156Y-104050500D01*
X125171158Y-104050500D01*
X125328844Y-104050500D01*
X125328845Y-104050499D01*
X125483497Y-104019737D01*
X125629179Y-103959394D01*
X125760289Y-103871789D01*
X125871789Y-103760289D01*
X125959394Y-103629179D01*
X125962854Y-103620827D01*
X125991984Y-103550499D01*
X126019737Y-103483497D01*
X126024531Y-103459397D01*
X126026133Y-103451344D01*
X126058517Y-103389433D01*
X126119233Y-103354859D01*
X126189003Y-103358598D01*
X126245675Y-103399464D01*
X126262311Y-103428083D01*
X126290602Y-103496386D01*
X126290609Y-103496399D01*
X126378210Y-103627502D01*
X126378213Y-103627506D01*
X134663181Y-111912472D01*
X134696666Y-111973795D01*
X134699500Y-112000153D01*
X134699500Y-116578846D01*
X134730261Y-116733489D01*
X134730264Y-116733501D01*
X134790602Y-116879172D01*
X134790609Y-116879185D01*
X134878210Y-117010288D01*
X134878213Y-117010292D01*
X137514794Y-119646872D01*
X137626294Y-119758372D01*
X137757404Y-119845977D01*
X137860416Y-119888645D01*
X137903085Y-119906320D01*
X138057735Y-119937082D01*
X138057738Y-119937083D01*
X138057740Y-119937083D01*
X139078844Y-119937083D01*
X139078845Y-119937082D01*
X139233497Y-119906320D01*
X139379179Y-119845977D01*
X139510289Y-119758372D01*
X139621789Y-119646872D01*
X139709394Y-119515762D01*
X139769737Y-119370080D01*
X139800500Y-119215425D01*
X139800500Y-119057741D01*
X139800500Y-119057738D01*
X139800499Y-119057736D01*
X139769738Y-118903093D01*
X139769737Y-118903086D01*
X139769735Y-118903081D01*
X139709397Y-118757410D01*
X139709390Y-118757397D01*
X139621789Y-118626294D01*
X139621786Y-118626290D01*
X139510292Y-118514796D01*
X139510288Y-118514793D01*
X139379185Y-118427192D01*
X139379172Y-118427185D01*
X139233501Y-118366847D01*
X139233489Y-118366844D01*
X139078845Y-118336083D01*
X139078842Y-118336083D01*
X138519523Y-118336083D01*
X138452484Y-118316398D01*
X138431842Y-118299764D01*
X137053231Y-116921153D01*
X148699500Y-116921153D01*
X148699500Y-117078846D01*
X148730261Y-117233489D01*
X148730264Y-117233501D01*
X148790602Y-117379172D01*
X148790609Y-117379185D01*
X148878210Y-117510288D01*
X148878213Y-117510292D01*
X148989707Y-117621786D01*
X148989711Y-117621789D01*
X149120814Y-117709390D01*
X149120827Y-117709397D01*
X149266498Y-117769735D01*
X149266503Y-117769737D01*
X149421153Y-117800499D01*
X149421156Y-117800500D01*
X149421158Y-117800500D01*
X149578844Y-117800500D01*
X149578845Y-117800499D01*
X149733497Y-117769737D01*
X149879179Y-117709394D01*
X150010289Y-117621789D01*
X150121789Y-117510289D01*
X150209394Y-117379179D01*
X150269737Y-117233497D01*
X150300500Y-117078842D01*
X150300500Y-116921158D01*
X150300500Y-116921155D01*
X150300499Y-116921153D01*
X150269738Y-116766510D01*
X150269737Y-116766503D01*
X150256062Y-116733489D01*
X150209397Y-116620827D01*
X150209390Y-116620814D01*
X150121789Y-116489711D01*
X150121786Y-116489707D01*
X150010292Y-116378213D01*
X150010288Y-116378210D01*
X149879185Y-116290609D01*
X149879172Y-116290602D01*
X149733501Y-116230264D01*
X149733489Y-116230261D01*
X149578845Y-116199500D01*
X149578842Y-116199500D01*
X149421158Y-116199500D01*
X149421155Y-116199500D01*
X149266510Y-116230261D01*
X149266498Y-116230264D01*
X149120827Y-116290602D01*
X149120814Y-116290609D01*
X148989711Y-116378210D01*
X148989707Y-116378213D01*
X148878213Y-116489707D01*
X148878210Y-116489711D01*
X148790609Y-116620814D01*
X148790602Y-116620827D01*
X148730264Y-116766498D01*
X148730261Y-116766510D01*
X148699500Y-116921153D01*
X137053231Y-116921153D01*
X136336819Y-116204741D01*
X136303334Y-116143418D01*
X136300500Y-116117060D01*
X136300500Y-111538369D01*
X136300499Y-111538367D01*
X136269738Y-111383724D01*
X136269737Y-111383717D01*
X136235268Y-111300500D01*
X136209397Y-111238041D01*
X136209390Y-111238028D01*
X136121789Y-111106925D01*
X136121786Y-111106921D01*
X136005970Y-110991105D01*
X136005947Y-110991084D01*
X131517611Y-106502747D01*
X131436017Y-106421153D01*
X140699500Y-106421153D01*
X140699500Y-106578846D01*
X140730261Y-106733489D01*
X140730264Y-106733501D01*
X140790602Y-106879172D01*
X140790609Y-106879185D01*
X140878210Y-107010288D01*
X140878213Y-107010292D01*
X140989707Y-107121786D01*
X140989711Y-107121789D01*
X141120814Y-107209390D01*
X141120827Y-107209397D01*
X141266498Y-107269735D01*
X141266503Y-107269737D01*
X141421153Y-107300499D01*
X141421156Y-107300500D01*
X141421158Y-107300500D01*
X141578844Y-107300500D01*
X141578845Y-107300499D01*
X141733497Y-107269737D01*
X141879179Y-107209394D01*
X142010289Y-107121789D01*
X142121789Y-107010289D01*
X142209394Y-106879179D01*
X142215488Y-106864468D01*
X142269735Y-106733501D01*
X142269737Y-106733497D01*
X142300500Y-106578842D01*
X142300500Y-106421158D01*
X142300500Y-106421155D01*
X142300499Y-106421153D01*
X142269738Y-106266510D01*
X142269737Y-106266503D01*
X142227913Y-106165530D01*
X142209397Y-106120827D01*
X142209390Y-106120814D01*
X142121789Y-105989711D01*
X142121786Y-105989707D01*
X142010292Y-105878213D01*
X142010288Y-105878210D01*
X141879185Y-105790609D01*
X141879172Y-105790602D01*
X141733501Y-105730264D01*
X141733489Y-105730261D01*
X141578845Y-105699500D01*
X141578842Y-105699500D01*
X141421158Y-105699500D01*
X141421155Y-105699500D01*
X141266510Y-105730261D01*
X141266498Y-105730264D01*
X141120827Y-105790602D01*
X141120814Y-105790609D01*
X140989711Y-105878210D01*
X140989707Y-105878213D01*
X140878213Y-105989707D01*
X140878210Y-105989711D01*
X140790609Y-106120814D01*
X140790602Y-106120827D01*
X140730264Y-106266498D01*
X140730261Y-106266510D01*
X140699500Y-106421153D01*
X131436017Y-106421153D01*
X128766065Y-103751201D01*
X128732580Y-103689878D01*
X128737564Y-103620186D01*
X128779436Y-103564253D01*
X128844900Y-103539836D01*
X128877938Y-103541903D01*
X128921156Y-103550500D01*
X128921158Y-103550500D01*
X129078844Y-103550500D01*
X129078845Y-103550499D01*
X129233497Y-103519737D01*
X129379179Y-103459394D01*
X129510289Y-103371789D01*
X129621789Y-103260289D01*
X129709394Y-103129179D01*
X129769737Y-102983497D01*
X129800500Y-102828842D01*
X129800500Y-102671158D01*
X129800500Y-102671155D01*
X129800499Y-102671153D01*
X129787466Y-102605634D01*
X129769737Y-102516503D01*
X129769735Y-102516498D01*
X129709397Y-102370827D01*
X129709390Y-102370814D01*
X129621398Y-102239125D01*
X129600520Y-102172447D01*
X129600500Y-102170234D01*
X129600500Y-97450154D01*
X129620185Y-97383115D01*
X129636819Y-97362473D01*
X130729812Y-96269480D01*
X131838891Y-95160400D01*
X131858892Y-95149479D01*
X131876278Y-95134740D01*
X131888972Y-95133054D01*
X131900212Y-95126917D01*
X131922947Y-95128542D01*
X131945539Y-95125543D01*
X131957128Y-95130987D01*
X131969904Y-95131901D01*
X131988151Y-95145561D01*
X132008778Y-95155251D01*
X132015585Y-95166098D01*
X132025837Y-95173773D01*
X132033801Y-95195126D01*
X132045917Y-95214433D01*
X132047094Y-95230765D01*
X132050254Y-95239237D01*
X132050563Y-95249420D01*
X132050396Y-95264861D01*
X132048499Y-95271943D01*
X132048499Y-95430057D01*
X132048500Y-95430060D01*
X132048500Y-95440746D01*
X132048500Y-102562330D01*
X132048499Y-102562348D01*
X132048499Y-102728054D01*
X132048498Y-102728054D01*
X132089423Y-102880785D01*
X132089424Y-102880788D01*
X132091116Y-102883718D01*
X132091119Y-102883723D01*
X132168477Y-103017712D01*
X132168481Y-103017717D01*
X132287349Y-103136585D01*
X132287355Y-103136590D01*
X132415425Y-103264660D01*
X132448910Y-103325983D01*
X132449361Y-103328149D01*
X132480261Y-103483491D01*
X132480264Y-103483501D01*
X132540602Y-103629172D01*
X132540609Y-103629185D01*
X132628210Y-103760288D01*
X132628213Y-103760292D01*
X132739707Y-103871786D01*
X132739711Y-103871789D01*
X132870814Y-103959390D01*
X132870827Y-103959397D01*
X133008683Y-104016498D01*
X133016503Y-104019737D01*
X133171153Y-104050499D01*
X133171156Y-104050500D01*
X133171158Y-104050500D01*
X133328844Y-104050500D01*
X133328845Y-104050499D01*
X133483497Y-104019737D01*
X133629179Y-103959394D01*
X133686411Y-103921153D01*
X145699500Y-103921153D01*
X145699500Y-104078846D01*
X145730261Y-104233489D01*
X145730264Y-104233501D01*
X145790602Y-104379172D01*
X145790609Y-104379185D01*
X145878210Y-104510288D01*
X145878213Y-104510292D01*
X145989707Y-104621786D01*
X145989711Y-104621789D01*
X146120814Y-104709390D01*
X146120827Y-104709397D01*
X146266498Y-104769735D01*
X146266503Y-104769737D01*
X146402502Y-104796789D01*
X146421153Y-104800499D01*
X146421156Y-104800500D01*
X146421158Y-104800500D01*
X146578844Y-104800500D01*
X146578845Y-104800499D01*
X146733497Y-104769737D01*
X146846166Y-104723067D01*
X146879172Y-104709397D01*
X146879172Y-104709396D01*
X146879179Y-104709394D01*
X147010289Y-104621789D01*
X147121789Y-104510289D01*
X147209394Y-104379179D01*
X147269737Y-104233497D01*
X147282138Y-104171153D01*
X150199500Y-104171153D01*
X150199500Y-104328846D01*
X150230261Y-104483489D01*
X150230264Y-104483501D01*
X150290602Y-104629172D01*
X150290609Y-104629185D01*
X150378210Y-104760288D01*
X150378213Y-104760292D01*
X150489707Y-104871786D01*
X150489711Y-104871789D01*
X150620814Y-104959390D01*
X150620827Y-104959397D01*
X150766498Y-105019735D01*
X150766503Y-105019737D01*
X150921153Y-105050499D01*
X150921156Y-105050500D01*
X150921158Y-105050500D01*
X151078844Y-105050500D01*
X151078845Y-105050499D01*
X151233497Y-105019737D01*
X151379179Y-104959394D01*
X151510289Y-104871789D01*
X151621789Y-104760289D01*
X151709394Y-104629179D01*
X151769737Y-104483497D01*
X151800500Y-104328842D01*
X151800500Y-104171158D01*
X151800500Y-104171155D01*
X151800499Y-104171153D01*
X151794476Y-104140874D01*
X151769737Y-104016503D01*
X151746080Y-103959390D01*
X151709397Y-103870827D01*
X151709390Y-103870814D01*
X151621789Y-103739711D01*
X151621786Y-103739707D01*
X151510292Y-103628213D01*
X151510288Y-103628210D01*
X151379185Y-103540609D01*
X151379172Y-103540602D01*
X151233501Y-103480264D01*
X151233489Y-103480261D01*
X151078845Y-103449500D01*
X151078842Y-103449500D01*
X150921158Y-103449500D01*
X150921155Y-103449500D01*
X150766510Y-103480261D01*
X150766498Y-103480264D01*
X150620827Y-103540602D01*
X150620814Y-103540609D01*
X150489711Y-103628210D01*
X150489707Y-103628213D01*
X150378213Y-103739707D01*
X150378210Y-103739711D01*
X150290609Y-103870814D01*
X150290602Y-103870827D01*
X150230264Y-104016498D01*
X150230261Y-104016510D01*
X150199500Y-104171153D01*
X147282138Y-104171153D01*
X147293923Y-104111908D01*
X147300500Y-104078844D01*
X147300500Y-103921155D01*
X147300499Y-103921153D01*
X147281847Y-103827385D01*
X147269737Y-103766503D01*
X147263399Y-103751201D01*
X147209397Y-103620827D01*
X147209390Y-103620814D01*
X147121789Y-103489711D01*
X147121786Y-103489707D01*
X147010292Y-103378213D01*
X147010288Y-103378210D01*
X146879185Y-103290609D01*
X146879172Y-103290602D01*
X146733501Y-103230264D01*
X146733489Y-103230261D01*
X146578845Y-103199500D01*
X146578842Y-103199500D01*
X146421158Y-103199500D01*
X146421155Y-103199500D01*
X146266510Y-103230261D01*
X146266498Y-103230264D01*
X146120827Y-103290602D01*
X146120814Y-103290609D01*
X145989711Y-103378210D01*
X145989707Y-103378213D01*
X145878213Y-103489707D01*
X145878210Y-103489711D01*
X145790609Y-103620814D01*
X145790602Y-103620827D01*
X145730264Y-103766498D01*
X145730261Y-103766510D01*
X145699500Y-103921153D01*
X133686411Y-103921153D01*
X133760289Y-103871789D01*
X133761264Y-103870814D01*
X133804694Y-103827385D01*
X133871786Y-103760292D01*
X133871789Y-103760289D01*
X133959394Y-103629179D01*
X133962854Y-103620827D01*
X133991984Y-103550499D01*
X134019737Y-103483497D01*
X134050500Y-103328842D01*
X134050500Y-103171158D01*
X134050500Y-103171155D01*
X134050499Y-103171153D01*
X134024087Y-103038372D01*
X134019737Y-103016503D01*
X134006062Y-102983489D01*
X133959397Y-102870827D01*
X133959390Y-102870814D01*
X133871789Y-102739711D01*
X133871786Y-102739707D01*
X133760292Y-102628213D01*
X133760288Y-102628210D01*
X133629185Y-102540609D01*
X133629172Y-102540602D01*
X133483501Y-102480264D01*
X133483491Y-102480261D01*
X133349308Y-102453570D01*
X133287397Y-102421185D01*
X133252823Y-102360469D01*
X133249500Y-102331953D01*
X133249500Y-101171153D01*
X145699500Y-101171153D01*
X145699500Y-101328846D01*
X145730261Y-101483489D01*
X145730264Y-101483501D01*
X145790602Y-101629172D01*
X145790609Y-101629185D01*
X145878210Y-101760288D01*
X145878213Y-101760292D01*
X145989707Y-101871786D01*
X145989711Y-101871789D01*
X146120814Y-101959390D01*
X146120827Y-101959397D01*
X146266498Y-102019735D01*
X146266503Y-102019737D01*
X146421153Y-102050499D01*
X146421156Y-102050500D01*
X146421158Y-102050500D01*
X146578844Y-102050500D01*
X146578845Y-102050499D01*
X146733497Y-102019737D01*
X146879179Y-101959394D01*
X146879185Y-101959390D01*
X147010875Y-101871398D01*
X147077553Y-101850520D01*
X147079766Y-101850500D01*
X151920234Y-101850500D01*
X151987273Y-101870185D01*
X151989125Y-101871398D01*
X152120814Y-101959390D01*
X152120827Y-101959397D01*
X152266498Y-102019735D01*
X152266503Y-102019737D01*
X152421153Y-102050499D01*
X152421156Y-102050500D01*
X152421158Y-102050500D01*
X152578844Y-102050500D01*
X152578845Y-102050499D01*
X152733497Y-102019737D01*
X152879179Y-101959394D01*
X153010289Y-101871789D01*
X153121789Y-101760289D01*
X153209394Y-101629179D01*
X153269737Y-101483497D01*
X153300500Y-101328842D01*
X153300500Y-101171158D01*
X153300500Y-101171155D01*
X153300499Y-101171153D01*
X153269738Y-101016510D01*
X153269737Y-101016503D01*
X153257896Y-100987915D01*
X153209397Y-100870827D01*
X153209390Y-100870814D01*
X153121789Y-100739711D01*
X153121786Y-100739707D01*
X153010292Y-100628213D01*
X153010288Y-100628210D01*
X152879185Y-100540609D01*
X152879172Y-100540602D01*
X152733501Y-100480264D01*
X152733489Y-100480261D01*
X152578845Y-100449500D01*
X152578842Y-100449500D01*
X152421158Y-100449500D01*
X152421155Y-100449500D01*
X152266510Y-100480261D01*
X152266498Y-100480264D01*
X152120827Y-100540602D01*
X152120814Y-100540609D01*
X151989125Y-100628602D01*
X151922447Y-100649480D01*
X151920234Y-100649500D01*
X147079766Y-100649500D01*
X147012727Y-100629815D01*
X147010875Y-100628602D01*
X146879185Y-100540609D01*
X146879172Y-100540602D01*
X146733501Y-100480264D01*
X146733489Y-100480261D01*
X146578845Y-100449500D01*
X146578842Y-100449500D01*
X146421158Y-100449500D01*
X146421155Y-100449500D01*
X146266510Y-100480261D01*
X146266498Y-100480264D01*
X146120827Y-100540602D01*
X146120814Y-100540609D01*
X145989711Y-100628210D01*
X145989707Y-100628213D01*
X145878213Y-100739707D01*
X145878210Y-100739711D01*
X145790609Y-100870814D01*
X145790602Y-100870827D01*
X145730264Y-101016498D01*
X145730261Y-101016510D01*
X145699500Y-101171153D01*
X133249500Y-101171153D01*
X133249500Y-99168046D01*
X133269185Y-99101007D01*
X133321989Y-99055252D01*
X133349309Y-99046429D01*
X133378848Y-99040552D01*
X133483497Y-99019737D01*
X133629179Y-98959394D01*
X133760289Y-98871789D01*
X133871789Y-98760289D01*
X133959394Y-98629179D01*
X134019737Y-98483497D01*
X134050500Y-98328842D01*
X134050638Y-98328150D01*
X134083023Y-98266239D01*
X134084518Y-98264716D01*
X134962416Y-97386819D01*
X135023739Y-97353334D01*
X135050097Y-97350500D01*
X145739241Y-97350500D01*
X145806280Y-97370185D01*
X145852035Y-97422989D01*
X145861979Y-97492147D01*
X145842343Y-97543391D01*
X145790609Y-97620815D01*
X145790602Y-97620827D01*
X145730264Y-97766498D01*
X145730261Y-97766510D01*
X145699500Y-97921153D01*
X145699500Y-98078846D01*
X145730261Y-98233489D01*
X145730264Y-98233501D01*
X145790602Y-98379172D01*
X145790609Y-98379185D01*
X145878210Y-98510288D01*
X145878213Y-98510292D01*
X145989707Y-98621786D01*
X145989711Y-98621789D01*
X146120814Y-98709390D01*
X146120827Y-98709397D01*
X146251578Y-98763555D01*
X146266503Y-98769737D01*
X146421153Y-98800499D01*
X146421156Y-98800500D01*
X146421158Y-98800500D01*
X146578844Y-98800500D01*
X146578845Y-98800499D01*
X146733497Y-98769737D01*
X146879179Y-98709394D01*
X147010289Y-98621789D01*
X147121789Y-98510289D01*
X147209394Y-98379179D01*
X147269737Y-98233497D01*
X147300500Y-98078842D01*
X147300500Y-97921158D01*
X147300500Y-97921155D01*
X147300499Y-97921153D01*
X147269737Y-97766503D01*
X147252686Y-97725338D01*
X147209397Y-97620827D01*
X147209395Y-97620823D01*
X147209394Y-97620821D01*
X147194387Y-97598361D01*
X147157657Y-97543391D01*
X147136779Y-97476714D01*
X147155263Y-97409334D01*
X147207242Y-97362643D01*
X147260759Y-97350500D01*
X157849319Y-97350500D01*
X157916358Y-97370185D01*
X157962113Y-97422989D01*
X157972057Y-97492147D01*
X157943032Y-97555703D01*
X157937000Y-97562181D01*
X157838987Y-97660193D01*
X157838984Y-97660197D01*
X157751383Y-97791300D01*
X157751376Y-97791313D01*
X157691038Y-97936984D01*
X157691035Y-97936996D01*
X157660274Y-98091639D01*
X157660274Y-98249332D01*
X157691035Y-98403975D01*
X157691038Y-98403987D01*
X157751376Y-98549658D01*
X157751383Y-98549671D01*
X157838984Y-98680774D01*
X157838987Y-98680778D01*
X157950481Y-98792272D01*
X157950485Y-98792275D01*
X158081588Y-98879876D01*
X158081601Y-98879883D01*
X158227272Y-98940221D01*
X158227277Y-98940223D01*
X158323671Y-98959397D01*
X158381927Y-98970985D01*
X158381930Y-98970986D01*
X158381932Y-98970986D01*
X158539618Y-98970986D01*
X158539619Y-98970985D01*
X158694271Y-98940223D01*
X158827124Y-98885194D01*
X158839946Y-98879883D01*
X158839946Y-98879882D01*
X158839953Y-98879880D01*
X158971063Y-98792275D01*
X159082563Y-98680775D01*
X159170168Y-98549665D01*
X159170169Y-98549662D01*
X159170171Y-98549659D01*
X159212233Y-98448110D01*
X159229966Y-98405298D01*
X159234599Y-98398364D01*
X159235697Y-98393319D01*
X159256845Y-98365071D01*
X159266335Y-98355581D01*
X159327659Y-98322100D01*
X159354011Y-98319268D01*
X163770500Y-98319268D01*
X163837539Y-98338953D01*
X163883294Y-98391757D01*
X163894500Y-98443268D01*
X163894500Y-98443419D01*
X163874815Y-98510458D01*
X163858181Y-98531100D01*
X163789869Y-98599412D01*
X163749641Y-98626292D01*
X163605280Y-98686087D01*
X163605271Y-98686092D01*
X163474168Y-98773693D01*
X163474164Y-98773696D01*
X163362670Y-98885190D01*
X163362667Y-98885194D01*
X163275066Y-99016297D01*
X163275059Y-99016310D01*
X163214721Y-99161981D01*
X163214718Y-99161993D01*
X163183957Y-99316636D01*
X163183957Y-99474329D01*
X163214718Y-99628972D01*
X163214721Y-99628984D01*
X163275059Y-99774655D01*
X163275066Y-99774668D01*
X163362667Y-99905771D01*
X163362670Y-99905775D01*
X163474164Y-100017269D01*
X163474168Y-100017272D01*
X163605271Y-100104873D01*
X163605284Y-100104880D01*
X163725557Y-100154698D01*
X163750960Y-100165220D01*
X163877638Y-100190418D01*
X163905610Y-100195982D01*
X163905613Y-100195983D01*
X163905615Y-100195983D01*
X164063301Y-100195983D01*
X164091278Y-100190418D01*
X164160870Y-100196645D01*
X164216047Y-100239508D01*
X164239292Y-100305398D01*
X164239470Y-100312035D01*
X164239470Y-103687282D01*
X164219785Y-103754321D01*
X164203151Y-103774963D01*
X163384148Y-104593965D01*
X163322825Y-104627450D01*
X163272277Y-104627902D01*
X163222893Y-104618079D01*
X163065209Y-104618079D01*
X163065206Y-104618079D01*
X162910561Y-104648840D01*
X162910549Y-104648843D01*
X162764878Y-104709181D01*
X162764865Y-104709188D01*
X162633762Y-104796789D01*
X162633758Y-104796792D01*
X162522264Y-104908286D01*
X162522261Y-104908290D01*
X162434660Y-105039393D01*
X162434653Y-105039406D01*
X162374315Y-105185077D01*
X162374312Y-105185089D01*
X162343551Y-105339732D01*
X162343551Y-105413371D01*
X162323866Y-105480410D01*
X162271062Y-105526165D01*
X162201904Y-105536109D01*
X162138348Y-105507084D01*
X162123700Y-105492039D01*
X162121786Y-105489707D01*
X162010292Y-105378213D01*
X162010288Y-105378210D01*
X161879185Y-105290609D01*
X161879172Y-105290602D01*
X161733501Y-105230264D01*
X161733489Y-105230261D01*
X161578845Y-105199500D01*
X161578842Y-105199500D01*
X161421158Y-105199500D01*
X161421155Y-105199500D01*
X161266510Y-105230261D01*
X161266498Y-105230264D01*
X161120827Y-105290602D01*
X161120814Y-105290609D01*
X160989711Y-105378210D01*
X160989707Y-105378213D01*
X160878213Y-105489707D01*
X160878210Y-105489711D01*
X160790609Y-105620814D01*
X160790602Y-105620827D01*
X160730264Y-105766498D01*
X160730261Y-105766510D01*
X160699500Y-105921153D01*
X160699500Y-106078846D01*
X160730261Y-106233489D01*
X160730264Y-106233501D01*
X160790602Y-106379172D01*
X160790609Y-106379185D01*
X160878210Y-106510288D01*
X160878213Y-106510292D01*
X160989707Y-106621786D01*
X160989711Y-106621789D01*
X161083850Y-106684691D01*
X161128655Y-106738303D01*
X161137362Y-106807628D01*
X161107208Y-106870655D01*
X161102640Y-106875474D01*
X160815934Y-107162181D01*
X160754611Y-107195666D01*
X160728253Y-107198500D01*
X158163382Y-107198500D01*
X158096343Y-107178815D01*
X158060280Y-107143390D01*
X158023364Y-107088142D01*
X158023358Y-107088134D01*
X157911864Y-106976640D01*
X157911860Y-106976637D01*
X157780757Y-106889036D01*
X157780744Y-106889029D01*
X157635073Y-106828691D01*
X157635061Y-106828688D01*
X157480417Y-106797927D01*
X157480414Y-106797927D01*
X157322730Y-106797927D01*
X157322727Y-106797927D01*
X157168082Y-106828688D01*
X157168070Y-106828691D01*
X157022399Y-106889029D01*
X157022386Y-106889036D01*
X156891283Y-106976637D01*
X156891279Y-106976640D01*
X156779785Y-107088134D01*
X156779779Y-107088142D01*
X156742864Y-107143390D01*
X156689252Y-107188196D01*
X156639762Y-107198500D01*
X145532004Y-107198500D01*
X145427702Y-107219246D01*
X145427703Y-107219247D01*
X145396675Y-107225418D01*
X145396664Y-107225422D01*
X145359332Y-107240886D01*
X145269189Y-107278224D01*
X145235853Y-107300499D01*
X145200412Y-107324180D01*
X145200411Y-107324181D01*
X145154458Y-107354884D01*
X145154453Y-107354888D01*
X137805412Y-114703929D01*
X137765184Y-114730809D01*
X137620823Y-114790604D01*
X137620814Y-114790609D01*
X137489711Y-114878210D01*
X137489707Y-114878213D01*
X137378213Y-114989707D01*
X137378210Y-114989711D01*
X137290609Y-115120814D01*
X137290602Y-115120827D01*
X137230264Y-115266498D01*
X137230261Y-115266510D01*
X137199500Y-115421153D01*
X137199500Y-115578846D01*
X137230261Y-115733489D01*
X137230264Y-115733501D01*
X137290602Y-115879172D01*
X137290609Y-115879185D01*
X137378210Y-116010288D01*
X137378213Y-116010292D01*
X137489707Y-116121786D01*
X137489711Y-116121789D01*
X137620814Y-116209390D01*
X137620827Y-116209397D01*
X137766498Y-116269735D01*
X137766503Y-116269737D01*
X137921153Y-116300499D01*
X137921156Y-116300500D01*
X137921158Y-116300500D01*
X138078844Y-116300500D01*
X138078845Y-116300499D01*
X138233497Y-116269737D01*
X138379179Y-116209394D01*
X138510289Y-116121789D01*
X138621789Y-116010289D01*
X138709394Y-115879179D01*
X138709395Y-115879176D01*
X138709397Y-115879173D01*
X138769192Y-115734812D01*
X138796069Y-115694586D01*
X139069502Y-115421153D01*
X163424501Y-115421153D01*
X163424501Y-115578846D01*
X163455262Y-115733489D01*
X163455265Y-115733501D01*
X163515603Y-115879172D01*
X163515610Y-115879185D01*
X163603211Y-116010288D01*
X163603214Y-116010292D01*
X163714708Y-116121786D01*
X163714712Y-116121789D01*
X163845815Y-116209390D01*
X163845828Y-116209397D01*
X163991499Y-116269735D01*
X163991504Y-116269737D01*
X164146154Y-116300499D01*
X164146157Y-116300500D01*
X164146159Y-116300500D01*
X164303845Y-116300500D01*
X164303846Y-116300499D01*
X164458498Y-116269737D01*
X164604180Y-116209394D01*
X164735290Y-116121789D01*
X164846790Y-116010289D01*
X164934395Y-115879179D01*
X164994738Y-115733497D01*
X165025501Y-115578842D01*
X165025501Y-115421158D01*
X165025501Y-115421155D01*
X165025500Y-115421153D01*
X164994739Y-115266510D01*
X164994738Y-115266503D01*
X164974034Y-115216518D01*
X164934398Y-115120827D01*
X164934391Y-115120814D01*
X164846790Y-114989711D01*
X164846787Y-114989707D01*
X164735293Y-114878213D01*
X164735289Y-114878210D01*
X164604186Y-114790609D01*
X164604173Y-114790602D01*
X164458502Y-114730264D01*
X164458490Y-114730261D01*
X164303846Y-114699500D01*
X164303843Y-114699500D01*
X164146159Y-114699500D01*
X164146156Y-114699500D01*
X163991511Y-114730261D01*
X163991499Y-114730264D01*
X163845828Y-114790602D01*
X163845815Y-114790609D01*
X163714712Y-114878210D01*
X163714708Y-114878213D01*
X163603214Y-114989707D01*
X163603211Y-114989711D01*
X163515610Y-115120814D01*
X163515603Y-115120827D01*
X163455265Y-115266498D01*
X163455262Y-115266510D01*
X163424501Y-115421153D01*
X139069502Y-115421153D01*
X140279385Y-114211270D01*
X142754772Y-114211270D01*
X142754772Y-114368963D01*
X142785533Y-114523606D01*
X142785536Y-114523618D01*
X142845874Y-114669289D01*
X142845881Y-114669302D01*
X142933482Y-114800405D01*
X142933485Y-114800409D01*
X143044979Y-114911903D01*
X143044983Y-114911906D01*
X143176086Y-114999507D01*
X143176099Y-114999514D01*
X143321770Y-115059852D01*
X143321775Y-115059854D01*
X143476425Y-115090616D01*
X143476428Y-115090617D01*
X143476430Y-115090617D01*
X143634116Y-115090617D01*
X143634117Y-115090616D01*
X143788769Y-115059854D01*
X143934451Y-114999511D01*
X144065561Y-114911906D01*
X144177061Y-114800406D01*
X144264666Y-114669296D01*
X144325009Y-114523614D01*
X144355772Y-114368959D01*
X144355772Y-114211275D01*
X144355772Y-114211272D01*
X144355771Y-114211270D01*
X144337119Y-114117502D01*
X144325009Y-114056620D01*
X144325007Y-114056615D01*
X144264669Y-113910944D01*
X144264662Y-113910931D01*
X144225075Y-113851685D01*
X144204197Y-113785007D01*
X144222682Y-113717627D01*
X144225057Y-113713930D01*
X144282623Y-113627778D01*
X144342966Y-113482096D01*
X144346925Y-113462191D01*
X144355089Y-113421153D01*
X157199500Y-113421153D01*
X157199500Y-113578846D01*
X157230261Y-113733489D01*
X157230264Y-113733501D01*
X157290602Y-113879172D01*
X157290609Y-113879185D01*
X157378210Y-114010288D01*
X157378213Y-114010292D01*
X157489707Y-114121786D01*
X157489711Y-114121789D01*
X157620814Y-114209390D01*
X157620827Y-114209397D01*
X157714382Y-114248148D01*
X157766503Y-114269737D01*
X157921153Y-114300499D01*
X157921156Y-114300500D01*
X157921158Y-114300500D01*
X158078844Y-114300500D01*
X158078845Y-114300499D01*
X158233497Y-114269737D01*
X158379179Y-114209394D01*
X158510289Y-114121789D01*
X158621789Y-114010289D01*
X158709394Y-113879179D01*
X158769737Y-113733497D01*
X158800500Y-113578842D01*
X158800500Y-113421158D01*
X158800500Y-113421155D01*
X158800499Y-113421153D01*
X158769738Y-113266510D01*
X158769737Y-113266503D01*
X158767101Y-113260138D01*
X158709397Y-113120827D01*
X158709390Y-113120814D01*
X158621789Y-112989711D01*
X158621786Y-112989707D01*
X158510292Y-112878213D01*
X158510288Y-112878210D01*
X158379185Y-112790609D01*
X158379172Y-112790602D01*
X158233501Y-112730264D01*
X158233489Y-112730261D01*
X158078845Y-112699500D01*
X158078842Y-112699500D01*
X157921158Y-112699500D01*
X157921155Y-112699500D01*
X157766510Y-112730261D01*
X157766498Y-112730264D01*
X157620827Y-112790602D01*
X157620814Y-112790609D01*
X157489711Y-112878210D01*
X157489707Y-112878213D01*
X157378213Y-112989707D01*
X157378210Y-112989711D01*
X157290609Y-113120814D01*
X157290602Y-113120827D01*
X157230264Y-113266498D01*
X157230261Y-113266510D01*
X157199500Y-113421153D01*
X144355089Y-113421153D01*
X144361112Y-113390874D01*
X144361112Y-113390873D01*
X144373728Y-113327445D01*
X144373729Y-113327443D01*
X144373729Y-113169754D01*
X144373728Y-113169752D01*
X144363995Y-113120821D01*
X144342966Y-113015102D01*
X144332447Y-112989707D01*
X144282626Y-112869426D01*
X144282619Y-112869413D01*
X144195018Y-112738310D01*
X144195015Y-112738306D01*
X144083521Y-112626812D01*
X144083517Y-112626809D01*
X143952414Y-112539208D01*
X143952401Y-112539201D01*
X143806730Y-112478863D01*
X143806718Y-112478860D01*
X143652074Y-112448099D01*
X143652071Y-112448099D01*
X143494387Y-112448099D01*
X143494384Y-112448099D01*
X143339739Y-112478860D01*
X143339727Y-112478863D01*
X143194056Y-112539201D01*
X143194043Y-112539208D01*
X143062940Y-112626809D01*
X143062936Y-112626812D01*
X142951442Y-112738306D01*
X142951439Y-112738310D01*
X142863838Y-112869413D01*
X142863831Y-112869426D01*
X142803493Y-113015097D01*
X142803490Y-113015109D01*
X142772729Y-113169752D01*
X142772729Y-113327445D01*
X142803490Y-113482088D01*
X142803493Y-113482100D01*
X142863831Y-113627771D01*
X142863841Y-113627789D01*
X142903425Y-113687031D01*
X142924303Y-113753708D01*
X142905818Y-113821088D01*
X142903425Y-113824812D01*
X142845881Y-113910931D01*
X142845874Y-113910944D01*
X142785536Y-114056615D01*
X142785533Y-114056627D01*
X142754772Y-114211270D01*
X140279385Y-114211270D01*
X144069503Y-110421153D01*
X158699500Y-110421153D01*
X158699500Y-110578846D01*
X158730261Y-110733489D01*
X158730264Y-110733501D01*
X158790602Y-110879172D01*
X158790609Y-110879185D01*
X158878210Y-111010288D01*
X158878213Y-111010292D01*
X158989707Y-111121786D01*
X158989711Y-111121789D01*
X159120814Y-111209390D01*
X159120827Y-111209397D01*
X159266498Y-111269735D01*
X159266503Y-111269737D01*
X159421153Y-111300499D01*
X159421156Y-111300500D01*
X159421158Y-111300500D01*
X159578844Y-111300500D01*
X159578845Y-111300499D01*
X159733497Y-111269737D01*
X159879179Y-111209394D01*
X160010289Y-111121789D01*
X160121789Y-111010289D01*
X160209394Y-110879179D01*
X160269737Y-110733497D01*
X160300500Y-110578842D01*
X160300500Y-110421158D01*
X160300500Y-110421155D01*
X160300499Y-110421153D01*
X160284456Y-110340499D01*
X160269737Y-110266503D01*
X160243358Y-110202817D01*
X160209397Y-110120827D01*
X160209390Y-110120814D01*
X160121789Y-109989711D01*
X160121786Y-109989707D01*
X160010292Y-109878213D01*
X160010288Y-109878210D01*
X159879185Y-109790609D01*
X159879172Y-109790602D01*
X159733501Y-109730264D01*
X159733489Y-109730261D01*
X159578845Y-109699500D01*
X159578842Y-109699500D01*
X159421158Y-109699500D01*
X159421155Y-109699500D01*
X159266510Y-109730261D01*
X159266498Y-109730264D01*
X159120827Y-109790602D01*
X159120814Y-109790609D01*
X158989711Y-109878210D01*
X158989707Y-109878213D01*
X158878213Y-109989707D01*
X158878210Y-109989711D01*
X158790609Y-110120814D01*
X158790602Y-110120827D01*
X158730264Y-110266498D01*
X158730261Y-110266510D01*
X158699500Y-110421153D01*
X144069503Y-110421153D01*
X145854838Y-108635819D01*
X145916161Y-108602334D01*
X145942519Y-108599500D01*
X161138768Y-108599500D01*
X161229812Y-108581389D01*
X161274100Y-108572580D01*
X161337841Y-108546177D01*
X161401579Y-108519777D01*
X161401580Y-108519776D01*
X161401583Y-108519775D01*
X161516315Y-108443114D01*
X163528500Y-106430929D01*
X163757580Y-106201849D01*
X163784507Y-106187145D01*
X163810326Y-106170553D01*
X163816526Y-106169661D01*
X163818903Y-106168364D01*
X163845261Y-106165530D01*
X163896961Y-106165530D01*
X163964000Y-106185215D01*
X163984642Y-106201849D01*
X164203151Y-106420358D01*
X164236636Y-106481681D01*
X164239470Y-106508039D01*
X164239470Y-108420974D01*
X164239470Y-108558962D01*
X164239470Y-108558964D01*
X164239469Y-108558964D01*
X164266388Y-108694290D01*
X164266391Y-108694300D01*
X164319192Y-108821775D01*
X164395857Y-108936513D01*
X164395858Y-108936514D01*
X166928929Y-111469584D01*
X166955809Y-111509813D01*
X167015603Y-111654171D01*
X167015610Y-111654184D01*
X167103211Y-111785287D01*
X167103214Y-111785291D01*
X167214708Y-111896785D01*
X167214712Y-111896788D01*
X167345815Y-111984389D01*
X167345828Y-111984396D01*
X167491499Y-112044734D01*
X167491504Y-112044736D01*
X167646154Y-112075498D01*
X167646157Y-112075499D01*
X167646159Y-112075499D01*
X167803845Y-112075499D01*
X167803846Y-112075498D01*
X167958498Y-112044736D01*
X168104180Y-111984393D01*
X168235290Y-111896788D01*
X168346790Y-111785288D01*
X168434395Y-111654178D01*
X168494738Y-111508496D01*
X168525501Y-111353841D01*
X168525501Y-111196157D01*
X168525501Y-111196154D01*
X168525500Y-111196152D01*
X168517497Y-111155917D01*
X168494738Y-111041502D01*
X168494736Y-111041497D01*
X168434398Y-110895826D01*
X168434391Y-110895813D01*
X168346790Y-110764710D01*
X168346787Y-110764706D01*
X168235293Y-110653212D01*
X168235289Y-110653209D01*
X168104186Y-110565608D01*
X168104173Y-110565601D01*
X167959815Y-110505807D01*
X167919586Y-110478927D01*
X165676789Y-108236130D01*
X165643304Y-108174807D01*
X165640470Y-108148449D01*
X165640470Y-98781489D01*
X165660155Y-98714450D01*
X165676789Y-98693808D01*
X165923000Y-98447597D01*
X165984323Y-98414112D01*
X166054015Y-98419096D01*
X166098362Y-98447597D01*
X168015139Y-100364374D01*
X168015149Y-100364385D01*
X168019479Y-100368715D01*
X168019480Y-100368716D01*
X168131284Y-100480520D01*
X168204102Y-100522561D01*
X168268215Y-100559577D01*
X168420943Y-100600500D01*
X170961945Y-100600500D01*
X171028984Y-100620185D01*
X171074739Y-100672989D01*
X171084683Y-100742147D01*
X171062263Y-100797385D01*
X171052480Y-100810850D01*
X170962259Y-100987915D01*
X170962258Y-100987918D01*
X170900852Y-101176910D01*
X170869765Y-101373187D01*
X170869765Y-101571908D01*
X170900852Y-101768185D01*
X170962258Y-101957177D01*
X170962259Y-101957180D01*
X171009809Y-102050500D01*
X171052478Y-102134242D01*
X171169284Y-102295012D01*
X171309801Y-102435529D01*
X171470571Y-102552335D01*
X171505278Y-102570019D01*
X171627045Y-102632063D01*
X171677841Y-102680038D01*
X171694636Y-102747859D01*
X171672098Y-102813994D01*
X171627045Y-102853033D01*
X171470570Y-102932761D01*
X171309798Y-103049569D01*
X171169286Y-103190081D01*
X171052478Y-103350853D01*
X170962259Y-103527915D01*
X170962258Y-103527918D01*
X170900852Y-103716910D01*
X170869765Y-103913187D01*
X170869765Y-104111908D01*
X170900852Y-104308185D01*
X170962258Y-104497177D01*
X170962259Y-104497180D01*
X171052341Y-104673973D01*
X171052478Y-104674242D01*
X171169284Y-104835012D01*
X171309801Y-104975529D01*
X171470571Y-105092335D01*
X171627597Y-105172344D01*
X171678392Y-105220317D01*
X171695187Y-105288138D01*
X171672650Y-105354273D01*
X171627597Y-105393312D01*
X171470831Y-105473189D01*
X171433548Y-105500277D01*
X171433547Y-105500278D01*
X171996323Y-106063052D01*
X171936184Y-106079167D01*
X171820345Y-106146046D01*
X171725763Y-106240628D01*
X171658884Y-106356467D01*
X171642769Y-106416605D01*
X171079995Y-105853830D01*
X171079994Y-105853831D01*
X171052908Y-105891112D01*
X170962722Y-106068110D01*
X170901340Y-106257024D01*
X170901340Y-106257027D01*
X170870265Y-106453226D01*
X170870265Y-106651869D01*
X170901340Y-106848068D01*
X170901340Y-106848071D01*
X170962722Y-107036985D01*
X171052906Y-107213980D01*
X171079995Y-107251263D01*
X171079996Y-107251264D01*
X171642769Y-106688490D01*
X171658884Y-106748629D01*
X171725763Y-106864468D01*
X171820345Y-106959050D01*
X171936184Y-107025929D01*
X171996322Y-107042042D01*
X171433548Y-107604816D01*
X171433548Y-107604817D01*
X171470832Y-107631906D01*
X171647827Y-107722090D01*
X171836742Y-107783472D01*
X172032944Y-107814548D01*
X172231586Y-107814548D01*
X172427785Y-107783472D01*
X172427788Y-107783472D01*
X172616702Y-107722090D01*
X172793690Y-107631910D01*
X172830981Y-107604816D01*
X172268207Y-107042042D01*
X172328346Y-107025929D01*
X172444185Y-106959050D01*
X172538767Y-106864468D01*
X172605646Y-106748629D01*
X172621760Y-106688490D01*
X173184533Y-107251263D01*
X173211627Y-107213973D01*
X173291780Y-107056665D01*
X173339754Y-107005869D01*
X173407575Y-106989074D01*
X173473710Y-107011611D01*
X173512750Y-107056665D01*
X173592906Y-107213980D01*
X173619995Y-107251263D01*
X173619996Y-107251264D01*
X174182769Y-106688490D01*
X174198884Y-106748629D01*
X174265763Y-106864468D01*
X174360345Y-106959050D01*
X174476184Y-107025929D01*
X174536322Y-107042042D01*
X173973548Y-107604816D01*
X173973548Y-107604817D01*
X174010832Y-107631906D01*
X174187827Y-107722090D01*
X174376742Y-107783472D01*
X174572944Y-107814548D01*
X174771586Y-107814548D01*
X174967785Y-107783472D01*
X174967788Y-107783472D01*
X175156702Y-107722090D01*
X175333690Y-107631910D01*
X175370981Y-107604816D01*
X174808207Y-107042042D01*
X174868346Y-107025929D01*
X174984185Y-106959050D01*
X175078767Y-106864468D01*
X175145646Y-106748629D01*
X175161760Y-106688490D01*
X175724533Y-107251263D01*
X175751627Y-107213973D01*
X175841807Y-107036985D01*
X175903189Y-106848071D01*
X175903189Y-106848068D01*
X175934265Y-106651869D01*
X175934265Y-106453226D01*
X175903189Y-106257027D01*
X175903189Y-106257024D01*
X175841807Y-106068110D01*
X175751623Y-105891115D01*
X175724533Y-105853831D01*
X175161759Y-106416605D01*
X175145646Y-106356467D01*
X175078767Y-106240628D01*
X174984185Y-106146046D01*
X174868346Y-106079167D01*
X174808207Y-106063052D01*
X175370981Y-105500279D01*
X175370980Y-105500278D01*
X175333697Y-105473189D01*
X175176382Y-105393033D01*
X175125586Y-105345058D01*
X175108791Y-105277237D01*
X175131328Y-105211102D01*
X175176382Y-105172063D01*
X175333690Y-105091910D01*
X175370981Y-105064816D01*
X174808207Y-104502042D01*
X174868346Y-104485929D01*
X174984185Y-104419050D01*
X175078767Y-104324468D01*
X175145646Y-104208629D01*
X175161760Y-104148490D01*
X175724533Y-104711263D01*
X175751627Y-104673973D01*
X175841807Y-104496985D01*
X175903189Y-104308071D01*
X175903189Y-104308068D01*
X175934265Y-104111869D01*
X175934265Y-103913226D01*
X175903189Y-103717027D01*
X175903189Y-103717024D01*
X175841807Y-103528110D01*
X175751623Y-103351115D01*
X175724533Y-103313831D01*
X175161759Y-103876605D01*
X175145646Y-103816467D01*
X175078767Y-103700628D01*
X174984185Y-103606046D01*
X174868346Y-103539167D01*
X174808206Y-103523052D01*
X175370980Y-102960279D01*
X175370980Y-102960278D01*
X175333697Y-102933189D01*
X175310075Y-102921153D01*
X176199500Y-102921153D01*
X176199500Y-103078846D01*
X176230261Y-103233489D01*
X176230264Y-103233501D01*
X176290602Y-103379172D01*
X176290609Y-103379185D01*
X176378210Y-103510288D01*
X176378213Y-103510292D01*
X176489707Y-103621786D01*
X176489711Y-103621789D01*
X176620814Y-103709390D01*
X176620827Y-103709397D01*
X176758683Y-103766498D01*
X176766503Y-103769737D01*
X176921153Y-103800499D01*
X176921156Y-103800500D01*
X176921158Y-103800500D01*
X177078844Y-103800500D01*
X177078845Y-103800499D01*
X177233497Y-103769737D01*
X177360751Y-103717027D01*
X177379172Y-103709397D01*
X177379172Y-103709396D01*
X177379179Y-103709394D01*
X177510289Y-103621789D01*
X177621789Y-103510289D01*
X177709394Y-103379179D01*
X177769737Y-103233497D01*
X177800500Y-103078842D01*
X177800500Y-102921158D01*
X177800500Y-102921155D01*
X177800499Y-102921153D01*
X177780767Y-102821955D01*
X177769737Y-102766503D01*
X177762921Y-102750048D01*
X177709397Y-102620827D01*
X177709390Y-102620814D01*
X177621789Y-102489711D01*
X177621786Y-102489707D01*
X177510292Y-102378213D01*
X177510288Y-102378210D01*
X177379185Y-102290609D01*
X177379172Y-102290602D01*
X177233501Y-102230264D01*
X177233489Y-102230261D01*
X177078845Y-102199500D01*
X177078842Y-102199500D01*
X176921158Y-102199500D01*
X176921155Y-102199500D01*
X176766510Y-102230261D01*
X176766498Y-102230264D01*
X176620827Y-102290602D01*
X176620814Y-102290609D01*
X176489711Y-102378210D01*
X176489707Y-102378213D01*
X176378213Y-102489707D01*
X176378210Y-102489711D01*
X176290609Y-102620814D01*
X176290602Y-102620827D01*
X176230264Y-102766498D01*
X176230261Y-102766510D01*
X176199500Y-102921153D01*
X175310075Y-102921153D01*
X175176382Y-102853033D01*
X175125586Y-102805058D01*
X175108791Y-102737237D01*
X175131328Y-102671102D01*
X175176382Y-102632063D01*
X175333690Y-102551910D01*
X175370981Y-102524816D01*
X174808207Y-101962042D01*
X174868346Y-101945929D01*
X174984185Y-101879050D01*
X175078767Y-101784468D01*
X175145646Y-101668629D01*
X175161760Y-101608490D01*
X175724533Y-102171263D01*
X175751627Y-102133973D01*
X175841807Y-101956985D01*
X175903189Y-101768071D01*
X175903189Y-101768068D01*
X175934265Y-101571869D01*
X175934265Y-101373226D01*
X175903189Y-101177027D01*
X175903189Y-101177024D01*
X175841807Y-100988110D01*
X175838080Y-100980795D01*
X175825184Y-100912126D01*
X175851460Y-100847385D01*
X175908567Y-100807128D01*
X175948565Y-100800500D01*
X176078844Y-100800500D01*
X176078845Y-100800499D01*
X176233497Y-100769737D01*
X176379179Y-100709394D01*
X176510289Y-100621789D01*
X176621789Y-100510289D01*
X176709394Y-100379179D01*
X176712526Y-100371619D01*
X176742896Y-100298298D01*
X176769737Y-100233497D01*
X176800500Y-100078842D01*
X176800500Y-99921158D01*
X176800500Y-99921155D01*
X176800499Y-99921153D01*
X176797440Y-99905775D01*
X176769737Y-99766503D01*
X176769735Y-99766498D01*
X176709397Y-99620827D01*
X176709390Y-99620814D01*
X176621789Y-99489711D01*
X176621786Y-99489707D01*
X176510292Y-99378213D01*
X176510288Y-99378210D01*
X176379185Y-99290609D01*
X176379172Y-99290602D01*
X176233501Y-99230264D01*
X176233489Y-99230261D01*
X176078845Y-99199500D01*
X176078842Y-99199500D01*
X176052900Y-99199500D01*
X175985861Y-99179815D01*
X175940106Y-99127011D01*
X175930162Y-99057853D01*
X175930427Y-99056103D01*
X175934265Y-99031870D01*
X175934265Y-98833226D01*
X175903189Y-98637027D01*
X175903189Y-98637024D01*
X175841807Y-98448110D01*
X175751623Y-98271115D01*
X175724533Y-98233831D01*
X175161759Y-98796604D01*
X175145646Y-98736467D01*
X175078767Y-98620628D01*
X174984185Y-98526046D01*
X174868346Y-98459167D01*
X174808207Y-98443052D01*
X175370981Y-97880279D01*
X175370980Y-97880278D01*
X175333697Y-97853189D01*
X175176933Y-97773313D01*
X175126137Y-97725338D01*
X175109342Y-97657517D01*
X175131880Y-97591382D01*
X175176932Y-97552344D01*
X175333959Y-97472335D01*
X175494729Y-97355529D01*
X175635246Y-97215012D01*
X175752052Y-97054242D01*
X175842270Y-96877180D01*
X175903678Y-96688184D01*
X175934765Y-96491909D01*
X175934765Y-96293187D01*
X175903678Y-96096912D01*
X175864942Y-95977694D01*
X175842271Y-95907918D01*
X175842270Y-95907915D01*
X175777733Y-95781255D01*
X175752052Y-95730854D01*
X175635246Y-95570084D01*
X175494729Y-95429567D01*
X175333959Y-95312761D01*
X175176932Y-95232751D01*
X175126137Y-95184777D01*
X175109342Y-95116956D01*
X175131879Y-95050821D01*
X175176934Y-95011782D01*
X175333687Y-94931912D01*
X175370981Y-94904816D01*
X174808207Y-94342042D01*
X174868346Y-94325929D01*
X174984185Y-94259050D01*
X175078767Y-94164468D01*
X175145646Y-94048629D01*
X175161760Y-93988490D01*
X175724533Y-94551263D01*
X175751627Y-94513973D01*
X175798922Y-94421153D01*
X176199500Y-94421153D01*
X176199500Y-94578846D01*
X176230261Y-94733489D01*
X176230264Y-94733501D01*
X176290602Y-94879172D01*
X176290609Y-94879185D01*
X176378210Y-95010288D01*
X176378213Y-95010292D01*
X176489707Y-95121786D01*
X176489711Y-95121789D01*
X176620814Y-95209390D01*
X176620827Y-95209397D01*
X176717453Y-95249420D01*
X176766503Y-95269737D01*
X176898852Y-95296063D01*
X176921153Y-95300499D01*
X176921156Y-95300500D01*
X176921158Y-95300500D01*
X177078844Y-95300500D01*
X177078845Y-95300499D01*
X177233497Y-95269737D01*
X177379179Y-95209394D01*
X177510289Y-95121789D01*
X177621789Y-95010289D01*
X177709394Y-94879179D01*
X177769737Y-94733497D01*
X177800500Y-94578842D01*
X177800500Y-94421158D01*
X177800500Y-94421155D01*
X177800499Y-94421153D01*
X177799430Y-94415780D01*
X177769737Y-94266503D01*
X177727473Y-94164468D01*
X177709397Y-94120827D01*
X177709390Y-94120814D01*
X177621789Y-93989711D01*
X177621786Y-93989707D01*
X177510292Y-93878213D01*
X177510288Y-93878210D01*
X177379185Y-93790609D01*
X177379172Y-93790602D01*
X177233501Y-93730264D01*
X177233489Y-93730261D01*
X177078845Y-93699500D01*
X177078842Y-93699500D01*
X176921158Y-93699500D01*
X176921155Y-93699500D01*
X176766510Y-93730261D01*
X176766498Y-93730264D01*
X176620827Y-93790602D01*
X176620814Y-93790609D01*
X176489711Y-93878210D01*
X176489707Y-93878213D01*
X176378213Y-93989707D01*
X176378210Y-93989711D01*
X176290609Y-94120814D01*
X176290602Y-94120827D01*
X176230264Y-94266498D01*
X176230261Y-94266510D01*
X176199500Y-94421153D01*
X175798922Y-94421153D01*
X175830707Y-94358771D01*
X175841807Y-94336985D01*
X175903189Y-94148071D01*
X175903189Y-94148068D01*
X175934265Y-93951869D01*
X175934265Y-93753226D01*
X175903189Y-93557027D01*
X175903189Y-93557024D01*
X175841807Y-93368110D01*
X175751623Y-93191115D01*
X175724533Y-93153831D01*
X175161759Y-93716605D01*
X175145646Y-93656467D01*
X175078767Y-93540628D01*
X174984185Y-93446046D01*
X174868346Y-93379167D01*
X174808207Y-93363052D01*
X175370981Y-92800279D01*
X175370980Y-92800278D01*
X175333697Y-92773189D01*
X175176933Y-92693313D01*
X175126137Y-92645338D01*
X175109342Y-92577517D01*
X175131880Y-92511382D01*
X175176932Y-92472344D01*
X175333959Y-92392335D01*
X175494729Y-92275529D01*
X175635246Y-92135012D01*
X175752052Y-91974242D01*
X175842270Y-91797180D01*
X175903678Y-91608184D01*
X175934765Y-91411909D01*
X175934765Y-91213187D01*
X175903678Y-91016912D01*
X175842270Y-90827916D01*
X175842270Y-90827915D01*
X175772308Y-90690609D01*
X175752052Y-90650854D01*
X175635246Y-90490084D01*
X175494729Y-90349567D01*
X175333959Y-90232761D01*
X175177483Y-90153032D01*
X175126688Y-90105058D01*
X175109893Y-90037237D01*
X175132430Y-89971102D01*
X175177483Y-89932063D01*
X175333959Y-89852335D01*
X175494729Y-89735529D01*
X175635246Y-89595012D01*
X175752052Y-89434242D01*
X175842270Y-89257180D01*
X175903678Y-89068184D01*
X175934765Y-88871909D01*
X175934765Y-88673187D01*
X175903678Y-88476912D01*
X175842270Y-88287916D01*
X175842270Y-88287915D01*
X175775792Y-88157447D01*
X175752052Y-88110854D01*
X175635246Y-87950084D01*
X175494729Y-87809567D01*
X175333959Y-87692761D01*
X175177483Y-87613032D01*
X175126688Y-87565058D01*
X175109893Y-87497237D01*
X175132430Y-87431102D01*
X175177483Y-87392063D01*
X175333959Y-87312335D01*
X175494729Y-87195529D01*
X175635246Y-87055012D01*
X175752052Y-86894242D01*
X175842270Y-86717180D01*
X175903678Y-86528184D01*
X175934765Y-86331909D01*
X175934765Y-86133187D01*
X175903678Y-85936912D01*
X175871156Y-85836819D01*
X175842271Y-85747918D01*
X175842270Y-85747915D01*
X175752051Y-85570853D01*
X175686092Y-85480068D01*
X175635246Y-85410084D01*
X175494729Y-85269567D01*
X175399200Y-85200161D01*
X175369890Y-85178866D01*
X175327224Y-85123536D01*
X175321245Y-85053923D01*
X175353851Y-84992128D01*
X175414689Y-84957771D01*
X175442775Y-84954548D01*
X175482093Y-84954548D01*
X175482109Y-84954547D01*
X175541637Y-84948146D01*
X175541644Y-84948144D01*
X175676351Y-84897902D01*
X175676358Y-84897898D01*
X175791452Y-84811738D01*
X175791455Y-84811735D01*
X175877615Y-84696641D01*
X175877619Y-84696634D01*
X175927861Y-84561927D01*
X175927863Y-84561920D01*
X175934264Y-84502392D01*
X175934265Y-84502375D01*
X175934265Y-83942548D01*
X175114516Y-83942548D01*
X175145646Y-83888629D01*
X175180265Y-83759428D01*
X175180265Y-83625668D01*
X175145646Y-83496467D01*
X175114516Y-83442548D01*
X175934265Y-83442548D01*
X175934265Y-82882720D01*
X175934264Y-82882703D01*
X175927863Y-82823175D01*
X175927861Y-82823168D01*
X175877619Y-82688461D01*
X175877615Y-82688454D01*
X175791455Y-82573360D01*
X175791452Y-82573357D01*
X175676358Y-82487197D01*
X175676351Y-82487193D01*
X175541644Y-82436951D01*
X175541637Y-82436949D01*
X175482109Y-82430548D01*
X174922265Y-82430548D01*
X174922265Y-83250296D01*
X174868346Y-83219167D01*
X174739145Y-83184548D01*
X174605385Y-83184548D01*
X174476184Y-83219167D01*
X174422265Y-83250296D01*
X174422265Y-82430548D01*
X173862420Y-82430548D01*
X173802892Y-82436949D01*
X173802885Y-82436951D01*
X173668178Y-82487193D01*
X173668171Y-82487197D01*
X173553077Y-82573357D01*
X173553074Y-82573360D01*
X173466914Y-82688454D01*
X173466910Y-82688461D01*
X173416668Y-82823168D01*
X173416666Y-82823175D01*
X173410265Y-82882703D01*
X173410265Y-82922890D01*
X173390580Y-82989929D01*
X173337776Y-83035684D01*
X173268618Y-83045628D01*
X173205062Y-83016603D01*
X173185948Y-82995777D01*
X173184534Y-82993831D01*
X173184533Y-82993831D01*
X172621759Y-83556605D01*
X172605646Y-83496467D01*
X172538767Y-83380628D01*
X172444185Y-83286046D01*
X172328346Y-83219167D01*
X172268207Y-83203052D01*
X172830981Y-82640279D01*
X172830980Y-82640278D01*
X172793697Y-82613189D01*
X172616702Y-82523005D01*
X172427787Y-82461623D01*
X172231586Y-82430548D01*
X172032944Y-82430548D01*
X171836744Y-82461623D01*
X171836741Y-82461623D01*
X171647827Y-82523005D01*
X171470829Y-82613191D01*
X171433548Y-82640277D01*
X171433547Y-82640278D01*
X171996323Y-83203052D01*
X171936184Y-83219167D01*
X171820345Y-83286046D01*
X171725763Y-83380628D01*
X171658884Y-83496467D01*
X171642769Y-83556605D01*
X171079995Y-82993830D01*
X171079994Y-82993831D01*
X171052908Y-83031112D01*
X170962722Y-83208110D01*
X170901340Y-83397024D01*
X170901340Y-83397027D01*
X170870265Y-83593226D01*
X170870265Y-83791869D01*
X170901340Y-83988068D01*
X170901340Y-83988071D01*
X170962722Y-84176985D01*
X171052906Y-84353980D01*
X171079995Y-84391263D01*
X171079996Y-84391264D01*
X171642769Y-83828490D01*
X171658884Y-83888629D01*
X171725763Y-84004468D01*
X171820345Y-84099050D01*
X171936184Y-84165929D01*
X171996322Y-84182042D01*
X171433548Y-84744816D01*
X171433548Y-84744817D01*
X171470832Y-84771906D01*
X171627596Y-84851782D01*
X171678392Y-84899757D01*
X171695187Y-84967578D01*
X171672649Y-85033713D01*
X171627596Y-85072752D01*
X171470570Y-85152761D01*
X171309798Y-85269569D01*
X171169286Y-85410081D01*
X171052478Y-85570853D01*
X170962259Y-85747915D01*
X170962258Y-85747918D01*
X170900852Y-85936910D01*
X170869765Y-86133187D01*
X170869765Y-86331908D01*
X170900852Y-86528185D01*
X170962258Y-86717177D01*
X170962259Y-86717180D01*
X171026753Y-86843755D01*
X171052478Y-86894242D01*
X171169284Y-87055012D01*
X171309801Y-87195529D01*
X171470571Y-87312335D01*
X171513776Y-87334349D01*
X171627045Y-87392063D01*
X171677841Y-87440038D01*
X171694636Y-87507859D01*
X171672098Y-87573994D01*
X171627045Y-87613033D01*
X171470570Y-87692761D01*
X171309798Y-87809569D01*
X171169286Y-87950081D01*
X171052478Y-88110853D01*
X170962259Y-88287915D01*
X170962258Y-88287918D01*
X170900852Y-88476910D01*
X170900852Y-88476912D01*
X170869765Y-88673187D01*
X170869765Y-88871909D01*
X170881262Y-88944496D01*
X170900852Y-89068185D01*
X170962258Y-89257177D01*
X170962259Y-89257180D01*
X171029097Y-89388355D01*
X171052478Y-89434242D01*
X171169284Y-89595012D01*
X171309801Y-89735529D01*
X171470571Y-89852335D01*
X171589097Y-89912727D01*
X171627045Y-89932063D01*
X171677841Y-89980038D01*
X171694636Y-90047859D01*
X171672098Y-90113994D01*
X171627045Y-90153033D01*
X171470570Y-90232761D01*
X171309798Y-90349569D01*
X171169286Y-90490081D01*
X171052478Y-90650853D01*
X170962259Y-90827915D01*
X170962258Y-90827918D01*
X170900852Y-91016910D01*
X170884707Y-91118846D01*
X170869765Y-91213187D01*
X170869765Y-91411909D01*
X170879510Y-91473437D01*
X170900852Y-91608185D01*
X170962258Y-91797177D01*
X170962259Y-91797180D01*
X171033919Y-91937819D01*
X171052478Y-91974242D01*
X171169284Y-92135012D01*
X171309801Y-92275529D01*
X171470571Y-92392335D01*
X171627597Y-92472344D01*
X171678392Y-92520317D01*
X171695187Y-92588138D01*
X171672650Y-92654273D01*
X171627597Y-92693312D01*
X171470831Y-92773189D01*
X171433548Y-92800277D01*
X171433547Y-92800278D01*
X171996323Y-93363052D01*
X171936184Y-93379167D01*
X171820345Y-93446046D01*
X171725763Y-93540628D01*
X171658884Y-93656467D01*
X171642769Y-93716605D01*
X171079995Y-93153830D01*
X171079994Y-93153831D01*
X171052908Y-93191112D01*
X170962722Y-93368110D01*
X170901340Y-93557024D01*
X170901340Y-93557027D01*
X170870265Y-93753226D01*
X170870265Y-93951869D01*
X170901340Y-94148068D01*
X170901340Y-94148071D01*
X170962722Y-94336985D01*
X171052906Y-94513980D01*
X171079995Y-94551263D01*
X171079996Y-94551264D01*
X171642769Y-93988490D01*
X171658884Y-94048629D01*
X171725763Y-94164468D01*
X171820345Y-94259050D01*
X171936184Y-94325929D01*
X171996322Y-94342042D01*
X171433548Y-94904816D01*
X171433548Y-94904817D01*
X171470832Y-94931906D01*
X171627596Y-95011782D01*
X171678392Y-95059757D01*
X171695187Y-95127578D01*
X171672649Y-95193713D01*
X171627596Y-95232752D01*
X171470570Y-95312761D01*
X171309798Y-95429569D01*
X171169286Y-95570081D01*
X171052478Y-95730853D01*
X170962259Y-95907915D01*
X170962258Y-95907918D01*
X170900852Y-96096910D01*
X170880262Y-96226913D01*
X170869765Y-96293187D01*
X170869765Y-96491909D01*
X170885308Y-96590046D01*
X170900852Y-96688185D01*
X170962258Y-96877177D01*
X170962259Y-96877180D01*
X171039844Y-97029446D01*
X171052478Y-97054242D01*
X171169284Y-97215012D01*
X171309801Y-97355529D01*
X171470571Y-97472335D01*
X171627597Y-97552344D01*
X171678392Y-97600317D01*
X171695187Y-97668138D01*
X171672650Y-97734273D01*
X171627597Y-97773312D01*
X171470831Y-97853189D01*
X171433548Y-97880277D01*
X171433547Y-97880278D01*
X171996323Y-98443052D01*
X171936184Y-98459167D01*
X171820345Y-98526046D01*
X171725763Y-98620628D01*
X171658884Y-98736467D01*
X171642770Y-98796605D01*
X171079995Y-98233830D01*
X171079994Y-98233831D01*
X171052908Y-98271112D01*
X170962722Y-98448110D01*
X170901340Y-98637024D01*
X170901340Y-98637027D01*
X170870265Y-98833226D01*
X170870265Y-99031869D01*
X170901340Y-99228068D01*
X170901340Y-99228071D01*
X170904301Y-99237182D01*
X170906296Y-99307023D01*
X170870216Y-99366856D01*
X170807515Y-99397684D01*
X170786370Y-99399500D01*
X168800097Y-99399500D01*
X168733058Y-99379815D01*
X168712416Y-99363181D01*
X166947596Y-97598361D01*
X166914111Y-97537038D01*
X166919095Y-97467346D01*
X166947596Y-97422999D01*
X166963600Y-97406996D01*
X166967575Y-97401048D01*
X167040262Y-97292264D01*
X167088461Y-97175901D01*
X167093067Y-97164782D01*
X167104330Y-97108158D01*
X167110994Y-97074655D01*
X167119987Y-97029448D01*
X167119987Y-88553831D01*
X167139672Y-88486792D01*
X167156306Y-88466150D01*
X167346834Y-88275622D01*
X167346838Y-88275618D01*
X167443063Y-88150215D01*
X167503553Y-88004180D01*
X167524185Y-87847465D01*
X167524185Y-87540690D01*
X167526568Y-87516497D01*
X167528287Y-87507859D01*
X167534957Y-87474325D01*
X167534957Y-87316641D01*
X167527852Y-87280924D01*
X167525475Y-87257865D01*
X167514329Y-86027030D01*
X167509030Y-85982304D01*
X167508833Y-85977592D01*
X167508993Y-85976948D01*
X167508725Y-85972406D01*
X167508725Y-82185953D01*
X167503669Y-82160539D01*
X167503669Y-82160535D01*
X167488890Y-82086237D01*
X167481805Y-82050618D01*
X167469362Y-82020578D01*
X167429002Y-81923138D01*
X167352337Y-81808400D01*
X167352336Y-81808399D01*
X166888098Y-81344162D01*
X166861218Y-81303933D01*
X166801424Y-81159575D01*
X166801417Y-81159562D01*
X166713816Y-81028459D01*
X166713813Y-81028455D01*
X166602319Y-80916961D01*
X166602315Y-80916958D01*
X166471212Y-80829357D01*
X166471199Y-80829350D01*
X166325528Y-80769012D01*
X166325516Y-80769009D01*
X166170872Y-80738248D01*
X166170869Y-80738248D01*
X166013185Y-80738248D01*
X166013182Y-80738248D01*
X165858537Y-80769009D01*
X165858525Y-80769012D01*
X165712854Y-80829350D01*
X165712841Y-80829357D01*
X165581738Y-80916958D01*
X165581734Y-80916961D01*
X165470240Y-81028455D01*
X165470237Y-81028459D01*
X165382636Y-81159562D01*
X165382629Y-81159575D01*
X165322291Y-81305246D01*
X165322288Y-81305258D01*
X165291527Y-81459901D01*
X165291527Y-81617594D01*
X165322288Y-81772237D01*
X165322291Y-81772249D01*
X165382629Y-81917920D01*
X165382636Y-81917933D01*
X165470237Y-82049036D01*
X165470240Y-82049040D01*
X165581734Y-82160534D01*
X165581738Y-82160537D01*
X165712841Y-82248138D01*
X165712854Y-82248145D01*
X165857212Y-82307939D01*
X165864144Y-82312571D01*
X165869187Y-82313668D01*
X165897441Y-82334819D01*
X166071406Y-82508784D01*
X166104891Y-82570107D01*
X166107725Y-82596465D01*
X166107725Y-85245851D01*
X166088040Y-85312890D01*
X166067527Y-85337247D01*
X165945354Y-85449270D01*
X165882639Y-85480068D01*
X165813229Y-85472071D01*
X165791005Y-85458636D01*
X165790582Y-85459270D01*
X165701691Y-85399875D01*
X165656886Y-85346263D01*
X165648179Y-85276938D01*
X165656021Y-85249321D01*
X165676383Y-85200161D01*
X165676385Y-85200157D01*
X165707148Y-85045502D01*
X165707148Y-84887818D01*
X165707148Y-84887815D01*
X165707147Y-84887813D01*
X165694946Y-84826474D01*
X165676385Y-84733163D01*
X165624597Y-84608134D01*
X165616045Y-84587487D01*
X165616038Y-84587474D01*
X165528437Y-84456371D01*
X165528434Y-84456367D01*
X165416940Y-84344873D01*
X165416936Y-84344870D01*
X165285833Y-84257269D01*
X165285820Y-84257262D01*
X165140149Y-84196924D01*
X165140137Y-84196921D01*
X164985493Y-84166160D01*
X164985490Y-84166160D01*
X164827806Y-84166160D01*
X164827804Y-84166160D01*
X164779570Y-84175754D01*
X164757895Y-84180066D01*
X164733705Y-84182449D01*
X164438205Y-84182449D01*
X164364466Y-84197117D01*
X164340275Y-84199500D01*
X161973665Y-84199500D01*
X161906626Y-84179815D01*
X161860871Y-84127011D01*
X161849665Y-84075500D01*
X161849665Y-84036830D01*
X161849664Y-84036828D01*
X161842976Y-84003205D01*
X161818902Y-83882178D01*
X161761077Y-83742574D01*
X161758562Y-83736502D01*
X161758555Y-83736489D01*
X161670954Y-83605386D01*
X161670951Y-83605382D01*
X161559457Y-83493888D01*
X161559453Y-83493885D01*
X161428350Y-83406284D01*
X161428337Y-83406277D01*
X161282666Y-83345939D01*
X161282654Y-83345936D01*
X161128010Y-83315175D01*
X161128007Y-83315175D01*
X160970323Y-83315175D01*
X160970320Y-83315175D01*
X160815675Y-83345936D01*
X160815663Y-83345939D01*
X160669992Y-83406277D01*
X160669979Y-83406284D01*
X160538876Y-83493885D01*
X160538872Y-83493888D01*
X160427378Y-83605382D01*
X160427375Y-83605386D01*
X160339774Y-83736489D01*
X160339767Y-83736502D01*
X160279429Y-83882173D01*
X160279426Y-83882185D01*
X160248665Y-84036828D01*
X160248665Y-84075500D01*
X160228980Y-84142539D01*
X160176176Y-84188294D01*
X160124665Y-84199500D01*
X133399329Y-84199500D01*
X133244686Y-84230260D01*
X133244678Y-84230262D01*
X133099000Y-84290604D01*
X133098990Y-84290609D01*
X132967887Y-84378210D01*
X132967883Y-84378213D01*
X129415477Y-87930619D01*
X129354154Y-87964104D01*
X129284462Y-87959120D01*
X129228529Y-87917248D01*
X129209864Y-87881253D01*
X129207777Y-87874830D01*
X129093442Y-87650437D01*
X129019250Y-87548322D01*
X129019250Y-87548321D01*
X128364309Y-88203263D01*
X128345332Y-88157447D01*
X128268726Y-88042797D01*
X128171224Y-87945295D01*
X128056574Y-87868689D01*
X128010755Y-87849710D01*
X128665698Y-87194769D01*
X128563583Y-87120578D01*
X128339184Y-87006240D01*
X128099669Y-86928418D01*
X127850928Y-86889021D01*
X127599072Y-86889021D01*
X127350330Y-86928418D01*
X127110815Y-87006240D01*
X126886413Y-87120580D01*
X126784301Y-87194768D01*
X126784300Y-87194769D01*
X127439242Y-87849711D01*
X127393426Y-87868689D01*
X127278776Y-87945295D01*
X127181274Y-88042797D01*
X127104668Y-88157447D01*
X127085690Y-88203263D01*
X126430748Y-87548321D01*
X126430747Y-87548322D01*
X126356559Y-87650434D01*
X126242219Y-87874836D01*
X126164397Y-88114351D01*
X126125000Y-88363092D01*
X126125000Y-88614949D01*
X126164397Y-88863690D01*
X126242219Y-89103205D01*
X126356557Y-89327604D01*
X126430748Y-89429718D01*
X126430748Y-89429719D01*
X127085690Y-88774777D01*
X127104668Y-88820595D01*
X127181274Y-88935245D01*
X127278776Y-89032747D01*
X127393426Y-89109353D01*
X127439242Y-89128330D01*
X126784300Y-89783271D01*
X126886416Y-89857463D01*
X127097497Y-89965015D01*
X127148293Y-90012990D01*
X127165088Y-90080811D01*
X127142551Y-90146946D01*
X127087835Y-90190397D01*
X127041202Y-90199500D01*
X126234537Y-90199500D01*
X126079892Y-90230261D01*
X126079880Y-90230264D01*
X125934209Y-90290602D01*
X125934196Y-90290609D01*
X125803094Y-90378209D01*
X125796465Y-90384838D01*
X125789834Y-90391470D01*
X125734083Y-90447221D01*
X125678332Y-90502971D01*
X125590732Y-90634073D01*
X125590725Y-90634086D01*
X125530387Y-90779757D01*
X125530384Y-90779769D01*
X125499623Y-90934412D01*
X125499623Y-91092105D01*
X125530384Y-91246748D01*
X125530387Y-91246760D01*
X125590725Y-91392431D01*
X125590732Y-91392444D01*
X125678333Y-91523547D01*
X125678336Y-91523551D01*
X126143251Y-91988465D01*
X126163181Y-92008395D01*
X126196666Y-92069718D01*
X126199500Y-92096076D01*
X126199500Y-99111760D01*
X126179815Y-99178799D01*
X126127011Y-99224554D01*
X126057853Y-99234498D01*
X125994297Y-99205473D01*
X125960939Y-99159214D01*
X125958827Y-99154115D01*
X125958824Y-99154110D01*
X125958823Y-99154108D01*
X125871222Y-99023005D01*
X125871219Y-99023001D01*
X125759725Y-98911507D01*
X125759721Y-98911504D01*
X125628618Y-98823903D01*
X125628605Y-98823896D01*
X125482934Y-98763558D01*
X125482922Y-98763555D01*
X125328278Y-98732794D01*
X125328275Y-98732794D01*
X125170591Y-98732794D01*
X125170588Y-98732794D01*
X125015943Y-98763555D01*
X125015931Y-98763558D01*
X124870260Y-98823896D01*
X124870247Y-98823903D01*
X124739144Y-98911504D01*
X124739140Y-98911507D01*
X124627646Y-99023001D01*
X124627643Y-99023005D01*
X124540042Y-99154108D01*
X124540035Y-99154121D01*
X124479697Y-99299792D01*
X124479694Y-99299804D01*
X124448933Y-99454447D01*
X124448933Y-99612140D01*
X124479694Y-99766783D01*
X124479697Y-99766795D01*
X124540035Y-99912466D01*
X124540042Y-99912479D01*
X124627642Y-100043581D01*
X124627643Y-100043582D01*
X124627644Y-100043583D01*
X124651078Y-100067017D01*
X124684563Y-100128338D01*
X124679580Y-100198029D01*
X124651084Y-100242374D01*
X124647686Y-100245772D01*
X124560087Y-100376872D01*
X124560080Y-100376885D01*
X124499742Y-100522556D01*
X124499739Y-100522568D01*
X124468978Y-100677211D01*
X124468978Y-100834904D01*
X124499739Y-100989547D01*
X124499742Y-100989559D01*
X124560080Y-101135230D01*
X124560087Y-101135243D01*
X124647688Y-101266346D01*
X124647691Y-101266350D01*
X124661100Y-101279759D01*
X124694585Y-101341082D01*
X124689601Y-101410774D01*
X124661100Y-101455121D01*
X124597578Y-101518642D01*
X124597575Y-101518646D01*
X124509974Y-101649749D01*
X124509967Y-101649762D01*
X124449629Y-101795433D01*
X124449626Y-101795445D01*
X124418865Y-101950088D01*
X121380597Y-101950088D01*
X121380597Y-89805822D01*
X121400282Y-89738783D01*
X121453086Y-89693028D01*
X121522244Y-89683084D01*
X121577591Y-89708134D01*
X121578729Y-89706569D01*
X121786416Y-89857463D01*
X122010815Y-89971801D01*
X122250330Y-90049623D01*
X122499072Y-90089021D01*
X122750928Y-90089021D01*
X122999669Y-90049623D01*
X123239184Y-89971801D01*
X123463575Y-89857467D01*
X123463581Y-89857463D01*
X123565697Y-89783271D01*
X123565698Y-89783271D01*
X122910757Y-89128330D01*
X122956574Y-89109353D01*
X123071224Y-89032747D01*
X123168726Y-88935245D01*
X123245332Y-88820595D01*
X123264309Y-88774778D01*
X123919250Y-89429719D01*
X123919250Y-89429718D01*
X123993442Y-89327602D01*
X123993446Y-89327596D01*
X124107780Y-89103205D01*
X124185602Y-88863690D01*
X124225000Y-88614949D01*
X124225000Y-88363092D01*
X124185602Y-88114351D01*
X124107780Y-87874836D01*
X123993442Y-87650437D01*
X123919250Y-87548322D01*
X123919250Y-87548321D01*
X123264309Y-88203262D01*
X123245332Y-88157447D01*
X123168726Y-88042797D01*
X123071224Y-87945295D01*
X122956574Y-87868689D01*
X122910756Y-87849710D01*
X123565698Y-87194769D01*
X123463583Y-87120578D01*
X123239184Y-87006240D01*
X122999669Y-86928418D01*
X122750928Y-86889021D01*
X122499072Y-86889021D01*
X122250330Y-86928418D01*
X122010815Y-87006240D01*
X121786416Y-87120578D01*
X121578729Y-87271473D01*
X121577581Y-87269893D01*
X121521357Y-87295081D01*
X121452272Y-87284638D01*
X121399800Y-87238503D01*
X121380597Y-87172219D01*
X121380597Y-85844534D01*
X123974500Y-85844534D01*
X123974500Y-86033507D01*
X124004059Y-86220139D01*
X124062454Y-86399857D01*
X124127841Y-86528185D01*
X124148240Y-86568220D01*
X124259310Y-86721094D01*
X124392927Y-86854711D01*
X124545801Y-86965781D01*
X124559100Y-86972557D01*
X124714163Y-87051566D01*
X124714165Y-87051566D01*
X124714168Y-87051568D01*
X124810497Y-87082867D01*
X124893881Y-87109961D01*
X125080514Y-87139521D01*
X125080519Y-87139521D01*
X125269486Y-87139521D01*
X125395539Y-87119556D01*
X125456118Y-87109961D01*
X125635832Y-87051568D01*
X125804199Y-86965781D01*
X125957073Y-86854711D01*
X126090690Y-86721094D01*
X126201760Y-86568220D01*
X126287547Y-86399853D01*
X126345940Y-86220139D01*
X126359982Y-86131482D01*
X126375500Y-86033507D01*
X126375500Y-85844534D01*
X126345940Y-85657902D01*
X126304021Y-85528890D01*
X126287547Y-85478189D01*
X126287545Y-85478186D01*
X126287545Y-85478184D01*
X126224385Y-85354227D01*
X126201760Y-85309822D01*
X126090690Y-85156948D01*
X125957073Y-85023331D01*
X125804199Y-84912261D01*
X125635836Y-84826475D01*
X125456118Y-84768080D01*
X125395533Y-84758485D01*
X125269486Y-84738521D01*
X125269481Y-84738521D01*
X125080519Y-84738521D01*
X125080514Y-84738521D01*
X124893881Y-84768080D01*
X124714163Y-84826475D01*
X124545800Y-84912261D01*
X124487598Y-84954548D01*
X124392927Y-85023331D01*
X124392925Y-85023333D01*
X124392924Y-85023333D01*
X124259312Y-85156945D01*
X124259312Y-85156946D01*
X124259310Y-85156948D01*
X124227917Y-85200157D01*
X124148240Y-85309821D01*
X124062454Y-85478184D01*
X124004059Y-85657902D01*
X123974500Y-85844534D01*
X121380597Y-85844534D01*
X121380597Y-84705822D01*
X121400282Y-84638783D01*
X121453086Y-84593028D01*
X121522244Y-84583084D01*
X121577591Y-84608134D01*
X121578729Y-84606569D01*
X121786416Y-84757463D01*
X122010815Y-84871801D01*
X122250330Y-84949623D01*
X122499072Y-84989021D01*
X122750928Y-84989021D01*
X122999669Y-84949623D01*
X123239184Y-84871801D01*
X123463575Y-84757467D01*
X123463581Y-84757463D01*
X123565697Y-84683271D01*
X123565698Y-84683271D01*
X122910757Y-84028330D01*
X122956574Y-84009353D01*
X123071224Y-83932747D01*
X123168726Y-83835245D01*
X123245332Y-83720595D01*
X123264309Y-83674778D01*
X123919250Y-84329719D01*
X123919250Y-84329718D01*
X123993442Y-84227602D01*
X123993446Y-84227596D01*
X124107780Y-84003205D01*
X124185602Y-83763690D01*
X124225000Y-83514949D01*
X124225000Y-83263092D01*
X126125000Y-83263092D01*
X126125000Y-83514949D01*
X126164397Y-83763690D01*
X126242219Y-84003205D01*
X126356557Y-84227604D01*
X126430748Y-84329718D01*
X126430748Y-84329719D01*
X127085690Y-83674777D01*
X127104668Y-83720595D01*
X127181274Y-83835245D01*
X127278776Y-83932747D01*
X127393426Y-84009353D01*
X127439242Y-84028330D01*
X126784300Y-84683271D01*
X126886416Y-84757463D01*
X127110815Y-84871801D01*
X127350330Y-84949623D01*
X127599072Y-84989021D01*
X127850928Y-84989021D01*
X128099669Y-84949623D01*
X128339184Y-84871801D01*
X128563575Y-84757467D01*
X128563581Y-84757463D01*
X128665697Y-84683271D01*
X128665698Y-84683271D01*
X128010757Y-84028330D01*
X128056574Y-84009353D01*
X128171224Y-83932747D01*
X128268726Y-83835245D01*
X128345332Y-83720595D01*
X128364309Y-83674778D01*
X129019250Y-84329719D01*
X129019250Y-84329718D01*
X129093442Y-84227602D01*
X129093446Y-84227596D01*
X129207780Y-84003205D01*
X129285602Y-83763690D01*
X129325000Y-83514949D01*
X129325000Y-83263092D01*
X129285602Y-83014351D01*
X129207780Y-82774836D01*
X129093442Y-82550437D01*
X129019250Y-82448322D01*
X129019250Y-82448321D01*
X128364309Y-83103262D01*
X128345332Y-83057447D01*
X128268726Y-82942797D01*
X128171224Y-82845295D01*
X128056574Y-82768689D01*
X128010755Y-82749710D01*
X128665698Y-82094769D01*
X128563583Y-82020578D01*
X128339184Y-81906240D01*
X128099669Y-81828418D01*
X127850928Y-81789021D01*
X127599072Y-81789021D01*
X127350330Y-81828418D01*
X127110815Y-81906240D01*
X126886413Y-82020580D01*
X126784301Y-82094768D01*
X126784300Y-82094769D01*
X127439242Y-82749711D01*
X127393426Y-82768689D01*
X127278776Y-82845295D01*
X127181274Y-82942797D01*
X127104668Y-83057447D01*
X127085690Y-83103263D01*
X126430748Y-82448321D01*
X126430747Y-82448322D01*
X126356559Y-82550434D01*
X126242219Y-82774836D01*
X126164397Y-83014351D01*
X126125000Y-83263092D01*
X124225000Y-83263092D01*
X124185602Y-83014351D01*
X124107780Y-82774836D01*
X123993442Y-82550437D01*
X123919250Y-82448322D01*
X123919250Y-82448321D01*
X123264309Y-83103262D01*
X123245332Y-83057447D01*
X123168726Y-82942797D01*
X123071224Y-82845295D01*
X122956574Y-82768689D01*
X122910756Y-82749710D01*
X123565698Y-82094769D01*
X123463583Y-82020578D01*
X123239184Y-81906240D01*
X122999669Y-81828418D01*
X122750928Y-81789021D01*
X122499072Y-81789021D01*
X122250330Y-81828418D01*
X122010815Y-81906240D01*
X121786416Y-82020578D01*
X121578729Y-82171473D01*
X121577581Y-82169893D01*
X121521357Y-82195081D01*
X121452272Y-82184638D01*
X121399800Y-82138503D01*
X121380597Y-82072219D01*
X121380597Y-81497102D01*
X157199500Y-81497102D01*
X157199500Y-81654795D01*
X157230261Y-81809438D01*
X157230264Y-81809450D01*
X157290602Y-81955121D01*
X157290609Y-81955134D01*
X157378210Y-82086237D01*
X157378213Y-82086241D01*
X157489707Y-82197735D01*
X157489711Y-82197738D01*
X157620814Y-82285339D01*
X157620827Y-82285346D01*
X157766498Y-82345684D01*
X157766503Y-82345686D01*
X157921153Y-82376448D01*
X157921156Y-82376449D01*
X157921158Y-82376449D01*
X158078844Y-82376449D01*
X158078845Y-82376448D01*
X158233497Y-82345686D01*
X158379179Y-82285343D01*
X158431110Y-82250643D01*
X158497785Y-82229765D01*
X158565165Y-82248249D01*
X158568863Y-82250625D01*
X158620821Y-82285343D01*
X158620823Y-82285344D01*
X158620825Y-82285345D01*
X158766498Y-82345684D01*
X158766503Y-82345686D01*
X158921153Y-82376448D01*
X158921156Y-82376449D01*
X158921158Y-82376449D01*
X159078844Y-82376449D01*
X159078845Y-82376448D01*
X159233497Y-82345686D01*
X159379179Y-82285343D01*
X159510289Y-82197738D01*
X159621789Y-82086238D01*
X159709394Y-81955128D01*
X159769737Y-81809446D01*
X159800500Y-81654791D01*
X159800500Y-81497107D01*
X159800500Y-81497104D01*
X159800499Y-81497102D01*
X159769738Y-81342459D01*
X159769737Y-81342452D01*
X159724641Y-81233579D01*
X159709397Y-81196776D01*
X159709390Y-81196763D01*
X159621789Y-81065660D01*
X159621786Y-81065656D01*
X159510292Y-80954162D01*
X159510288Y-80954159D01*
X159379185Y-80866558D01*
X159379172Y-80866551D01*
X159233501Y-80806213D01*
X159233489Y-80806210D01*
X159078845Y-80775449D01*
X159078842Y-80775449D01*
X158921158Y-80775449D01*
X158921155Y-80775449D01*
X158766510Y-80806210D01*
X158766498Y-80806213D01*
X158620827Y-80866551D01*
X158620814Y-80866558D01*
X158568891Y-80901253D01*
X158502214Y-80922131D01*
X158434833Y-80903647D01*
X158431109Y-80901253D01*
X158379185Y-80866558D01*
X158379172Y-80866551D01*
X158233501Y-80806213D01*
X158233489Y-80806210D01*
X158078845Y-80775449D01*
X158078842Y-80775449D01*
X157921158Y-80775449D01*
X157921155Y-80775449D01*
X157766510Y-80806210D01*
X157766498Y-80806213D01*
X157620827Y-80866551D01*
X157620814Y-80866558D01*
X157489711Y-80954159D01*
X157489707Y-80954162D01*
X157378213Y-81065656D01*
X157378210Y-81065660D01*
X157290609Y-81196763D01*
X157290602Y-81196776D01*
X157230264Y-81342447D01*
X157230261Y-81342459D01*
X157199500Y-81497102D01*
X121380597Y-81497102D01*
X121380597Y-80374061D01*
X121386419Y-80354232D01*
X163179215Y-80354232D01*
X163179215Y-80511925D01*
X163209976Y-80666568D01*
X163209979Y-80666580D01*
X163270317Y-80812251D01*
X163270324Y-80812264D01*
X163357925Y-80943367D01*
X163357928Y-80943371D01*
X163469422Y-81054865D01*
X163469426Y-81054868D01*
X163600529Y-81142469D01*
X163600542Y-81142476D01*
X163731636Y-81196776D01*
X163746218Y-81202816D01*
X163900868Y-81233578D01*
X163900871Y-81233579D01*
X163900873Y-81233579D01*
X164058559Y-81233579D01*
X164058560Y-81233578D01*
X164213212Y-81202816D01*
X164358894Y-81142473D01*
X164490004Y-81054868D01*
X164601504Y-80943368D01*
X164689109Y-80812258D01*
X164749452Y-80666576D01*
X164780215Y-80511921D01*
X164780215Y-80354237D01*
X164780215Y-80354234D01*
X164780214Y-80354232D01*
X164770823Y-80307022D01*
X164749452Y-80199582D01*
X164749450Y-80199577D01*
X164689112Y-80053906D01*
X164689105Y-80053893D01*
X164601504Y-79922790D01*
X164601501Y-79922786D01*
X164490007Y-79811292D01*
X164490003Y-79811289D01*
X164358900Y-79723688D01*
X164358887Y-79723681D01*
X164213216Y-79663343D01*
X164213204Y-79663340D01*
X164058560Y-79632579D01*
X164058557Y-79632579D01*
X163900873Y-79632579D01*
X163900870Y-79632579D01*
X163746225Y-79663340D01*
X163746213Y-79663343D01*
X163600542Y-79723681D01*
X163600529Y-79723688D01*
X163469426Y-79811289D01*
X163469422Y-79811292D01*
X163357928Y-79922786D01*
X163357925Y-79922790D01*
X163270324Y-80053893D01*
X163270317Y-80053906D01*
X163209979Y-80199577D01*
X163209976Y-80199589D01*
X163179215Y-80354232D01*
X121386419Y-80354232D01*
X121400282Y-80307022D01*
X121453086Y-80261267D01*
X121504597Y-80250061D01*
X128323968Y-80250061D01*
X128352520Y-80250131D01*
X128352520Y-80250132D01*
X128490306Y-80250471D01*
X128763609Y-80215160D01*
X129029957Y-80144449D01*
X129284786Y-80039551D01*
X129523728Y-79902264D01*
X129742689Y-79734939D01*
X129937916Y-79540446D01*
X130106063Y-79322116D01*
X130244249Y-79083692D01*
X130350105Y-78829260D01*
X130421818Y-78563180D01*
X130458158Y-78290012D01*
X130458502Y-78014438D01*
X130422845Y-77741180D01*
X130413857Y-77707496D01*
X130410090Y-77693377D01*
X130402859Y-77666280D01*
X142350000Y-77666280D01*
X142350000Y-77925995D01*
X142390629Y-78182515D01*
X142470883Y-78429515D01*
X142588796Y-78660929D01*
X142669951Y-78772630D01*
X142669952Y-78772631D01*
X143209521Y-78233061D01*
X143300924Y-78369855D01*
X143426283Y-78495214D01*
X143563075Y-78586615D01*
X143023505Y-79126184D01*
X143023506Y-79126186D01*
X143135208Y-79207341D01*
X143366622Y-79325254D01*
X143613622Y-79405508D01*
X143870143Y-79446138D01*
X144129857Y-79446138D01*
X144386377Y-79405508D01*
X144633377Y-79325254D01*
X144864788Y-79207343D01*
X144976492Y-79126184D01*
X144976493Y-79126184D01*
X144436924Y-78586615D01*
X144573717Y-78495214D01*
X144699076Y-78369855D01*
X144790477Y-78233062D01*
X145330046Y-78772631D01*
X145330046Y-78772630D01*
X145411205Y-78660926D01*
X145529116Y-78429515D01*
X145609370Y-78182515D01*
X145650000Y-77925995D01*
X145650000Y-77666280D01*
X146550000Y-77666280D01*
X146550000Y-77925995D01*
X146590629Y-78182515D01*
X146670883Y-78429515D01*
X146788796Y-78660929D01*
X146869951Y-78772630D01*
X146869952Y-78772631D01*
X147409521Y-78233061D01*
X147500924Y-78369855D01*
X147626283Y-78495214D01*
X147763075Y-78586615D01*
X147223505Y-79126184D01*
X147223506Y-79126186D01*
X147335208Y-79207341D01*
X147566622Y-79325254D01*
X147813622Y-79405508D01*
X148070143Y-79446138D01*
X148329857Y-79446138D01*
X148586377Y-79405508D01*
X148833377Y-79325254D01*
X149064788Y-79207343D01*
X149176492Y-79126184D01*
X149176493Y-79126184D01*
X148636924Y-78586615D01*
X148773717Y-78495214D01*
X148899076Y-78369855D01*
X148990477Y-78233062D01*
X149530046Y-78772631D01*
X149530046Y-78772630D01*
X149611205Y-78660926D01*
X149729116Y-78429515D01*
X149809370Y-78182515D01*
X149850000Y-77925995D01*
X149850000Y-77666280D01*
X149809370Y-77409760D01*
X149729116Y-77162760D01*
X149611203Y-76931346D01*
X149530048Y-76819644D01*
X149530046Y-76819643D01*
X148990476Y-77359212D01*
X148899076Y-77222421D01*
X148773717Y-77097062D01*
X148636924Y-77005660D01*
X149176493Y-76466090D01*
X149176492Y-76466089D01*
X149064791Y-76384934D01*
X148833377Y-76267021D01*
X148586377Y-76186767D01*
X148329857Y-76146138D01*
X148070143Y-76146138D01*
X147813622Y-76186767D01*
X147566622Y-76267021D01*
X147335215Y-76384930D01*
X147223506Y-76466090D01*
X147763076Y-77005660D01*
X147626283Y-77097062D01*
X147500924Y-77222421D01*
X147409522Y-77359214D01*
X146869952Y-76819644D01*
X146788792Y-76931353D01*
X146670883Y-77162760D01*
X146590629Y-77409760D01*
X146550000Y-77666280D01*
X145650000Y-77666280D01*
X145609370Y-77409760D01*
X145529116Y-77162760D01*
X145411203Y-76931346D01*
X145330048Y-76819644D01*
X145330046Y-76819643D01*
X144790477Y-77359212D01*
X144699076Y-77222421D01*
X144573717Y-77097062D01*
X144436924Y-77005660D01*
X144976493Y-76466090D01*
X144976492Y-76466089D01*
X144864791Y-76384934D01*
X144633377Y-76267021D01*
X144386377Y-76186767D01*
X144129857Y-76146138D01*
X143870143Y-76146138D01*
X143613622Y-76186767D01*
X143366622Y-76267021D01*
X143135215Y-76384930D01*
X143023506Y-76466090D01*
X143563076Y-77005660D01*
X143426283Y-77097062D01*
X143300924Y-77222421D01*
X143209522Y-77359214D01*
X142669952Y-76819644D01*
X142588792Y-76931353D01*
X142470883Y-77162760D01*
X142390629Y-77409760D01*
X142350000Y-77666280D01*
X130402859Y-77666280D01*
X130351797Y-77474919D01*
X130246579Y-77220229D01*
X130246574Y-77220218D01*
X130108994Y-76981466D01*
X130108990Y-76981461D01*
X130108988Y-76981457D01*
X129941387Y-76762708D01*
X129746647Y-76567727D01*
X129528105Y-76399856D01*
X129464564Y-76363136D01*
X129289510Y-76261973D01*
X129034943Y-76156437D01*
X129034936Y-76156435D01*
X128768783Y-76085063D01*
X128768776Y-76085062D01*
X128768773Y-76085061D01*
X128768771Y-76085061D01*
X128495557Y-76049066D01*
X128495552Y-76049065D01*
X128495549Y-76049065D01*
X128431286Y-76049063D01*
X128431250Y-76049061D01*
X128423669Y-76049061D01*
X121504597Y-76049061D01*
X121437558Y-76029376D01*
X121391803Y-75976572D01*
X121380597Y-75925061D01*
X121380597Y-71098273D01*
X142349500Y-71098273D01*
X142349500Y-73494008D01*
X142349501Y-73494014D01*
X142355908Y-73553621D01*
X142406202Y-73688466D01*
X142406206Y-73688473D01*
X142492452Y-73803682D01*
X142492455Y-73803685D01*
X142607664Y-73889931D01*
X142607671Y-73889935D01*
X142742517Y-73940229D01*
X142742516Y-73940229D01*
X142749444Y-73940973D01*
X142802127Y-73946638D01*
X145197872Y-73946637D01*
X145257483Y-73940229D01*
X145392331Y-73889934D01*
X145507546Y-73803684D01*
X145593796Y-73688469D01*
X145644091Y-73553621D01*
X145650500Y-73494011D01*
X145650499Y-72166235D01*
X146549500Y-72166235D01*
X146549500Y-72426040D01*
X146590140Y-72682631D01*
X146670422Y-72929714D01*
X146707427Y-73002339D01*
X146782811Y-73150287D01*
X146788368Y-73161192D01*
X146941066Y-73371363D01*
X146941069Y-73371367D01*
X147124771Y-73555069D01*
X147334949Y-73707772D01*
X147479330Y-73781338D01*
X147566423Y-73825715D01*
X147566425Y-73825715D01*
X147566428Y-73825717D01*
X147813507Y-73905998D01*
X147945706Y-73926935D01*
X148070098Y-73946638D01*
X148070103Y-73946638D01*
X148329902Y-73946638D01*
X148443298Y-73928677D01*
X148586493Y-73905998D01*
X148833572Y-73825717D01*
X149065051Y-73707772D01*
X149275229Y-73555069D01*
X149458931Y-73371367D01*
X149611634Y-73161189D01*
X149729579Y-72929710D01*
X149809860Y-72682631D01*
X149842742Y-72475019D01*
X149850500Y-72426040D01*
X149850500Y-72301703D01*
X160190500Y-72301703D01*
X160190500Y-72459396D01*
X160221261Y-72614039D01*
X160221264Y-72614051D01*
X160281602Y-72759722D01*
X160281609Y-72759735D01*
X160369210Y-72890838D01*
X160369213Y-72890842D01*
X160480707Y-73002336D01*
X160480711Y-73002339D01*
X160611814Y-73089940D01*
X160611827Y-73089947D01*
X160757498Y-73150285D01*
X160757503Y-73150287D01*
X160912153Y-73181049D01*
X160912156Y-73181050D01*
X160912158Y-73181050D01*
X161069844Y-73181050D01*
X161069845Y-73181049D01*
X161224497Y-73150287D01*
X161368965Y-73090447D01*
X161370172Y-73089947D01*
X161370172Y-73089946D01*
X161370179Y-73089944D01*
X161501289Y-73002339D01*
X161570872Y-72932756D01*
X168118277Y-72932756D01*
X168118277Y-73090449D01*
X168149038Y-73245092D01*
X168149041Y-73245104D01*
X168209379Y-73390775D01*
X168209386Y-73390788D01*
X168296987Y-73521891D01*
X168296990Y-73521895D01*
X168408484Y-73633389D01*
X168408488Y-73633392D01*
X168539591Y-73720993D01*
X168539604Y-73721000D01*
X168685275Y-73781338D01*
X168685280Y-73781340D01*
X168839930Y-73812102D01*
X168839933Y-73812103D01*
X168839935Y-73812103D01*
X168997621Y-73812103D01*
X168997622Y-73812102D01*
X169152274Y-73781340D01*
X169297956Y-73720997D01*
X169429066Y-73633392D01*
X169540566Y-73521892D01*
X169628171Y-73390782D01*
X169688514Y-73245100D01*
X169719277Y-73090445D01*
X169719277Y-73023238D01*
X169738962Y-72956199D01*
X169755597Y-72935556D01*
X169795835Y-72895318D01*
X169795838Y-72895315D01*
X169883443Y-72764205D01*
X169943786Y-72618523D01*
X169974549Y-72463868D01*
X169974549Y-72317326D01*
X170280461Y-72317326D01*
X170280461Y-72475019D01*
X170311222Y-72629662D01*
X170311225Y-72629674D01*
X170340656Y-72700726D01*
X170371567Y-72775352D01*
X170371570Y-72775357D01*
X170373122Y-72778261D01*
X170373475Y-72779960D01*
X170373898Y-72780980D01*
X170373704Y-72781060D01*
X170387360Y-72846665D01*
X170378322Y-72884159D01*
X170340272Y-72976022D01*
X170340270Y-72976029D01*
X170309509Y-73130672D01*
X170309509Y-73288365D01*
X170340270Y-73443008D01*
X170340273Y-73443020D01*
X170400611Y-73588691D01*
X170400618Y-73588704D01*
X170488219Y-73719807D01*
X170488222Y-73719811D01*
X170599716Y-73831305D01*
X170599720Y-73831308D01*
X170730823Y-73918909D01*
X170730836Y-73918916D01*
X170876507Y-73979254D01*
X170876512Y-73979256D01*
X171031162Y-74010018D01*
X171031165Y-74010019D01*
X171031167Y-74010019D01*
X171188853Y-74010019D01*
X171188854Y-74010018D01*
X171343506Y-73979256D01*
X171489188Y-73918913D01*
X171620298Y-73831308D01*
X171731798Y-73719808D01*
X171819403Y-73588698D01*
X171879746Y-73443016D01*
X171910509Y-73288361D01*
X171910509Y-73130677D01*
X171910509Y-73130674D01*
X171910508Y-73130672D01*
X171889138Y-73023238D01*
X171879746Y-72976022D01*
X171844462Y-72890838D01*
X171819404Y-72830342D01*
X171817853Y-72827440D01*
X171817499Y-72825743D01*
X171817072Y-72824711D01*
X171817267Y-72824629D01*
X171803608Y-72759038D01*
X171812647Y-72721533D01*
X171850698Y-72629670D01*
X171881461Y-72475015D01*
X171881461Y-72317331D01*
X171881461Y-72317328D01*
X171881460Y-72317326D01*
X171851406Y-72166235D01*
X171850698Y-72162676D01*
X171844225Y-72147048D01*
X171790358Y-72017000D01*
X171790351Y-72016987D01*
X171702750Y-71885884D01*
X171702747Y-71885880D01*
X171591253Y-71774386D01*
X171591249Y-71774383D01*
X171460146Y-71686782D01*
X171460133Y-71686775D01*
X171314462Y-71626437D01*
X171314450Y-71626434D01*
X171159806Y-71595673D01*
X171159803Y-71595673D01*
X171002119Y-71595673D01*
X171002116Y-71595673D01*
X170847471Y-71626434D01*
X170847459Y-71626437D01*
X170701788Y-71686775D01*
X170701775Y-71686782D01*
X170570672Y-71774383D01*
X170570668Y-71774386D01*
X170459174Y-71885880D01*
X170459171Y-71885884D01*
X170371570Y-72016987D01*
X170371563Y-72017000D01*
X170311225Y-72162671D01*
X170311222Y-72162683D01*
X170280461Y-72317326D01*
X169974549Y-72317326D01*
X169974549Y-72306184D01*
X169974549Y-72306181D01*
X169974548Y-72306179D01*
X169946363Y-72164485D01*
X169943786Y-72151529D01*
X169888063Y-72017000D01*
X169883446Y-72005853D01*
X169883439Y-72005840D01*
X169795838Y-71874737D01*
X169795835Y-71874733D01*
X169684341Y-71763239D01*
X169684337Y-71763236D01*
X169553234Y-71675635D01*
X169553221Y-71675628D01*
X169407550Y-71615290D01*
X169407538Y-71615287D01*
X169252894Y-71584526D01*
X169252891Y-71584526D01*
X169095207Y-71584526D01*
X169095204Y-71584526D01*
X168940559Y-71615287D01*
X168940547Y-71615290D01*
X168794876Y-71675628D01*
X168794863Y-71675635D01*
X168663760Y-71763236D01*
X168663756Y-71763239D01*
X168552262Y-71874733D01*
X168552259Y-71874737D01*
X168464658Y-72005840D01*
X168464651Y-72005853D01*
X168404313Y-72151524D01*
X168404310Y-72151536D01*
X168373549Y-72306179D01*
X168373549Y-72373390D01*
X168353864Y-72440429D01*
X168337230Y-72461071D01*
X168296990Y-72501310D01*
X168296987Y-72501314D01*
X168209386Y-72632417D01*
X168209379Y-72632430D01*
X168149041Y-72778101D01*
X168149038Y-72778113D01*
X168118277Y-72932756D01*
X161570872Y-72932756D01*
X161612789Y-72890839D01*
X161656975Y-72824711D01*
X161700390Y-72759735D01*
X161700390Y-72759734D01*
X161700394Y-72759729D01*
X161760737Y-72614047D01*
X161791500Y-72459392D01*
X161791500Y-72301708D01*
X161791500Y-72301705D01*
X161791499Y-72301703D01*
X161760737Y-72147053D01*
X161706868Y-72017000D01*
X161700397Y-72001377D01*
X161700395Y-72001373D01*
X161700394Y-72001371D01*
X161623225Y-71885880D01*
X161612792Y-71870265D01*
X161612786Y-71870257D01*
X161594670Y-71852141D01*
X165699500Y-71852141D01*
X165699500Y-72009834D01*
X165730261Y-72164477D01*
X165730264Y-72164489D01*
X165790602Y-72310160D01*
X165790609Y-72310173D01*
X165878210Y-72441276D01*
X165878213Y-72441280D01*
X165989707Y-72552774D01*
X165989711Y-72552777D01*
X166120814Y-72640378D01*
X166120827Y-72640385D01*
X166266498Y-72700723D01*
X166266503Y-72700725D01*
X166421153Y-72731487D01*
X166421156Y-72731488D01*
X166421158Y-72731488D01*
X166578844Y-72731488D01*
X166578845Y-72731487D01*
X166733497Y-72700725D01*
X166879179Y-72640382D01*
X167010289Y-72552777D01*
X167121789Y-72441277D01*
X167209394Y-72310167D01*
X167269737Y-72164485D01*
X167300500Y-72009830D01*
X167300500Y-71852146D01*
X167300500Y-71852143D01*
X167300499Y-71852141D01*
X167282815Y-71763237D01*
X167269737Y-71697491D01*
X167240306Y-71626437D01*
X167209397Y-71551815D01*
X167209390Y-71551802D01*
X167121789Y-71420699D01*
X167121786Y-71420695D01*
X167010292Y-71309201D01*
X167010288Y-71309198D01*
X166879185Y-71221597D01*
X166879172Y-71221590D01*
X166733501Y-71161252D01*
X166733489Y-71161249D01*
X166578845Y-71130488D01*
X166578842Y-71130488D01*
X166421158Y-71130488D01*
X166421155Y-71130488D01*
X166266510Y-71161249D01*
X166266498Y-71161252D01*
X166120827Y-71221590D01*
X166120814Y-71221597D01*
X165989711Y-71309198D01*
X165989707Y-71309201D01*
X165878213Y-71420695D01*
X165878210Y-71420699D01*
X165790609Y-71551802D01*
X165790602Y-71551815D01*
X165730264Y-71697486D01*
X165730261Y-71697498D01*
X165699500Y-71852141D01*
X161594670Y-71852141D01*
X161501292Y-71758763D01*
X161501288Y-71758760D01*
X161370185Y-71671159D01*
X161370172Y-71671152D01*
X161224501Y-71610814D01*
X161224489Y-71610811D01*
X161069845Y-71580050D01*
X161069842Y-71580050D01*
X160912158Y-71580050D01*
X160912155Y-71580050D01*
X160757510Y-71610811D01*
X160757498Y-71610814D01*
X160611827Y-71671152D01*
X160611814Y-71671159D01*
X160480711Y-71758760D01*
X160480707Y-71758763D01*
X160369213Y-71870257D01*
X160369210Y-71870261D01*
X160281609Y-72001364D01*
X160281602Y-72001377D01*
X160221264Y-72147048D01*
X160221261Y-72147060D01*
X160190500Y-72301703D01*
X149850500Y-72301703D01*
X149850500Y-72166235D01*
X149825727Y-72009830D01*
X149809860Y-71909645D01*
X149729579Y-71662566D01*
X149729577Y-71662563D01*
X149729577Y-71662561D01*
X149673145Y-71551809D01*
X149611634Y-71431087D01*
X149458931Y-71220909D01*
X149275229Y-71037207D01*
X149091622Y-70903809D01*
X149065054Y-70884506D01*
X149065053Y-70884505D01*
X149065051Y-70884504D01*
X148992764Y-70847672D01*
X148833576Y-70766560D01*
X148586493Y-70686278D01*
X148329902Y-70645638D01*
X148329897Y-70645638D01*
X148070103Y-70645638D01*
X148070098Y-70645638D01*
X147813506Y-70686278D01*
X147566423Y-70766560D01*
X147334945Y-70884506D01*
X147124774Y-71037204D01*
X147124768Y-71037209D01*
X146941071Y-71220906D01*
X146941066Y-71220912D01*
X146788368Y-71431083D01*
X146670422Y-71662561D01*
X146590140Y-71909644D01*
X146549500Y-72166235D01*
X145650499Y-72166235D01*
X145650499Y-71098266D01*
X145644091Y-71038655D01*
X145593796Y-70903807D01*
X145593795Y-70903806D01*
X145593793Y-70903802D01*
X145507547Y-70788593D01*
X145507544Y-70788590D01*
X145392335Y-70702344D01*
X145392328Y-70702340D01*
X145257482Y-70652046D01*
X145257483Y-70652046D01*
X145197883Y-70645639D01*
X145197881Y-70645638D01*
X145197873Y-70645638D01*
X145197864Y-70645638D01*
X142802129Y-70645638D01*
X142802123Y-70645639D01*
X142742516Y-70652046D01*
X142607671Y-70702340D01*
X142607664Y-70702344D01*
X142492455Y-70788590D01*
X142492452Y-70788593D01*
X142406206Y-70903802D01*
X142406202Y-70903809D01*
X142355908Y-71038655D01*
X142349501Y-71098254D01*
X142349501Y-71098261D01*
X142349500Y-71098273D01*
X121380597Y-71098273D01*
X121380597Y-67974849D01*
X137649500Y-67974849D01*
X137649500Y-68217426D01*
X137681161Y-68457923D01*
X137743947Y-68692242D01*
X137835706Y-68913766D01*
X137836776Y-68916350D01*
X137958064Y-69126427D01*
X137958066Y-69126430D01*
X137958067Y-69126431D01*
X138105733Y-69318874D01*
X138105739Y-69318881D01*
X138277256Y-69490398D01*
X138277262Y-69490403D01*
X138469711Y-69638074D01*
X138679788Y-69759362D01*
X138903900Y-69852192D01*
X139138211Y-69914976D01*
X139318586Y-69938722D01*
X139378711Y-69946638D01*
X139378712Y-69946638D01*
X139621289Y-69946638D01*
X139669388Y-69940305D01*
X139861789Y-69914976D01*
X140096100Y-69852192D01*
X140320212Y-69759362D01*
X140530289Y-69638074D01*
X140722738Y-69490403D01*
X140894265Y-69318876D01*
X141041936Y-69126427D01*
X141163224Y-68916350D01*
X141256054Y-68692238D01*
X141318838Y-68457927D01*
X141350500Y-68217426D01*
X141350500Y-67974850D01*
X141350500Y-67974849D01*
X150849500Y-67974849D01*
X150849500Y-68217426D01*
X150881161Y-68457923D01*
X150943947Y-68692242D01*
X151035706Y-68913766D01*
X151036776Y-68916350D01*
X151158064Y-69126427D01*
X151158066Y-69126430D01*
X151158067Y-69126431D01*
X151305733Y-69318874D01*
X151305739Y-69318881D01*
X151477256Y-69490398D01*
X151477262Y-69490403D01*
X151669711Y-69638074D01*
X151879788Y-69759362D01*
X152103900Y-69852192D01*
X152338211Y-69914976D01*
X152518586Y-69938722D01*
X152578711Y-69946638D01*
X152578712Y-69946638D01*
X152821289Y-69946638D01*
X152869388Y-69940305D01*
X153061789Y-69914976D01*
X153296100Y-69852192D01*
X153520212Y-69759362D01*
X153730289Y-69638074D01*
X153922738Y-69490403D01*
X154094265Y-69318876D01*
X154241936Y-69126427D01*
X154363224Y-68916350D01*
X154456054Y-68692238D01*
X154518838Y-68457927D01*
X154550500Y-68217426D01*
X154550500Y-67974850D01*
X154518838Y-67734349D01*
X154456054Y-67500038D01*
X154454822Y-67497064D01*
X154433994Y-67446778D01*
X154416860Y-67405413D01*
X163871957Y-67405413D01*
X163871957Y-67563106D01*
X163902718Y-67717749D01*
X163902721Y-67717761D01*
X163953630Y-67840668D01*
X163961099Y-67910138D01*
X163953630Y-67935572D01*
X163902721Y-68058478D01*
X163902718Y-68058490D01*
X163871957Y-68213133D01*
X163871957Y-68370826D01*
X163902718Y-68525469D01*
X163902721Y-68525481D01*
X163963059Y-68671152D01*
X163963066Y-68671165D01*
X164050667Y-68802268D01*
X164050670Y-68802272D01*
X164162164Y-68913766D01*
X164162168Y-68913769D01*
X164293271Y-69001370D01*
X164293284Y-69001377D01*
X164438955Y-69061715D01*
X164438960Y-69061717D01*
X164593610Y-69092479D01*
X164593613Y-69092480D01*
X164593615Y-69092480D01*
X164751301Y-69092480D01*
X164751302Y-69092479D01*
X164905954Y-69061717D01*
X165051636Y-69001374D01*
X165182746Y-68913769D01*
X165294246Y-68802269D01*
X165381851Y-68671159D01*
X165442194Y-68525477D01*
X165472957Y-68370822D01*
X165472957Y-68213138D01*
X165472957Y-68213135D01*
X165456651Y-68131164D01*
X165462878Y-68061573D01*
X165505740Y-68006395D01*
X165571630Y-67983150D01*
X165625720Y-67992411D01*
X165766498Y-68050722D01*
X165766503Y-68050724D01*
X165921153Y-68081486D01*
X165921156Y-68081487D01*
X165921158Y-68081487D01*
X166078844Y-68081487D01*
X166078845Y-68081486D01*
X166233497Y-68050724D01*
X166379179Y-67990381D01*
X166379184Y-67990377D01*
X166379187Y-67990376D01*
X166406608Y-67972054D01*
X166473285Y-67951175D01*
X166540666Y-67969659D01*
X166587356Y-68021637D01*
X166599500Y-68075155D01*
X166599500Y-68086203D01*
X166630261Y-68240846D01*
X166630264Y-68240858D01*
X166690602Y-68386529D01*
X166690609Y-68386542D01*
X166778210Y-68517645D01*
X166778213Y-68517649D01*
X166889707Y-68629143D01*
X166889711Y-68629146D01*
X167020814Y-68716747D01*
X167020827Y-68716754D01*
X167166498Y-68777092D01*
X167166503Y-68777094D01*
X167321153Y-68807856D01*
X167321156Y-68807857D01*
X167321158Y-68807857D01*
X167478844Y-68807857D01*
X167478845Y-68807856D01*
X167633497Y-68777094D01*
X167779179Y-68716751D01*
X167910289Y-68629146D01*
X168021789Y-68517646D01*
X168109394Y-68386536D01*
X168169737Y-68240854D01*
X168200500Y-68086199D01*
X168200500Y-67928515D01*
X168200500Y-67928512D01*
X168200499Y-67928510D01*
X168173201Y-67791276D01*
X168169737Y-67773860D01*
X168169735Y-67773855D01*
X168109397Y-67628184D01*
X168109390Y-67628171D01*
X168021789Y-67497068D01*
X168021786Y-67497064D01*
X167910292Y-67385570D01*
X167910288Y-67385567D01*
X167779185Y-67297966D01*
X167779172Y-67297959D01*
X167633501Y-67237621D01*
X167633489Y-67237618D01*
X167478845Y-67206857D01*
X167478842Y-67206857D01*
X167321158Y-67206857D01*
X167321155Y-67206857D01*
X167166510Y-67237618D01*
X167166498Y-67237621D01*
X167020827Y-67297959D01*
X167020816Y-67297965D01*
X166993390Y-67316291D01*
X166926712Y-67337168D01*
X166859332Y-67318683D01*
X166812643Y-67266703D01*
X166800500Y-67213188D01*
X166800500Y-67202142D01*
X166800499Y-67202140D01*
X166781194Y-67105087D01*
X166769737Y-67047490D01*
X166729464Y-66950261D01*
X166709397Y-66901814D01*
X166709390Y-66901801D01*
X166621789Y-66770698D01*
X166621786Y-66770694D01*
X166510292Y-66659200D01*
X166510288Y-66659197D01*
X166379185Y-66571596D01*
X166379172Y-66571589D01*
X166233501Y-66511251D01*
X166233489Y-66511248D01*
X166078845Y-66480487D01*
X166078842Y-66480487D01*
X165921158Y-66480487D01*
X165921155Y-66480487D01*
X165766510Y-66511248D01*
X165766498Y-66511251D01*
X165620827Y-66571589D01*
X165620814Y-66571596D01*
X165489711Y-66659197D01*
X165489707Y-66659200D01*
X165378213Y-66770694D01*
X165378208Y-66770700D01*
X165344374Y-66821336D01*
X165290761Y-66866141D01*
X165221436Y-66874847D01*
X165172382Y-66855546D01*
X165051642Y-66774869D01*
X165051629Y-66774862D01*
X164905958Y-66714524D01*
X164905946Y-66714521D01*
X164751302Y-66683760D01*
X164751299Y-66683760D01*
X164593615Y-66683760D01*
X164593612Y-66683760D01*
X164438967Y-66714521D01*
X164438955Y-66714524D01*
X164293284Y-66774862D01*
X164293271Y-66774869D01*
X164162168Y-66862470D01*
X164162164Y-66862473D01*
X164050670Y-66973967D01*
X164050667Y-66973971D01*
X163963066Y-67105074D01*
X163963059Y-67105087D01*
X163902721Y-67250758D01*
X163902718Y-67250770D01*
X163871957Y-67405413D01*
X154416860Y-67405413D01*
X154363227Y-67275932D01*
X154363222Y-67275923D01*
X154348693Y-67250758D01*
X154241936Y-67065849D01*
X154116058Y-66901801D01*
X154094266Y-66873401D01*
X154094260Y-66873394D01*
X153922743Y-66701877D01*
X153922736Y-66701871D01*
X153730293Y-66554205D01*
X153730292Y-66554204D01*
X153730289Y-66554202D01*
X153520212Y-66432914D01*
X153520205Y-66432911D01*
X153296104Y-66340085D01*
X153061785Y-66277299D01*
X152821289Y-66245638D01*
X152821288Y-66245638D01*
X152578712Y-66245638D01*
X152578711Y-66245638D01*
X152338214Y-66277299D01*
X152103895Y-66340085D01*
X151879794Y-66432911D01*
X151879785Y-66432915D01*
X151669706Y-66554205D01*
X151477263Y-66701871D01*
X151477256Y-66701877D01*
X151305739Y-66873394D01*
X151305733Y-66873401D01*
X151158067Y-67065844D01*
X151036777Y-67275923D01*
X151036773Y-67275932D01*
X150943947Y-67500033D01*
X150881161Y-67734352D01*
X150849500Y-67974849D01*
X141350500Y-67974849D01*
X141318838Y-67734349D01*
X141256054Y-67500038D01*
X141163224Y-67275926D01*
X141041936Y-67065849D01*
X140916058Y-66901801D01*
X140894266Y-66873401D01*
X140894260Y-66873394D01*
X140722743Y-66701877D01*
X140722736Y-66701871D01*
X140530293Y-66554205D01*
X140530292Y-66554204D01*
X140530289Y-66554202D01*
X140320212Y-66432914D01*
X140320205Y-66432911D01*
X140096104Y-66340085D01*
X139861785Y-66277299D01*
X139621289Y-66245638D01*
X139621288Y-66245638D01*
X139378712Y-66245638D01*
X139378711Y-66245638D01*
X139138214Y-66277299D01*
X138903895Y-66340085D01*
X138679794Y-66432911D01*
X138679785Y-66432915D01*
X138469706Y-66554205D01*
X138277263Y-66701871D01*
X138277256Y-66701877D01*
X138105739Y-66873394D01*
X138105733Y-66873401D01*
X137958067Y-67065844D01*
X137836777Y-67275923D01*
X137836773Y-67275932D01*
X137743947Y-67500033D01*
X137681161Y-67734352D01*
X137649500Y-67974849D01*
X121380597Y-67974849D01*
X121380597Y-65744624D01*
X121400282Y-65677585D01*
X121453086Y-65631830D01*
X121504597Y-65620624D01*
X141014205Y-65620624D01*
X160614205Y-65620624D01*
X180255597Y-65620624D01*
X180322636Y-65640309D01*
G37*
%TD.AperFunction*%
%TD*%
M02*
